<svg height="512pt" viewBox="-53 0 512 512" width="512pt" xmlns="http://www.w3.org/2000/svg"><path d="m223.648438 64.679688c-4.246094 0-7.691407-3.445313-7.691407-7.691407 0-7.5625-6.152343-13.714843-13.714843-13.714843s-13.714844 6.152343-13.714844 13.714843c0 4.246094-3.445313 7.691407-7.691406 7.691407-4.246094 0-7.691407-3.445313-7.691407-7.691407 0-16.042969 13.054688-29.09375 29.097657-29.09375 16.042968 0 29.097656 13.050781 29.097656 29.09375 0 4.246094-3.445313 7.691407-7.691406 7.691407zm0 0" fill="#d0cfd1"/><path d="m251.539062 64.679688c-4.246093 0-7.691406-3.445313-7.691406-7.691407 0-22.941406-18.664062-41.609375-41.605468-41.609375-22.945313 0-41.609376 18.667969-41.609376 41.609375 0 4.246094-3.445312 7.691407-7.691406 7.691407s-7.691406-3.445313-7.691406-7.691407c0-31.421875 25.566406-56.988281 56.992188-56.988281 31.421874 0 56.988281 25.566406 56.988281 56.988281 0 4.246094-3.445313 7.691407-7.691407 7.691407zm0 0" fill="#d0cfd1"/><path d="m85.472656 174.140625h-39.964844c-4.25 0-7.691406 3.441406-7.691406 7.6875v322.480469c0 4.25 3.441406 7.691406 7.691406 7.691406h39.964844c4.246094 0 7.691406-3.441406 7.691406-7.691406v-322.480469c0-4.246094-3.441406-7.6875-7.691406-7.6875zm0 0" fill="#d0cfd1"/><path d="m365.078125 174.140625h-39.96875c-4.246094 0-7.691406 3.441406-7.691406 7.6875v322.480469c0 4.25 3.445312 7.691406 7.691406 7.691406h39.964844c4.25 0 7.691406-3.441406 7.691406-7.691406v-322.480469c0-4.246094-3.441406-7.6875-7.6875-7.6875zm0 0" fill="#d0cfd1"/><path d="m85.472656 174.140625h-24.605468c4.246093 0 7.6875 3.441406 7.6875 7.6875v322.480469c0 4.25-3.441407 7.691406-7.6875 7.691406h24.605468c4.25 0 7.691406-3.441406 7.691406-7.691406v-322.480469c0-4.246094-3.441406-7.6875-7.691406-7.6875zm0 0" fill="#9c9b9d"/><path d="m365.078125 174.140625h-24.609375c4.246094 0 7.691406 3.441406 7.691406 7.6875v322.480469c0 4.25-3.445312 7.691406-7.691406 7.691406h24.609375c4.246094 0 7.6875-3.441406 7.6875-7.691406v-322.480469c0-4.246094-3.441406-7.6875-7.6875-7.6875zm0 0" fill="#9c9b9d"/><path d="m397.734375 78.785156h-346.269531c-27.859375 0-50.523438 22.664063-50.523438 50.523438v52.519531c0 4.246094 3.441406 7.691406 7.691406 7.691406h389.101563c4.246094 0 7.691406-3.445312 7.691406-7.691406v-95.351563c0-4.246093-3.445312-7.691406-7.691406-7.691406zm0 0" fill="#4890e3"/><path d="m397.734375 220.441406h-389.101563c-4.246093 0-7.691406 3.445313-7.691406 7.691406v95.351563c0 4.25 3.445313 7.691406 7.691406 7.691406h389.101563c4.246094 0 7.691406-3.441406 7.691406-7.691406v-95.351563c0-4.246093-3.445312-7.691406-7.691406-7.691406zm0 0" fill="#4890e3"/><path d="m396.792969 362.101562h-389.101563c-4.25 0-7.691406 3.441407-7.691406 7.6875v95.355469c0 4.246094 3.441406 7.6875 7.691406 7.6875h356.207032c22.378906 0 40.585937-18.203125 40.585937-40.582031v-62.460938c0-4.246093-3.445313-7.6875-7.691406-7.6875zm0 0" fill="#4890e3"/><g fill="#2970d6"><path d="m397.734375 78.785156h-25.632813c4.246094 0 7.6875 3.445313 7.6875 7.691406v95.351563c0 4.246094-3.441406 7.691406-7.6875 7.691406h25.632813c4.246094 0 7.691406-3.445312 7.691406-7.691406v-95.351563c0-4.246093-3.445312-7.691406-7.691406-7.691406zm0 0"/><path d="m397.734375 220.441406h-25.632813c4.246094 0 7.6875 3.445313 7.6875 7.691406v95.351563c0 4.25-3.441406 7.691406-7.6875 7.691406h25.632813c4.246094 0 7.691406-3.441406 7.691406-7.691406v-95.351563c0-4.246093-3.445312-7.691406-7.691406-7.691406zm0 0"/><path d="m396.792969 362.101562h-25.632813c4.246094 0 7.691406 3.441407 7.691406 7.6875v62.460938c0 22.378906-18.207031 40.582031-40.585937 40.582031h25.632813c22.378906 0 40.585937-18.203125 40.585937-40.582031v-62.460938c0-4.246093-3.445313-7.6875-7.691406-7.6875zm0 0"/><path d="m369.023438 134.152344c0 6.609375-5.355469 11.964844-11.964844 11.964844s-11.964844-5.355469-11.964844-11.964844 5.355469-11.964844 11.964844-11.964844 11.964844 5.355469 11.964844 11.964844zm0 0"/><path d="m321.410156 134.152344c0 6.609375-5.355468 11.964844-11.964844 11.964844-6.609374 0-11.964843-5.355469-11.964843-11.964844s5.355469-11.964844 11.964843-11.964844c6.609376 0 11.964844 5.355469 11.964844 11.964844zm0 0"/><path d="m273.796875 134.152344c0 6.609375-5.355469 11.964844-11.964844 11.964844s-11.964843-5.355469-11.964843-11.964844 5.355468-11.964844 11.964843-11.964844 11.964844 5.355469 11.964844 11.964844zm0 0"/><path d="m369.023438 417.464844c0 6.609375-5.355469 11.96875-11.964844 11.96875s-11.964844-5.359375-11.964844-11.96875c0-6.605469 5.355469-11.964844 11.964844-11.964844s11.964844 5.359375 11.964844 11.964844zm0 0"/><path d="m321.410156 417.464844c0 6.609375-5.355468 11.96875-11.964844 11.96875-6.609374 0-11.964843-5.359375-11.964843-11.96875 0-6.605469 5.355469-11.964844 11.964843-11.964844 6.609376 0 11.964844 5.359375 11.964844 11.964844zm0 0"/><path d="m273.796875 417.464844c0 6.609375-5.355469 11.96875-11.964844 11.96875s-11.964843-5.359375-11.964843-11.96875c0-6.605469 5.355468-11.964844 11.964843-11.964844s11.964844 5.359375 11.964844 11.964844zm0 0"/><path d="m262.761719 275.808594c0 6.609375-5.355469 11.96875-11.964844 11.96875s-11.964844-5.359375-11.964844-11.96875c0-6.605469 5.355469-11.964844 11.964844-11.964844s11.964844 5.359375 11.964844 11.964844zm0 0"/><path d="m215.148438 275.808594c0 6.609375-5.355469 11.96875-11.964844 11.96875s-11.964844-5.359375-11.964844-11.96875c0-6.605469 5.355469-11.964844 11.964844-11.964844s11.964844 5.359375 11.964844 11.964844zm0 0"/><path d="m167.535156 275.808594c0 6.609375-5.359375 11.96875-11.964844 11.96875-6.609374 0-11.96875-5.359375-11.96875-11.96875 0-6.605469 5.359376-11.964844 11.96875-11.964844 6.605469 0 11.964844 5.359375 11.964844 11.964844zm0 0"/></g></svg>