<svg height="512pt" viewBox="0 -1 512 512" width="512pt" xmlns="http://www.w3.org/2000/svg"><path d="m112.824219 197.300781c-4.160157 0-7.535157-3.375-7.535157-7.535156v-82.375c0-26.308594 21.40625-47.714844 47.714844-47.714844h94.867188c4.160156 0 7.535156 3.375 7.535156 7.535157 0 4.160156-3.375 7.535156-7.535156 7.535156h-94.867188c-18 0-32.648437 14.644531-32.648437 32.644531v82.375c0 4.160156-3.371094 7.535156-7.53125 7.535156zm0 0" fill="#d0cfd1"/><path d="m343.933594 423.703125h-121.273438c-4.160156 0-7.535156-3.375-7.535156-7.535156 0-4.160157 3.375-7.535157 7.535156-7.535157h121.273438c5.921875 0 14.519531-12.71875 14.519531-32.648437v-86.347656c0-4.160157 3.375-7.53125 7.535156-7.53125 4.160157 0 7.535157 3.371093 7.535157 7.53125v86.347656c0 26.757813-13 47.71875-29.589844 47.71875zm0 0" fill="#d0cfd1"/><path d="m504.464844 145.65625c0 76.28125-61.835938 138.117188-138.121094 138.117188-76.28125 0-138.117188-61.835938-138.117188-138.117188 0-76.285156 61.835938-138.121094 138.117188-138.121094 76.285156 0 138.121094 61.835938 138.121094 138.121094zm0 0" fill="#4890e3"/><path d="m366.34375 7.535156c-4.234375 0-8.417969.199219-12.554688.574219 70.394532 6.34375 125.5625 65.496094 125.5625 137.546875 0 72.046875-55.167968 131.199219-125.5625 137.546875 4.136719.371094 8.320313.574219 12.554688.574219 76.285156 0 138.121094-61.839844 138.121094-138.121094s-61.839844-138.121094-138.121094-138.121094zm0 0" fill="#2970d6"/><path d="m366.34375 0c-80.3125 0-145.652344 65.339844-145.652344 145.65625 0 80.3125 65.339844 145.652344 145.652344 145.652344 80.316406 0 145.65625-65.339844 145.65625-145.652344 0-80.316406-65.339844-145.65625-145.65625-145.65625zm0 276.242188c-9.425781 0-19.769531-13.25-27.671875-35.449219-4.527344-12.703125-8.027344-27.554688-10.394531-43.753907 12.257812 1.132813 25.027344 1.730469 38.066406 1.730469 13.042969 0 25.8125-.597656 38.066406-1.730469-2.367187 16.199219-5.867187 31.050782-10.390625 43.753907-7.902343 22.195312-18.246093 35.449219-27.675781 35.449219zm0-92.542969c-14.3125 0-27.648438-.695313-39.90625-1.925781-1.132812-11.609376-1.734375-23.722657-1.734375-36.117188 0-12.398438.597656-24.511719 1.734375-36.117188 12.257812-1.230468 25.589844-1.929687 39.90625-1.929687s27.648438.695313 39.90625 1.929687c1.136719 11.605469 1.734375 23.71875 1.734375 36.117188 0 12.394531-.597656 24.507812-1.734375 36.117188-12.257812 1.230468-25.589844 1.925781-39.90625 1.925781zm-55.160156-3.804688c-47.71875-7.019531-75.425782-22.375-75.425782-34.238281s27.707032-27.222656 75.425782-34.242188c-1.027344 11.308594-1.546875 22.832032-1.546875 34.242188s.519531 22.933594 1.546875 34.238281zm55.160156-164.828125c9.429688 0 19.773438 13.253906 27.675781 35.449219 4.523438 12.707031 8.027344 27.554687 10.390625 43.753906-12.253906-1.128906-25.023437-1.726562-38.0625-1.726562-13.042968 0-25.8125.597656-38.066406 1.726562 2.367188-16.199219 5.867188-31.046875 10.390625-43.753906 7.902344-22.195313 18.246094-35.449219 27.671875-35.449219zm55.164062 96.347656c47.71875 7.019532 75.425782 22.378907 75.425782 34.242188 0 11.859375-27.707032 27.21875-75.425782 34.238281 1.023438-11.304687 1.546876-22.832031 1.546876-34.238281 0-11.410156-.523438-22.933594-1.546876-34.242188zm72.695313 7.632813c-6.691406-4.429687-15.714844-8.777344-27.832031-12.777344-13.582032-4.480469-29.402344-7.9375-46.59375-10.265625-4.269532-31.636718-12.65625-60.191406-24.871094-77.78125 49.769531 11.148438 88.898438 50.78125 99.296875 100.824219zm-156.417969-100.824219c-12.214844 17.589844-20.605468 46.144532-24.871094 77.78125-17.191406 2.328125-33.011718 5.785156-46.597656 10.265625-12.113281 4-21.140625 8.347657-27.828125 12.777344 10.398438-50.042969 49.527344-89.675781 99.296875-100.824219zm-99.296875 154.039063c6.6875 4.429687 15.714844 8.777343 27.828125 12.777343 13.585938 4.484376 29.40625 7.941407 46.597656 10.265626 4.269532 31.636718 12.65625 60.195312 24.871094 77.785156-49.769531-11.148438-88.898437-50.78125-99.296875-100.828125zm156.417969 100.828125c12.214844-17.589844 20.601562-46.148438 24.871094-77.785156 17.191406-2.324219 33.011718-5.785157 46.59375-10.265626 12.113281-3.996093 21.140625-8.347656 27.832031-12.773437-10.402344 50.042969-49.53125 89.675781-99.296875 100.824219zm0 0" fill="#91bcee"/><path d="m113.101562 182.230469c-42.996093 0-77.980468 34.984375-77.980468 77.980469v66.828124c0 4.160157 3.375 7.53125 7.535156 7.53125h34.15625c4.160156 0 7.53125-3.371093 7.53125-7.53125v-66.824218c0-15.859375 12.902344-28.757813 28.761719-28.757813 15.855469 0 28.757812 12.898438 28.757812 28.757813v66.824218c0 4.160157 3.371094 7.53125 7.535157 7.53125h34.152343c4.160157 0 7.535157-3.371093 7.535157-7.53125v-66.824218c0-43-34.984376-77.984375-77.984376-77.984375zm0 0" fill="#4890e3"/><path d="m113.101562 182.230469c-4.097656 0-8.125.324219-12.054687.9375 37.296875 5.8125 65.929687 38.144531 65.929687 77.046875v66.824218c0 4.160157-3.375 7.53125-7.535156 7.53125h24.109375c4.160157 0 7.535157-3.371093 7.535157-7.53125v-66.824218c0-43-34.984376-77.984375-77.984376-77.984375zm0 0" fill="#2970d6"/><path d="m183.511719 293.390625h-140.816407c-23.542968 0-42.695312 19.152344-42.695312 42.695313v130.722656c0 23.539062 19.152344 42.691406 42.695312 42.691406h140.816407c23.542969 0 42.695312-19.152344 42.695312-42.691406v-130.722656c0-23.542969-19.152343-42.695313-42.695312-42.695313zm0 0" fill="#f9cd45"/><path d="m183.511719 293.390625h-25.113281c23.542968 0 42.695312 19.152344 42.695312 42.695313v130.722656c0 23.539062-19.152344 42.691406-42.695312 42.691406h25.113281c23.542969 0 42.695312-19.152344 42.695312-42.691406v-130.722656c0-23.542969-19.152343-42.695313-42.695312-42.695313zm0 0" fill="#f8c03c"/><path d="m113.101562 351.265625c-19.832031 0-35.964843 16.132813-35.964843 35.964844v56.863281c0 4.160156 3.375 7.535156 7.535156 7.535156h56.863281c4.160156 0 7.535156-3.375 7.535156-7.535156v-56.863281c0-19.832031-16.136718-35.964844-35.96875-35.964844zm0 0" fill="#f45a3c"/><path d="m113.101562 351.265625c-4.039062 0-7.921874.679687-11.550781 1.914063 14.179688 4.824218 24.414063 18.257812 24.414063 34.050781v56.863281c0 4.160156-3.375 7.535156-7.535156 7.535156h23.105468c4.160156 0 7.535156-3.375 7.535156-7.535156v-56.863281c0-19.832031-16.136718-35.964844-35.96875-35.964844zm0 0" fill="#e24a2a"/><path d="m359.351562 369.914062c-17.390624 0-31.535156 14.144532-31.535156 31.53125 0 17.386719 14.148438 31.535157 31.535156 31.535157 17.386719 0 31.53125-14.148438 31.53125-31.535157 0-17.386718-14.144531-31.53125-31.53125-31.53125zm0 0" fill="#f45a3c"/><path d="m359.351562 369.914062c-3.511718 0-6.890624.585938-10.046874 1.648438 12.476562 4.207031 21.488281 16.007812 21.488281 29.882812s-9.011719 25.679688-21.488281 29.882813c3.15625 1.066406 6.535156 1.652344 10.046874 1.652344 17.386719 0 31.53125-14.148438 31.53125-31.535157 0-17.386718-14.144531-31.53125-31.53125-31.53125zm0 0" fill="#e24a2a"/><path d="m124.09375 44.542969c-17.386719 0-31.535156 14.148437-31.535156 31.535156s14.148437 31.53125 31.535156 31.53125 31.53125-14.144531 31.53125-31.53125-14.144531-31.535156-31.53125-31.535156zm0 0" fill="#f45a3c"/><path d="m124.09375 44.542969c-3.511719 0-6.886719.585937-10.046875 1.652343 12.476563 4.203126 21.488281 16.007813 21.488281 29.882813s-9.011718 25.679687-21.488281 29.882813c3.160156 1.066406 6.535156 1.652343 10.046875 1.652343 17.386719 0 31.53125-14.148437 31.53125-31.535156s-14.144531-31.535156-31.53125-31.535156zm0 0" fill="#e24a2a"/></svg>