<svg height="512pt" viewBox="-14 0 512 512" width="512pt" xmlns="http://www.w3.org/2000/svg"><path d="m245.597656 407.105469h-101.851562c-4.203125 0-7.613282 3.410156-7.613282 7.613281v61.5625c0 4.203125 3.410157 7.613281 7.613282 7.613281h101.851562c4.207032 0 7.613282-3.410156 7.613282-7.613281v-61.5625c0-4.203125-3.40625-7.613281-7.613282-7.613281zm0 0" fill="#d0cfd1"/><path d="m245.597656 407.105469h-23.34375c4.207032 0 7.613282 3.410156 7.613282 7.613281v61.5625c0 4.203125-3.40625 7.613281-7.613282 7.613281h23.34375c4.207032 0 7.613282-3.410156 7.613282-7.613281v-61.5625c0-4.203125-3.40625-7.613281-7.613282-7.613281zm0 0" fill="#b0afb1"/><path d="m435.945312 98.257812c.046876-1.179687.066407-2.351562.066407-3.511718 0-52.242188-42.5-94.746094-94.746094-94.746094-21.535156 0-42.621094 7.421875-59.367187 20.902344-14.164063 11.40625-24.796876 26.742187-30.519532 43.84375-3.316406-.917969-6.753906-1.394532-10.222656-1.394532-15.84375 0-29.648438 9.519532-35.414062 23.78125h-1.71875c-50.355469 0-91.320313 40.964844-91.320313 91.320313s40.964844 91.324219 91.320313 91.324219h188.378906c50.351562 0 91.320312-40.96875 91.320312-91.324219 0-33.3125-18.589844-64.242187-47.777344-80.195313zm0 0" fill="#4890e3"/><path d="m435.945312 98.257812c.046876-1.179687.066407-2.351562.066407-3.511718 0-52.242188-42.5-94.746094-94.746094-94.746094-3.890625 0-7.765625.25-11.601563.726562 46.722657 5.800782 83.003907 45.75 83.003907 94.019532 0 1.160156-.019531 2.332031-.066407 3.511718 29.1875 15.953126 47.777344 46.882813 47.777344 80.199219 0 50.355469-40.96875 91.320313-91.324218 91.320313h23.347656c50.351562 0 91.320312-40.964844 91.320312-91.320313 0-33.316406-18.589844-64.246093-47.777344-80.199219zm0 0" fill="#2970d6"/><path d="m351.152344 156.691406h-312.960938c-21.058594 0-38.191406 17.128906-38.191406 38.191406v213.289063c0 21.0625 17.132812 38.191406 38.191406 38.191406h312.960938c21.058594 0 38.191406-17.128906 38.191406-38.191406v-213.289063c0-21.058593-17.132812-38.191406-38.191406-38.191406zm0 0" fill="#d0cfd1"/><path d="m351.152344 156.691406h-23.34375c21.058594 0 38.191406 17.128906 38.191406 38.191406v213.289063c0 21.0625-17.132812 38.191406-38.191406 38.191406h23.34375c21.058594 0 38.191406-17.128906 38.191406-38.191406v-213.289063c0-21.058593-17.132812-38.191406-38.191406-38.191406zm0 0" fill="#b0afb1"/><path d="m389.34375 211.003906v-16.121094c0-21.0625-17.132812-38.191406-38.191406-38.191406h-312.960938c-21.058594 0-38.191406 17.128906-38.191406 38.191406v16.121094zm0 0" fill="#fff4f1"/><path d="m351.152344 156.691406h-23.34375c21.058594 0 38.191406 17.128906 38.191406 38.191406v16.121094h23.34375v-16.121094c0-21.058593-17.132812-38.191406-38.191406-38.191406zm0 0" fill="#ecedef"/><path d="m0 392.054688v16.121093c0 21.058594 17.132812 38.191407 38.191406 38.191407h312.960938c21.058594 0 38.191406-17.132813 38.191406-38.191407v-16.121093zm0 0" fill="#fff4f1"/><path d="m366 408.171875c0 21.0625-17.132812 38.191406-38.191406 38.191406h23.34375c18.425781 0 33.847656-13.117187 37.414062-30.503906.507813-2.484375.777344-5.054687.777344-7.6875v-16.121094h-23.34375zm0 0" fill="#ecedef"/><path d="m283.882812 475.230469c-4.238281-4.355469-10.320312-6.5625-18.078124-6.5625h-142.183594c-7.941406 0-14.125 2.238281-18.378906 6.652343-6.792969 7.046876-6.417969 17.320313-6.167969 24.121094.0625 1.726563.121093 3.351563.050781 4.460938-.132812 2.101562.609375 4.160156 2.046875 5.695312 1.4375 1.53125 3.445313 2.402344 5.550781 2.402344h175.980469c2.101563 0 4.113281-.871094 5.550781-2.40625 1.4375-1.53125 2.179688-3.59375 2.046875-5.691406-.070312-1.09375-.03125-2.667969.011719-4.332032.179688-6.882812.453125-17.277343-6.429688-24.339843zm0 0" fill="#9c9b9d"/><path d="m283.882812 475.230469c-4.238281-4.355469-10.320312-6.5625-18.078124-6.5625h-23.34375c7.753906 0 13.835937 2.207031 18.078124 6.5625 6.882813 7.0625 6.609376 17.457031 6.429688 24.339843-.042969 1.664063-.085938 3.238282-.015625 4.332032.136719 2.097656-.605469 4.160156-2.042969 5.691406-1.441406 1.535156-3.449218 2.40625-5.554687 2.40625h23.34375c2.105469 0 4.113281-.871094 5.554687-2.40625 1.4375-1.53125 2.179688-3.59375 2.042969-5.691406-.066406-1.09375-.027344-2.667969.015625-4.332032.179688-6.882812.453125-17.277343-6.429688-24.339843zm0 0" fill="#919091"/><g fill="#646464"><path d="m95.78125 304.636719h-25.539062c-4.203126 0-7.609376-3.410157-7.609376-7.613281 0-4.203126 3.40625-7.613282 7.609376-7.613282h25.539062c4.207031 0 7.613281 3.410156 7.613281 7.613282 0 4.203124-3.40625 7.613281-7.613281 7.613281zm0 0"/><path d="m170.851562 304.636719h-25.539062c-4.203125 0-7.613281-3.410157-7.613281-7.613281 0-4.203126 3.410156-7.613282 7.613281-7.613282h25.539062c4.203126 0 7.613282 3.410156 7.613282 7.613282 0 4.203124-3.410156 7.613281-7.613282 7.613281zm0 0"/><path d="m245.921875 304.636719h-25.539063c-4.207031 0-7.613281-3.410157-7.613281-7.613281 0-4.203126 3.40625-7.613282 7.613281-7.613282h25.539063c4.203125 0 7.609375 3.410156 7.609375 7.613282 0 4.203124-3.40625 7.613281-7.609375 7.613281zm0 0"/><path d="m318.675781 304.636719h-25.539062c-4.203125 0-7.613281-3.410157-7.613281-7.613281 0-4.203126 3.410156-7.613282 7.613281-7.613282h25.539062c4.207031 0 7.613281 3.410156 7.613281 7.613282 0 4.203124-3.40625 7.613281-7.613281 7.613281zm0 0"/></g><path d="m271.085938 268.644531c-15.648438 0-28.378907 12.730469-28.378907 28.378907 0 15.648437 12.730469 28.378906 28.378907 28.378906 15.648437 0 28.378906-12.730469 28.378906-28.378906 0-15.648438-12.730469-28.378907-28.378906-28.378907zm0 0" fill="#f45a3c"/><path d="m120.949219 268.644531c-15.648438 0-28.382813 12.730469-28.382813 28.378907 0 15.648437 12.734375 28.378906 28.382813 28.378906 15.648437 0 28.378906-12.730469 28.378906-28.378906 0-15.648438-12.730469-28.378907-28.378906-28.378907zm0 0" fill="#f45a3c"/><path d="m196.015625 268.644531c-15.648437 0-28.378906 12.730469-28.378906 28.378907 0 15.648437 12.730469 28.378906 28.378906 28.378906s28.382813-12.730469 28.382813-28.378906c0-15.648438-12.734376-28.378907-28.382813-28.378907zm0 0" fill="#f45a3c"/><path d="m271.085938 268.644531c-3.574219 0-6.996094.671875-10.148438 1.882813 10.648438 4.09375 18.230469 14.421875 18.230469 26.496094 0 12.074218-7.582031 22.402343-18.230469 26.496093 3.152344 1.210938 6.574219 1.882813 10.148438 1.882813 15.648437 0 28.378906-12.730469 28.378906-28.378906 0-15.648438-12.730469-28.378907-28.378906-28.378907zm0 0" fill="#e24a2a"/><path d="m120.949219 268.644531c-3.578125 0-6.996094.671875-10.152344 1.882813 10.652344 4.09375 18.230469 14.421875 18.230469 26.496094 0 12.074218-7.578125 22.402343-18.230469 26.496093 3.15625 1.210938 6.574219 1.882813 10.152344 1.882813 15.648437 0 28.378906-12.730469 28.378906-28.378906 0-15.648438-12.730469-28.378907-28.378906-28.378907zm0 0" fill="#e24a2a"/><path d="m196.015625 268.644531c-3.574219 0-6.992187.671875-10.148437 1.882813 10.648437 4.09375 18.230468 14.425781 18.230468 26.496094 0 12.070312-7.582031 22.402343-18.230468 26.496093 3.152343 1.210938 6.574218 1.882813 10.148437 1.882813 15.648437 0 28.382813-12.730469 28.382813-28.378906 0-15.648438-12.734376-28.378907-28.382813-28.378907zm0 0" fill="#e24a2a"/></svg>