<svg height="512pt" viewBox="-60 0 512 512" width="512pt" xmlns="http://www.w3.org/2000/svg"><path d="m357.800781 70.398438c.007813-.375.011719-.746094.011719-1.117188 0-38.203125-31.082031-69.28125-69.28125-69.28125-29.511719 0-55.144531 18.246094-65.035156 45.300781-1.859375-.367187-3.761719-.554687-5.671875-.554687-11.621094 0-21.808594 6.660156-26.5625 16.796875-36.710938.183593-66.527344 30.105469-66.527344 66.863281 0 36.867188 29.992187 66.863281 66.863281 66.863281h133.046875c36.871094 0 66.863281-29.996093 66.863281-66.863281 0-23.910156-13.070312-46.136719-33.707031-58.007812zm0 0" fill="#4890e3"/><path d="m357.800781 70.398438c.007813-.375.011719-.746094.011719-1.117188 0-38.203125-31.082031-69.28125-69.28125-69.28125-4.066406 0-8.050781.359375-11.9375 1.027344 32.597656 5.617187 57.480469 34.074218 57.480469 68.253906 0 .371094-.003907.742188-.007813 1.117188 20.632813 11.871093 33.707032 34.097656 33.707032 58.003906 0 36.871094-29.996094 66.863281-66.863282 66.863281h23.734375c36.867188 0 66.863281-29.992187 66.863281-66.863281 0-23.90625-13.070312-46.132813-33.707031-58.003906zm0 0" fill="#2970d6"/><path d="m124.304688 59.992188h-113.726563c-4.277344 0-7.742187 3.464843-7.742187 7.738281v180.28125c0 4.277343 3.464843 7.742187 7.742187 7.742187h113.726563c4.273437 0 7.738281-3.464844 7.738281-7.742187v-180.28125c0-4.273438-3.464844-7.738281-7.738281-7.738281zm0 0" fill="#f8c03c"/><path d="m124.304688 59.992188h-23.738282c4.277344 0 7.742188 3.464843 7.742188 7.738281v180.28125c0 4.277343-3.464844 7.742187-7.742188 7.742187h23.738282c4.273437 0 7.738281-3.464844 7.738281-7.742187v-180.28125c0-4.273438-3.464844-7.738281-7.738281-7.738281zm0 0" fill="#ba902d"/><path d="m259.136719 108.605469h-248.558594c-4.277344 0-7.742187 3.464843-7.742187 7.738281v180.285156c0 4.273438 3.464843 7.738282 7.742187 7.738282h248.558594c4.277343 0 7.742187-3.464844 7.742187-7.738282v-180.285156c0-4.273438-3.464844-7.738281-7.742187-7.738281zm0 0" fill="#f9cd45"/><path d="m259.136719 108.605469h-23.734375c4.277344 0 7.738281 3.464843 7.738281 7.738281v180.285156c0 4.273438-3.460937 7.738282-7.738281 7.738282h23.734375c4.277343 0 7.742187-3.464844 7.742187-7.738282v-180.285156c0-4.273438-3.464844-7.738281-7.742187-7.738281zm0 0" fill="#f8c03c"/><path d="m156.933594 238.96875c-4.277344 0-7.742188-3.464844-7.742188-7.738281 0-11.734375-9.546875-21.28125-21.28125-21.28125s-21.28125 9.546875-21.28125 21.28125c0 4.273437-3.464844 7.738281-7.742187 7.738281-4.273438 0-7.738281-3.464844-7.738281-7.738281 0-20.273438 16.488281-36.761719 36.761718-36.761719 20.269532 0 36.761719 16.488281 36.761719 36.761719 0 4.273437-3.464844 7.738281-7.738281 7.738281zm0 0" fill="#fff4f1"/><path d="m194.75 238.96875c-4.277344 0-7.742188-3.464844-7.742188-7.738281 0-32.585938-26.511718-59.097657-59.097656-59.097657-32.589844 0-59.097656 26.507813-59.097656 59.097657 0 4.273437-3.464844 7.738281-7.742188 7.738281-4.273437 0-7.738281-3.464844-7.738281-7.738281 0-41.121094 33.457031-74.578125 74.578125-74.578125s74.578125 33.453125 74.578125 74.578125c0 4.273437-3.464843 7.738281-7.738281 7.738281zm0 0" fill="#fff4f1"/><path d="m313.664062 226.667969h-111.085937c-20.914063 0-37.925781 17.011719-37.925781 37.925781l20.640625 101.980469-20.640625 102.730469v4.765624c0 20.914063 17.011718 37.929688 37.925781 37.929688h111.085937c20.914063 0 37.925782-17.015625 37.925782-37.929688v-4.765624l-10.320313-99.972657 10.320313-104.738281c0-20.914062-17.015625-37.925781-37.925782-37.925781zm0 0" fill="#f45a3c"/><path d="m164.652344 265.738281h186.9375v203.566407h-186.9375zm0 0" fill="#fff4f1"/><path d="m351.589844 264.59375c0-20.914062-17.015625-37.925781-37.925782-37.925781h-23.738281c20.914063 0 37.929688 17.011719 37.929688 37.925781l-.113281 1.144531h.113281v208.335938c0 20.910156-17.015625 37.925781-37.929688 37.925781h23.738281c20.910157 0 37.925782-17.015625 37.925782-37.925781v-4.769531l-10.320313-99.972657zm0 0" fill="#e24a2a"/><path d="m164.652344 265.738281h186.9375v203.566407h-186.9375zm0 0" fill="#fff4f1"/><path d="m327.855469 265.738281h23.734375v203.566407h-23.734375zm0 0" fill="#ecedef"/><path d="m60.863281 445.988281c-3.332031 0-6.410156-2.171875-7.414062-5.53125-1.222657-4.09375 1.109375-8.40625 5.207031-9.628906l8.363281-2.496094c-14.839843-6.800781-28.058593-16.691406-38.976562-29.269531-15.980469-18.40625-25.929688-41.855469-28.0156252-66.023438-.3632818-4.257812 2.7890622-8.007812 7.0468752-8.375 4.273437-.371093 8.011719 2.785157 8.378906 7.046876 1.804687 20.929687 10.429687 41.246093 24.28125 57.203124 14.3125 16.492188 33.199219 27.652344 54.613281 32.269532 3.457032.742187 5.964844 3.734375 6.105469 7.265625.136719 3.53125-2.136719 6.707031-5.523437 7.714843l-31.851563 9.5c-.734375.21875-1.480469.324219-2.214844.324219zm0 0" fill="#d0cfd1"/><g fill="#4890e3"><path d="m313.679688 285.792969h-111.117188c-4.273438 0-7.738281 3.464843-7.738281 7.738281v31.851562c0 4.273438 3.464843 7.742188 7.738281 7.742188h111.117188c4.273437 0 7.738281-3.46875 7.738281-7.742188v-31.851562c0-4.273438-3.464844-7.738281-7.738281-7.738281zm0 0"/><path d="m313.679688 342.90625h-111.117188c-4.273438 0-7.738281 3.46875-7.738281 7.742188v31.851562c0 4.273438 3.464843 7.738281 7.738281 7.738281h111.117188c4.273437 0 7.738281-3.464843 7.738281-7.738281v-31.851562c0-4.273438-3.464844-7.742188-7.738281-7.742188zm0 0"/><path d="m313.679688 400.023438h-111.117188c-4.273438 0-7.738281 3.464843-7.738281 7.742187v31.851563c0 4.273437 3.464843 7.738281 7.738281 7.738281h111.117188c4.273437 0 7.738281-3.464844 7.738281-7.738281v-31.851563c0-4.277344-3.464844-7.742187-7.738281-7.742187zm0 0"/></g></svg>