<svg height="512pt" viewBox="0 -21 512 512" width="512pt" xmlns="http://www.w3.org/2000/svg"><path d="m256 400.703125c-4.140625 0-7.5-3.359375-7.5-7.5v-33.246094c0-4.144531 3.359375-7.5 7.5-7.5s7.5 3.355469 7.5 7.5v33.246094c0 4.140625-3.359375 7.5-7.5 7.5zm0 0" fill="#d0cfd1"/><path d="m511.984375 408.230469c-.148437-4.007813-3.4375-7.214844-7.484375-7.214844h-497c-4.046875 0-7.335938 3.207031-7.484375 7.214844h-.015625v38.53125h.015625c.148437 4.011719 3.4375 7.21875 7.484375 7.21875h497c4.046875 0 7.335938-3.207031 7.484375-7.21875h.015625v-38.53125zm0 0" fill="#4890e3"/><path d="m402.410156 35.609375c-.285156-2.148437-1.480468-4.070313-3.289062-5.269531-1.804688-1.195313-4.039063-1.558594-6.128906-.984375-5.785157 1.585937-11.777344 2.390625-17.816407 2.390625-21.839843 0-42.40625-10.679688-55.003906-28.566406-1.40625-1.992188-3.695313-3.179688-6.132813-3.179688h-115.667968c-2.4375 0-4.726563 1.1875-6.128906 3.179688-12.601563 17.886718-33.167969 28.566406-55.007813 28.566406-6.167969 0-12.28125-.835938-18.171875-2.484375-2.09375-.585938-4.335938-.234375-6.152344.960937-1.8125 1.195313-3.019531 3.121094-3.304687 5.273438-1.886719 14.25-2.84375 28.902344-2.84375 43.554687 0 48.839844 7.625 92.988281 22.667969 131.222657 12.105468 30.78125 29.011718 57.804687 50.246093 80.324218 36.34375 38.546875 72.519531 50.429688 74.039063 50.914063.746094.238281 1.515625.355469 2.285156.355469.773438 0 1.542969-.117188 2.285156-.355469 1.523438-.484375 37.699219-12.367188 74.042969-50.914063 21.230469-22.519531 38.136719-49.542968 50.246094-80.324218 15.039062-38.234376 22.664062-82.382813 22.664062-131.222657 0-14.609375-.953125-29.226562-2.828125-43.441406zm0 0" fill="#f9cd45"/><path d="m297.167969 3.179688c12.601562 17.886718 33.167969 28.566406 55.007812 28.566406 3.878907 0 7.738281-.335938 11.539063-.992188-17.421875-3.027344-33.179688-12.859375-43.546875-27.574218-1.402344-1.992188-3.691407-3.179688-6.128907-3.179688h-23c2.4375 0 4.726563 1.1875 6.128907 3.179688zm0 0" fill="#f8c03c"/><path d="m402.410156 35.609375c-.285156-2.148437-1.480468-4.070313-3.289062-5.269531-1.804688-1.195313-4.039063-1.558594-6.128906-.984375-4.996094 1.371093-10.144532 2.152343-15.347657 2.34375.945313 1.09375 1.574219 2.445312 1.765625 3.910156 1.875 14.214844 2.828125 28.832031 2.828125 43.441406 0 48.839844-7.625 92.988281-22.667969 131.226563-12.105468 30.777344-29.011718 57.800781-50.242187 80.320312-25.820313 27.386719-51.542969 41.304688-64.828125 47.246094 5.414062 2.421875 8.773438 3.527344 9.214844 3.667969.742187.238281 1.515625.355469 2.285156.355469s1.542969-.117188 2.285156-.355469c1.523438-.484375 37.695313-12.367188 74.042969-50.914063 21.230469-22.519531 38.136719-49.542968 50.242187-80.324218 15.042969-38.234376 22.667969-82.382813 22.667969-131.222657 0-14.609375-.953125-29.226562-2.828125-43.441406zm0 0" fill="#f8c03c"/><path d="m374.09375 69.664062c-.117188-3.8125-3.082031-6.933593-6.882812-7.242187-23.546876-1.925781-45.636719-12.285156-62.203126-29.175781-1.414062-1.4375-3.34375-2.246094-5.355468-2.246094h-86.894532c-2.015624 0-3.941406.808594-5.355468 2.246094-16.667969 16.992187-38.894532 27.363281-62.582032 29.207031-3.816406.296875-6.800781 3.417969-6.917968 7.246094-.09375 3.109375-.140625 6.257812-.140625 9.351562 0 43.9375 6.601562 83.496094 19.621093 117.570313 10.265626 26.875 24.5625 50.484375 42.496094 70.175781 21.589844 23.710937 44.097656 36.339844 52.773438 40.667969 1.050781.523437 2.199218.789062 3.347656.789062s2.292969-.265625 3.347656-.789062c8.675782-4.328125 31.183594-16.957032 52.773438-40.667969 17.929687-19.691406 32.230468-43.300781 42.496094-70.175781 13.023437-34.074219 19.621093-73.632813 19.621093-117.570313 0-3.117187-.046875-6.277343-.144531-9.386719zm0 0" fill="#00bf9e"/><path d="m374.09375 69.664062c-.117188-3.8125-3.082031-6.933593-6.882812-7.242187-23.546876-1.925781-45.636719-12.285156-62.203126-29.175781-1.414062-1.4375-3.34375-2.246094-5.355468-2.246094h-24c2.011718 0 3.941406.808594 5.355468 2.246094 16.566407 16.890625 39.65625 32.25 63.203126 34.175781 3.800781.308594 6.765624 3.429687 6.882812 7.242187.097656 3.109376.144531 6.269532.144531 9.386719 0 43.9375-7.601562 78.496094-20.621093 112.570313-10.269532 26.875-24.566407 50.484375-42.496094 70.175781-16.304688 17.902344-33.125 29.484375-44.121094 35.945313 3.566406 2.097656 6.527344 3.660156 8.648438 4.722656 1.054687.523437 2.203124.789062 3.351562.789062 1.144531 0 2.292969-.265625 3.347656-.789062 8.675782-4.328125 31.179688-16.957032 52.773438-40.667969 17.929687-19.691406 32.226562-43.300781 42.496094-70.175781 13.019531-34.074219 19.621093-73.632813 19.621093-117.570313 0-3.117187-.046875-6.277343-.144531-9.386719zm0 0" fill="#00a983"/><path d="m256 385.703125c-23.046875 0-41.792969 18.746094-41.792969 41.792969s18.746094 41.792968 41.792969 41.792968 41.792969-18.746093 41.792969-41.792968-18.746094-41.792969-41.792969-41.792969zm0 0" fill="#f45a3c"/><path d="m256 385.703125c-4.171875 0-8.195312.621094-12 1.761719 17.214844 5.171875 29.792969 21.15625 29.792969 40.03125s-12.578125 34.859375-29.792969 40.03125c3.804688 1.140625 7.828125 1.761718 12 1.761718 23.046875 0 41.792969-18.746093 41.792969-41.792968s-18.746094-41.792969-41.792969-41.792969zm0 0" fill="#e24a2a"/><path d="m336.71875 104.234375c-4.089844-4.402344-9.648438-6.953125-15.65625-7.171875-6.023438-.214844-11.738281 1.90625-16.140625 5.996094l-55.90625 51.917968-14.414063-15.625c-8.414062-9.121093-22.675781-9.695312-31.796874-1.285156-9.117188 8.410156-9.695313 22.671875-1.285157 31.792969l29.722657 32.226563c4.027343 4.363281 9.738281 6.996093 15.675781 7.226562.289062.011719.574219.015625.863281.015625 5.699219 0 11.136719-2.136719 15.3125-6.011719l72.449219-67.285156c4.40625-4.085938 6.953125-9.648438 7.175781-15.652344.222656-6.007812-1.910156-11.738281-6-16.144531zm0 0" fill="#f9cd45"/><path d="m336.71875 104.234375c-4.089844-4.402344-9.648438-6.953125-15.65625-7.171875-4.613281-.164062-9.039062 1.050781-12.839844 3.460938 1.628906 1.03125 3.148438 2.261718 4.496094 3.710937 4.089844 4.402344 6.21875 10.136719 6 16.144531-.222656 6.003906-2.773438 11.5625-7.175781 15.652344l-72.449219 67.285156c-1.023438.949219-2.125 1.789063-3.28125 2.523438 3.320312 2.082031 7.15625 3.320312 11.105469 3.472656.289062.011719.574219.015625.863281.015625 5.699219 0 11.136719-2.136719 15.3125-6.011719l72.449219-67.285156c4.40625-4.085938 6.953125-9.648438 7.175781-15.652344.222656-6.007812-1.910156-11.738281-6-16.144531zm0 0" fill="#f8c03c"/></svg>