<svg height="512pt" viewBox="0 -1 512 512" width="512pt" xmlns="http://www.w3.org/2000/svg"><path d="m176.421875 67.835938h-77.417969c-4.140625 0-7.5 3.359374-7.5 7.5v90.636718c0 4.140625 3.359375 7.5 7.5 7.5h77.417969c4.140625 0 7.5-3.359375 7.5-7.5v-90.636718c0-4.140626-3.359375-7.5-7.5-7.5zm0 0" fill="#767778"/><path d="m176.421875 67.835938h-24c4.140625 0 7.5 3.359374 7.5 7.5v90.636718c0 4.140625-3.359375 7.5-7.5 7.5h24c4.140625 0 7.5-3.359375 7.5-7.5v-90.636718c0-4.140626-3.359375-7.5-7.5-7.5zm0 0" fill="#646464"/><path d="m226.484375 0h-177.546875c-7.480469 0-13.570312 6.085938-13.570312 13.570312v116.804688c0 7.484375 6.089843 13.570312 13.570312 13.570312h177.546875c7.484375 0 13.570313-6.085937 13.570313-13.570312v-116.804688c0-7.480468-6.085938-13.570312-13.570313-13.570312zm0 0" fill="#d0cfd1"/><path d="m216.054688 13.570312v88.160157l24-3v-85.160157c0-7.480468-6.085938-13.570312-13.566407-13.570312h-24c7.480469 0 13.566407 6.089844 13.566407 13.570312zm0 0" fill="#9c9b9d"/><path d="m35.371094 98.65625v31.71875c0 7.484375 6.085937 13.570312 13.570312 13.570312h177.546875c7.480469 0 13.566407-6.085937 13.566407-13.570312v-31.71875zm0 0" fill="#fff4f1"/><path d="m216.054688 130.375c0 7.484375-6.085938 13.570312-13.566407 13.570312h24c7.480469 0 13.566407-6.085937 13.566407-13.570312v-31.71875h-24zm0 0" fill="#ecedef"/><path d="m176.421875 229.761719h-77.417969c-4.140625 0-7.5 3.359375-7.5 7.5v90.636719c0 4.140624 3.359375 7.5 7.5 7.5h77.417969c4.140625 0 7.5-3.359376 7.5-7.5v-90.636719c0-4.140625-3.359375-7.5-7.5-7.5zm0 0" fill="#767778"/><path d="m176.421875 229.761719h-24c4.140625 0 7.5 3.359375 7.5 7.5v90.636719c0 4.140624-3.359375 7.5-7.5 7.5h24c4.140625 0 7.5-3.359376 7.5-7.5v-90.636719c0-4.140625-3.359375-7.5-7.5-7.5zm0 0" fill="#646464"/><path d="m226.484375 161.925781h-177.546875c-7.480469 0-13.570312 6.089844-13.570312 13.570313v116.808594c0 7.480468 6.089843 13.566406 13.570312 13.566406h177.546875c7.484375 0 13.570313-6.085938 13.570313-13.566406v-116.808594c0-7.480469-6.085938-13.570313-13.570313-13.570313zm0 0" fill="#d0cfd1"/><path d="m216.054688 175.496094v88.160156l24-3v-85.160156c0-7.480469-6.085938-13.570313-13.566407-13.570313h-24c7.480469 0 13.566407 6.089844 13.566407 13.570313zm0 0" fill="#9c9b9d"/><path d="m35.371094 260.585938v31.71875c0 7.480468 6.085937 13.566406 13.570312 13.566406h177.546875c7.480469 0 13.566407-6.085938 13.566407-13.566406v-31.71875zm0 0" fill="#fff4f1"/><path d="m216.054688 292.300781c0 7.484375-6.085938 13.570313-13.566407 13.570313h24c7.480469 0 13.566407-6.085938 13.566407-13.570313v-31.71875h-24zm0 0" fill="#ecedef"/><path d="m412.300781 67.835938h-77.414062c-4.144531 0-7.5 3.359374-7.5 7.5v90.636718c0 4.140625 3.355469 7.5 7.5 7.5h77.414062c4.144531 0 7.5-3.359375 7.5-7.5v-90.636718c0-4.140626-3.355469-7.5-7.5-7.5zm0 0" fill="#767778"/><path d="m412.300781 67.835938h-24c4.144531 0 7.5 3.359374 7.5 7.5v90.636718c0 4.140625-3.355469 7.5-7.5 7.5h24c4.144531 0 7.5-3.359375 7.5-7.5v-90.636718c0-4.140626-3.355469-7.5-7.5-7.5zm0 0" fill="#646464"/><path d="m462.367188 0h-177.546876c-7.480468 0-13.570312 6.085938-13.570312 13.570312v116.804688c0 7.484375 6.085938 13.570312 13.570312 13.570312h177.546876c7.480468 0 13.570312-6.085937 13.570312-13.570312v-116.804688c0-7.480468-6.089844-13.570312-13.570312-13.570312zm0 0" fill="#d0cfd1"/><path d="m451.9375 13.570312v88.160157l24-3v-85.160157c0-7.480468-6.089844-13.570312-13.570312-13.570312h-24c7.480468 0 13.570312 6.089844 13.570312 13.570312zm0 0" fill="#9c9b9d"/><path d="m271.25 98.65625v31.71875c0 7.484375 6.085938 13.570312 13.570312 13.570312h177.546876c7.480468 0 13.570312-6.085937 13.570312-13.570312v-31.71875zm0 0" fill="#fff4f1"/><path d="m451.9375 130.375c0 7.484375-6.089844 13.570312-13.570312 13.570312h24c7.480468 0 13.570312-6.085937 13.570312-13.570312v-31.71875h-24zm0 0" fill="#ecedef"/><path d="m412.300781 229.761719h-77.414062c-4.144531 0-7.5 3.359375-7.5 7.5v90.636719c0 4.140624 3.355469 7.5 7.5 7.5h77.414062c4.144531 0 7.5-3.359376 7.5-7.5v-90.636719c0-4.140625-3.355469-7.5-7.5-7.5zm0 0" fill="#767778"/><path d="m412.300781 229.761719h-24c4.144531 0 7.5 3.359375 7.5 7.5v90.636719c0 4.140624-3.355469 7.5-7.5 7.5h24c4.144531 0 7.5-3.359376 7.5-7.5v-90.636719c0-4.140625-3.355469-7.5-7.5-7.5zm0 0" fill="#646464"/><path d="m462.367188 161.925781h-177.546876c-7.480468 0-13.570312 6.089844-13.570312 13.570313v116.808594c0 7.480468 6.085938 13.566406 13.570312 13.566406h177.546876c7.480468 0 13.570312-6.085938 13.570312-13.566406v-116.808594c0-7.480469-6.089844-13.570313-13.570312-13.570313zm0 0" fill="#d0cfd1"/><path d="m451.9375 175.496094v88.160156l24-3v-85.160156c0-7.480469-6.089844-13.570313-13.570312-13.570313h-24c7.480468 0 13.570312 6.089844 13.570312 13.570313zm0 0" fill="#9c9b9d"/><path d="m271.25 260.585938v31.71875c0 7.480468 6.085938 13.566406 13.570312 13.566406h177.546876c7.480468 0 13.570312-6.085938 13.570312-13.566406v-31.71875zm0 0" fill="#fff4f1"/><path d="m451.9375 292.300781c0 7.484375-6.089844 13.570313-13.570312 13.570313h24c7.480468 0 13.570312-6.085938 13.570312-13.570313v-31.71875h-24zm0 0" fill="#ecedef"/><path d="m469.132812 411.339844h-426.261718c-4.144532 0-7.5 3.359375-7.5 7.5v83.515625c0 4.140625 3.355468 7.5 7.5 7.5h426.261718c4.140626 0 7.5-3.359375 7.5-7.5v-83.515625c0-4.140625-3.359374-7.5-7.5-7.5zm0 0" fill="#646464"/><path d="m469.132812 411.339844h-24c4.140626 0 7.5 3.359375 7.5 7.5v83.515625c0 4.140625-3.359374 7.5-7.5 7.5h24c4.140626 0 7.5-3.359375 7.5-7.5v-83.515625c0-4.140625-3.359374-7.5-7.5-7.5zm0 0" fill="#4b4b4b"/><path d="m93.066406 432.097656c-15.714844 0-28.5 12.785156-28.5 28.5s12.785156 28.5 28.5 28.5 28.5-12.785156 28.5-28.5-12.785156-28.5-28.5-28.5zm0 0" fill="#f45a3c"/><path d="m159.921875 432.097656c-15.714844 0-28.5 12.785156-28.5 28.5s12.785156 28.5 28.5 28.5 28.5-12.785156 28.5-28.5-12.785156-28.5-28.5-28.5zm0 0" fill="#4890e3"/><path d="m226.621094 432.097656c-15.714844 0-28.5 12.785156-28.5 28.5s12.785156 28.5 28.5 28.5 28.5-12.785156 28.5-28.5-12.785156-28.5-28.5-28.5zm0 0" fill="#f9cd45"/><path d="m93.066406 432.097656c-4.285156 0-8.351562.957032-12 2.660156 9.734375 4.539063 16.5 14.410157 16.5 25.839844 0 11.425782-6.765625 21.300782-16.5 25.839844 3.648438 1.703125 7.714844 2.660156 12 2.660156 15.714844 0 28.5-12.785156 28.5-28.5s-12.785156-28.5-28.5-28.5zm0 0" fill="#e24a2a"/><path d="m159.921875 432.097656c-4.285156 0-8.351563.957032-12 2.660156 9.734375 4.539063 16.5 14.410157 16.5 25.839844 0 11.425782-6.765625 21.300782-16.5 25.839844 3.648437 1.703125 7.714844 2.660156 12 2.660156 15.714844 0 28.5-12.785156 28.5-28.5s-12.785156-28.5-28.5-28.5zm0 0" fill="#2970d6"/><path d="m226.621094 432.097656c-4.285156 0-8.351563.957032-12 2.660156 9.734375 4.539063 16.5 14.410157 16.5 25.839844 0 11.425782-6.765625 21.300782-16.5 25.839844 3.648437 1.703125 7.714844 2.660156 12 2.660156 15.714844 0 28.5-12.785156 28.5-28.5s-12.785156-28.5-28.5-28.5zm0 0" fill="#f8c03c"/><path d="m459.132812 468.097656h-184.46875c-4.140624 0-7.5-3.359375-7.5-7.5 0-4.144531 3.359376-7.5 7.5-7.5h184.46875c4.140626 0 7.5 3.355469 7.5 7.5 0 4.140625-3.359374 7.5-7.5 7.5zm0 0" fill="#d0cfd1"/><path d="m504.5 383.097656h-497c-4.140625 0-7.5-3.359375-7.5-7.5 0-4.144531 3.359375-7.5 7.5-7.5h497c4.140625 0 7.5 3.355469 7.5 7.5 0 4.140625-3.359375 7.5-7.5 7.5zm0 0" fill="#d0cfd1"/><path d="m137.714844 345.886719c-16.382813 0-29.710938 13.328125-29.710938 29.710937 0 16.382813 13.328125 29.707032 29.710938 29.707032 16.378906 0 29.707031-13.324219 29.707031-29.707032 0-16.382812-13.328125-29.710937-29.707031-29.710937zm0 0" fill="#f45a3c"/><path d="m376.898438 345.886719c-16.382813 0-29.710938 13.328125-29.710938 29.710937 0 16.382813 13.328125 29.707032 29.710938 29.707032 16.378906 0 29.707031-13.324219 29.707031-29.707032 0-16.382812-13.328125-29.710937-29.707031-29.710937zm0 0" fill="#f45a3c"/><g fill="#e24a2a"><path d="m137.714844 345.886719c-4.078125 0-7.960938.828125-11.5 2.316406 10.683594 4.507813 18.207031 15.085937 18.207031 27.394531 0 12.304688-7.523437 22.886719-18.207031 27.390625 3.539062 1.492188 7.421875 2.316407 11.5 2.316407 16.378906 0 29.707031-13.324219 29.707031-29.707032 0-16.382812-13.328125-29.710937-29.707031-29.710937zm0 0"/><path d="m376.898438 345.886719c-4.078126 0-7.960938.828125-11.5 2.316406 10.6875 4.507813 18.207031 15.085937 18.207031 27.394531 0 12.304688-7.519531 22.886719-18.207031 27.390625 3.539062 1.492188 7.421874 2.316407 11.5 2.316407 16.378906 0 29.707031-13.324219 29.707031-29.707032 0-16.382812-13.328125-29.710937-29.707031-29.710937zm0 0"/></g></svg>