<svg height="512pt" viewBox="0 -38 512 512" width="512pt" xmlns="http://www.w3.org/2000/svg"><path d="m504.5 0h-497c-4.140625 0-7.5 3.359375-7.5 7.5v87.886719c0 4.144531 3.359375 7.5 7.5 7.5h497c4.144531 0 7.5-3.355469 7.5-7.5v-87.886719c0-4.140625-3.355469-7.5-7.5-7.5zm0 0" fill="#4890e3"/><path d="m504.5 0h-23c4.144531 0 7.5 3.359375 7.5 7.5v87.886719c0 4.144531-3.355469 7.5-7.5 7.5h23c4.144531 0 7.5-3.355469 7.5-7.5v-87.886719c0-4.140625-3.355469-7.5-7.5-7.5zm0 0" fill="#2970d6"/><path d="m0 132.605469v294.992187c0 4.140625 3.359375 7.5 7.5 7.5h497c4.144531 0 7.5-3.359375 7.5-7.5v-294.992187zm0 0" fill="#f9cd45"/><path d="m512 89.046875h-317.152344v-33.546875c0-4.140625-3.359375-7.5-7.5-7.5h-179.847656c-4.140625 0-7.5 3.359375-7.5 7.5v87.886719c0 4.144531 3.359375 7.5 7.5 7.5h504.5zm0 0" fill="#fff4f1"/><path d="m489 132.605469v294.992187c0 4.140625-3.355469 7.5-7.5 7.5h23c4.144531 0 7.5-3.359375 7.5-7.5v-294.992187zm0 0" fill="#f8c03c"/><path d="m489 89.046875h23v61.839844h-23zm0 0" fill="#ecedef"/><path d="m171.847656 55.5v33.546875h23v-33.546875c0-4.140625-3.359375-7.5-7.5-7.5h-23c4.140625 0 7.5 3.359375 7.5 7.5zm0 0" fill="#ecedef"/><path d="m414.0625 298.871094c-.171875-2.492188-1.570312-4.738282-3.734375-5.988282l-.855469-.492187c-1.140625-.660156-2.433594-1.003906-3.75-1.003906h-300.300781c-4.144531 0-7.5 3.355469-7.5 7.5v42.273437c0 4.140625 3.355469 7.5 7.5 7.5h192.460937v29.144532c0 2.859374 1.628907 5.472656 4.199219 6.734374 1.046875.511719 2.175781.765626 3.300781.765626 1.632813 0 3.253907-.535157 4.59375-1.574219l101.195313-78.421875c1.976563-1.53125 3.058594-3.945313 2.890625-6.4375zm0 0" fill="#f45a3c"/><path d="m406.578125 221.722656h-192.460937v-29.144531c0-2.859375-1.628907-5.472656-4.199219-6.730469-2.570313-1.261718-5.632813-.949218-7.894531.804688l-101.195313 78.425781c-1.976563 1.53125-3.058594 3.941406-2.890625 6.4375.171875 2.492187 1.570312 4.738281 3.734375 5.988281l.855469.492188c1.140625.65625 2.433594 1.003906 3.75 1.003906h300.300781c4.144531 0 7.5-3.359375 7.5-7.5v-42.273438c0-4.144531-3.355469-7.503906-7.5-7.503906zm0 0" fill="#4890e3"/><path d="m414.0625 298.871094c-.171875-2.492188-1.570312-4.738282-3.734375-5.988282l-.855469-.492187c-1.140625-.660156-2.433594-1.003906-3.75-1.003906h-24c1.316406 0 2.609375.34375 3.75 1.003906l.855469.492187c2.164063 1.25 3.5625 3.496094 3.734375 5.988282.167969 2.492187-.914062 4.90625-2.890625 6.4375l-89.289063 69.199218v3.296876c0 2.863281 1.628907 5.476562 4.199219 6.734374 1.046875.515626 2.175781.765626 3.300781.765626 1.632813 0 3.253907-.53125 4.59375-1.570313l101.195313-78.425781c1.976563-1.53125 3.058594-3.945313 2.890625-6.4375zm0 0" fill="#e24a2a"/><path d="m406.578125 221.722656h-24c4.144531 0 7.5 3.359375 7.5 7.5v42.273438c0 4.144531-3.355469 7.5-7.5 7.5h24c4.144531 0 7.5-3.355469 7.5-7.5v-42.273438c0-4.140625-3.355469-7.5-7.5-7.5zm0 0" fill="#2970d6"/><g fill="#fff4f1"><path d="m340.332031 29.945312c-11.855469 0-21.5 9.644532-21.5 21.5 0 11.855469 9.644531 21.5 21.5 21.5s21.5-9.644531 21.5-21.5c0-11.855468-9.644531-21.5-21.5-21.5zm0 0"/><path d="m397 29.945312c-11.855469 0-21.5 9.644532-21.5 21.5 0 11.855469 9.644531 21.5 21.5 21.5s21.5-9.644531 21.5-21.5c0-11.855468-9.644531-21.5-21.5-21.5zm0 0"/><path d="m453.664062 29.945312c-11.851562 0-21.5 9.644532-21.5 21.5 0 11.855469 9.648438 21.5 21.5 21.5 11.855469 0 21.5-9.644531 21.5-21.5 0-11.855468-9.644531-21.5-21.5-21.5zm0 0"/></g><path d="m340.332031 29.945312c-4.230469 0-8.167969 1.246094-11.5 3.363282 6 3.820312 10 10.511718 10 18.136718 0 7.621094-4 14.316407-10 18.132813 3.332031 2.121094 7.269531 3.367187 11.5 3.367187 11.855469 0 21.5-9.644531 21.5-21.5 0-11.855468-9.644531-21.5-21.5-21.5zm0 0" fill="#ecedef"/><path d="m397 29.945312c-4.230469 0-8.171875 1.246094-11.5 3.363282 6 3.820312 10 10.511718 10 18.136718 0 7.621094-4 14.316407-10 18.132813 3.328125 2.121094 7.269531 3.367187 11.5 3.367187 11.855469 0 21.5-9.644531 21.5-21.5 0-11.855468-9.644531-21.5-21.5-21.5zm0 0" fill="#ecedef"/><path d="m453.664062 29.945312c-4.230468 0-8.167968 1.246094-11.5 3.363282 6 3.820312 10 10.511718 10 18.136718 0 7.621094-4 14.316407-10 18.132813 3.332032 2.121094 7.269532 3.367187 11.5 3.367187 11.855469 0 21.5-9.644531 21.5-21.5 0-11.855468-9.644531-21.5-21.5-21.5zm0 0" fill="#ecedef"/></svg>