<svg height="511pt" viewBox="0 1 511 511.999" width="511pt" xmlns="http://www.w3.org/2000/svg"><path d="m283.820312 417.597656v58.628906c0 11.609376 12.390626 20.777344 36.828126 27.25 20.746093 5.496094 48.199218 8.523438 77.304687 8.523438s56.558594-3.027344 77.304687-8.523438c24.4375-6.472656 36.828126-15.640624 36.828126-27.25v-58.628906zm0 0" fill="#838383"/><path d="m403.929688 414.566406h-256.417969c-4.160157 0-7.535157-3.375-7.535157-7.539062v-278.816406c0-4.164063 3.375-7.539063 7.535157-7.539063h256.417969c4.164062 0 7.539062 3.375 7.539062 7.539063v278.816406c0 4.164062-3.375 7.539062-7.539062 7.539062zm-248.878907-15.078125h241.34375v-263.742187h-241.34375zm0 0" fill="#d0cfd1"/><path d="m146.171875 378.707031c-15.613281 0-28.320313 12.707031-28.320313 28.320313 0 15.613281 12.707032 28.316406 28.320313 28.316406s28.316406-12.703125 28.316406-28.316406c0-15.613282-12.703125-28.320313-28.316406-28.320313zm0 0" fill="#f45a3c"/><path d="m403.929688 99.890625c-15.613282 0-28.316407 12.703125-28.316407 28.316406 0 15.617188 12.703125 28.320313 28.316407 28.320313 15.617187 0 28.320312-12.703125 28.320312-28.320313 0-15.613281-12.703125-28.316406-28.320312-28.316406zm0 0" fill="#f45a3c"/><path d="m146.171875 378.707031c-4.117187 0-8.027344.890625-11.558594 2.476563 9.871094 4.429687 16.761719 14.34375 16.761719 25.84375 0 11.496094-6.890625 21.410156-16.761719 25.839844 3.53125 1.585937 7.441407 2.476562 11.558594 2.476562 15.613281 0 28.316406-12.703125 28.316406-28.316406 0-15.613282-12.703125-28.320313-28.316406-28.320313zm0 0" fill="#e24a2a"/><path d="m403.929688 99.890625c-4.113282 0-8.023438.890625-11.554688 2.476563 9.867188 4.429687 16.757812 14.34375 16.757812 25.839843 0 11.5-6.890624 21.414063-16.757812 25.84375 3.53125 1.585938 7.441406 2.476563 11.554688 2.476563 15.617187 0 28.320312-12.703125 28.320312-28.320313 0-15.613281-12.703125-28.316406-28.320312-28.316406zm0 0" fill="#e24a2a"/><path d="m283.820312 355.046875v60.269531c0 11.609375 12.390626 20.777344 36.828126 27.25 20.746093 5.496094 48.199218 8.519532 77.304687 8.519532s56.558594-3.023438 77.304687-8.519532c24.4375-6.472656 36.828126-15.640625 36.828126-27.25v-60.269531zm0 0" fill="#9c9b9d"/><path d="m283.820312 294.472656v59.929688c0 11.609375 12.390626 20.777344 36.828126 27.25 20.746093 5.496094 48.199218 8.523437 77.304687 8.523437s56.558594-3.027343 77.304687-8.523437c24.4375-6.472656 36.828126-15.640625 36.828126-27.25v-59.929688zm0 0" fill="#838383"/><path d="m475.261719 266.238281c-20.75-5.496093-48.203125-8.519531-77.308594-8.519531s-56.558594 3.023438-77.304687 8.519531c-24.4375 6.472657-36.828126 15.644531-36.828126 27.253907 0 11.609374 12.390626 20.777343 36.828126 27.25 20.746093 5.496093 48.199218 8.519531 77.304687 8.519531s56.558594-3.023438 77.308594-8.519531c24.433593-6.472657 36.824219-15.640626 36.824219-27.25 0-11.609376-12.390626-20.78125-36.824219-27.253907zm0 0" fill="#9c9b9d"/><g fill="#797575"><path d="m487.96875 417.597656v58.628906c0 11.609376-12.390625 20.777344-36.828125 27.25-17.851563 4.730469-40.679687 7.625-65.246094 8.339844 3.980469.117188 8.003907.183594 12.058594.183594 29.105469 0 56.558594-3.027344 77.308594-8.523438 24.433593-6.472656 36.824219-15.640624 36.824219-27.25v-58.628906zm0 0"/><path d="m487.96875 355.046875v60.269531c0 11.609375-12.390625 20.777344-36.828125 27.25-17.851563 4.726563-40.679687 7.621094-65.246094 8.339844 3.980469.117188 8.003907.179688 12.058594.179688 29.105469 0 56.558594-3.023438 77.308594-8.519532 24.433593-6.472656 36.824219-15.640625 36.824219-27.25v-60.269531zm0 0"/><path d="m487.96875 294.472656v59.929688c0 11.609375-12.390625 20.777344-36.828125 27.25-17.851563 4.730468-40.679687 7.625-65.246094 8.34375 3.980469.113281 8.003907.179687 12.058594.179687 29.105469 0 56.558594-3.027343 77.308594-8.523437 24.433593-6.472656 36.824219-15.640625 36.824219-27.25v-59.929688zm0 0"/><path d="m475.261719 266.238281c-20.75-5.496093-48.203125-8.519531-77.308594-8.519531-4.054687 0-8.078125.066406-12.058594.179688 24.566407.71875 47.394531 3.613281 65.246094 8.339843 24.4375 6.472657 36.828125 15.644531 36.828125 27.253907 0 11.609374-12.390625 20.777343-36.828125 27.25-17.851563 4.726562-40.679687 7.621093-65.246094 8.339843 3.980469.117188 8.003907.179688 12.058594.179688 29.105469 0 56.558594-3.023438 77.308594-8.519531 24.433593-6.472657 36.824219-15.640626 36.824219-27.25 0-11.609376-12.390626-20.78125-36.824219-27.253907zm0 0"/></g><path d="m203.660156 192.734375h-103.300781c-4.164063 0-7.539063 3.375-7.539063 7.539063v55.589843c0 4.160157 3.375 7.535157 7.539063 7.535157h103.300781c4.164063 0 7.539063-3.375 7.539063-7.535157v-55.589843c0-4.164063-3.375-7.539063-7.539063-7.539063zm0 0" fill="#9c9b9d"/><path d="m203.660156 192.734375h-24.117187c4.160156 0 7.535156 3.375 7.535156 7.539063v55.589843c0 4.160157-3.375 7.535157-7.535156 7.535157h24.117187c4.164063 0 7.539063-3.375 7.539063-7.535157v-55.589843c0-4.164063-3.375-7.539063-7.539063-7.539063zm0 0" fill="#757476"/><path d="m272.445312 0h-240.875c-17.132812 0-31.070312 13.941406-31.070312 31.070312v164.164063c0 17.136719 13.9375 31.074219 31.070312 31.074219h240.878907c17.132812 0 31.070312-13.9375 31.070312-31.074219v-164.164063c0-17.128906-13.9375-31.070312-31.074219-31.070312zm0 0" fill="#d0cfd1"/><path d="m272.445312 0h-23.113281c17.132813 0 31.074219 13.941406 31.074219 31.070312v164.164063c0 17.136719-13.941406 31.074219-31.074219 31.074219h23.113281c17.136719 0 31.074219-13.9375 31.074219-31.074219v-164.164063c0-17.128906-13.9375-31.070312-31.074219-31.070312zm0 0" fill="#9c9b9d"/><path d="m303.519531 45.671875v-14.601563c0-17.128906-13.9375-31.070312-31.074219-31.070312h-240.875c-17.132812 0-31.070312 13.941406-31.070312 31.070312v14.597657h303.019531zm0 0" fill="#fff4f1"/><path d="m272.445312 0h-23.113281c17.132813 0 31.074219 13.941406 31.074219 31.070312v14.597657h23.113281v-14.597657c0-17.128906-13.9375-31.070312-31.074219-31.070312zm0 0" fill="#ecedef"/><path d="m.5 180.636719v14.597656c0 17.132813 13.9375 31.074219 31.070312 31.074219h240.878907c17.132812 0 31.070312-13.941406 31.070312-31.074219v-14.597656zm0 0" fill="#fff4f1"/><path d="m280.40625 195.234375c0 17.136719-13.941406 31.074219-31.074219 31.074219h23.113281c2.679688 0 5.277344-.339844 7.757813-.980469 13.394531-3.453125 23.316406-15.636719 23.316406-30.09375v-14.59375h-23.113281zm0 0" fill="#ecedef"/><path d="m238.421875 248.011719h-175.957031c-9.972656 0-18.089844 8.117187-18.089844 18.089843v17.007813c0 4.164063 3.375 7.535156 7.539062 7.535156h197.0625c4.164063 0 7.535157-3.371093 7.535157-7.535156v-17.007813c0-9.972656-8.113281-18.089843-18.089844-18.089843zm0 0" fill="#d0cfd1"/><path d="m238.421875 248.011719h-24.117187c9.972656 0 18.089843 8.117187 18.089843 18.089843v17.007813c0 4.164063-3.375 7.535156-7.539062 7.535156h24.121093c4.164063 0 7.535157-3.371093 7.535157-7.535156v-17.007813c0-9.972656-8.113281-18.089843-18.089844-18.089843zm0 0" fill="#9c9b9d"/><path d="m118.03125 68.957031h-58.078125c-14.132813 0-25.625 11.496094-25.625 25.628907v33.15625c0 14.128906 11.492187 25.625 25.625 25.625h58.078125c14.132812 0 25.628906-11.496094 25.628906-25.625v-33.15625c0-14.132813-11.496094-25.628907-25.628906-25.628907zm0 0" fill="#4890e3"/><path d="m118.03125 68.957031h-24.117188c14.128907 0 25.625 11.496094 25.625 25.628907v33.15625c0 14.128906-11.496093 25.625-25.625 25.625h24.117188c14.132812 0 25.628906-11.496094 25.628906-25.625v-33.15625c0-14.132813-11.496094-25.628907-25.628906-25.628907zm0 0" fill="#2970d6"/><path d="m251.867188 84.03125h-77.609376c-4.164062 0-7.539062-3.375-7.539062-7.535156 0-4.164063 3.375-7.539063 7.539062-7.539063h77.609376c4.164062 0 7.539062 3.375 7.539062 7.539063 0 4.160156-3.375 7.535156-7.539062 7.535156zm0 0" fill="#a2a2a2"/><path d="m251.867188 114.964844h-77.609376c-4.164062 0-7.539062-3.375-7.539062-7.535156 0-4.164063 3.375-7.539063 7.539062-7.539063h77.609376c4.164062 0 7.539062 3.375 7.539062 7.539063 0 4.160156-3.375 7.535156-7.539062 7.535156zm0 0" fill="#a2a2a2"/><path d="m251.867188 145.898438h-77.609376c-4.164062 0-7.539062-3.375-7.539062-7.535157 0-4.164062 3.375-7.539062 7.539062-7.539062h77.609376c4.164062 0 7.539062 3.375 7.539062 7.539062 0 4.160157-3.375 7.535157-7.539062 7.535157zm0 0" fill="#a2a2a2"/></svg>