<svg height="512pt" viewBox="-123 0 512 512" width="512pt" xmlns="http://www.w3.org/2000/svg"><path d="m0 402.855469v68.328125c0 12.996094 14.265625 23.367187 42.402344 30.820312 24.335937 6.445313 56.5625 9.996094 90.746094 9.996094 34.183593 0 66.410156-3.550781 90.746093-9.996094 28.136719-7.453125 42.402344-17.824218 42.402344-30.820312v-68.328125zm0 0" fill="#f9e075"/><path d="m0 331.085938v68.324218c0 13 14.265625 23.371094 42.402344 30.820313 24.335937 6.445312 56.5625 9.996093 90.746094 9.996093 34.183593 0 66.410156-3.550781 90.746093-9.996093 28.136719-7.449219 42.402344-17.820313 42.402344-30.820313v-68.324218zm0 0" fill="#f9cd45"/><path d="m133.148438 64.855469c-17.316407 0-31.40625 14.089843-31.40625 31.40625 0 17.316406 14.089843 31.40625 31.40625 31.40625 17.316406 0 31.40625-14.089844 31.40625-31.40625 0-17.316407-14.089844-31.40625-31.40625-31.40625zm0 0" fill="#f45a3c"/><path d="m133.148438 64.855469c-4.472657 0-8.722657.945312-12.578126 2.636719 11.070313 4.863281 18.828126 15.925781 18.828126 28.769531s-7.757813 23.90625-18.828126 28.769531c3.855469 1.691406 8.105469 2.636719 12.578126 2.636719 17.316406 0 31.40625-14.089844 31.40625-31.40625 0-17.316407-14.089844-31.40625-31.40625-31.40625zm0 0" fill="#e24a2a"/><path d="m188.09375 103.808594c-4.167969 0-7.546875-3.378906-7.546875-7.546875 0-26.136719-21.261719-47.398438-47.398437-47.398438-26.132813 0-47.398438 21.261719-47.398438 47.398438 0 4.167969-3.378906 7.546875-7.546875 7.546875s-7.546875-3.378906-7.546875-7.546875c0-34.460938 28.035156-62.492188 62.492188-62.492188 34.457031 0 62.492187 28.035157 62.492187 62.492188 0 4.167969-3.378906 7.546875-7.546875 7.546875zm0 0" fill="#d0cfd1"/><path d="m221.863281 103.808594c-4.167969 0-7.546875-3.378906-7.546875-7.546875 0-44.757813-36.410156-81.167969-81.167968-81.167969-44.757813 0-81.167969 36.410156-81.167969 81.167969 0 4.167969-3.378907 7.546875-7.546875 7.546875-4.167969 0-7.546875-3.378906-7.546875-7.546875 0-53.078125 43.183593-96.261719 96.261719-96.261719 53.078124 0 96.261718 43.183594 96.261718 96.261719 0 4.167969-3.378906 7.546875-7.546875 7.546875zm0 0" fill="#d0cfd1"/><path d="m0 259.3125v68.328125c0 12.996094 14.265625 23.367187 42.402344 30.820313 24.335937 6.445312 56.5625 9.996093 90.746094 9.996093 34.183593 0 66.410156-3.550781 90.746093-9.996093 28.136719-7.453126 42.402344-17.824219 42.402344-30.820313v-68.328125zm0 0" fill="#f9e075"/><path d="m0 187.539062v68.328126c0 13 14.265625 23.367187 42.402344 30.820312 24.335937 6.445312 56.5625 9.996094 90.746094 9.996094 34.183593 0 66.410156-3.550782 90.746093-9.996094 28.136719-7.453125 42.402344-17.820312 42.402344-30.820312v-68.328126zm0 0" fill="#f9cd45"/><g fill="#f8c03c"><path d="m243.152344 402.855469v68.328125c0 12.996094-14.265625 23.367187-42.402344 30.820312-21.566406 5.714844-49.339844 9.144532-79.171875 9.851563 3.824219.09375 7.683594.144531 11.570313.144531 34.183593 0 66.410156-3.550781 90.746093-9.996094 28.136719-7.453125 42.402344-17.824218 42.402344-30.820312v-68.328125zm0 0"/><path d="m243.152344 331.085938v68.324218c0 13-14.265625 23.371094-42.402344 30.820313-21.566406 5.714843-49.339844 9.144531-79.171875 9.855469 3.824219.089843 7.683594.140624 11.570313.140624 34.183593 0 66.410156-3.550781 90.746093-9.996093 28.136719-7.449219 42.402344-17.820313 42.402344-30.820313v-68.324218zm0 0"/><path d="m243.152344 259.3125v68.328125c0 12.996094-14.265625 23.367187-42.402344 30.820313-21.566406 5.710937-49.339844 9.144531-79.171875 9.851562 3.824219.089844 7.683594.144531 11.570313.144531 34.183593 0 66.410156-3.550781 90.746093-9.996093 28.136719-7.453126 42.402344-17.824219 42.402344-30.820313v-68.328125zm0 0"/><path d="m243.152344 183.515625v72.351563c0 13-14.265625 23.367187-42.402344 30.820312-21.566406 5.714844-49.339844 9.144531-79.171875 9.855469 3.824219.089843 7.683594.140625 11.570313.140625 34.183593 0 66.410156-3.550782 90.746093-9.996094 28.136719-7.453125 42.402344-17.820312 42.402344-30.820312v-72.351563zm0 0"/></g><path d="m223.894531 153.273438c-24.335937-6.445313-56.5625-9.996094-90.746093-9.996094-34.183594 0-66.410157 3.550781-90.746094 9.996094-28.136719 7.453124-42.402344 17.824218-42.402344 30.820312 0 13 14.265625 23.371094 42.402344 30.820312 24.335937 6.449219 56.5625 9.996094 90.746094 9.996094 34.183593 0 66.410156-3.546875 90.746093-9.996094 28.136719-7.449218 42.402344-17.820312 42.402344-30.820312 0-12.996094-14.265625-23.367188-42.402344-30.820312zm0 0" fill="#f9e075"/><path d="m223.894531 153.273438c-24.335937-6.445313-56.5625-9.996094-90.746093-9.996094-4.226563 0-8.421876.058594-12.578126.164062 29.453126.761719 56.839844 4.183594 78.167969 9.832032 28.136719 7.453124 42.402344 17.820312 42.402344 30.820312s-14.265625 23.367188-42.402344 30.820312c-21.328125 5.648438-48.714843 9.074219-78.167969 9.832032 4.15625.109375 8.351563.164062 12.578126.164062 34.183593 0 66.410156-3.550781 90.746093-9.996094 15.105469-4.003906 26.214844-8.84375 33.261719-14.480468 6.082031-4.863282 9.140625-10.320313 9.140625-16.339844 0-12.996094-14.265625-23.367188-42.402344-30.820312zm0 0" fill="#f8c03c"/></svg>