<svg height="512pt" viewBox="-11 0 512 512.001" width="512pt" xmlns="http://www.w3.org/2000/svg"><g fill="#d0cfd1"><path d="m151.558594 153.179688h-114.046875c-4.144531 0-7.5-3.359376-7.5-7.5v-108.167969c0-4.144531 3.355469-7.5 7.5-7.5 4.140625 0 7.5 3.355469 7.5 7.5v100.667969h106.546875c4.140625 0 7.5 3.355468 7.5 7.5 0 4.140624-3.359375 7.5-7.5 7.5zm0 0"/><path d="m448.320312 153.179688h-114.046874c-4.144532 0-7.5-3.359376-7.5-7.5 0-4.144532 3.355468-7.5 7.5-7.5h106.546874v-100.667969c0-4.144531 3.355469-7.5 7.5-7.5 4.140626 0 7.5 3.355469 7.5 7.5v108.167969c0 4.140624-3.359374 7.5-7.5 7.5zm0 0"/><path d="m37.511719 481.988281c-4.144531 0-7.5-3.355469-7.5-7.5v-108.167969c0-4.140624 3.355469-7.5 7.5-7.5h114.046875c4.140625 0 7.5 3.359376 7.5 7.5 0 4.144532-3.359375 7.5-7.5 7.5h-106.546875v100.667969c0 4.144531-3.359375 7.5-7.5 7.5zm0 0"/><path d="m448.320312 481.988281c-4.144531 0-7.5-3.355469-7.5-7.5v-100.667969h-106.546874c-4.144532 0-7.5-3.355468-7.5-7.5 0-4.140624 3.355468-7.5 7.5-7.5h114.046874c4.140626 0 7.5 3.359376 7.5 7.5v108.167969c0 4.144531-3.359374 7.5-7.5 7.5zm0 0"/><path d="m448.320312 248.5h-114.046874c-4.144532 0-7.5 3.359375-7.5 7.5s3.355468 7.5 7.5 7.5h114.046874c4.140626 0 7.5-3.359375 7.5-7.5s-3.359374-7.5-7.5-7.5zm0 0"/><path d="m151.558594 263.5h-114.046875c-4.144531 0-7.5-3.359375-7.5-7.5s3.355469-7.5 7.5-7.5h114.046875c4.140625 0 7.5 3.359375 7.5 7.5s-3.359375 7.5-7.5 7.5zm0 0"/><path d="m243.496094 171.5625c-4.140625 0-7.5-3.359375-7.5-7.5v-114.046875c0-4.144531 3.359375-7.5 7.5-7.5 4.144531 0 7.5 3.355469 7.5 7.5v114.046875c0 4.140625-3.355469 7.5-7.5 7.5zm0 0"/><path d="m243.496094 468.320312c-4.140625 0-7.5-3.355468-7.5-7.5v-114.042968c0-4.144532 3.359375-7.5 7.5-7.5 4.144531 0 7.5 3.355468 7.5 7.5v114.042968c0 4.144532-3.355469 7.5-7.5 7.5zm0 0"/></g><path d="m37.511719 0c-20.683594 0-37.511719 16.828125-37.511719 37.511719 0 20.683593 16.828125 37.511719 37.511719 37.511719 20.683593 0 37.511719-16.828126 37.511719-37.511719 0-20.683594-16.828126-37.511719-37.511719-37.511719zm0 0" fill="#f9cd45"/><path d="m37.511719 0c-4.195313 0-8.230469.703125-12 1.980469 14.8125 5.015625 25.507812 19.042969 25.507812 35.53125 0 16.484375-10.695312 30.511719-25.507812 35.53125 3.769531 1.277343 7.800781 1.980469 12 1.980469 20.683593 0 37.511719-16.828126 37.511719-37.511719 0-20.683594-16.828126-37.511719-37.511719-37.511719zm0 0" fill="#f8c03c"/><path d="m37.511719 218.488281c-20.683594 0-37.511719 16.828125-37.511719 37.511719s16.828125 37.511719 37.511719 37.511719c20.683593 0 37.511719-16.828125 37.511719-37.511719s-16.828126-37.511719-37.511719-37.511719zm0 0" fill="#f9cd45"/><path d="m37.511719 218.488281c-4.195313 0-8.230469.703125-12 1.980469 14.8125 5.015625 25.507812 19.042969 25.507812 35.53125s-10.695312 30.511719-25.507812 35.53125c3.769531 1.277344 7.800781 1.980469 12 1.980469 20.683593 0 37.511719-16.828125 37.511719-37.511719s-16.828126-37.511719-37.511719-37.511719zm0 0" fill="#f8c03c"/><path d="m452.714844 218.488281c-20.683594 0-37.507813 16.828125-37.507813 37.511719s16.824219 37.511719 37.507813 37.511719 37.511718-16.828125 37.511718-37.511719-16.828124-37.511719-37.511718-37.511719zm0 0" fill="#f9cd45"/><path d="m452.714844 218.488281c-4.195313 0-8.226563.703125-12 1.980469 14.816406 5.015625 25.511718 19.042969 25.511718 35.53125s-10.699218 30.511719-25.511718 35.53125c3.773437 1.277344 7.804687 1.980469 12 1.980469 20.683594 0 37.511718-16.828125 37.511718-37.511719s-16.828124-37.511719-37.511718-37.511719zm0 0" fill="#f8c03c"/><path d="m37.511719 436.980469c-20.683594 0-37.511719 16.824219-37.511719 37.507812 0 20.6875 16.828125 37.511719 37.511719 37.511719 20.683593 0 37.511719-16.828125 37.511719-37.511719 0-20.683593-16.828126-37.507812-37.511719-37.507812zm0 0" fill="#f9cd45"/><path d="m37.511719 436.980469c-4.195313 0-8.230469.703125-12 1.980469 14.8125 5.015624 25.507812 19.042968 25.507812 35.527343 0 16.488281-10.695312 30.515625-25.507812 35.53125 3.769531 1.277344 7.800781 1.980469 12 1.980469 20.683593 0 37.511719-16.824219 37.511719-37.511719 0-20.683593-16.828126-37.507812-37.511719-37.507812zm0 0" fill="#f8c03c"/><path d="m243.929688 0c-20.683594 0-37.507813 16.828125-37.507813 37.511719 0 20.683593 16.824219 37.511719 37.507813 37.511719 20.683593 0 37.511718-16.828126 37.511718-37.511719 0-20.683594-16.828125-37.511719-37.511718-37.511719zm0 0" fill="#f9cd45"/><path d="m243.929688 0c-4.195313 0-8.226563.703125-12 1.980469 14.816406 5.015625 25.511718 19.042969 25.511718 35.53125 0 16.484375-10.699218 30.511719-25.511718 35.53125 3.773437 1.277343 7.804687 1.980469 12 1.980469 20.683593 0 37.511718-16.828126 37.511718-37.511719 0-20.683594-16.828125-37.511719-37.511718-37.511719zm0 0" fill="#f8c03c"/><path d="m243.929688 436.980469c-20.683594 0-37.507813 16.824219-37.507813 37.507812 0 20.6875 16.828125 37.511719 37.507813 37.511719 20.683593 0 37.511718-16.828125 37.511718-37.511719 0-20.683593-16.828125-37.507812-37.511718-37.507812zm0 0" fill="#f9cd45"/><path d="m243.929688 436.980469c-4.195313 0-8.226563.703125-12 1.980469 14.816406 5.015624 25.511718 19.042968 25.511718 35.527343 0 16.488281-10.699218 30.515625-25.511718 35.53125 3.773437 1.277344 7.804687 1.980469 12 1.980469 20.683593 0 37.511718-16.824219 37.511718-37.511719 0-20.683593-16.828125-37.507812-37.511718-37.507812zm0 0" fill="#f8c03c"/><path d="m452.714844 0c-20.683594 0-37.507813 16.828125-37.507813 37.511719 0 20.683593 16.824219 37.511719 37.507813 37.511719s37.511718-16.828126 37.511718-37.511719c0-20.683594-16.828124-37.511719-37.511718-37.511719zm0 0" fill="#f9cd45"/><path d="m452.714844 0c-4.195313 0-8.226563.703125-12 1.980469 14.816406 5.015625 25.511718 19.042969 25.511718 35.53125 0 16.484375-10.699218 30.511719-25.511718 35.53125 3.773437 1.277343 7.804687 1.980469 12 1.980469 20.683594 0 37.511718-16.828126 37.511718-37.511719 0-20.683594-16.828124-37.511719-37.511718-37.511719zm0 0" fill="#f8c03c"/><path d="m452.714844 436.980469c-20.683594 0-37.507813 16.824219-37.507813 37.507812 0 20.6875 16.824219 37.511719 37.507813 37.511719s37.511718-16.828125 37.511718-37.511719c0-20.683593-16.828124-37.507812-37.511718-37.507812zm0 0" fill="#f9cd45"/><path d="m452.714844 436.980469c-4.195313 0-8.226563.703125-12 1.980469 14.816406 5.015624 25.511718 19.042968 25.511718 35.527343 0 16.488281-10.699218 30.515625-25.511718 35.53125 3.773437 1.277344 7.804687 1.980469 12 1.980469 20.683594 0 37.511718-16.824219 37.511718-37.511719 0-20.683593-16.828124-37.507812-37.511718-37.507812zm0 0" fill="#f8c03c"/><path d="m242.914062 100.796875c-85.578124 0-155.203124 69.625-155.203124 155.203125s69.625 155.203125 155.203124 155.203125c85.582032 0 155.203126-69.625 155.203126-155.203125s-69.621094-155.203125-155.203126-155.203125zm0 0" fill="#f9cd45"/><path d="m242.914062 100.796875c-3.867187 0-7.699218.148437-11.5.425781 80.230469 5.90625 143.703126 73.066406 143.703126 154.777344s-63.472657 148.871094-143.703126 154.777344c3.800782.28125 7.632813.425781 11.5.425781 85.582032 0 155.203126-69.625 155.203126-155.203125s-69.621094-155.203125-155.203126-155.203125zm0 0" fill="#f8c03c"/><path d="m229.308594 154.878906h-36.5625c-4.144532 0-7.5 3.355469-7.5 7.5v96.265625h-24.195313c-2.863281 0-5.476562 1.628907-6.734375 4.199219-1.261718 2.566406-.949218 5.632812.804688 7.894531l67.835937 87.527344c1.425781 1.839844 3.617188 2.90625 5.925781 2.90625.171876 0 .339844-.003906.511719-.015625 2.492188-.171875 4.738281-1.570312 5.988281-3.734375l.425782-.742187c.65625-1.140626 1.003906-2.433594 1.003906-3.746094v-190.554688c-.003906-4.144531-3.359375-7.5-7.503906-7.5zm0 0" fill="#f45a3c"/><path d="m327.191406 245.3125-67.835937-87.527344c-1.53125-1.976562-3.960938-3.054687-6.433594-2.890625-2.492187.167969-4.738281 1.566407-5.988281 3.730469l-.425782.738281c-.660156 1.140625-1.007812 2.4375-1.007812 3.753907v190.554687c0 4.144531 3.355469 7.5 7.5 7.5h36.566406c4.140625 0 7.5-3.355469 7.5-7.5v-96.265625h24.195313c2.863281 0 5.476562-1.628906 6.734375-4.195312 1.261718-2.570313.949218-5.632813-.804688-7.898438zm0 0" fill="#4890e3"/><path d="m277.066406 353.671875c0 4.144531-3.355468 7.5-7.5 7.5h20c4.144532 0 7.5-3.355469 7.5-7.5v-96.265625h-20zm0 0" fill="#2970d6"/><path d="m327.191406 245.3125-67.835937-87.527344c-1.53125-1.976562-3.960938-3.054687-6.433594-2.890625-2.492187.167969-4.738281 1.566407-5.988281 3.730469l-.425782.738281c-.660156 1.140625-1.007812 2.4375-1.007812 3.753907v2.59375l61.691406 79.601562c1.753906 2.261719 2.0625 5.328125.804688 7.898438-1.257813 2.566406-3.871094 4.195312-6.734375 4.195312h20c2.863281 0 5.476562-1.628906 6.734375-4.195312 1.261718-2.570313.949218-5.632813-.804688-7.898438zm0 0" fill="#2970d6"/></svg>