<svg height="512pt" viewBox="-34 0 512 512" width="512pt" xmlns="http://www.w3.org/2000/svg"><path d="m229.777344 69.414062c.007812-.378906.011718-.753906.011718-1.128906 0-37.652344-30.632812-68.285156-68.285156-68.285156-29.101562 0-54.375 17.996094-64.109375 44.683594-1.847656-.367188-3.730469-.550782-5.625-.550782-11.453125 0-21.492187 6.570313-26.167969 16.5625-36.203124.164063-65.601562 29.664063-65.601562 65.902344 0 36.335938 29.5625 65.902344 65.902344 65.902344h131.21875c36.335937 0 65.902344-29.566406 65.902344-65.902344 0-23.570312-12.894532-45.488281-33.246094-57.183594zm0 0" fill="#4890e3"/><path d="m229.777344 69.414062c.007812-.378906.011718-.753906.011718-1.128906 0-37.652344-30.632812-68.285156-68.285156-68.285156-4.164062 0-8.246094.378906-12.222656 1.089844 31.914062 5.71875 56.214844 33.664062 56.214844 67.195312 0 .375-.003906.75-.007813 1.128906 20.347657 11.695313 33.242188 33.613282 33.242188 57.183594 0 36.335938-29.566407 65.902344-65.902344 65.902344h24.292969c36.335937 0 65.902344-29.566406 65.902344-65.902344 0-23.570312-12.894532-45.488281-33.246094-57.183594zm0 0" fill="#2970d6"/><path d="m124.171875 234.429688-.351563-.609376c-1.261718-2.191406-3.535156-3.605468-6.058593-3.777343-2.519531-.175781-4.964844.921875-6.515625 2.921875l-55.738282 71.917968c-1.773437 2.292969-2.089843 5.390626-.816406 7.992188 1.277344 2.601562 3.921875 4.25 6.816406 4.25h18.453126v134.523438c0 4.195312 3.398437 7.59375 7.589843 7.59375h30.046875c4.191406 0 7.589844-3.398438 7.589844-7.59375v-213.425782c0-1.332031-.347656-2.636718-1.015625-3.792968zm0 0" fill="#4890e3"/><path d="m124.171875 234.429688-.351563-.609376c-1.261718-2.191406-3.535156-3.605468-6.058593-3.777343-2.519531-.175781-4.964844.921875-6.515625 2.921875l-9.335938 12.050781v206.636719c0 4.191406-3.398437 7.589844-7.59375 7.589844h23.28125c4.191406 0 7.59375-3.398438 7.59375-7.589844v-213.429688c-.003906-1.332031-.351562-2.636718-1.019531-3.792968zm0 0" fill="#2970d6"/><path d="m436.9375 124.21875h-282.035156c-4.195313 0-7.59375 3.398438-7.59375 7.589844v372.601562c0 4.191406 3.398437 7.589844 7.59375 7.589844h282.035156c4.191406 0 7.589844-3.398438 7.589844-7.589844v-372.601562c0-4.191406-3.398438-7.589844-7.589844-7.589844zm0 0" fill="#f9cd45"/><path d="m436.9375 124.21875h-24.292969c4.191407 0 7.589844 3.398438 7.589844 7.589844v372.601562c0 4.191406-3.398437 7.589844-7.589844 7.589844h24.292969c4.191406 0 7.589844-3.398438 7.589844-7.589844v-372.601562c0-4.191406-3.398438-7.589844-7.589844-7.589844zm0 0" fill="#f8c03c"/><path d="m295.917969 208.273438c-60.5625 0-109.835938 49.273437-109.835938 109.835937 0 60.566406 49.273438 109.835937 109.835938 109.835937 60.566406 0 109.835937-49.269531 109.835937-109.835937 0-60.5625-49.269531-109.835937-109.835937-109.835937zm0 0" fill="#fff4f1"/><path d="m295.917969 208.273438c-4.277344 0-8.5.253906-12.652344.730468 54.625 6.296875 97.183594 52.820313 97.183594 109.105469s-42.558594 102.808594-97.183594 109.105469c4.152344.476562 8.375.730468 12.652344.730468 60.566406 0 109.835937-49.269531 109.835937-109.835937 0-60.5625-49.269531-109.835937-109.835937-109.835937zm0 0" fill="#ecedef"/><path d="m220.746094 325.699219c-4.195313 0-7.59375-3.398438-7.59375-7.589844 0-45.636719 37.128906-82.765625 82.765625-82.765625 4.191406 0 7.59375 3.398438 7.59375 7.589844 0 4.195312-3.402344 7.59375-7.59375 7.59375-37.265625 0-67.582031 30.316406-67.582031 67.582031 0 4.191406-3.398438 7.589844-7.589844 7.589844zm0 0" fill="#d0cfd1"/><path d="m295.917969 400.875c-4.191407 0-7.589844-3.398438-7.589844-7.589844 0-4.195312 3.398437-7.59375 7.589844-7.59375 37.265625 0 67.582031-30.316406 67.582031-67.582031 0-4.191406 3.402344-7.59375 7.59375-7.59375s7.589844 3.402344 7.589844 7.59375c0 45.636719-37.128906 82.765625-82.765625 82.765625zm0 0" fill="#d0cfd1"/><path d="m295.917969 286.332031c-17.523438 0-31.777344 14.253907-31.777344 31.777344s14.253906 31.78125 31.777344 31.78125c17.523437 0 31.78125-14.257813 31.78125-31.78125s-14.257813-31.777344-31.78125-31.777344zm0 0" fill="#4890e3"/><path d="m295.917969 286.332031c-4.300781 0-8.402344.863281-12.144531 2.417969 11.511718 4.78125 19.632812 16.136719 19.632812 29.359375s-8.121094 24.582031-19.632812 29.359375c3.742187 1.554688 7.84375 2.421875 12.144531 2.421875 17.523437 0 31.78125-14.257813 31.78125-31.78125s-14.257813-31.777344-31.78125-31.777344zm0 0" fill="#2970d6"/><path d="m411.617188 189.007812c-14.515626-14.515624-38.136719-14.515624-52.65625 0-6.449219 6.449219-20.132813 24.964844-30.992188 43.628907-15.902344 27.328125-19.371094 43.136719-11.242188 51.265625 2.8125 2.8125 6.546876 4.234375 11.359376 4.234375 9.089843 0 22.039062-5.082031 39.90625-15.476563 18.664062-10.863281 37.179687-24.546875 43.625-30.992187 14.519531-14.519531 14.519531-38.140625 0-52.660157zm0 0" fill="#4890e3"/><path d="m411.617188 189.007812c-10.386719-10.386718-25.433594-13.335937-38.472657-8.859374 5.183594 1.78125 10.050781 4.730468 14.183594 8.859374 14.515625 14.519532 14.515625 38.140626 0 52.660157-6.449219 6.445312-24.964844 20.128906-43.628906 30.992187-9.984375 5.808594-18.425781 9.953125-25.523438 12.484375 2.613281 1.980469 5.875 2.992188 9.910157 2.992188 9.089843 0 22.039062-5.082031 39.90625-15.476563 18.664062-10.863281 37.179687-24.546875 43.625-30.996094 14.519531-14.515624 14.519531-38.136718 0-52.65625zm0 0" fill="#2970d6"/></svg>