<svg height="512pt" viewBox="-5 0 511 512" width="512pt" xmlns="http://www.w3.org/2000/svg"><path d="m388.996094 259.480469c0 75.824219-61.472656 137.292969-137.296875 137.292969s-137.292969-61.46875-137.292969-137.292969c0-75.828125 61.46875-137.296875 137.292969-137.296875s137.296875 61.46875 137.296875 137.296875zm0 0" fill="#f9cd45"/><path d="m251.699219 122.183594c-4.207031 0-8.371094.199218-12.480469.574218 69.972656 6.304688 124.8125 65.105469 124.8125 136.722657 0 71.617187-54.839844 130.414062-124.8125 136.722656 4.109375.371094 8.273438.570313 12.480469.570313 75.828125 0 137.296875-61.46875 137.296875-137.292969s-61.46875-137.296875-137.296875-137.296875zm0 0" fill="#f8c03c"/><path d="m251.699219 475.601562c-57.726563 0-112-22.480468-152.820313-63.300781-40.820312-40.820312-63.300781-95.09375-63.300781-152.820312 0-57.730469 22.480469-112.003907 63.300781-152.824219 40.820313-40.820312 95.09375-63.300781 152.820313-63.300781 57.730469 0 112.003906 22.480469 152.824219 63.300781 40.820312 40.820312 63.300781 95.09375 63.300781 152.824219 0 57.726562-22.480469 112-63.300781 152.820312-40.820313 40.820313-95.09375 63.300781-152.824219 63.300781zm0-417.265624c-110.910157 0-201.144531 90.230468-201.144531 201.144531 0 110.910156 90.234374 201.144531 201.144531 201.144531 110.914062 0 201.144531-90.234375 201.144531-201.144531 0-110.910157-90.230469-201.144531-201.144531-201.144531zm0 0" fill="#d0cfd1"/><path d="m251.699219 114.695312c-79.832031 0-144.785157 64.949219-144.785157 144.785157 0 79.832031 64.953126 144.78125 144.785157 144.78125 79.835937 0 144.785156-64.949219 144.785156-144.78125 0-79.835938-64.949219-144.785157-144.785156-144.785157zm0 274.589844c-9.367188 0-19.652344-13.171875-27.507813-35.234375-4.496094-12.628906-7.976562-27.390625-10.328125-43.492187 12.179688 1.121094 24.875 1.71875 37.835938 1.71875 12.964843 0 25.660156-.597656 37.839843-1.71875-2.351562 16.101562-5.832031 30.863281-10.328124 43.492187-7.855469 22.0625-18.140626 35.234375-27.511719 35.234375zm0-91.988281c-14.230469 0-27.480469-.691406-39.667969-1.914063-1.128906-11.539062-1.722656-23.582031-1.722656-35.902343 0-12.320313.59375-24.367188 1.722656-35.902344 12.1875-1.222656 25.4375-1.914063 39.667969-1.914063s27.484375.691407 39.667969 1.914063c1.128906 11.535156 1.726562 23.582031 1.726562 35.902344 0 12.320312-.597656 24.363281-1.726562 35.902343-12.183594 1.222657-25.4375 1.914063-39.667969 1.914063zm-54.832031-3.78125c-47.433594-6.980469-74.972657-22.246094-74.972657-34.035156 0-11.792969 27.539063-27.058594 74.972657-34.035157-1.019532 11.238282-1.539063 22.691407-1.539063 34.035157 0 11.339843.519531 22.796875 1.539063 34.035156zm54.832031-163.84375c9.371093 0 19.65625 13.171875 27.511719 35.238281 4.496093 12.628906 7.976562 27.390625 10.328124 43.492188-12.179687-1.125-24.875-1.71875-37.839843-1.71875-12.960938 0-25.65625.59375-37.835938 1.71875 2.351563-16.101563 5.832031-30.863282 10.328125-43.492188 7.855469-22.0625 18.140625-35.238281 27.507813-35.238281zm54.832031 95.773437c47.433594 6.976563 74.976562 22.242188 74.976562 34.035157 0 11.789062-27.542968 27.054687-74.976562 34.035156 1.019531-11.238281 1.539062-22.695313 1.539062-34.035156 0-11.34375-.519531-22.796875-1.539062-34.035157zm72.261719 7.585938c-6.648438-4.402344-15.621094-8.726562-27.664063-12.699219-13.503906-4.457031-29.226562-7.894531-46.316406-10.207031-4.242188-31.445312-12.582031-59.832031-24.722656-77.316406 49.46875 11.082031 88.367187 50.476562 98.703125 100.222656zm-155.480469-100.222656c-12.144531 17.484375-20.480469 45.871094-24.722656 77.316406-17.089844 2.3125-32.816406 5.75-46.316406 10.207031-12.042969 3.972657-21.015626 8.296875-27.667969 12.699219 10.339843-49.746094 49.234375-89.140625 98.707031-100.222656zm-98.707031 153.121094c6.652343 4.402343 15.625 8.722656 27.664062 12.699218 13.503907 4.453125 29.226563 7.890625 46.320313 10.203125 4.242187 31.449219 12.578125 59.835938 24.71875 77.316407-49.46875-11.078126-88.363282-50.476563-98.703125-100.21875zm155.484375 100.21875c12.140625-17.480469 20.480468-45.867188 24.722656-77.316407 17.089844-2.3125 32.8125-5.75 46.316406-10.203125 12.039063-3.976562 21.015625-8.296875 27.664063-12.699218-10.335938 49.742187-49.234375 89.140624-98.703125 100.21875zm0 0" fill="#f9e075"/><g fill="#f45a3c"><path d="m250.703125 0c-22.921875 0-41.570313 18.648438-41.570313 41.566406 0 10.769532 8.128907 27.238282 24.160157 48.957032 4.121093 5.585937 10.46875 8.792968 17.40625 8.792968h.003906c6.941406 0 13.285156-3.207031 17.410156-8.792968 16.027344-21.71875 24.15625-38.1875 24.15625-48.957032 0-22.917968-18.648437-41.566406-41.566406-41.566406zm0 0"/><path d="m250.703125 412.683594c-22.921875 0-41.570313 18.648437-41.570313 41.566406 0 10.765625 8.128907 27.238281 24.160157 48.957031 4.121093 5.589844 10.46875 8.792969 17.40625 8.792969h.003906c6.941406 0 13.285156-3.203125 17.410156-8.792969 16.027344-21.714843 24.15625-38.1875 24.15625-48.957031 0-22.917969-18.648437-41.566406-41.566406-41.566406zm0 0"/><path d="m42.066406 209.820312c-22.917968 0-41.566406 18.648438-41.566406 41.570313 0 10.765625 8.128906 27.234375 24.15625 48.957031 4.125 5.585938 10.46875 8.789063 17.410156 8.789063s13.289063-3.203125 17.410156-8.789063c16.03125-21.722656 24.15625-38.191406 24.15625-48.957031 0-22.921875-18.644531-41.570313-41.566406-41.570313zm0 0"/><path d="m459.335938 209.820312c-22.921876 0-41.566407 18.648438-41.566407 41.570313 0 10.765625 8.125 27.238281 24.15625 48.957031 4.121094 5.585938 10.46875 8.789063 17.410157 8.789063 6.941406 0 13.289062-3.203125 17.410156-8.789063 16.03125-21.71875 24.15625-38.191406 24.15625-48.957031 0-22.921875-18.644532-41.570313-41.566406-41.570313zm0 0"/></g><path d="m250.703125 0c-4.167969 0-8.1875.625-11.984375 1.769531 17.097656 5.15625 29.585938 21.042969 29.585938 39.796875 0 10.769532-8.128907 27.238282-24.15625 48.957032-1.53125 2.074218-3.367188 3.816406-5.429688 5.191406 3.488281 2.332031 7.617188 3.601562 11.980469 3.601562h.003906c6.941406 0 13.285156-3.207031 17.410156-8.792968 16.027344-21.71875 24.15625-38.1875 24.15625-48.957032 0-22.917968-18.648437-41.566406-41.566406-41.566406zm0 0" fill="#e24a2a"/><path d="m250.703125 412.683594c-4.167969 0-8.1875.625-11.984375 1.769531 17.097656 5.15625 29.585938 21.042969 29.585938 39.796875 0 10.769531-8.128907 27.238281-24.15625 48.957031-1.53125 2.074219-3.367188 3.820313-5.429688 5.195313 3.488281 2.328125 7.617188 3.597656 11.980469 3.597656h.003906c6.941406 0 13.285156-3.203125 17.410156-8.792969 16.027344-21.714843 24.15625-38.1875 24.15625-48.957031 0-22.917969-18.648437-41.566406-41.566406-41.566406zm0 0" fill="#e24a2a"/><path d="m42.066406 209.820312c-4.164062 0-8.183594.625-11.980468 1.769532 17.09375 5.15625 29.582031 21.042968 29.582031 39.800781 0 10.765625-8.125 27.238281-24.15625 48.957031-1.53125 2.074219-3.367188 3.816406-5.425781 5.191406 3.488281 2.328126 7.617187 3.597657 11.980468 3.597657 6.941406 0 13.289063-3.203125 17.410156-8.789063 16.03125-21.71875 24.15625-38.191406 24.15625-48.957031 0-22.921875-18.644531-41.570313-41.566406-41.570313zm0 0" fill="#e24a2a"/><path d="m459.335938 209.820312c-4.164063 0-8.1875.625-11.984376 1.769532 17.097657 5.15625 29.585938 21.042968 29.585938 39.800781 0 10.765625-8.128906 27.238281-24.15625 48.957031-1.53125 2.074219-3.367188 3.816406-5.429688 5.191406 3.492188 2.328126 7.621094 3.597657 11.984376 3.597657 6.941406 0 13.289062-3.203125 17.410156-8.789063 16.03125-21.71875 24.15625-38.191406 24.15625-48.957031 0-22.921875-18.644532-41.570313-41.566406-41.570313zm0 0" fill="#e24a2a"/></svg>