<svg height="512pt" viewBox="0 -78 512.001 512" width="512pt" xmlns="http://www.w3.org/2000/svg"><path d="m181.332031 0h-155.058593c-14.488282 0-26.273438 11.789062-26.273438 26.273438v302.929687c0 14.488281 11.785156 26.273437 26.273438 26.273437h155.058593c14.488281 0 26.273438-11.785156 26.273438-26.273437v-302.929687c.003906-14.484376-11.785157-26.273438-26.273438-26.273438zm0 0" fill="#fff4f1"/><path d="m181.332031 0h-25.117187c14.488281 0 26.273437 11.785156 26.273437 26.273438v302.929687c0 14.484375-11.785156 26.273437-26.273437 26.273437h25.117187c14.488281 0 26.273438-11.785156 26.273438-26.273437v-302.929687c.003906-14.484376-11.785157-26.273438-26.273438-26.273438zm0 0" fill="#ecedef"/><path d="m207.609375 63.035156v-36.761718c0-14.484376-11.789063-26.273438-26.273437-26.273438h-155.0625c-14.488282 0-26.273438 11.789062-26.273438 26.273438v36.761718zm0 0" fill="#d0cfd1"/><path d="m181.332031 0h-25.117187c14.488281 0 26.273437 11.785156 26.273437 26.273438v36.761718h25.117188v-36.761718c.003906-14.484376-11.785157-26.273438-26.273438-26.273438zm0 0" fill="#9c9b9d"/><path d="m0 292.441406v36.761719c0 14.488281 11.785156 26.273437 26.273438 26.273437h155.0625c14.484374 0 26.269531-11.785156 26.269531-26.273437v-36.761719zm0 0" fill="#d0cfd1"/><path d="m182.492188 329.203125c0 14.484375-11.785157 26.273437-26.273438 26.273437h25.117188c8.269531 0 15.65625-3.847656 20.476562-9.84375 2.304688-2.863281 4.023438-6.210937 4.96875-9.871093.007812-.027344.011719-.050781.015625-.078125.53125-2.074219.8125-4.246094.8125-6.480469v-36.761719h-25.117187zm0 0" fill="#9c9b9d"/><path d="m289.929688 174.890625h-66.308594c-2.996094 0-5.707032-1.773437-6.90625-4.523437-1.195313-2.746094-.652344-5.941407 1.386718-8.136719l21.238282-22.871094c2.832031-3.050781 7.597656-3.226563 10.648437-.394531 3.050781 2.832031 3.226563 7.597656.394531 10.648437l-9.480468 10.207031h49.03125c4.160156 0 7.535156 3.375 7.535156 7.535157 0 4.164062-3.375 7.535156-7.539062 7.535156zm0 0" fill="#d0cfd1"/><path d="m268.691406 223.621094c-1.835937 0-3.675781-.667969-5.125-2.015625-3.050781-2.832031-3.226562-7.597657-.394531-10.648438l9.480469-10.210937h-49.03125c-4.160156 0-7.535156-3.371094-7.535156-7.535156 0-4.160157 3.375-7.535157 7.535156-7.535157h66.308594c2.996093 0 5.710937 1.777344 6.90625 4.523438 1.199218 2.75.65625 5.945312-1.382813 8.140625l-21.238281 22.871094c-1.484375 1.597656-3.5 2.410156-5.523438 2.410156zm0 0" fill="#d0cfd1"/><path d="m151.722656 109.816406h-95.839844c-14.125 0-25.617187 11.492188-25.617187 25.617188v63.367187c0 14.128907 11.492187 25.621094 25.617187 25.621094h17.113282l25.464844 25.617187c1.414062 1.421876 3.335937 2.222657 5.34375 2.222657 2.003906 0 3.929687-.800781 5.34375-2.222657l25.464843-25.617187h17.109375c14.125 0 25.617188-11.492187 25.617188-25.621094v-63.367187c.003906-14.125-11.492188-25.617188-25.617188-25.617188zm0 0" fill="#00bf9e"/><path d="m151.722656 109.816406h-24.113281c14.128906 0 25.621094 11.492188 25.621094 25.617188v63.367187c0 14.128907-9.484375 21.601563-23.609375 21.601563h-17.109375l-20.765625 22.882812 6.714844 6.753906c1.414062 1.421876 3.335937 2.222657 5.34375 2.222657 2.003906 0 3.929687-.800781 5.34375-2.222657l25.464843-25.617187h17.109375c14.125 0 25.617188-11.492187 25.617188-25.617187v-63.367188c.003906-14.128906-11.492188-25.621094-25.617188-25.621094zm0 0" fill="#00a983"/><path d="m485.726562 0h-155.0625c-14.484374 0-26.269531 11.785156-26.269531 26.273438v302.929687c0 14.484375 11.785157 26.273437 26.269531 26.273437h155.0625c14.488282 0 26.273438-11.785156 26.273438-26.273437v-302.929687c0-14.484376-11.785156-26.273438-26.273438-26.273438zm0 0" fill="#fff4f1"/><path d="m485.726562 0h-25.117187c14.488281 0 26.273437 11.785156 26.273437 26.273438v302.929687c0 14.484375-11.785156 26.273437-26.273437 26.273437h25.117187c14.488282 0 26.273438-11.785156 26.273438-26.273437v-302.929687c0-14.484376-11.785156-26.273438-26.273438-26.273438zm0 0" fill="#ecedef"/><path d="m512 63.035156v-36.761718c0-14.484376-11.785156-26.273438-26.273438-26.273438h-155.0625c-14.484374 0-26.269531 11.789062-26.269531 26.273438v36.761718zm0 0" fill="#d0cfd1"/><path d="m485.726562 0h-25.117187c14.488281 0 26.273437 11.785156 26.273437 26.273438v36.761718h25.117188v-36.761718c0-14.484376-11.785156-26.273438-26.273438-26.273438zm0 0" fill="#9c9b9d"/><path d="m304.394531 292.441406v36.761719c0 14.488281 11.785157 26.273437 26.273438 26.273437h155.058593c14.488282 0 26.273438-11.785156 26.273438-26.273437v-36.761719zm0 0" fill="#d0cfd1"/><path d="m486.882812 329.203125c0 14.484375-11.785156 26.273437-26.273437 26.273437h25.117187c8.273438 0 15.660157-3.847656 20.480469-9.84375 2.300781-2.863281 4.019531-6.210937 4.964844-9.871093.007813-.027344.011719-.050781.019531-.078125.527344-2.074219.808594-4.246094.808594-6.480469v-36.761719h-25.117188zm0 0" fill="#9c9b9d"/><path d="m456.113281 109.816406h-95.835937c-14.128906 0-25.621094 11.492188-25.621094 25.617188v63.367187c0 14.128907 11.492188 25.621094 25.621094 25.621094h17.109375l25.464843 25.617187c1.414063 1.421876 3.335938 2.222657 5.34375 2.222657 2.007813 0 3.929688-.800781 5.34375-2.222657l25.464844-25.617187h17.109375c14.128907 0 25.621094-11.492187 25.621094-25.621094v-63.367187c0-14.125-11.492187-25.617188-25.621094-25.617188zm0 0" fill="#f45a3c"/><path d="m456.113281 109.816406h-24.109375c14.125 0 25.617188 11.492188 25.617188 25.617188v63.367187c0 14.128907-9.484375 21.601563-23.609375 21.601563h-17.109375l-20.761719 22.882812 6.710937 6.753906c1.414063 1.421876 3.339844 2.222657 5.34375 2.222657 2.007813 0 3.929688-.800781 5.34375-2.222657l25.464844-25.617187h17.109375c14.128907 0 25.621094-11.492187 25.621094-25.621094v-63.367187c0-14.125-11.492187-25.617188-25.621094-25.617188zm0 0" fill="#e24a2a"/></svg>