<svg height="512pt" viewBox="-10 0 511 512" width="512pt" xmlns="http://www.w3.org/2000/svg"><path d="m299.769531 387.003906h-124.855469c-4.164062 0-7.539062 3.375-7.539062 7.539063v75.464843c0 4.164063 3.375 7.539063 7.539062 7.539063h124.855469c4.164063 0 7.539063-3.375 7.539063-7.539063v-75.464843c0-4.164063-3.375-7.539063-7.539063-7.539063zm0 0" fill="#d0cfd1"/><path d="m299.769531 387.003906h-23.125c4.164063 0 7.542969 3.375 7.542969 7.539063v75.464843c0 4.164063-3.378906 7.539063-7.542969 7.539063h23.125c4.164063 0 7.539063-3.375 7.539063-7.539063v-75.464843c0-4.164063-3.375-7.539063-7.539063-7.539063zm0 0" fill="#838383"/><path d="m447.441406 80.035156h-420.199218c-14.746094 0-26.742188 12-26.742188 26.746094v298.019531c0 14.746094 11.996094 26.742188 26.742188 26.742188h420.199218c14.746094 0 26.746094-11.996094 26.746094-26.742188v-298.019531c-.003906-14.746094-12-26.746094-26.746094-26.746094zm0 0" fill="#fff4f1"/><path d="m447.441406 80.035156h-23.125c14.75 0 26.746094 12 26.746094 26.746094v298.019531c0 14.746094-11.996094 26.742188-26.746094 26.742188h23.125c14.746094 0 26.746094-11.996094 26.746094-26.742188v-298.019531c-.003906-14.746094-12-26.746094-26.746094-26.746094zm0 0" fill="#ecedef"/><path d="m474.183594 144.957031v-38.175781c0-14.746094-11.996094-26.746094-26.742188-26.746094h-420.199218c-14.746094 0-26.742188 12-26.742188 26.746094v38.175781zm0 0" fill="#4890e3"/><path d="m447.441406 80.035156h-23.125c14.75 0 26.746094 12 26.746094 26.746094v38.175781h23.125v-38.175781c-.003906-14.746094-12-26.746094-26.746094-26.746094zm0 0" fill="#2970d6"/><path d="m.5 366.621094v38.179687c0 14.746094 11.996094 26.742188 26.746094 26.742188h420.195312c14.746094 0 26.746094-11.996094 26.746094-26.742188v-38.179687zm0 0" fill="#4890e3"/><path d="m451.0625 404.800781c0 14.746094-12 26.742188-26.746094 26.742188h23.125c14.746094 0 26.742188-11.996094 26.742188-26.742188v-38.179687h-23.121094zm0 0" fill="#2970d6"/><path d="m345.417969 469.96875c-4.847657-4.976562-11.875-7.5-20.878907-7.5h-174.292968c-9.230469 0-16.375 2.558594-21.242188 7.605469-7.796875 8.085937-7.371094 19.746093-7.058594 28.257812.078126 2.160157.15625 4.199219.0625 5.648438-.132812 2.078125.601563 4.121093 2.027344 5.640625 1.425782 1.515625 3.414063 2.378906 5.496094 2.378906h215.722656c2.082032 0 4.070313-.863281 5.496094-2.378906 1.425781-1.519532 2.160156-3.5625 2.027344-5.640625-.089844-1.421875-.039063-3.390625.015625-5.472657.222656-8.621093.535156-20.421874-7.375-28.539062zm0 0" fill="#9c9b9d"/><path d="m345.417969 469.96875c-4.847657-4.976562-11.875-7.5-20.878907-7.5h-23.125c9.007813 0 16.03125 2.523438 20.878907 7.5 7.910156 8.117188 7.601562 19.917969 7.375 28.539062-.054688 2.082032-.105469 4.050782-.015625 5.472657.132812 2.078125-.601563 4.121093-2.027344 5.640625-1.421875 1.515625-3.414062 2.378906-5.496094 2.378906h23.121094c2.082031 0 4.074219-.863281 5.5-2.378906 1.425781-1.519532 2.15625-3.5625 2.027344-5.640625-.09375-1.421875-.042969-3.390625.011718-5.472657.226563-8.621093.539063-20.421874-7.371093-28.539062zm0 0" fill="#838383"/><path d="m140.777344 304.863281h-38.148438c-9.121094 0-16.542968-7.421875-16.542968-16.542969v-108.59375c0-9.121093 7.421874-16.539062 16.542968-16.539062h38.148438c9.121094 0 16.539062 7.417969 16.539062 16.539062v108.59375c0 9.121094-7.417968 16.542969-16.539062 16.542969zm-38.148438-126.597656c-.792968 0-1.460937.667969-1.460937 1.460937v108.59375c0 .792969.667969 1.460938 1.460937 1.460938h38.148438c.792968 0 1.460937-.667969 1.460937-1.460938v-108.59375c0-.792968-.667969-1.460937-1.460937-1.460937zm0 0" fill="#d0cfd1"/><path d="m411.796875 0c-44.214844 0-80.1875 35.972656-80.1875 80.191406 0 44.214844 35.972656 80.1875 80.1875 80.1875 44.21875 0 80.191406-35.972656 80.191406-80.1875 0-44.21875-35.972656-80.191406-80.191406-80.191406zm0 0" fill="#f9cd45"/><path d="m411.796875 0c-3.925781 0-7.78125.296875-11.558594.84375 38.753907 5.625 68.628907 39.054688 68.628907 79.34375s-29.875 73.722656-68.628907 79.347656c3.777344.546875 7.632813.84375 11.558594.84375 44.21875 0 80.191406-35.972656 80.191406-80.191406 0-44.214844-35.972656-80.1875-80.191406-80.1875zm0 0" fill="#f8c03c"/><path d="m178.605469 223.765625c-.121094-4.074219-3.460938-7.3125-7.535157-7.3125h-100.351562c-4.074219 0-7.414062 3.238281-7.535156 7.3125l-3.8125 125.40625c-.0625 2.039063.703125 4.015625 2.121094 5.480469 1.421874 1.460937 3.375 2.289062 5.414062 2.289062h107.976562c2.039063 0 3.992188-.828125 5.410157-2.289062 1.421875-1.464844 2.1875-3.441406 2.125-5.480469zm0 0" fill="#f45a3c"/><path d="m178.605469 223.765625c-.121094-4.074219-3.460938-7.3125-7.535157-7.3125h-23.125c4.074219 0 7.414063 3.238281 7.539063 7.3125l3.8125 125.40625c.0625 2.039063-.703125 4.015625-2.125 5.480469-1.417969 1.460937-3.371094 2.289062-5.410156 2.289062h23.121093c2.039063 0 3.992188-.828125 5.414063-2.289062 1.417969-1.464844 2.183594-3.441406 2.121094-5.480469zm0 0" fill="#e24a2a"/><path d="m381.539062 68.554688v-11.6875c0-8.152344 5.351563-11.113282 12.347657-11.113282 6.914062 0 12.347656 2.960938 12.347656 11.113282v11.6875c0 8.148437-5.433594 11.113281-12.347656 11.113281-6.996094 0-12.347657-2.964844-12.347657-11.113281zm16.464844-11.6875c0-2.71875-1.566406-3.953126-4.117187-3.953126s-4.03125 1.234376-4.03125 3.953126v11.6875c0 2.714843 1.480469 3.949218 4.03125 3.949218s4.117187-1.234375 4.117187-3.949218zm33.75-10.125c0 .492187-.082031 1.070312-.332031 1.5625l-28.972656 59.347656c-.578125 1.238281-2.140625 2.058594-3.707031 2.058594-2.796876 0-4.609376-2.304688-4.609376-4.363282 0-.492187.164063-1.066406.414063-1.5625l28.890625-59.347656c.660156-1.402344 1.976562-2.058594 3.457031-2.058594 2.304688 0 4.859375 1.726563 4.859375 4.363282zm-12.429687 48.316406v-11.6875c0-8.148438 5.347656-11.113282 12.347656-11.113282 6.914063 0 12.347656 2.964844 12.347656 11.113282v11.6875c0 8.148437-5.433593 11.113281-12.347656 11.113281-6.996094 0-12.347656-2.960937-12.347656-11.113281zm16.460937-11.6875c0-2.714844-1.5625-3.949219-4.113281-3.949219-2.554687 0-4.035156 1.234375-4.035156 3.949219v11.6875c0 2.71875 1.480469 3.953125 4.035156 3.953125 2.550781 0 4.113281-1.234375 4.113281-3.953125zm0 0" fill="#fff4f1"/><path d="m430.972656 172.765625h-207.210937c-4.164063 0-7.539063 3.375-7.539063 7.539063v59.203124c0 4.164063 3.375 7.539063 7.539063 7.539063h207.210937c4.164063 0 7.539063-3.375 7.539063-7.539063v-59.203124c0-4.164063-3.375-7.539063-7.539063-7.539063zm0 0" fill="#f9e075"/><path d="m430.972656 172.765625h-23.121094c4.164063 0 7.539063 3.375 7.539063 7.539063v59.203124c0 4.164063-3.375 7.539063-7.539063 7.539063h23.121094c4.164063 0 7.539063-3.375 7.539063-7.539063v-59.203124c0-4.164063-3.375-7.539063-7.539063-7.539063zm0 0" fill="#f9cd45"/><g fill="#d0cfd1"><path d="m434.890625 282.789062h-213.371094c-4.164062 0-7.539062-3.378906-7.539062-7.542968 0-4.164063 3.375-7.539063 7.539062-7.539063h213.371094c4.164063 0 7.542969 3.375 7.542969 7.539063 0 4.164062-3.378906 7.542968-7.542969 7.542968zm0 0"/><path d="m434.890625 318.527344h-213.371094c-4.164062 0-7.539062-3.378906-7.539062-7.542969s3.375-7.539063 7.539062-7.539063h213.371094c4.164063 0 7.542969 3.375 7.542969 7.539063s-3.378906 7.542969-7.542969 7.542969zm0 0"/><path d="m434.890625 354.265625h-213.371094c-4.164062 0-7.539062-3.375-7.539062-7.539063 0-4.164062 3.375-7.539062 7.539062-7.539062h213.371094c4.164063 0 7.542969 3.375 7.542969 7.539062 0 4.164063-3.378906 7.539063-7.542969 7.539063zm0 0"/></g></svg>