<svg height="512pt" viewBox="-1 0 512 512.00088" width="512pt" xmlns="http://www.w3.org/2000/svg"><path d="m486.410156 189.792969h-139.929687c-13.464844 0-24.417969 10.953125-24.417969 24.421875v273.363281c0 13.46875 10.953125 24.421875 24.417969 24.421875h139.929687c13.464844 0 24.421875-10.953125 24.421875-24.421875v-273.363281c0-13.464844-10.957031-24.421875-24.421875-24.421875zm0 0" fill="#fff4f1"/><path d="m486.410156 189.792969h-24.03125c13.464844 0 24.417969 10.953125 24.417969 24.421875v273.363281c0 13.46875-10.953125 24.421875-24.417969 24.421875h24.03125c13.464844 0 24.421875-10.953125 24.421875-24.421875v-273.363281c0-13.464844-10.957031-24.421875-24.421875-24.421875zm0 0" fill="#ecedef"/><path d="m510.832031 248.628906v-34.414062c0-13.464844-10.957031-24.421875-24.421875-24.421875h-139.929687c-13.464844 0-24.417969 10.953125-24.417969 24.421875v34.414062zm0 0" fill="#f45a3c"/><path d="m486.410156 189.792969h-24.03125c13.464844 0 24.417969 10.953125 24.417969 24.421875v34.414062h24.035156v-34.414062c0-13.464844-10.957031-24.421875-24.421875-24.421875zm0 0" fill="#e24a2a"/><path d="m322.0625 453.164062v34.417969c0 13.464844 10.953125 24.417969 24.417969 24.417969h139.929687c13.464844 0 24.421875-10.953125 24.421875-24.417969v-34.417969zm0 0" fill="#f45a3c"/><path d="m486.796875 487.578125c0 13.46875-10.953125 24.421875-24.417969 24.421875h24.03125c4.207032 0 8.171875-1.070312 11.632813-2.953125.691406-.375 1.363281-.785156 2.011719-1.222656.648437-.441407 1.277343-.910157 1.882812-1.40625 5.425781-4.484375 8.894531-11.265625 8.894531-18.839844v-34.414063h-24.035156zm0 0" fill="#e24a2a"/><g fill="#d0cfd1"><path d="m473.492188 162.910156c-4.148438 0-7.511719-3.359375-7.511719-7.507812 0-27.316406-22.21875-49.535156-49.535157-49.535156-27.3125 0-49.535156 22.21875-49.535156 49.535156 0 4.148437-3.363281 7.507812-7.511718 7.507812-4.148438 0-7.507813-3.359375-7.507813-7.507812 0-35.597656 28.960937-64.558594 64.554687-64.558594 35.597657 0 64.558594 28.960938 64.558594 64.558594 0 4.148437-3.363281 7.507812-7.511718 7.507812zm0 0"/><path d="m444.675781 159.183594c-4.148437 0-7.511719-3.363282-7.511719-7.511719 0-11.425781-9.292968-20.71875-20.71875-20.71875-11.425781 0-20.71875 9.292969-20.71875 20.71875 0 4.148437-3.363281 7.511719-7.511718 7.511719-4.148438 0-7.507813-3.363282-7.507813-7.511719 0-19.707031 16.03125-35.742187 35.738281-35.742187 19.707032 0 35.742188 16.035156 35.742188 35.742187 0 4.148437-3.363281 7.511719-7.511719 7.511719zm0 0"/><path d="m416.445312 425.449219h-296.070312c-9.109375 0-16.523438-7.414063-16.523438-16.523438v-159.203125c0-4.144531 3.363282-7.507812 7.511719-7.507812 4.148438 0 7.511719 3.363281 7.511719 7.507812v159.203125c0 .816407.6875 1.503907 1.5 1.503907h288.5625v-93.503907c0-4.148437 3.359375-7.511719 7.507812-7.511719h86.875c4.148438 0 7.511719 3.363282 7.511719 7.511719 0 4.144531-3.363281 7.507813-7.511719 7.507813h-79.363281v93.503906c0 4.148438-3.363281 7.511719-7.511719 7.511719zm0 0"/></g><path d="m111.363281 305.039062c-18.914062 0-34.304687 15.386719-34.304687 34.304688 0 18.914062 15.390625 34.304688 34.304687 34.304688 18.917969 0 34.304688-15.390626 34.304688-34.304688 0-18.917969-15.390625-34.304688-34.304688-34.304688zm0 0" fill="#4890e3"/><path d="m229.984375 383.636719c-18.914063 0-34.304687 15.386719-34.304687 34.304687 0 18.914063 15.390624 34.304688 34.304687 34.304688 18.917969 0 34.304687-15.390625 34.304687-34.304688.003907-18.917968-15.386718-34.304687-34.304687-34.304687zm0 0" fill="#4890e3"/><path d="m416.445312 285.046875c-18.914062 0-34.304687 15.390625-34.304687 34.304687 0 18.917969 15.390625 34.304688 34.304687 34.304688 18.917969 0 34.304688-15.386719 34.304688-34.304688 0-18.914062-15.386719-34.304687-34.304688-34.304687zm0 0" fill="#4890e3"/><path d="m111.363281 305.039062c-4.226562 0-8.273437.769532-12.015625 2.175782 13.003906 4.878906 22.289063 17.4375 22.289063 32.128906 0 14.6875-9.285157 27.246094-22.289063 32.125 3.742188 1.40625 7.789063 2.179688 12.015625 2.179688 18.917969 0 34.304688-15.390626 34.304688-34.304688 0-18.917969-15.390625-34.304688-34.304688-34.304688zm0 0" fill="#2970d6"/><path d="m229.984375 383.636719c-4.226563 0-8.273437.769531-12.015625 2.175781 13.007812 4.878906 22.289062 17.4375 22.289062 32.128906 0 14.6875-9.28125 27.246094-22.289062 32.125 3.742188 1.40625 7.792969 2.179688 12.015625 2.179688 18.917969 0 34.304687-15.390625 34.304687-34.304688.003907-18.917968-15.386718-34.304687-34.304687-34.304687zm0 0" fill="#2970d6"/><path d="m416.445312 285.046875c-4.226562 0-8.273437.773437-12.015624 2.179687 13.003906 4.878907 22.289062 17.4375 22.289062 32.125 0 14.691407-9.285156 27.25-22.289062 32.128907 3.742187 1.40625 7.789062 2.175781 12.015624 2.175781 18.917969 0 34.304688-15.386719 34.304688-34.304688 0-18.914062-15.386719-34.304687-34.304688-34.304687zm0 0" fill="#2970d6"/><path d="m217.96875 257.234375h-191.933594c-4.148437 0-7.511718-3.363281-7.511718-7.511719v-133.242187c0-2.074219.859374-4.054688 2.371093-5.472657l95.964844-90.125c2.890625-2.714843 7.394531-2.714843 10.285156 0l95.964844 90.125c1.511719 1.417969 2.371094 3.398438 2.371094 5.472657v133.242187c0 4.148438-3.363281 7.511719-7.511719 7.511719zm0 0" fill="#fff4f1"/><path d="m223.109375 111.007812-95.964844-90.125c-2.890625-2.714843-7.394531-2.714843-10.285156 0l-6.875 6.457032 89.09375 83.667968c1.511719 1.417969 2.367187 3.398438 2.367187 5.472657v133.242187c0 4.148438-3.363281 7.511719-7.507812 7.511719h24.03125c4.148438 0 7.511719-3.363281 7.511719-7.511719v-133.242187c0-2.070313-.859375-4.054688-2.371094-5.472657zm0 0" fill="#ecedef"/><path d="m235.792969 97.167969-95.964844-90.128907c-9.996094-9.386718-25.65625-9.386718-35.648437 0l-95.964844 90.128907c-5.070313 4.757812-7.984375 11.210937-8.2031252 18.160156-.2148438 6.953125 2.2851562 13.570313 7.0468752 18.640625 4.761718 5.070312 11.210937 7.980469 18.164062 8.199219.277344.011719.558594.015625.835938.015625 6.644531 0 12.9375-2.488282 17.800781-7.058594l78.144531-73.386719 78.144532 73.386719c4.847656 4.550781 11.175781 7.058594 17.820312 7.058594 7.164062 0 14.082031-2.996094 18.984375-8.214844 9.824219-10.464844 9.304687-26.972656-1.160156-36.800781zm0 0" fill="#f45a3c"/><path d="m235.792969 97.167969-95.964844-90.128907c-8.21875-7.71875-20.261719-9.074218-29.84375-4.097656 2.070313 1.074219 4.035156 2.429688 5.808594 4.097656l95.96875 90.128907c10.464843 9.824219 10.980469 26.335937 1.152343 36.800781-2.023437 2.15625-4.394531 3.921875-6.980468 5.265625 3.679687 1.921875 7.792968 2.949219 12.035156 2.945313 7.160156 0 14.078125-2.992188 18.980469-8.210938 9.828125-10.464844 9.308593-26.972656-1.15625-36.800781zm0 0" fill="#e24a2a"/><path d="m122.003906 114.117188c-20.238281 0-36.703125 16.464843-36.703125 36.703124 0 20.238282 16.464844 36.699219 36.703125 36.699219 20.234375 0 36.699219-16.460937 36.699219-36.699219 0-20.238281-16.464844-36.703124-36.699219-36.703124zm0 0" fill="#d0cfd1"/><path d="m122.003906 114.117188c-4.210937 0-8.25.722656-12.019531 2.03125 14.351563 4.992187 24.6875 18.644531 24.6875 34.671874 0 16.027344-10.332031 29.679688-24.6875 34.671876 3.769531 1.308593 7.808594 2.027343 12.019531 2.027343 20.234375 0 36.699219-16.460937 36.699219-36.699219 0-20.238281-16.464844-36.703124-36.699219-36.703124zm0 0" fill="#b1b2b3"/></svg>