<svg height="512pt" viewBox="0 -14 512 512" width="512pt" xmlns="http://www.w3.org/2000/svg"><g fill="#d0cfd1"><path d="m256 155.546875c-34.90625 0-63.304688-28.398437-63.304688-63.304687s28.398438-63.304688 63.304688-63.304688 63.304688 28.398438 63.304688 63.304688-28.398438 63.304687-63.304688 63.304687zm0-111.609375c-26.636719 0-48.304688 21.667969-48.304688 48.304688 0 26.636718 21.667969 48.304687 48.304688 48.304687s48.304688-21.667969 48.304688-48.304687c0-26.636719-21.667969-48.304688-48.304688-48.304688zm0 0"/><path d="m256 184.484375c-50.863281 0-92.242188-41.378906-92.242188-92.242187 0-50.863282 41.378907-92.242188 92.242188-92.242188s92.242188 41.378906 92.242188 92.242188c0 50.863281-41.378907 92.242187-92.242188 92.242187zm0-169.484375c-42.589844 0-77.242188 34.648438-77.242188 77.242188s34.648438 77.242187 77.242188 77.242187 77.242188-34.652344 77.242188-77.242187c0-42.589844-34.652344-77.242188-77.242188-77.242188zm0 0"/><path d="m256 370.957031c-4.140625 0-7.5-3.359375-7.5-7.5v-241.542969c0-4.140624 3.359375-7.5 7.5-7.5s7.5 3.359376 7.5 7.5v241.542969c0 4.140625-3.359375 7.5-7.5 7.5zm0 0"/></g><path d="m462.261719 261.957031h-412.523438c-9.097656 0-16.5 7.402344-16.5 16.5v188.632813c0 9.097656 7.402344 16.5 16.5 16.5h412.523438c9.097656 0 16.5-7.402344 16.5-16.5v-188.632813c0-9.097656-7.402344-16.5-16.5-16.5zm0 0" fill="#4890e3"/><path d="m462.261719 261.957031h-23c9.097656 0 16.5 7.402344 16.5 16.5v188.632813c0 9.097656-7.402344 16.5-16.5 16.5h23c9.097656 0 16.5-7.402344 16.5-16.5v-188.632813c0-9.097656-7.402344-16.5-16.5-16.5zm0 0" fill="#2970d6"/><path d="m504.5 297.300781h-497c-4.140625 0-7.5 3.359375-7.5 7.5v135.941407c0 4.144531 3.359375 7.5 7.5 7.5h497c4.140625 0 7.5-3.355469 7.5-7.5v-135.941407c0-4.140625-3.359375-7.5-7.5-7.5zm0 0" fill="#646464"/><path d="m504.5 297.300781h-24c4.140625 0 7.5 3.359375 7.5 7.5v135.941407c0 4.144531-3.359375 7.5-7.5 7.5h24c4.140625 0 7.5-3.355469 7.5-7.5v-135.941407c0-4.140625-3.359375-7.5-7.5-7.5zm0 0" fill="#4b4b4b"/><path d="m101.757812 336.285156h-59.34375c-4.144531 0-7.5 3.359375-7.5 7.5v43.546875c0 4.140625 3.355469 7.5 7.5 7.5h2.492188v6.925781c0 4.140626 3.359375 7.5 7.5 7.5h39.355469c4.140625 0 7.5-3.359374 7.5-7.5v-6.925781h2.496093c4.140626 0 7.5-3.359375 7.5-7.5v-43.546875c0-4.140625-3.359374-7.5-7.5-7.5zm0 0" fill="#f9cd45"/><path d="m198.578125 336.285156h-59.339844c-4.144531 0-7.5 3.359375-7.5 7.5v43.546875c0 4.140625 3.355469 7.5 7.5 7.5h2.492188v6.925781c0 4.140626 3.359375 7.5 7.5 7.5h39.355469c4.140624 0 7.5-3.359374 7.5-7.5v-6.925781h2.496093c4.140625 0 7.5-3.359375 7.5-7.5v-43.546875c-.003906-4.140625-3.359375-7.5-7.503906-7.5zm0 0" fill="#f9cd45"/><path d="m295.402344 336.285156h-59.339844c-4.144531 0-7.5 3.359375-7.5 7.5v43.546875c0 4.140625 3.355469 7.5 7.5 7.5h2.492188v6.925781c0 4.140626 3.359374 7.5 7.5 7.5h39.355468c4.140625 0 7.5-3.359374 7.5-7.5v-6.925781h2.496094c4.140625 0 7.5-3.359375 7.5-7.5v-43.546875c-.003906-4.140625-3.359375-7.5-7.503906-7.5zm0 0" fill="#f9cd45"/><path d="m359.46875 338.183594c-19.074219 0-34.589844 15.515625-34.589844 34.589844 0 19.070312 15.515625 34.585937 34.589844 34.585937 19.070312 0 34.585938-15.515625 34.585938-34.585937 0-19.074219-15.515626-34.589844-34.585938-34.589844zm0 0" fill="#f45a3c"/><path d="m445.847656 338.183594c-19.070312 0-34.585937 15.515625-34.585937 34.589844 0 19.070312 15.515625 34.585937 34.585937 34.585937 19.074219 0 34.589844-15.515625 34.589844-34.585937 0-19.074219-15.515625-34.589844-34.589844-34.589844zm0 0" fill="#4890e3"/><path d="m101.757812 336.285156h-23c4.140626 0 7.5 3.359375 7.5 7.5v43.546875c0 4.140625-3.359374 7.5-7.5 7.5h-2.496093v6.925781c0 4.140626-3.359375 7.5-7.5 7.5h23c4.140625 0 7.5-3.359374 7.5-7.5v-6.925781h2.496093c4.140626 0 7.5-3.359375 7.5-7.5v-43.546875c0-4.140625-3.359374-7.5-7.5-7.5zm0 0" fill="#f8c03c"/><path d="m198.578125 336.285156h-23c4.144531 0 7.5 3.359375 7.5 7.5v43.546875c0 4.140625-3.355469 7.5-7.5 7.5h-2.492187v6.925781c0 4.140626-3.359376 7.5-7.5 7.5h23c4.140624 0 7.5-3.359374 7.5-7.5v-6.925781h2.492187c4.144531 0 7.5-3.359375 7.5-7.5v-43.546875c0-4.140625-3.355469-7.5-7.5-7.5zm0 0" fill="#f8c03c"/><path d="m295.402344 336.285156h-23c4.144531 0 7.5 3.359375 7.5 7.5v43.546875c0 4.140625-3.355469 7.5-7.5 7.5h-2.492188v6.925781c0 4.140626-3.359375 7.5-7.5 7.5h23c4.140625 0 7.5-3.359374 7.5-7.5v-6.925781h2.492188c4.144531 0 7.5-3.359375 7.5-7.5v-43.546875c0-4.140625-3.355469-7.5-7.5-7.5zm0 0" fill="#f8c03c"/><path d="m359.46875 338.183594c-4.03125 0-7.902344.703125-11.5 1.972656 13.433594 4.753906 23.085938 17.574219 23.085938 32.617188 0 15.042968-9.652344 27.863281-23.085938 32.613281 3.597656 1.273437 7.46875 1.972656 11.5 1.972656 19.070312 0 34.585938-15.515625 34.585938-34.585937 0-19.074219-15.515626-34.589844-34.585938-34.589844zm0 0" fill="#e24a2a"/><path d="m445.847656 338.183594c-4.03125 0-7.898437.703125-11.5 1.972656 13.433594 4.753906 23.089844 17.574219 23.089844 32.617188 0 15.042968-9.65625 27.863281-23.089844 32.613281 3.601563 1.273437 7.46875 1.972656 11.5 1.972656 19.074219 0 34.589844-15.515625 34.589844-34.585937 0-19.074219-15.515625-34.589844-34.589844-34.589844zm0 0" fill="#2970d6"/><path d="m256 55.070312c-20.496094 0-37.171875 16.675782-37.171875 37.171876 0 20.496093 16.675781 37.171874 37.171875 37.171874s37.171875-16.675781 37.171875-37.171874c0-20.496094-16.675781-37.171876-37.171875-37.171876zm0 0" fill="#4890e3"/><path d="m256 55.070312c-4.199219 0-8.230469.710938-12 2 14.625 5.003907 25.171875 18.875 25.171875 35.171876 0 16.296874-10.546875 30.167968-25.171875 35.171874 3.769531 1.289063 7.800781 2 12 2 20.496094 0 37.171875-16.675781 37.171875-37.171874 0-20.496094-16.675781-37.171876-37.171875-37.171876zm0 0" fill="#2970d6"/></svg>