<svg height="512pt" viewBox="0 0 512 512" width="512pt" xmlns="http://www.w3.org/2000/svg"><path d="m451.875 447.597656c-1.25-2.640625-3.910156-4.324218-6.832031-4.324218h-9.546875v-119.421876c0-4.175781-3.386719-7.5625-7.5625-7.5625h-52.398438c-4.175781 0-7.5625 3.386719-7.5625 7.5625v119.425782h-9.546875c-2.917969 0-5.578125 1.679687-6.832031 4.320312-1.253906 2.636719-.871094 5.761719.972656 8.023438l43.308594 53.054687c1.4375 1.761719 3.589844 2.78125 5.859375 2.78125 2.273437 0 4.425781-1.019531 5.859375-2.78125l43.308594-53.054687c1.847656-2.261719 2.226562-5.386719.972656-8.023438zm0 0" fill="#4890e3"/><path d="m451.875 447.597656c-1.25-2.640625-3.910156-4.324218-6.832031-4.324218h-9.546875v-119.421876c0-4.175781-3.386719-7.5625-7.5625-7.5625h-23.195313c4.179688 0 7.566407 3.386719 7.566407 7.5625v119.425782h9.542968c2.921875 0 5.582032 1.679687 6.835938 4.320312 1.25 2.636719.871094 5.761719-.976563 8.023438l-37.570312 46.027344 5.738281 7.027343c1.4375 1.761719 3.589844 2.78125 5.859375 2.78125 2.273437 0 4.425781-1.019531 5.859375-2.78125l43.308594-53.054687c1.847656-2.261719 2.226562-5.386719.972656-8.023438zm0 0" fill="#2970d6"/><path d="m158.25 389.308594-43.308594-53.054688c-1.433594-1.757812-3.585937-2.777344-5.859375-2.777344-2.269531 0-4.421875 1.019532-5.859375 2.777344l-43.304687 53.054688c-1.847657 2.261718-2.226563 5.386718-.976563 8.027344 1.253906 2.636718 3.914063 4.320312 6.835938 4.320312h9.542968v69c0 4.175781 3.386719 7.5625 7.566407 7.5625h52.398437c4.175782 0 7.5625-3.386719 7.5625-7.5625v-69h9.546875c2.917969 0 5.578125-1.683594 6.832031-4.320312 1.25-2.640626.871094-5.765626-.976562-8.027344zm0 0" fill="#f45a3c"/><path d="m158.25 389.308594-43.308594-53.054688c-1.433594-1.757812-3.585937-2.777344-5.859375-2.777344-2.269531 0-4.421875 1.019532-5.859375 2.777344l-5.734375 7.03125 37.566407 46.023438c1.847656 2.261718 2.226562 5.386718.976562 8.027344-1.253906 2.636718-3.914062 4.320312-6.832031 4.320312h-9.546875v69c0 4.175781-3.386719 7.5625-7.566406 7.5625h23.195312c4.179688 0 7.566406-3.386719 7.566406-7.5625v-69h9.542969c2.921875 0 5.582031-1.683594 6.835937-4.320312 1.25-2.640626.871094-5.765626-.976562-8.027344zm0 0" fill="#e24a2a"/><path d="m282.9375 307.050781v58.835938c0 11.648437 12.433594 20.847656 36.957031 27.34375 20.816407 5.515625 48.367188 8.550781 77.574219 8.550781s56.753906-3.035156 77.574219-8.550781c24.523437-6.496094 36.957031-15.695313 36.957031-27.34375v-58.835938zm0 0" fill="#838383"/><path d="m282.9375 244.285156v60.476563c0 11.648437 12.433594 20.851562 36.957031 27.347656 20.816407 5.511719 48.367188 8.550781 77.574219 8.550781s56.753906-3.039062 77.574219-8.550781c24.523437-6.496094 36.957031-15.699219 36.957031-27.347656v-60.476563zm0 0" fill="#9c9b9d"/><path d="m282.9375 183.496094v60.140625c0 11.648437 12.433594 20.851562 36.957031 27.34375 20.816407 5.515625 48.367188 8.550781 77.574219 8.550781s56.753906-3.035156 77.574219-8.550781c24.523437-6.492188 36.957031-15.695313 36.957031-27.34375v-60.140625zm0 0" fill="#838383"/><path d="m475.042969 155.167969c-20.820313-5.515625-48.367188-8.550781-77.574219-8.550781s-56.757812 3.035156-77.574219 8.550781c-24.523437 6.492187-36.957031 15.695312-36.957031 27.34375 0 11.648437 12.433594 20.851562 36.957031 27.347656 20.816407 5.511719 48.367188 8.550781 77.574219 8.550781s56.753906-3.039062 77.574219-8.550781c24.523437-6.496094 36.957031-15.699219 36.957031-27.347656 0-11.648438-12.433594-20.851563-36.957031-27.34375zm0 0" fill="#9c9b9d"/><g fill="#797575"><path d="m487.796875 307.050781v58.835938c0 11.648437-12.433594 20.847656-36.957031 27.34375-17.914063 4.746093-40.820313 7.648437-65.472656 8.371093 3.996093.113282 8.03125.179688 12.101562.179688 29.207031 0 56.757812-3.035156 77.574219-8.550781 24.523437-6.496094 36.957031-15.695313 36.957031-27.34375v-58.835938zm0 0"/><path d="m487.796875 244.285156v60.476563c0 11.648437-12.433594 20.851562-36.957031 27.347656-17.914063 4.742187-40.820313 7.648437-65.472656 8.367187 3.996093.117188 8.03125.183594 12.101562.183594 29.207031 0 56.757812-3.039062 77.574219-8.550781 24.523437-6.496094 36.957031-15.699219 36.957031-27.347656v-60.476563zm0 0"/><path d="m487.796875 183.496094v60.140625c0 11.648437-12.433594 20.851562-36.957031 27.34375-17.914063 4.746093-40.820313 7.652343-65.472656 8.371093 3.996093.117188 8.03125.179688 12.101562.179688 29.207031 0 56.757812-3.035156 77.574219-8.550781 24.523437-6.492188 36.957031-15.695313 36.957031-27.34375v-60.140625zm0 0"/><path d="m475.042969 155.167969c-20.820313-5.515625-48.367188-8.550781-77.574219-8.550781-4.070312 0-8.109375.0625-12.101562.179687 24.652343.71875 47.558593 3.625 65.472656 8.371094 24.523437 6.492187 36.957031 15.695312 36.957031 27.34375 0 11.648437-12.433594 20.851562-36.957031 27.347656-17.914063 4.742187-40.820313 7.648437-65.472656 8.367187 3.996093.117188 8.03125.183594 12.101562.183594 29.207031 0 56.753906-3.039062 77.574219-8.550781 24.523437-6.496094 36.957031-15.699219 36.957031-27.347656 0-11.648438-12.433594-20.851563-36.957031-27.34375zm0 0"/></g><path d="m0 242.105469v58.835937c0 11.648438 12.433594 20.851563 36.957031 27.34375 20.816407 5.515625 48.367188 8.550782 77.574219 8.550782s56.757812-3.035157 77.574219-8.550782c24.523437-6.492187 36.957031-15.695312 36.957031-27.34375v-58.835937zm0 0" fill="#838383"/><path d="m0 179.339844v60.476562c0 11.648438 12.433594 20.851563 36.957031 27.347656 20.816407 5.511719 48.367188 8.550782 77.574219 8.550782s56.757812-3.039063 77.574219-8.550782c24.523437-6.496093 36.957031-15.699218 36.957031-27.347656v-60.476562zm0 0" fill="#9c9b9d"/><path d="m0 118.550781v60.140625c0 11.648438 12.433594 20.851563 36.957031 27.347656 20.816407 5.511719 48.367188 8.550782 77.574219 8.550782s56.757812-3.039063 77.574219-8.550782c24.523437-6.496093 36.957031-15.699218 36.957031-27.347656v-60.140625zm0 0" fill="#838383"/><path d="m192.105469 90.222656c-20.816407-5.515625-48.367188-8.550781-77.574219-8.550781s-56.757812 3.035156-77.574219 8.550781c-24.523437 6.496094-36.957031 15.695313-36.957031 27.34375 0 11.652344 12.433594 20.851563 36.957031 27.347656 20.816407 5.515626 48.367188 8.550782 77.574219 8.550782s56.757812-3.035156 77.574219-8.550782c24.523437-6.496093 36.957031-15.695312 36.957031-27.347656 0-11.648437-12.433594-20.847656-36.957031-27.34375zm0 0" fill="#9c9b9d"/><path d="m204.859375 242.105469v58.835937c0 11.648438-12.433594 20.851563-36.957031 27.34375-17.914063 4.746094-40.820313 7.652344-65.472656 8.371094 3.996093.117188 8.03125.179688 12.101562.179688 29.207031 0 56.757812-3.035157 77.574219-8.550782 24.523437-6.492187 36.957031-15.695312 36.957031-27.34375v-58.835937zm0 0" fill="#797575"/><path d="m204.859375 179.339844v60.476562c0 11.648438-12.433594 20.851563-36.957031 27.347656-17.914063 4.742188-40.820313 7.648438-65.472656 8.367188 3.996093.117188 8.03125.183594 12.101562.183594 29.207031 0 56.757812-3.039063 77.574219-8.550782 24.523437-6.496093 36.957031-15.699218 36.957031-27.347656v-60.476562zm0 0" fill="#797575"/><path d="m204.859375 118.550781v60.140625c0 11.648438-12.433594 20.851563-36.957031 27.347656-17.914063 4.742188-40.820313 7.648438-65.472656 8.367188 3.996093.117188 8.03125.183594 12.101562.183594 29.207031 0 56.757812-3.039063 77.574219-8.550782 24.523437-6.496093 36.957031-15.699218 36.957031-27.347656v-60.140625zm0 0" fill="#797575"/><path d="m192.105469 90.222656c-20.816407-5.515625-48.367188-8.550781-77.574219-8.550781-4.070312 0-8.109375.066406-12.101562.179687 24.652343.71875 47.558593 3.625 65.472656 8.371094 24.523437 6.496094 36.957031 15.695313 36.957031 27.34375 0 11.652344-12.433594 20.851563-36.957031 27.347656-17.914063 4.746094-40.820313 7.648438-65.472656 8.371094 3.996093.113282 8.03125.179688 12.101562.179688 29.207031 0 56.757812-3.035156 77.574219-8.550782 24.523437-6.496093 36.957031-15.695312 36.957031-27.347656 0-11.648437-12.433594-20.847656-36.957031-27.34375zm0 0" fill="#797575"/><path d="m401.742188 94.390625c-.507813 0-1.019532-.050781-1.535157-.160156l-292.652343-60.464844c-4.09375-.847656-6.722657-4.847656-5.878907-8.9375.847657-4.089844 4.847657-6.726563 8.9375-5.878906l292.652344 60.46875c4.09375.84375 6.722656 4.847656 5.875 8.9375-.738281 3.574219-3.886719 6.035156-7.398437 6.035156zm0 0" fill="#d0cfd1"/><path d="m401.734375 190.65625c-4.175781 0-7.5625-3.386719-7.5625-7.5625v-72.773438c0-4.175781 3.386719-7.5625 7.5625-7.5625 4.179687 0 7.566406 3.386719 7.566406 7.5625v72.773438c0 4.175781-3.386719 7.5625-7.566406 7.5625zm0 0" fill="#d0cfd1"/><path d="m401.734375 60.46875c-14.53125 0-26.355469 11.824219-26.355469 26.355469 0 14.535156 11.824219 26.359375 26.355469 26.359375 14.535156 0 26.359375-11.824219 26.359375-26.359375 0-14.53125-11.824219-26.355469-26.359375-26.355469zm0 0" fill="#f9cd45"/><path d="m109.082031 130.191406c-4.175781 0-7.5625-3.386718-7.5625-7.566406v-72.769531c0-4.179688 3.386719-7.566407 7.5625-7.566407s7.5625 3.386719 7.5625 7.566407v72.769531c0 4.179688-3.382812 7.566406-7.5625 7.566406zm0 0" fill="#d0cfd1"/><path d="m109.082031 0c-14.535156 0-26.355469 11.824219-26.355469 26.359375 0 14.53125 11.824219 26.355469 26.355469 26.355469 14.535157 0 26.359375-11.824219 26.359375-26.355469 0-14.535156-11.824218-26.359375-26.359375-26.359375zm0 0" fill="#f9cd45"/><path d="m252.941406 28.789062c-14.535156 0-26.359375 11.824219-26.359375 26.359376 0 14.53125 11.824219 26.355468 26.359375 26.355468 14.53125 0 26.355469-11.824218 26.355469-26.355468 0-14.535157-11.824219-26.359376-26.355469-26.359376zm0 0" fill="#f9cd45"/><path d="m401.734375 60.46875c-4.359375 0-8.472656 1.070312-12.101563 2.953125 8.460938 4.390625 14.257813 13.230469 14.257813 23.402344s-5.796875 19.011719-14.257813 23.402343c3.628907 1.882813 7.742188 2.957032 12.101563 2.957032 14.535156 0 26.359375-11.824219 26.359375-26.359375 0-14.535157-11.824219-26.355469-26.359375-26.355469zm0 0" fill="#f8c03c"/><path d="m109.082031 0c-4.359375 0-8.472656 1.070312-12.101562 2.953125 8.460937 4.394531 14.257812 13.230469 14.257812 23.402344s-5.796875 19.011719-14.257812 23.40625c3.628906 1.882812 7.742187 2.953125 12.101562 2.953125 14.535157 0 26.359375-11.824219 26.359375-26.359375 0-14.53125-11.824218-26.355469-26.359375-26.355469zm0 0" fill="#f8c03c"/><path d="m252.941406 28.789062c-4.363281 0-8.476562 1.070313-12.101562 2.953126 8.457031 4.394531 14.253906 13.230468 14.253906 23.402343 0 10.175781-5.796875 19.011719-14.253906 23.40625 3.625 1.882813 7.738281 2.953125 12.101562 2.953125 14.53125 0 26.355469-11.824218 26.355469-26.359375 0-14.53125-11.824219-26.355469-26.355469-26.355469zm0 0" fill="#f8c03c"/></svg>