<svg height="512pt" viewBox="-79 0 512 512" width="512pt" xmlns="http://www.w3.org/2000/svg"><path d="m322.96875 71.675781h-229.855469c-17.082031 0-30.976562 13.894531-30.976562 30.976563v378.371094c0 17.082031 13.894531 30.976562 30.976562 30.976562h229.855469c17.082031 0 30.976562-13.894531 30.976562-30.976562v-378.371094c0-17.082032-13.898437-30.976563-30.976562-30.976563zm0 0" fill="#fff4f1"/><path d="m322.96875 71.675781h-24.226562c17.082031 0 30.976562 13.894531 30.976562 30.976563v378.371094c0 17.082031-13.894531 30.976562-30.976562 30.976562h24.226562c17.082031 0 30.976562-13.894531 30.976562-30.976562v-378.371094c0-17.082032-13.898437-30.976563-30.976562-30.976563zm0 0" fill="#ecedef"/><path d="m62.136719 436.683594v44.339844c0 17.082031 13.894531 30.976562 30.976562 30.976562h229.855469c17.082031 0 30.976562-13.894531 30.976562-30.976562v-44.339844zm0 0" fill="#d0cfd1"/><path d="m329.71875 481.023438c0 17.082031-13.898438 30.976562-30.976562 30.976562h24.226562c17.078125 0 30.976562-13.894531 30.976562-30.976562v-44.339844h-24.226562zm0 0" fill="#c4c3c4"/><path d="m240.042969 198.855469c-21.820313 0-39.574219 17.753906-39.574219 39.574219v139.644531c0 13.472656-10.960938 24.429687-24.433594 24.429687-13.46875 0-24.429687-10.957031-24.429687-24.429687v-139.644531c0-4.179688-3.390625-7.570313-7.570313-7.570313-4.179687 0-7.570312 3.390625-7.570312 7.570313v139.644531c0 21.820312 17.75 39.574219 39.570312 39.574219 21.824219 0 39.574219-17.753907 39.574219-39.574219v-139.644531c0-13.472657 10.960937-24.429688 24.433594-24.429688 13.46875 0 24.429687 10.957031 24.429687 24.429688v115.253906c0 4.179687 3.386719 7.570312 7.570313 7.570312 4.183593 0 7.570312-3.390625 7.570312-7.570312v-115.253906c0-21.820313-17.753906-39.574219-39.570312-39.574219zm0 0" fill="#d0cfd1"/><path d="m272.042969 344.53125c-14.769531 0-26.789063 12.015625-26.789063 26.789062 0 22.957032 21.605469 37.9375 22.527344 38.5625 1.285156.875 2.773438 1.3125 4.261719 1.3125s2.976562-.4375 4.261719-1.3125c.917968-.628906 22.527343-15.605468 22.527343-38.5625 0-14.769531-12.019531-26.789062-26.789062-26.789062zm0 0" fill="#f45a3c"/><path d="m263.03125 177.28125c-4.179688 0-7.570312-3.390625-7.570312-7.570312 0-27.992188-22.769532-50.761719-50.761719-50.761719-27.988281 0-50.761719 22.769531-50.761719 50.761719 0 4.179687-3.390625 7.570312-7.570312 7.570312-4.179688 0-7.570313-3.390625-7.570313-7.570312 0-36.339844 29.5625-65.90625 65.902344-65.90625 36.339843 0 65.902343 29.566406 65.902343 65.90625 0 4.179687-3.386718 7.570312-7.570312 7.570312zm0 0" fill="#d0cfd1"/><path d="m233.566406 173.464844c-4.183594 0-7.570312-3.386719-7.570312-7.570313 0-11.742187-9.554688-21.292969-21.296875-21.292969-11.742188 0-21.296875 9.550782-21.296875 21.292969 0 4.183594-3.386719 7.570313-7.570313 7.570313-4.179687 0-7.570312-3.386719-7.570312-7.570313 0-20.089843 16.347656-36.4375 36.4375-36.4375 20.089843 0 36.4375 16.347657 36.4375 36.4375 0 4.183594-3.390625 7.570313-7.570313 7.570313zm0 0" fill="#d0cfd1"/><path d="m74.066406 0c-40.839844 0-74.066406 33.226562-74.066406 74.066406s33.226562 74.066406 74.066406 74.066406 74.066406-33.226562 74.066406-74.066406-33.226562-74.066406-74.066406-74.066406zm0 0" fill="#00bf9e"/><path d="m74.066406 0c-3.949218 0-7.824218.316406-11.609375.917969 35.347657 5.585937 62.460938 36.257812 62.460938 73.148437 0 36.894532-27.113281 67.566406-62.460938 73.152344 3.785157.597656 7.660157.917969 11.609375.917969 40.839844 0 74.066406-33.226563 74.066406-74.066407 0-40.839843-33.226562-74.070312-74.066406-74.070312zm0 0" fill="#00a983"/><path d="m67.65625 96.988281c-.085938 0-.175781 0-.261719-.003906-2.203125-.074219-4.261719-1.105469-5.640625-2.824219l-15.535156-19.34375c-2.617188-3.261718-2.09375-8.027344 1.164062-10.644531 3.261719-2.617187 8.027344-2.097656 10.644532 1.164063l10.027344 12.488281 22.390624-24.246094c2.835938-3.070313 7.628907-3.261719 10.699219-.425781 3.070313 2.839844 3.261719 7.628906.425781 10.699218l-28.355468 30.703126c-1.433594 1.554687-3.449219 2.433593-5.558594 2.433593zm0 0" fill="#fff4f1"/><path d="m144.035156 207.1875c-14.769531 0-26.789062 12.015625-26.789062 26.789062 0 22.957032 21.609375 37.9375 22.527344 38.5625 1.285156.875 2.773437 1.3125 4.261718 1.3125 1.488282 0 2.976563-.4375 4.261719-1.3125.921875-.628906 22.527344-15.605468 22.527344-38.5625 0-14.773437-12.015625-26.789062-26.789063-26.789062zm0 0" fill="#f45a3c"/></svg>