<svg height="512pt" viewBox="-22 0 512 512" width="512pt" xmlns="http://www.w3.org/2000/svg"><path d="m413.957031 149.179688h-383.636719c-16.71875 0-30.320312 13.601562-30.320312 30.320312v302.179688c0 16.71875 13.601562 30.320312 30.320312 30.320312h383.636719c16.71875 0 30.320313-13.601562 30.320313-30.320312v-302.179688c0-16.71875-13.601563-30.320312-30.320313-30.320312zm0 0" fill="#d0cfd1"/><path d="m413.957031 149.179688h-23.226562c16.71875 0 30.320312 13.601562 30.320312 30.320312v302.179688c0 16.71875-13.601562 30.320312-30.320312 30.320312h23.226562c16.71875 0 30.320313-13.601562 30.320313-30.320312v-302.179688c0-16.71875-13.601563-30.320312-30.320313-30.320312zm0 0" fill="#9c9b9d"/><path d="m0 434.589844v47.089844c0 16.71875 13.601562 30.320312 30.320312 30.320312h383.632813c16.71875 0 30.320313-13.601562 30.320313-30.320312v-47.089844zm0 0" fill="#646464"/><path d="m421.050781 481.679688c0 16.71875-13.601562 30.320312-30.320312 30.320312h23.226562c16.71875 0 30.320313-13.601562 30.320313-30.320312v-47.089844h-23.226563zm0 0" fill="#4b4b4b"/><path d="m441.636719 0h-66.328125c-14.554688 0-26.394532 11.839844-26.394532 26.394531v228.6875c0 14.554688 11.839844 26.398438 26.394532 26.398438h66.328125c14.554687 0 26.394531-11.84375 26.394531-26.398438v-228.6875c0-14.554687-11.839844-26.394531-26.394531-26.394531zm0 0" fill="#646464"/><path d="m441.636719 0h-24.234375c14.554687 0 26.398437 11.839844 26.398437 26.394531v228.6875c0 14.554688-11.84375 26.398438-26.398437 26.398438h24.234375c14.554687 0 26.394531-11.84375 26.394531-26.398438v-228.6875c0-14.554687-11.839844-26.394531-26.394531-26.394531zm0 0" fill="#4b4b4b"/><path d="m408.472656 92.425781c12.082032 0 21.914063-9.828125 21.914063-21.910156v-25.304687c0-12.082032-9.832031-21.914063-21.914063-21.914063-12.082031 0-21.910156 9.832031-21.910156 21.914063v25.304687c0 12.082031 9.828125 21.910156 21.910156 21.910156zm0 0" fill="#d0cfd1"/><path d="m408.472656 166.949219c12.082032 0 21.914063-9.832031 21.914063-21.914063v-25.304687c0-12.082031-9.832031-21.910157-21.914063-21.910157-12.082031 0-21.910156 9.828126-21.910156 21.910157v25.304687c0 12.082032 9.828125 21.914063 21.910156 21.914063zm0 0" fill="#d0cfd1"/><path d="m408.472656 181.816406c-21.140625 0-38.34375 17.199219-38.34375 38.339844 0 21.144531 17.199219 38.34375 38.34375 38.34375 21.144532 0 38.34375-17.199219 38.34375-38.34375 0-21.140625-17.199218-38.339844-38.34375-38.339844zm0 0" fill="#f45a3c"/><path d="m408.472656 23.296875c-3.640625 0-7.070312.898437-10.097656 2.476563 7.015625 3.65625 11.816406 10.992187 11.816406 19.4375v25.304687c0 8.441406-4.800781 15.777344-11.816406 19.4375 3.027344 1.574219 6.457031 2.472656 10.097656 2.472656 12.082032 0 21.914063-9.828125 21.914063-21.910156v-25.304687c0-12.082032-9.832031-21.914063-21.914063-21.914063zm0 0" fill="#9c9b9d"/><path d="m408.472656 97.820312c-3.640625 0-7.070312.898438-10.097656 2.472657 7.015625 3.660156 11.816406 10.996093 11.816406 19.4375v25.304687c0 8.445313-4.800781 15.78125-11.816406 19.4375 3.027344 1.578125 6.457031 2.476563 10.097656 2.476563 12.082032 0 21.914063-9.832031 21.914063-21.914063v-25.304687c0-12.082031-9.832031-21.910157-21.914063-21.910157zm0 0" fill="#9c9b9d"/><path d="m408.472656 181.816406c-3.492187 0-6.878906.476563-10.097656 1.359375 16.257812 4.441407 28.246094 19.335938 28.246094 36.980469 0 17.648438-11.988282 32.542969-28.246094 36.984375 3.21875.882813 6.605469 1.359375 10.097656 1.359375 21.144532 0 38.34375-17.199219 38.34375-38.34375 0-21.140625-17.199218-38.339844-38.34375-38.339844zm0 0" fill="#e24a2a"/><path d="m213.460938 267.234375c3.648437 0 5.195312 3.976563 5.195312 7.625 0 4.203125-1.878906 7.847656-5.195312 7.847656h-15.253907v60.027344c0 3.539063-4.3125 5.308594-8.625 5.308594s-8.621093-1.769531-8.621093-5.308594v-60.027344h-15.257813c-3.316406 0-5.195313-3.644531-5.195313-7.847656 0-3.648437 1.546876-7.625 5.195313-7.625zm0 0" fill="#646464"/><path d="m220.203125 275.523438c-.109375-.441407-.222656-.882813-.222656-1.214844 0-4.089844 6.300781-7.074219 11.054687-7.074219 2.765625 0 4.976563.882813 5.640625 3.203125l15.476563 56.710938 15.363281-56.710938c.664063-2.320312 2.875-3.203125 5.640625-3.203125 4.753906 0 11.054688 2.984375 11.054688 7.074219 0 .332031-.113282.773437-.222657 1.214844l-20.5625 67.433593c-1.214843 3.871094-6.191406 5.75-11.273437 5.75-5.085938 0-10.0625-1.878906-11.277344-5.75zm0 0" fill="#646464"/><g fill="#d0cfd1"><path d="m280.488281 127.476562c-4.183593 0-7.574219-3.390624-7.574219-7.574218 0-27.996094-22.777343-50.777344-50.777343-50.777344-27.996094 0-50.777344 22.78125-50.777344 50.777344 0 4.183594-3.386719 7.574218-7.570313 7.574218-4.183593 0-7.574218-3.390624-7.574218-7.574218 0-36.347656 29.574218-65.921875 65.921875-65.921875 36.351562 0 65.921875 29.574219 65.921875 65.921875 0 4.183594-3.386719 7.574218-7.570313 7.574218zm0 0"/><path d="m251.011719 123.660156c-4.179688 0-7.570313-3.390625-7.570313-7.570312 0-11.746094-9.558594-21.304688-21.304687-21.304688-11.746094 0-21.300781 9.558594-21.300781 21.304688 0 4.179687-3.390626 7.570312-7.574219 7.570312-4.183594 0-7.574219-3.390625-7.574219-7.570312 0-20.097656 16.351562-36.449219 36.449219-36.449219 20.097656 0 36.449219 16.351563 36.449219 36.449219 0 4.179687-3.390626 7.570312-7.574219 7.570312zm0 0"/></g></svg>