<svg height="512pt" viewBox="-54 0 512 512.001" width="512pt" xmlns="http://www.w3.org/2000/svg"><path d="m387.140625 172.878906h-63.335937c-9.066407 0-16.445313 7.375-16.445313 16.445313v20.734375c0 9.070312 7.375 16.445312 16.445313 16.445312h63.335937c9.070313 0 16.445313-7.375 16.445313-16.445312v-20.734375c0-9.066407-7.375-16.445313-16.445313-16.445313zm0 0" fill="#d0cfd1"/><path d="m387.140625 272.160156h-63.335937c-9.066407 0-16.445313 7.378906-16.445313 16.445313v20.738281c0 9.066406 7.375 16.445312 16.445313 16.445312h63.335937c9.070313 0 16.445313-7.378906 16.445313-16.445312v-20.738281c0-9.066407-7.375-16.445313-16.445313-16.445313zm0 0" fill="#d0cfd1"/><path d="m387.140625 172.878906h-20.046875c9.066406 0 16.445312 7.375 16.445312 16.445313v20.734375c0 9.070312-7.378906 16.445312-16.445312 16.445312h20.046875c9.070313 0 16.445313-7.375 16.445313-16.445312v-20.734375c0-9.066407-7.375-16.445313-16.445313-16.445313zm0 0" fill="#c4c3c4"/><path d="m387.140625 272.160156h-20.046875c9.066406 0 16.445312 7.378906 16.445312 16.445313v20.738281c0 9.066406-7.378906 16.445312-16.445312 16.445312h20.046875c9.070313 0 16.445313-7.378906 16.445313-16.445312v-20.738281c0-9.066407-7.375-16.445313-16.445313-16.445313zm0 0" fill="#c4c3c4"/><path d="m77.683594 207.007812h-59.136719c-10.226563 0-18.546875 8.320313-18.546875 18.542969v36.832031c0 10.226563 8.320312 18.542969 18.546875 18.542969h59.136719c10.222656 0 18.542968-8.316406 18.542968-18.542969v-36.832031c0-10.222656-8.316406-18.542969-18.542968-18.542969zm0 0" fill="#d0cfd1"/><path d="m301.378906 240.957031-20.046875-234.082031c-.332031-3.886719-3.585937-6.875-7.492187-6.875h-136.167969c-3.902344 0-7.15625 2.988281-7.488281 6.875l-20.050782 234.082031c-.179687 2.097657.527344 4.175781 1.953126 5.726563 1.421874 1.550781 3.433593 2.433594 5.539062 2.433594h176.265625c2.105469 0 4.113281-.882813 5.539063-2.433594 1.421874-1.550782 2.128906-3.628906 1.949218-5.726563zm0 0" fill="#4890e3"/><path d="m301.378906 240.957031-20.046875-234.082031c-.332031-3.886719-3.585937-6.875-7.492187-6.875h-24.058594c3.90625 0 7.160156 2.988281 7.492188 6.875l20.050781 234.082031c.175781 2.097657-.53125 4.175781-1.953125 5.726563-1.425782 1.550781-3.433594 2.433594-5.539063 2.433594h24.058594c2.105469 0 4.113281-.882813 5.539063-2.433594 1.421874-1.550782 2.128906-3.628906 1.949218-5.726563zm0 0" fill="#2970d6"/><path d="m293.890625 262.882812h-176.265625c-4.152344 0-7.519531 3.367188-7.519531 7.519532v234.082031c0 4.152344 3.367187 7.515625 7.519531 7.515625h176.265625c4.152344 0 7.515625-3.363281 7.515625-7.515625v-234.082031c0-4.152344-3.363281-7.519532-7.515625-7.519532zm0 0" fill="#4890e3"/><path d="m293.890625 262.882812h-24.058594c4.152344 0 7.515625 3.367188 7.515625 7.519532v234.082031c0 4.152344-3.363281 7.515625-7.515625 7.515625h24.058594c4.152344 0 7.515625-3.363281 7.515625-7.515625v-234.082031c0-4.152344-3.363281-7.519532-7.515625-7.519532zm0 0" fill="#2970d6"/><path d="m205.757812 74.800781c-94.113281 0-170.675781 76.566407-170.675781 170.675781 0 94.113282 76.5625 170.675782 170.675781 170.675782 94.109376 0 170.675782-76.5625 170.675782-170.675782 0-94.109374-76.566406-170.675781-170.675782-170.675781zm0 0" fill="#2970d6"/><path d="m205.757812 74.800781c-2.519531 0-5.023437.066407-7.519531.175781 90.636719 3.949219 163.160157 78.910157 163.160157 170.5 0 91.59375-72.523438 166.550782-163.160157 170.503907 2.496094.105469 5 .171875 7.519531.171875 94.109376 0 170.675782-76.5625 170.675782-170.675782 0-94.109374-76.566406-170.675781-170.675782-170.675781zm0 0" fill="#1f54a1"/><path d="m205.757812 107.085938c-76.308593 0-138.390624 62.082031-138.390624 138.390624 0 76.308594 62.082031 138.394532 138.390624 138.394532 76.308594 0 138.390626-62.085938 138.390626-138.394532 0-76.308593-62.082032-138.390624-138.390626-138.390624zm0 0" fill="#fff4f1"/><path d="m205.757812 107.085938c-4.054687 0-8.0625.1875-12.03125.527343 70.699219 6.117188 126.363282 65.609375 126.363282 137.863281 0 72.257813-55.664063 131.746094-126.363282 137.863282 3.96875.34375 7.976563.527344 12.03125.527344 76.308594 0 138.390626-62.082032 138.390626-138.390626 0-76.308593-62.082032-138.390624-138.390626-138.390624zm0 0" fill="#ecedef"/><path d="m182.722656 248.808594c-2.976562 0-5.792968-1.777344-6.972656-4.707032-1.554688-3.851562.308594-8.230468 4.160156-9.785156l43.875-17.695312c3.851563-1.554688 8.230469.308594 9.785156 4.160156 1.554688 3.847656-.308593 8.230469-4.160156 9.78125l-43.875 17.699219c-.921875.371093-1.875.546875-2.8125.546875zm0 0" fill="#d0cfd1"/><path d="m226.597656 288.402344c-.9375 0-1.890625-.175782-2.8125-.546875l-43.875-17.699219c-3.851562-1.550781-5.714844-5.933594-4.160156-9.785156 1.550781-3.851563 5.933594-5.710938 9.785156-4.160156l43.875 17.699218c3.851563 1.550782 5.714844 5.933594 4.160156 9.785156-1.179687 2.929688-3.996093 4.707032-6.972656 4.707032zm0 0" fill="#d0cfd1"/><path d="m217.453125 451.429688h-26.066406c-4.148438 0-7.515625-3.363282-7.515625-7.515626 0-4.152343 3.367187-7.519531 7.515625-7.519531h26.066406c4.152344 0 7.515625 3.367188 7.515625 7.519531 0 4.152344-3.363281 7.515626-7.515625 7.515626zm0 0" fill="#2970d6"/><path d="m217.453125 481.503906h-26.066406c-4.148438 0-7.515625-3.367187-7.515625-7.519531s3.367187-7.515625 7.515625-7.515625h26.066406c4.152344 0 7.515625 3.363281 7.515625 7.515625s-3.363281 7.519531-7.515625 7.519531zm0 0" fill="#2970d6"/><g fill="#f45a3c"><path d="m166.921875 225.496094c-14.742187 0-26.742187 11.996094-26.742187 26.742187 0 14.746094 11.996093 26.742188 26.742187 26.742188s26.742187-11.996094 26.742187-26.742188c0-14.746093-11.996093-26.742187-26.742187-26.742187zm0 0"/><path d="m244.589844 187.785156c-14.742188 0-26.738282 11.996094-26.738282 26.738282 0 14.746093 11.996094 26.742187 26.738282 26.742187 14.746094 0 26.742187-11.996094 26.742187-26.742187 0-14.742188-11.996093-26.738282-26.742187-26.738282zm0 0"/><path d="m244.589844 264.941406c-14.742188 0-26.738282 11.996094-26.738282 26.742188 0 14.742187 11.996094 26.738281 26.738282 26.738281 14.746094 0 26.742187-11.996094 26.742187-26.738281 0-14.746094-11.996093-26.742188-26.742187-26.742188zm0 0"/></g><path d="m166.921875 225.496094c-2.792969 0-5.484375.433594-8.019531 1.230468 10.839844 3.414063 18.722656 13.558594 18.722656 25.511719s-7.882812 22.097657-18.722656 25.511719c2.535156.796875 5.226562 1.230469 8.019531 1.230469 14.746094 0 26.742187-11.996094 26.742187-26.742188 0-14.746093-11.996093-26.742187-26.742187-26.742187zm0 0" fill="#e24a2a"/><path d="m244.589844 187.785156c-2.789063 0-5.484375.429688-8.015625 1.226563 10.835937 3.417969 18.71875 13.558593 18.71875 25.511719 0 11.953124-7.882813 22.097656-18.71875 25.511718 2.53125.800782 5.226562 1.230469 8.015625 1.230469 14.746094 0 26.742187-11.996094 26.742187-26.742187 0-14.742188-11.996093-26.738282-26.742187-26.738282zm0 0" fill="#e24a2a"/><path d="m244.589844 264.941406c-2.789063 0-5.484375.429688-8.015625 1.226563 10.835937 3.417969 18.71875 13.5625 18.71875 25.515625 0 11.949218-7.882813 22.09375-18.71875 25.511718 2.53125.796876 5.226562 1.226563 8.015625 1.226563 14.746094 0 26.742187-11.996094 26.742187-26.738281 0-14.746094-11.996093-26.742188-26.742187-26.742188zm0 0" fill="#e24a2a"/></svg>