<svg height="511pt" viewBox="1 -18 511.999 511" width="511pt" xmlns="http://www.w3.org/2000/svg"><path d="m416.871094 285.738281h-321.742188c-52.453125 0-95.128906 42.671875-95.128906 95.128907 0 52.453124 42.675781 95.128906 95.128906 95.128906h321.742188c52.453125 0 95.128906-42.675782 95.128906-95.128906 0-52.457032-42.675781-95.128907-95.128906-95.128907zm0 0" fill="#fff4f1"/><path d="m416.871094 285.738281h-321.742188c-52.453125 0-95.128906 42.671875-95.128906 95.128907 0 52.453124 42.675781 95.128906 95.128906 95.128906h321.742188c52.453125 0 95.128906-42.675782 95.128906-95.128906 0-52.457032-42.675781-95.128907-95.128906-95.128907zm0 0" fill="#fff4f1"/><g fill="#d0cfd1"><path d="m323.695312 86.535156c-4.148437 0-7.507812-3.363281-7.507812-7.511718 0-35.015626-28.488281-63.5-63.5-63.5-35.015625 0-63.503906 28.484374-63.503906 63.5 0 4.148437-3.363282 7.511718-7.507813 7.511718-4.148437 0-7.511719-3.363281-7.511719-7.511718 0-43.296876 35.222657-78.523438 78.523438-78.523438 43.296875 0 78.519531 35.226562 78.519531 78.523438 0 4.148437-3.359375 7.511718-7.511719 7.511718zm0 0"/><path d="m287.828125 81.890625c-4.152344 0-7.511719-3.363281-7.511719-7.511719 0-15.234375-12.394531-27.628906-27.628906-27.628906s-27.628906 12.394531-27.628906 27.628906c0 4.148438-3.363282 7.511719-7.511719 7.511719s-7.511719-3.363281-7.511719-7.511719c0-23.515625 19.132813-42.652344 42.652344-42.652344 23.515625 0 42.652344 19.136719 42.652344 42.652344 0 4.148438-3.363282 7.511719-7.511719 7.511719zm0 0"/><path d="m95.128906 285.738281c-52.453125 0-95.128906 42.671875-95.128906 95.128907 0 52.453124 42.675781 95.128906 95.128906 95.128906h42.410156v-190.257813zm0 0"/><path d="m416.871094 285.738281h-42.410156v190.257813h42.410156c52.453125 0 95.128906-42.675782 95.128906-95.128906 0-52.457032-42.675781-95.128907-95.128906-95.128907zm0 0"/></g><path d="m416.871094 285.738281h-25.039063c52.457031 0 95.128907 42.671875 95.128907 95.128907 0 52.453124-42.671876 95.128906-95.128907 95.128906h25.039063c52.453125 0 95.128906-42.675782 95.128906-95.128906 0-52.457032-42.675781-95.128907-95.128906-95.128907zm0 0" fill="#c4c3c4"/><path d="m318.007812 334.320312h-130.054687c-4.148437 0-7.511719-3.363281-7.511719-7.511718 0-4.148438 3.363282-7.511719 7.511719-7.511719h130.054687c4.148438 0 7.511719 3.363281 7.511719 7.511719 0 4.148437-3.363281 7.511718-7.511719 7.511718zm0 0" fill="#d0cfd1"/><path d="m318.007812 367.644531h-130.054687c-4.148437 0-7.511719-3.363281-7.511719-7.511719 0-4.148437 3.363282-7.511718 7.511719-7.511718h130.054687c4.148438 0 7.511719 3.363281 7.511719 7.511718 0 4.148438-3.363281 7.511719-7.511719 7.511719zm0 0" fill="#d0cfd1"/><path d="m311.769531 388.277344h-111.886719c-10.71875 0-19.441406 8.722656-19.441406 19.4375v18.414062c0 10.71875 8.722656 19.4375 19.441406 19.4375h111.886719c10.71875 0 19.4375-8.71875 19.4375-19.4375v-18.414062c0-10.714844-8.71875-19.4375-19.4375-19.4375zm0 0" fill="#d0cfd1"/><path d="m311.769531 388.277344h-23.035156c10.71875 0 19.441406 8.722656 19.441406 19.4375v18.414062c0 10.71875-8.722656 19.4375-19.441406 19.4375h23.035156c10.71875 0 19.4375-8.71875 19.4375-19.4375v-18.414062c0-10.714844-8.71875-19.4375-19.4375-19.4375zm0 0" fill="#c4c3c4"/><path d="m307.257812 174.707031c-1.488281-4.472656-5.132812-7.714843-9.746093-8.667969l-35.964844-7.445312 9.425781-47.761719c1.21875-6.1875-1.996094-12.191406-7.824218-14.605469-5.828126-2.410156-12.347657-.433593-15.855469 4.804688l-47.640625 71.167969c-2.398438 3.582031-2.875 8.105469-1.28125 12.109375 1.597656 4 5.058594 6.957031 9.261718 7.90625l31.707032 7.160156-18.589844 44.59375c-2.511719 6.015625-.402344 12.636719 5.121094 16.101562 2.203125 1.378907 4.621094 2.050782 7.003906 2.050782 3.597656 0 7.121094-1.53125 9.722656-4.46875l62.050782-70.164063c3.125-3.53125 4.101562-8.308593 2.609374-12.78125zm0 0" fill="#f9cd45"/><path d="m307.257812 174.707031c-1.488281-4.472656-5.132812-7.714843-9.746093-8.667969l-35.964844-7.445312 9.425781-47.761719c1.21875-6.1875-1.996094-12.191406-7.824218-14.605469-5.828126-2.410156-12.347657-.433593-15.855469 4.804688l-2.394531 3.574219c1.191406 2.46875 1.605468 5.328125 1.035156 8.226562l-9.421875 47.761719 35.960937 7.445312c4.613282.957032 8.261719 4.195313 9.75 8.671876 1.488282 4.472656.511719 9.25-2.609375 12.78125l-58.261719 65.875c1.046876 1.851562 2.5625 3.476562 4.519532 4.703124 2.203125 1.378907 4.621094 2.050782 7.003906 2.050782 3.597656 0 7.121094-1.53125 9.722656-4.46875l62.050782-70.164063c3.125-3.53125 4.101562-8.308593 2.609374-12.78125zm0 0" fill="#f8c03c"/></svg>