<svg height="512pt" viewBox="-140 0 512 512.00201" width="512pt" xmlns="http://www.w3.org/2000/svg"><path d="m173.714844 91.160156h-115.746094c-4.167969 0-7.542969 3.375-7.542969 7.542969v86.898437c0 4.164063 3.375 7.542969 7.542969 7.542969h115.746094c4.167968 0 7.546875-3.378906 7.546875-7.542969v-86.898437c0-4.167969-3.378907-7.542969-7.546875-7.542969zm0 0" fill="#d0cfd1"/><path d="m173.714844 91.160156h-23.132813c4.167969 0 7.542969 3.375 7.542969 7.542969v86.898437c0 4.164063-3.375 7.542969-7.542969 7.542969h23.132813c4.167968 0 7.546875-3.378906 7.546875-7.542969v-86.898437c0-4.167969-3.378907-7.542969-7.546875-7.542969zm0 0" fill="#c4c3c4"/><path d="m199.242188 138.796875h-166.796876c-4.167968 0-7.542968 3.378906-7.542968 7.542969v213.222656c0 4.164062 3.375 7.542969 7.542968 7.542969h166.796876c4.164062 0 7.542968-3.378907 7.542968-7.542969v-213.222656c0-4.164063-3.378906-7.542969-7.542968-7.542969zm0 0" fill="#4890e3"/><path d="m199.242188 138.796875h-23.136719c4.167969 0 7.542969 3.378906 7.542969 7.542969v213.222656c0 4.164062-3.375 7.542969-7.542969 7.542969h23.136719c4.164062 0 7.542968-3.378907 7.542968-7.542969v-213.222656c0-4.164063-3.378906-7.542969-7.542968-7.542969zm0 0" fill="#2970d6"/><path d="m115.84375 280.316406c-63.875 0-115.84375 51.96875-115.84375 115.84375s51.96875 115.839844 115.84375 115.839844 115.839844-51.964844 115.839844-115.839844c0-63.878906-51.964844-115.84375-115.839844-115.84375zm0 0" fill="#4890e3"/><path d="m115.84375 280.316406c-4.078125 0-8.105469.214844-12.070312.628906 58.222656 6.054688 103.769531 55.414063 103.769531 115.214844 0 59.800782-45.546875 109.15625-103.769531 115.214844 3.964843.414062 7.992187.628906 12.070312.628906 63.875 0 115.839844-51.96875 115.839844-115.84375s-51.964844-115.84375-115.839844-115.84375zm0 0" fill="#2970d6"/><path d="m115.84375 345.722656c-27.8125 0-50.4375 22.625-50.4375 50.4375 0 27.808594 22.625 50.433594 50.4375 50.433594 27.808594 0 50.4375-22.625 50.4375-50.433594 0-27.8125-22.628906-50.4375-50.4375-50.4375zm0 0" fill="#91bcee"/><g fill="#2970d6"><path d="m115.84375 345.722656c-4.160156 0-8.203125.515625-12.070312 1.46875 22 5.425782 38.367187 25.316406 38.367187 48.96875 0 23.648438-16.367187 43.539063-38.367187 48.964844 3.867187.953125 7.910156 1.46875 12.070312 1.46875 27.808594 0 50.4375-22.625 50.4375-50.433594 0-27.8125-22.628906-50.4375-50.4375-50.4375zm0 0"/><path d="m130.121094 255.25h-28.558594c-4.164062 0-7.542969-3.378906-7.542969-7.542969 0-4.167969 3.378907-7.546875 7.542969-7.546875h28.558594c4.167968 0 7.542968 3.378906 7.542968 7.546875 0 4.164063-3.375 7.542969-7.542968 7.542969zm0 0"/><path d="m130.121094 225.695312h-28.558594c-4.164062 0-7.542969-3.375-7.542969-7.542968 0-4.164063 3.378907-7.542969 7.542969-7.542969h28.558594c4.167968 0 7.542968 3.378906 7.542968 7.542969 0 4.167968-3.375 7.542968-7.542968 7.542968zm0 0"/><path d="m130.121094 196.144531h-28.558594c-4.164062 0-7.542969-3.375-7.542969-7.542969 0-4.167968 3.378907-7.542968 7.542969-7.542968h28.558594c4.167968 0 7.542968 3.375 7.542968 7.542968 0 4.167969-3.375 7.542969-7.542968 7.542969zm0 0"/></g><path d="m165.492188 64.738281c-4.167969 0-7.542969-3.375-7.542969-7.542969 0-23.21875-18.890625-42.105468-42.105469-42.105468-23.21875 0-42.105469 18.886718-42.105469 42.105468 0 4.167969-3.378906 7.542969-7.546875 7.542969-4.167968 0-7.542968-3.375-7.542968-7.542969 0-31.539062 25.65625-57.195312 57.195312-57.195312 31.535156 0 57.191406 25.65625 57.191406 57.195312 0 4.167969-3.375 7.542969-7.542968 7.542969zm0 0" fill="#d0cfd1"/><path d="m140.414062 65.515625c-4.167968 0-7.546874-3.375-7.546874-7.542969 0-9.386718-7.636719-17.027344-17.023438-17.027344-9.390625 0-17.027344 7.636719-17.027344 17.027344 0 4.167969-3.378906 7.542969-7.542968 7.542969-4.167969 0-7.546876-3.375-7.546876-7.542969 0-17.707031 14.40625-32.113281 32.117188-32.113281 17.707031 0 32.113281 14.40625 32.113281 32.113281 0 4.167969-3.378906 7.542969-7.542969 7.542969zm0 0" fill="#d0cfd1"/></svg>