<svg height="512pt" viewBox="-55 0 512 512.00101" width="512pt" xmlns="http://www.w3.org/2000/svg"><path d="m349.269531 106.304688c.058594-1.417969.089844-2.828126.089844-4.21875-.003906-56.289063-45.796875-102.085938-102.089844-102.085938-23.207031 0-45.921875 8-63.964843 22.523438-15.441407 12.429687-26.984376 29.199218-33.101563 47.878906-3.734375-1.101563-7.621094-1.667969-11.542969-1.667969-17.0625 0-31.902344 10.347656-37.945312 25.800781h-2.339844c-54.246094 0-98.375 44.128906-98.375 98.371094s44.128906 98.371094 98.375 98.371094h204.371094c54.242187 0 98.371094-44.128906 98.371094-98.371094 0-36.035156-20.1875-69.476562-51.847657-86.601562zm0 0" fill="#91bcee"/><path d="m349.269531 106.304688c.058594-1.417969.089844-2.828126.089844-4.21875-.003906-56.289063-45.796875-102.085938-102.089844-102.085938-3.84375 0-7.675781.242188-11.476562.671875 50.804687 5.820313 90.398437 49.078125 90.398437 101.414063 0 1.394531-.03125 2.800781-.089844 4.21875 31.664063 17.125 51.851563 50.566406 51.851563 86.601562 0 54.242188-44.128906 98.371094-98.371094 98.371094h23.164063c54.246094 0 98.375-44.128906 98.375-98.371094-.003906-36.035156-20.191406-69.476562-51.851563-86.601562zm0 0" fill="#4890e3"/><path d="m127.03125 70.402344h.007812v-.003906zm0 0" fill="#4890e3"/><path d="m351.082031 202.722656h-292.503906c-4.171875 0-7.554687 3.382813-7.554687 7.554688v116.128906c0 4.171875 3.382812 7.554688 7.554687 7.554688h292.503906c4.171875 0 7.554688-3.382813 7.554688-7.554688v-116.128906c0-4.171875-3.382813-7.554688-7.554688-7.554688zm0 0" fill="#fff4f1"/><path d="m351.082031 202.722656h-24.175781c4.175781 0 7.554688 3.382813 7.554688 7.554688v116.128906c0 4.171875-3.378907 7.554688-7.554688 7.554688h24.175781c4.171875 0 7.554688-3.382813 7.554688-7.554688v-116.128906c0-4.171875-3.382813-7.554688-7.554688-7.554688zm0 0" fill="#ecedef"/><g fill="#d0cfd1"><path d="m140.929688 282.847656c-.726563 1.816406-3.085938 2.449219-5.445313 2.449219-2.722656 0-5.265625-.90625-5.8125-2.449219l-5.992187-15.796875-5.992188 15.796875c-.542969 1.542969-3.175781 2.449219-5.898438 2.449219-2.269531 0-4.632812-.632813-5.359374-2.449219l-13.980469-34.953125c-.363281-.90625-.453125-1.363281-.453125-1.90625 0-3.269531 5.628906-5.628906 9.261718-5.628906 1.816407 0 3.359376.636719 3.902344 2.179687l8.078125 23.058594 5.8125-19.519531c.726563-2.453125 2.542969-2.722656 4.628907-2.722656 2 0 3.90625.269531 4.632812 2.722656l5.808594 19.519531 8.082031-23.058594c.453125-1.363281 1.90625-2.179687 3.8125-2.179687 3.449219 0 9.257813 2.359375 9.257813 5.808594 0 .546875-.089844 1.183593-.359376 1.726562zm0 0"/><path d="m169.257812 277.671875c0 3.722656-3.179687 6.992187-6.902343 6.992187-3.992188 0-6.988281-3.269531-6.988281-6.992187 0-3.8125 2.996093-6.988281 6.988281-6.988281 3.722656-.003906 6.902343 3.175781 6.902343 6.988281zm0 0"/><path d="m218.191406 282.847656c-.726562 1.816406-3.085937 2.449219-5.445312 2.449219-2.726563 0-5.265625-.90625-5.8125-2.449219l-5.992188-15.796875-5.992187 15.796875c-.542969 1.542969-3.175781 2.449219-5.898438 2.449219-2.269531 0-4.632812-.632813-5.359375-2.449219l-13.980468-34.953125c-.363282-.90625-.453126-1.363281-.453126-1.90625 0-3.269531 5.628907-5.628906 9.257813-5.628906 1.816406 0 3.359375.636719 3.90625 2.179687l8.078125 23.058594 5.8125-19.519531c.726562-2.453125 2.542969-2.722656 4.628906-2.722656 1.996094 0 3.90625.269531 4.628906 2.722656l5.8125 19.519531 8.082032-23.058594c.453125-1.363281 1.90625-2.179687 3.8125-2.179687 3.449218 0 9.257812 2.359375 9.257812 5.808594 0 .546875-.089844 1.183593-.363281 1.726562zm0 0"/><path d="m246.515625 277.671875c0 3.722656-3.175781 6.992187-6.898437 6.992187-3.996094 0-6.992188-3.269531-6.992188-6.992187 0-3.8125 3-6.988281 6.992188-6.988281 3.722656-.003906 6.898437 3.175781 6.898437 6.988281zm0 0"/><path d="m295.453125 282.847656c-.726563 1.816406-3.085937 2.449219-5.449219 2.449219-2.722656 0-5.265625-.90625-5.808594-2.449219l-5.992187-15.796875-5.992187 15.796875c-.546876 1.542969-3.179688 2.449219-5.902344 2.449219-2.269532 0-4.628906-.632813-5.355469-2.449219l-13.980469-34.953125c-.363281-.90625-.453125-1.363281-.453125-1.90625 0-3.269531 5.628907-5.628906 9.257813-5.628906 1.816406 0 3.359375.636719 3.90625 2.179687l8.078125 23.058594 5.8125-19.519531c.722656-2.453125 2.539062-2.722656 4.628906-2.722656 1.996094 0 3.902344.269531 4.628906 2.722656l5.8125 19.519531 8.078125-23.058594c.453125-1.363281 1.90625-2.179687 3.8125-2.179687 3.453125 0 9.261719 2.359375 9.261719 5.808594 0 .546875-.089844 1.183593-.363281 1.726562zm0 0"/></g><path d="m200.558594 448.46875c-17.515625 0-31.765625 14.25-31.765625 31.765625s14.25 31.765625 31.765625 31.765625 31.765625-14.25 31.765625-31.765625-14.25-31.765625-31.765625-31.765625zm0 0" fill="#f45a3c"/><path d="m200.558594 448.46875c-4.277344 0-8.359375.855469-12.085938 2.394531 11.539063 4.765625 19.679688 16.132813 19.679688 29.371094s-8.140625 24.605469-19.679688 29.371094c3.730469 1.539062 7.808594 2.394531 12.085938 2.394531 17.515625 0 31.765625-14.25 31.765625-31.765625s-14.25-31.765625-31.765625-31.765625zm0 0" fill="#e24a2a"/><path d="m256.316406 487.789062c-4.171875 0-7.550781-3.382812-7.550781-7.554687 0-26.582031-21.625-48.203125-48.207031-48.203125-26.578125 0-48.203125 21.621094-48.203125 48.203125 0 4.171875-3.382813 7.554687-7.554688 7.554687s-7.554687-3.382812-7.554687-7.554687c0-34.910156 28.402344-63.3125 63.3125-63.3125 34.914062 0 63.3125 28.402344 63.3125 63.3125 0 4.171875-3.378906 7.554687-7.554688 7.554687zm0 0" fill="#d0cfd1"/><path d="m290.589844 487.789062c-4.175782 0-7.554688-3.382812-7.554688-7.554687 0-45.476563-37-82.472656-82.476562-82.472656-45.476563 0-82.472656 36.996093-82.472656 82.472656 0 4.171875-3.382813 7.554687-7.554688 7.554687s-7.554688-3.382812-7.554688-7.554687c0-53.808594 43.773438-97.582031 97.582032-97.582031s97.582031 43.773437 97.582031 97.582031c0 4.171875-3.378906 7.554687-7.550781 7.554687zm0 0" fill="#d0cfd1"/></svg>