<svg height="512pt" viewBox="-22 0 512 512" width="512pt" xmlns="http://www.w3.org/2000/svg"><path d="m261.789062 81.328125c-.09375-4.09375-3.4375-7.367187-7.535156-7.367187h-231.828125c-4.097656 0-7.441406 3.273437-7.535156 7.367187-.019531.917969-.035156 1.832031-.035156 2.753906 0 68.085938 55.394531 123.480469 123.484375 123.480469s123.484375-55.394531 123.484375-123.480469c0-.921875-.015625-1.835937-.035157-2.753906zm0 0" fill="#646464"/><path d="m261.789062 81.328125c-.09375-4.09375-3.4375-7.367187-7.535156-7.367187h-24.113281c4.09375 0 7.441406 3.273437 7.53125 7.367187.023437.917969.035156 1.832031.035156 2.753906 0 64.019531-48.972656 116.8125-111.425781 122.890625 3.96875.386719 7.992188.589844 12.058594.589844 68.089844 0 123.484375-55.394531 123.484375-123.480469 0-.921875-.015625-1.835937-.035157-2.753906zm0 0" fill="#4b4b4b"/><path d="m269.144531 0h-261.609375c-4.160156 0-7.535156 3.375-7.535156 7.535156v74.285156c0 4.160157 3.375 7.535157 7.535156 7.535157h261.609375c4.160157 0 7.535157-3.375 7.535157-7.535157v-74.285156c0-4.160156-3.375-7.535156-7.535157-7.535156zm0 0" fill="#d0cfd1"/><path d="m269.144531 0h-24.117187c4.164062 0 7.535156 3.375 7.535156 7.535156v74.285156c0 4.160157-3.371094 7.535157-7.535156 7.535157h24.117187c4.160157 0 7.535157-3.375 7.535157-7.535157v-74.285156c0-4.160156-3.375-7.535156-7.535157-7.535156zm0 0" fill="#9c9b9d"/><path d="m276.679688 53.496094v-45.960938c0-4.160156-3.375-7.535156-7.535157-7.535156h-261.609375c-4.160156 0-7.535156 3.375-7.535156 7.535156v45.960938zm0 0" fill="#f45a3c"/><path d="m269.144531 0h-24.117187c4.164062 0 7.535156 3.375 7.535156 7.535156v45.960938h24.117188v-45.960938c0-4.160156-3.375-7.535156-7.535157-7.535156zm0 0" fill="#e24a2a"/><path d="m138.339844 107.375c-18.9375 0-34.34375 15.40625-34.34375 34.34375 0 18.933594 15.410156 34.339844 34.34375 34.339844 18.9375 0 34.34375-15.40625 34.34375-34.339844 0-18.9375-15.40625-34.34375-34.34375-34.34375zm0 0" fill="#4b4b4b"/><path d="m138.339844 120.90625c-11.472656 0-20.808594 9.335938-20.808594 20.8125 0 11.472656 9.335938 20.808594 20.808594 20.808594s20.808594-9.335938 20.808594-20.808594c0-11.476562-9.335938-20.8125-20.808594-20.8125zm0 0" fill="#323232"/><path d="m441.023438 160.285156h-153.347657c-14.375 0-26.070312 11.691406-26.070312 26.066406v299.582032c0 14.375 11.695312 26.066406 26.070312 26.066406h153.347657c14.375 0 26.066406-11.695312 26.066406-26.066406v-299.582032c0-14.375-11.691406-26.066406-26.066406-26.066406zm0 0" fill="#fff4f1"/><path d="m441.023438 160.285156h-24.117188c14.375 0 26.070312 11.691406 26.070312 26.066406v299.582032c0 14.375-11.695312 26.066406-26.070312 26.066406h24.117188c14.375 0 26.066406-11.695312 26.066406-26.066406v-299.582032c0-14.375-11.691406-26.066406-26.066406-26.066406zm0 0" fill="#ecedef"/><path d="m467.089844 222.210938v-35.859376c0-14.375-11.691406-26.070312-26.066406-26.070312h-153.347657c-14.375 0-26.070312 11.695312-26.070312 26.070312v35.859376zm0 0" fill="#4890e3"/><path d="m441.023438 160.285156h-24.117188c14.375 0 26.070312 11.691406 26.070312 26.066406v35.859376h24.113282v-35.859376c0-14.375-11.691406-26.066406-26.066406-26.066406zm0 0" fill="#2970d6"/><path d="m261.605469 450.074219v35.859375c0 14.371094 11.695312 26.066406 26.070312 26.066406h153.347657c14.375 0 26.066406-11.695312 26.066406-26.066406v-35.859375zm0 0" fill="#4890e3"/><path d="m442.976562 485.933594c0 14.371094-11.695312 26.066406-26.070312 26.066406h24.117188c.449218 0 .894531-.011719 1.339843-.035156 13.753907-.699219 24.726563-12.109375 24.726563-26.035156v-35.859376h-24.113282zm0 0" fill="#2970d6"/><g fill="#d0cfd1"><path d="m196.871094 345.582031c-4.160156 0-7.535156-3.375-7.535156-7.539062 0-28.117188-22.878907-50.992188-50.996094-50.992188-28.117188 0-50.996094 22.875-50.996094 50.992188 0 4.164062-3.371094 7.539062-7.535156 7.539062-4.160156 0-7.535156-3.375-7.535156-7.539062 0-36.429688 29.636718-66.066407 66.066406-66.066407 36.429687 0 66.066406 29.636719 66.066406 66.066407 0 4.164062-3.371094 7.539062-7.535156 7.539062zm0 0"/><path d="m225.339844 344.117188c-4.160156 0-7.535156-3.375-7.535156-7.539063 0-43.816406-35.648438-79.464844-79.464844-79.464844s-79.464844 35.648438-79.464844 79.464844c0 4.164063-3.375 7.539063-7.535156 7.539063-4.164063 0-7.539063-3.375-7.539063-7.539063 0-52.128906 42.410157-94.535156 94.539063-94.535156s94.539062 42.410156 94.539062 94.535156c0 4.164063-3.375 7.539063-7.539062 7.539063zm0 0"/><path d="m164.738281 342.554688c-4.160156 0-7.535156-3.375-7.535156-7.539063 0-10.402344-8.460937-18.863281-18.863281-18.863281-10.398438 0-18.863282 8.460937-18.863282 18.863281 0 4.164063-3.375 7.539063-7.535156 7.539063-4.164062 0-7.535156-3.375-7.535156-7.539063 0-18.710937 15.222656-33.933594 33.933594-33.933594 18.710937 0 33.9375 15.222657 33.9375 33.933594 0 4.164063-3.375 7.539063-7.539063 7.539063zm0 0"/></g><path d="m364.347656 386.007812c-40.191406 0-71.386718-43.671874-72.695312-45.53125-1.828125-2.601562-1.828125-6.070312 0-8.671874 1.308594-1.859376 32.503906-45.53125 72.695312-45.53125 40.195313 0 71.390625 43.671874 72.699219 45.53125 1.828125 2.601562 1.828125 6.070312 0 8.671874-1.308594 1.859376-32.503906 45.53125-72.699219 45.53125zm0 0" fill="#ecedef"/><path d="m437.046875 331.804688c-1.308594-1.859376-32.503906-45.53125-72.699219-45.53125-4.121094 0-8.144531.464843-12.054687 1.292968 34.21875 7.230469 59.460937 42.570313 60.636719 44.238282 1.832031 2.601562 1.832031 6.070312 0 8.671874-1.175782 1.671876-26.417969 37.007813-60.636719 44.238282 3.910156.828125 7.933593 1.292968 12.054687 1.292968 40.195313 0 71.390625-43.671874 72.699219-45.53125 1.828125-2.601562 1.828125-6.070312 0-8.671874zm0 0" fill="#e3e2e3"/><path d="m364.347656 308.359375c-15.875 0-28.792968 12.464844-28.792968 27.78125 0 15.320313 12.917968 27.78125 28.792968 27.78125 15.878906 0 28.796875-12.464844 28.796875-27.78125s-12.917969-27.78125-28.796875-27.78125zm0 0" fill="#f45a3c"/><path d="m364.347656 308.359375c-3.914062 0-7.644531.761719-11.050781 2.132813 10.40625 4.1875 17.742187 14.109374 17.742187 25.648437 0 11.542969-7.332031 21.460937-17.742187 25.648437 3.40625 1.371094 7.136719 2.132813 11.050781 2.132813 15.878906 0 28.796875-12.464844 28.796875-27.78125s-12.917969-27.78125-28.796875-27.78125zm0 0" fill="#e24a2a"/></svg>