<svg height="512pt" viewBox="-12 0 511 512" width="512pt" xmlns="http://www.w3.org/2000/svg"><path d="m470.800781 502.351562-56.007812-196.519531c-.703125-2.460937-2.597657-4.398437-5.039063-5.15625-2.441406-.757812-5.101562-.234375-7.074218 1.394531l-44.09375 36.46875c-1.277344 1.050782-2.171876 2.496094-2.546876 4.105469l-37.519531 160.054688c-.527343 2.25 0 4.621093 1.4375 6.433593 1.4375 1.808594 3.621094 2.867188 5.933594 2.867188h137.628906c2.375 0 4.613281-1.113281 6.042969-3.011719 1.433594-1.894531 1.890625-4.355469 1.238281-6.636719zm0 0" fill="#4890e3"/><path d="m470.800781 502.351562-56.007812-196.519531c-.703125-2.460937-2.597657-4.398437-5.039063-5.15625-2.441406-.757812-5.101562-.234375-7.074218 1.394531l-10.675782 8.832032 54.5625 191.449218c.652344 2.28125.191406 4.742188-1.238281 6.636719s-3.667969 3.011719-6.042969 3.011719h24.234375c2.375 0 4.613281-1.117188 6.042969-3.011719 1.433594-1.894531 1.890625-4.355469 1.238281-6.636719zm0 0" fill="#2970d6"/><path d="m340.042969 219.449219c-26.402344 0-47.882813 21.480469-47.882813 47.882812 0 26.402344 21.480469 47.878907 47.882813 47.878907 26.402343 0 47.882812-21.476563 47.882812-47.878907 0-26.402343-21.480469-47.882812-47.882812-47.882812zm0 0" fill="#646464"/><path d="m461.355469 188.425781c-.683594-.96875-1.375-1.929687-2.078125-2.875-2.445313-3.304687-7.078125-4.054687-10.4375-1.691406l-217.011719 152.492187c-3.363281 2.363282-4.226563 6.976563-1.945313 10.394532.652344.980468 1.316407 1.957031 2 2.925781 27.261719 38.800781 70.769532 59.558594 114.933594 59.558594 27.847656 0 55.960938-8.253907 80.425782-25.445313 30.648437-21.535156 51.074218-53.71875 57.515624-90.617187 6.445313-36.898438-1.867187-74.097657-23.402343-104.742188zm0 0" fill="#d0cfd1"/><path d="m461.355469 188.425781c-.683594-.96875-1.375-1.929687-2.078125-2.875-2.445313-3.304687-7.078125-4.054687-10.4375-1.691406l-9.34375 6.5625c20.511718 30.261719 28.339844 66.644531 22.039062 102.75-6.441406 36.898437-26.871094 69.078125-57.515625 90.613281-21.082031 14.816406-44.875 22.976563-68.867187 24.957032 3.875.320312 7.765625.488281 11.664062.488281 27.847656 0 55.960938-8.253907 80.425782-25.445313 30.648437-21.535156 51.074218-53.71875 57.519531-90.617187 6.441406-36.898438-1.871094-74.097657-23.40625-104.742188zm0 0" fill="#9c9b9d"/><path d="m242.074219 244.335938c-2.257813 0-4.496094-1.007813-5.988281-2.933594-22.230469-28.660156-17-70.0625 11.664062-92.292969 13.882812-10.769531 31.128906-15.484375 48.5625-13.28125s32.964844 11.0625 43.730469 24.945313c2.566406 3.304687 1.964843 8.0625-1.34375 10.625-3.304688 2.566406-8.0625 1.964843-10.625-1.339844-17.109375-22.0625-48.980469-26.089844-71.042969-8.980469s-26.085938 48.980469-8.976562 71.042969c2.5625 3.304687 1.960937 8.0625-1.34375 10.625-1.378907 1.070312-3.011719 1.589844-4.636719 1.589844zm0 0" fill="#d0cfd1"/><path d="m265.480469 222.375c-2.261719 0-4.5-1.007812-5.992188-2.933594-5.535156-7.140625-7.960937-16.007812-6.828125-24.972656 1.132813-8.964844 5.6875-16.953125 12.828125-22.488281 14.738281-11.429688 36.03125-8.742188 47.460938 5.996093 2.5625 3.304688 1.960937 8.0625-1.34375 10.628907-3.304688 2.5625-8.0625 1.960937-10.625-1.34375-6.3125-8.140625-18.070313-9.625-26.210938-3.3125-3.941406 3.058593-6.457031 7.46875-7.082031 12.417969-.628906 4.949218.710938 9.847656 3.769531 13.789062 2.5625 3.304688 1.960938 8.0625-1.34375 10.625-1.378906 1.074219-3.011719 1.59375-4.632812 1.59375zm0 0" fill="#d0cfd1"/><path d="m424.328125 476.074219h-62.472656c-4.183594 0-7.574219-3.394531-7.574219-7.574219 0-4.183594 3.390625-7.574219 7.574219-7.574219h62.472656c4.183594 0 7.574219 3.390625 7.574219 7.574219 0 4.179688-3.390625 7.574219-7.574219 7.574219zm0 0" fill="#91bcee"/><path d="m190.203125 57.058594c0-.039063 0-.078125 0-.117188 0-31.398437-25.546875-56.941406-56.941406-56.941406-23.867188 0-44.648438 14.515625-53.050781 36.167969-1.210938-.183594-2.4375-.273438-3.671876-.273438-9.5625 0-17.984374 5.316407-22.164062 13.484375-29.808594.601563-53.875 25.039063-53.875 54.992188 0 30.328125 24.671875 55 55 55h106.730469c30.328125 0 55.003906-24.671875 55.003906-55 0-19.398438-10.460937-37.453125-27.03125-47.3125zm0 0" fill="#4890e3"/><path d="m190.203125 57.058594c0-.039063 0-.078125 0-.117188 0-31.398437-25.546875-56.941406-56.941406-56.941406-4.171875 0-8.242188.453125-12.171875 1.296875 25.621094 5.550781 44.875 28.386719 44.875 55.644531v.117188c16.574218 9.859375 27.03125 27.914062 27.03125 47.3125 0 30.328125-24.671875 55-55 55h24.234375c30.328125 0 55.003906-24.671875 55.003906-55 0-19.398438-10.460937-37.453125-27.03125-47.3125zm0 0" fill="#2970d6"/></svg>