<svg height="512pt" viewBox="0 0 511 512" width="512pt" xmlns="http://www.w3.org/2000/svg"><g fill="#d0cfd1"><path d="m138.28125 249.832031c-4.164062 0-7.539062-3.375-7.539062-7.539062 0-77.710938-49.183594-199.210938-123.316407-205.253907-4.148437-.339843-7.238281-3.976562-6.902343-8.125.339843-4.152343 3.972656-7.246093 8.128906-6.902343 38.171875 3.113281 73.976562 32.398437 100.816406 82.464843 22.421875 41.824219 36.351562 94.628907 36.351562 137.816407 0 4.164062-3.375 7.539062-7.539062 7.539062zm0 0"/><path d="m374.332031 249.832031c-4.164062 0-7.539062-3.375-7.539062-7.539062 0-43.1875 13.929687-95.992188 36.351562-137.816407 26.839844-50.066406 62.644531-79.351562 100.816407-82.464843 4.148437-.339844 7.789062 2.75 8.128906 6.902343.335937 4.148438-2.75 7.785157-6.902344 8.125-74.132812 6.042969-123.316406 127.542969-123.316406 205.253907 0 4.164062-3.375 7.539062-7.539063 7.539062zm0 0"/><path d="m218.136719 249.832031c-4.160157 0-7.535157-3.375-7.535157-7.539062v-234.753907c0-4.164062 3.375-7.539062 7.535157-7.539062 4.164062 0 7.539062 3.375 7.539062 7.539062v234.753907c0 4.164062-3.375 7.539062-7.539062 7.539062zm0 0"/><path d="m297.5 249.832031c-4.164062 0-7.539062-3.375-7.539062-7.539062v-234.753907c0-4.164062 3.375-7.539062 7.539062-7.539062s7.539062 3.375 7.539062 7.539062v234.753907c0 4.164062-3.375 7.539062-7.539062 7.539062zm0 0"/></g><path d="m148.015625 239.042969h-20.179687c-11.363282 0-20.605469 9.242187-20.605469 20.605469v50.714843c0 11.363281 9.242187 20.605469 20.605469 20.605469h20.179687c11.359375 0 20.605469-9.242188 20.605469-20.605469v-50.714843c0-11.363282-9.246094-20.605469-20.605469-20.605469zm0 0" fill="#f9cd45"/><path d="m227.800781 239.042969h-20.179687c-11.359375 0-20.605469 9.242187-20.605469 20.605469v50.714843c0 11.363281 9.246094 20.605469 20.605469 20.605469h20.179687c11.363281 0 20.605469-9.242188 20.605469-20.605469v-50.714843c0-11.363282-9.242188-20.605469-20.605469-20.605469zm0 0" fill="#4890e3"/><path d="m307.589844 239.042969h-20.179688c-11.363281 0-20.605468 9.242187-20.605468 20.605469v50.714843c0 11.363281 9.242187 20.605469 20.605468 20.605469h20.179688c11.363281 0 20.605468-9.242188 20.605468-20.605469v-50.714843c0-11.363282-9.242187-20.605469-20.605468-20.605469zm0 0" fill="#f45a3c"/><path d="m387.378906 239.042969h-20.179687c-11.363281 0-20.605469 9.242187-20.605469 20.605469v50.714843c0 11.363281 9.242188 20.605469 20.605469 20.605469h20.179687c11.363282 0 20.605469-9.242188 20.605469-20.605469v-50.714843c0-11.363282-9.242187-20.605469-20.605469-20.605469zm0 0" fill="#00bf9e"/><path d="m148.015625 239.042969h-20.179687c-.496094 0-.984376.039062-1.46875.074219 10.675781.757812 19.136718 9.664062 19.136718 20.53125v50.714843c0 10.867188-8.460937 19.773438-19.136718 20.53125.484374.035157.972656.074219 1.46875.074219h20.179687c11.359375 0 20.605469-9.242188 20.605469-20.605469v-50.714843c0-11.363282-9.246094-20.605469-20.605469-20.605469zm0 0" fill="#f8c03c"/><path d="m227.800781 239.042969h-20.179687c-.492188 0-.980469.039062-1.46875.074219 10.679687.757812 19.136718 9.664062 19.136718 20.53125v50.714843c0 10.867188-8.457031 19.773438-19.136718 20.53125.488281.035157.976562.074219 1.46875.074219h20.179687c11.363281 0 20.605469-9.242188 20.605469-20.605469v-50.714843c0-11.363282-9.242188-20.605469-20.605469-20.605469zm0 0" fill="#2970d6"/><path d="m307.589844 239.042969h-20.179688c-.496094 0-.980468.039062-1.46875.074219 10.675782.757812 19.136719 9.664062 19.136719 20.53125v50.714843c0 10.867188-8.460937 19.773438-19.136719 20.53125.488282.035157.972656.074219 1.46875.074219h20.179688c11.363281 0 20.605468-9.242188 20.605468-20.605469v-50.714843c0-11.363282-9.242187-20.605469-20.605468-20.605469zm0 0" fill="#e24a2a"/><path d="m387.378906 239.042969h-20.179687c-.496094 0-.980469.039062-1.46875.074219 10.675781.757812 19.136719 9.664062 19.136719 20.53125v50.714843c0 10.867188-8.460938 19.773438-19.136719 20.53125.484375.035157.972656.074219 1.46875.074219h20.179687c11.363282 0 20.605469-9.242188 20.605469-20.605469v-50.714843c0-11.363282-9.242187-20.605469-20.605469-20.605469zm0 0" fill="#00a983"/><path d="m421.207031 277.46875h-329.800781c-11.363281 0-20.605469 9.242188-20.605469 20.605469v97.613281c0 64.136719 52.175781 116.3125 116.308594 116.3125h138.394531c64.132813 0 116.308594-52.175781 116.308594-116.3125v-97.613281c0-11.363281-9.242188-20.605469-20.605469-20.605469zm0 0" fill="#d0cfd1"/><path d="m421.207031 277.46875h-23.117187c11.359375 0 20.605468 9.242188 20.605468 20.605469v97.613281c0 64.136719-52.175781 116.3125-116.3125 116.3125h23.117188c64.136719 0 116.3125-52.175781 116.3125-116.3125v-97.613281c0-11.363281-9.242188-20.605469-20.605469-20.605469zm0 0" fill="#9c9b9d"/><path d="m350.488281 329.996094h-188.363281c-4.164062 0-7.539062 3.375-7.539062 7.539062v51.046875c0 4.164063 3.375 7.539063 7.539062 7.539063h188.363281c4.164063 0 7.539063-3.375 7.539063-7.539063v-51.046875c0-4.164062-3.375-7.539062-7.539063-7.539062zm0 0" fill="#fff4f1"/><path d="m350.488281 329.996094h-23.117187c4.164062 0 7.539062 3.375 7.539062 7.539062v51.046875c0 4.164063-3.375 7.539063-7.539062 7.539063h23.117187c4.164063 0 7.539063-3.375 7.539063-7.539063v-51.046875c0-4.164062-3.375-7.539062-7.539063-7.539062zm0 0" fill="#ecedef"/><path d="m350.488281 435.269531h-188.363281c-4.164062 0-7.539062-3.375-7.539062-7.539062 0-4.160157 3.375-7.539063 7.539062-7.539063h188.363281c4.164063 0 7.539063 3.378906 7.539063 7.539063 0 4.164062-3.375 7.539062-7.539063 7.539062zm0 0" fill="#fff4f1"/></svg>