<svg height="512pt" viewBox="-58 0 512 512" width="512pt" xmlns="http://www.w3.org/2000/svg"><path d="m139.347656 325.167969h-106.707031c-4.167969 0-7.542969 3.375-7.542969 7.539062v171.753907c0 4.164062 3.375 7.539062 7.542969 7.539062h106.707031c4.164063 0 7.539063-3.375 7.539063-7.539062v-171.753907c0-4.164062-3.375-7.539062-7.539063-7.539062zm0 0" fill="#f9e075"/><path d="m139.347656 325.167969h-24.128906c4.167969 0 7.542969 3.375 7.542969 7.539062v171.753907c0 4.164062-3.375 7.539062-7.542969 7.539062h24.128906c4.164063 0 7.539063-3.375 7.539063-7.539062v-171.753907c0-4.164062-3.375-7.539062-7.539063-7.539062zm0 0" fill="#f9cd45"/><path d="m169.867188 23.636719c-1.421876-1.46875-3.378907-2.296875-5.421876-2.296875h-156.90625c-2.042968 0-4 .828125-5.417968 2.296875-1.421875 1.46875-2.183594 3.453125-2.11718775 5.492187l7.65234375 230.375c.015625.488282.078125.972656.1875 1.449219l17.003906 73.453125c.789063 3.417969 3.835938 5.839844 7.34375 5.839844h107.601563c3.523437 0 6.574219-2.433594 7.351562-5.867188l17.003907-74.773437c.105468-.46875.167968-.945313.183593-1.421875l7.648438-229.050782c.070312-2.042968-.695313-4.027343-2.113281-5.496093zm0 0" fill="#f9cd45"/><path d="m169.867188 23.636719c-1.421876-1.46875-3.378907-2.296875-5.421876-2.296875h-23.121093c2.042969 0 4 .828125 5.421875 2.296875 1.417968 1.46875 2.183594 3.453125 2.113281 5.496093l-7.648437 229.050782c-.019532.476562-.078126.953125-.183594 1.417968l-17.003906 74.773438c-.777344 3.433594-3.832032 5.871094-7.351563 5.871094h23.121094c3.523437 0 6.574219-2.4375 7.351562-5.871094l17.003907-74.773438c.105468-.464843.167968-.941406.183593-1.417968l7.648438-229.050782c.070312-2.042968-.695313-4.027343-2.113281-5.496093zm0 0" fill="#f8c03c"/><path d="m112.277344 0h-52.570313c-4.164062 0-7.539062 3.375-7.539062 7.539062v202.164063c0 4.164063 3.375 7.539063 7.539062 7.539063h52.570313c4.164062 0 7.539062-3.375 7.539062-7.539063v-202.164063c0-4.164062-3.375-7.539062-7.539062-7.539062zm0 0" fill="#fff4f1"/><path d="m112.277344 0h-20.105469c4.164063 0 7.539063 3.375 7.539063 7.539062v202.164063c0 4.164063-3.375 7.539063-7.539063 7.539063h20.105469c4.164062 0 7.539062-3.375 7.539062-7.539063v-202.164063c0-4.164062-3.375-7.539062-7.539062-7.539062zm0 0" fill="#ecedef"/><g fill="#f8c03c"><path d="m137.007812 266.113281h-96c-4.164062 0-7.539062-3.375-7.539062-7.539062 0-4.164063 3.375-7.539063 7.539062-7.539063h96c4.164063 0 7.539063 3.375 7.539063 7.539063 0 4.164062-3.375 7.539062-7.539063 7.539062zm0 0"/><path d="m128.351562 300.359375h-84.71875c-4.164062 0-7.539062-3.375-7.539062-7.539063 0-4.164062 3.375-7.539062 7.539062-7.539062h84.71875c4.164063 0 7.539063 3.375 7.539063 7.539062 0 4.164063-3.375 7.539063-7.539063 7.539063zm0 0"/><path d="m141.421875 68.101562h-110.859375c-4.164062 0-7.539062-3.375-7.539062-7.539062s3.375-7.539062 7.539062-7.539062h110.859375c4.167969 0 7.539063 3.375 7.539063 7.539062s-3.371094 7.539062-7.539063 7.539062zm0 0"/><path d="m85.992188 244.582031c-4.164063 0-7.539063-3.375-7.539063-7.539062v-54.984375c0-4.164063 3.375-7.539063 7.539063-7.539063 4.164062 0 7.539062 3.375 7.539062 7.539063v54.984375c0 4.164062-3.375 7.539062-7.539062 7.539062zm0 0"/></g><path d="m362.515625 325.167969h-106.707031c-4.164063 0-7.539063 3.375-7.539063 7.539062v171.753907c0 4.164062 3.375 7.539062 7.539063 7.539062h106.707031c4.167969 0 7.539063-3.375 7.539063-7.539062v-171.753907c0-4.164062-3.371094-7.539062-7.539063-7.539062zm0 0" fill="#f9e075"/><path d="m362.515625 325.167969h-24.125c4.164063 0 7.539063 3.375 7.539063 7.539062v171.753907c0 4.164062-3.375 7.539062-7.539063 7.539062h24.125c4.167969 0 7.539063-3.375 7.539063-7.539062v-171.753907c0-4.164062-3.371094-7.539062-7.539063-7.539062zm0 0" fill="#f9cd45"/><path d="m393.035156 23.636719c-1.417968-1.46875-3.375-2.296875-5.417968-2.296875h-156.90625c-2.042969 0-4 .828125-5.421876 2.296875-1.417968 1.46875-2.183593 3.453125-2.117187 5.492187l7.652344 230.375c.015625.488282.082031.972656.191406 1.449219l17 73.453125c.789063 3.417969 3.835937 5.839844 7.34375 5.839844h107.605469c3.519531 0 6.570312-2.4375 7.351562-5.867188l17-74.777344c.105469-.464843.167969-.941406.183594-1.417968l7.652344-229.050782c.066406-2.042968-.695313-4.027343-2.117188-5.496093zm0 0" fill="#f9cd45"/><path d="m393.035156 23.636719c-1.417968-1.46875-3.375-2.296875-5.417968-2.296875h-23.121094c2.042968 0 4 .828125 5.417968 2.296875 1.421876 1.46875 2.183594 3.453125 2.117188 5.496093l-7.652344 229.050782c-.015625.476562-.074218.953125-.183594 1.417968l-17 74.773438c-.78125 3.433594-3.832031 5.871094-7.351562 5.871094h23.121094c3.519531 0 6.570312-2.4375 7.351562-5.871094l17-74.773438c.105469-.464843.167969-.941406.1875-1.417968l7.648438-229.050782c.066406-2.042968-.695313-4.027343-2.117188-5.496093zm0 0" fill="#f8c03c"/><path d="m335.449219 0h-52.570313c-4.164062 0-7.539062 3.375-7.539062 7.539062v202.164063c0 4.164063 3.375 7.539063 7.539062 7.539063h52.570313c4.164062 0 7.539062-3.375 7.539062-7.539063v-202.164063c0-4.164062-3.375-7.539062-7.539062-7.539062zm0 0" fill="#fff4f1"/><path d="m335.449219 0h-20.105469c4.164062 0 7.539062 3.375 7.539062 7.539062v202.164063c0 4.164063-3.375 7.539063-7.539062 7.539063h20.105469c4.164062 0 7.539062-3.375 7.539062-7.539063v-202.164063c0-4.164062-3.375-7.539062-7.539062-7.539062zm0 0" fill="#ecedef"/><path d="m360.175781 266.113281h-95.996093c-4.164063 0-7.539063-3.375-7.539063-7.539062 0-4.164063 3.375-7.539063 7.539063-7.539063h95.996093c4.167969 0 7.542969 3.375 7.542969 7.539063 0 4.164062-3.375 7.539062-7.542969 7.539062zm0 0" fill="#f8c03c"/><path d="m351.523438 300.359375h-84.71875c-4.164063 0-7.539063-3.375-7.539063-7.539063 0-4.164062 3.375-7.539062 7.539063-7.539062h84.71875c4.164062 0 7.539062 3.375 7.539062 7.539062 0 4.164063-3.375 7.539063-7.539062 7.539063zm0 0" fill="#f8c03c"/><path d="m364.59375 68.101562h-110.863281c-4.164063 0-7.539063-3.375-7.539063-7.539062s3.375-7.539062 7.539063-7.539062h110.863281c4.164062 0 7.539062 3.375 7.539062 7.539062s-3.375 7.539062-7.539062 7.539062zm0 0" fill="#f8c03c"/><path d="m309.164062 244.582031c-4.164062 0-7.539062-3.375-7.539062-7.539062v-54.984375c0-4.164063 3.375-7.539063 7.539062-7.539063 4.164063 0 7.539063 3.375 7.539063 7.539063v54.984375c0 4.164062-3.375 7.539062-7.539063 7.539062zm0 0" fill="#f8c03c"/></svg>