<svg height="512pt" viewBox="-23 0 512 512" width="512pt" xmlns="http://www.w3.org/2000/svg"><path d="m346.667969 353.835938h-143.066407c-4.167968 0-7.550781 3.378906-7.550781 7.546874v143.066407c0 2.464843 1.203125 4.777343 3.226563 6.191406 1.285156.894531 2.796875 1.359375 4.324218 1.359375.875 0 1.753907-.152344 2.597657-.460938l24.863281-9.101562 21.472656 8.976562c1.765625.738282 3.738282.777344 5.53125.117188l24.585938-9.085938 21.171875 8.957032c2.121093.898437 4.527343.777344 6.550781-.320313l15.230469-8.285156 17.820312 8.472656c2.335938 1.109375 5.082031.945313 7.273438-.4375 2.191406-1.382812 3.519531-3.792969 3.519531-6.382812v-143.066407c0-4.167968-3.382812-7.546874-7.550781-7.546874zm0 0" fill="#ecedef"/><path d="m457.96875 88.480469h-371.195312c-4.167969 0-7.550782 3.378906-7.550782 7.550781v265.351562c0 4.171876 3.382813 7.550782 7.550782 7.550782h371.195312c4.171875 0 7.550781-3.378906 7.550781-7.550782v-265.351562c0-4.171875-3.378906-7.550781-7.550781-7.550781zm0 0" fill="#fff4f1"/><path d="m457.96875 88.480469h-25.167969c4.171875 0 7.550781 3.378906 7.550781 7.550781v265.351562c0 4.171876-3.378906 7.550782-7.550781 7.550782h25.167969c4.171875 0 7.550781-3.378906 7.550781-7.550782v-265.351562c0-4.171875-3.378906-7.550781-7.550781-7.550781zm0 0" fill="#ecedef"/><path d="m452.019531 21.558594h-359.296875c-7.457031 0-13.5 6.042968-13.5 13.496094v68.527343h386.296875v-68.527343c0-7.453126-6.042969-13.496094-13.5-13.496094zm0 0" fill="#4890e3"/><path d="m452.019531 21.558594h-25.167969c7.457032 0 13.5 6.042968 13.5 13.496094v68.527343h25.167969v-68.527343c0-7.453126-6.042969-13.496094-13.5-13.496094zm0 0" fill="#2970d6"/><path d="m396.773438 176.75h-248.804688c-4.167969 0-7.550781 3.378906-7.550781 7.550781v130.316407c0 4.171874 3.382812 7.550781 7.550781 7.550781h248.804688c4.171874 0 7.550781-3.378907 7.550781-7.550781v-130.316407c0-4.171875-3.378907-7.550781-7.550781-7.550781zm0 0" fill="#d0cfd1"/><path d="m396.773438 176.75h-23.15625c4.171874 0 7.550781 3.378906 7.550781 7.550781v130.316407c0 4.171874-3.378907 7.550781-7.550781 7.550781h23.15625c4.171874 0 7.550781-3.378907 7.550781-7.550781v-130.316407c0-4.171875-3.378907-7.550781-7.550781-7.550781zm0 0" fill="#c4c3c4"/><path d="m396.773438 130.257812h-28.480469l-20.464844 10.070313-20.464844-10.070313h-34.527343l-20.464844 10.070313-20.464844-10.070313h-34.527344l-20.464844 10.070313-20.464843-10.070313h-28.480469c-4.167969 0-7.550781 3.382813-7.550781 7.550782v54.042968h36.03125l20.464843-10.070312 20.464844 10.070312h34.527344l20.464844-10.070312 20.464844 10.070312h34.527343l20.464844-10.070312 20.464844 10.070312h36.03125v-54.042968c0-4.167969-3.378907-7.550782-7.550781-7.550782zm0 0" fill="#f45a3c"/><path d="m396.773438 130.257812h-23.15625c4.171874 0 7.550781 3.382813 7.550781 7.550782v54.042968h23.15625v-54.042968c0-4.167969-3.378907-7.550782-7.550781-7.550782zm0 0" fill="#e24a2a"/><g fill="#ecedef"><path d="m176.449219 130.257812h40.929687v61.59375h-40.929687zm0 0"/><path d="m251.90625 130.257812h40.929688v61.59375h-40.929688zm0 0"/><path d="m327.363281 130.257812h40.929688v61.59375h-40.929688zm0 0"/></g><path d="m308.015625 211.929688h-61.75c-4.167969 0-7.550781 3.382812-7.550781 7.550781v102.6875h76.851562v-102.6875c0-4.167969-3.378906-7.550781-7.550781-7.550781zm0 0" fill="#2970d6"/><path d="m318.785156 400.070312h-87.300781c-4.167969 0-7.550781-3.382812-7.550781-7.550781 0-4.171875 3.382812-7.550781 7.550781-7.550781h87.300781c4.167969 0 7.550782 3.378906 7.550782 7.550781 0 4.167969-3.382813 7.550781-7.550782 7.550781zm0 0" fill="#d0cfd1"/><path d="m318.785156 431.203125h-87.300781c-4.167969 0-7.550781-3.378906-7.550781-7.550781s3.382812-7.550782 7.550781-7.550782h87.300781c4.167969 0 7.550782 3.378907 7.550782 7.550782s-3.382813 7.550781-7.550782 7.550781zm0 0" fill="#d0cfd1"/><path d="m320.625 460.238281h-90.984375c-4.167969 0-7.550781-3.378906-7.550781-7.550781 0-4.167969 3.382812-7.550781 7.550781-7.550781h90.984375c4.171875 0 7.550781 3.382812 7.550781 7.550781 0 4.171875-3.378906 7.550781-7.550781 7.550781zm0 0" fill="#d0cfd1"/><path d="m73.871094 0c-40.730469 0-73.871094 33.140625-73.871094 73.871094 0 40.734375 33.140625 73.875 73.871094 73.875 40.734375 0 73.875-33.140625 73.875-73.871094 0-40.734375-33.140625-73.875-73.875-73.875zm0 0" fill="#00bf9e"/><path d="m73.871094 0c-4.113282 0-8.144532.355469-12.078125 1.003906 35.003906 5.785156 61.789062 36.25 61.789062 72.871094 0 36.617188-26.785156 67.082031-61.789062 72.867188 3.933593.652343 7.964843 1.003906 12.078125 1.003906 40.734375 0 73.875-33.140625 73.875-73.871094 0-40.734375-33.140625-73.875-73.875-73.875zm0 0" fill="#00a983"/><path d="m67.476562 96.734375c-.085937 0-.171874 0-.261718-.003906-2.195313-.074219-4.25-1.105469-5.625-2.816407l-15.488282-19.296874c-2.613281-3.25-2.09375-8.003907 1.15625-10.613282 3.253907-2.613281 8.007813-2.09375 10.617188 1.160156l10.003906 12.457032 22.332032-24.183594c2.828124-3.0625 7.605468-3.253906 10.667968-.421875 3.066406 2.828125 3.253906 7.605469.425782 10.667969l-28.277344 30.625c-1.433594 1.546875-3.445313 2.425781-5.550782 2.425781zm0 0" fill="#fff4f1"/></svg>