<svg height="512pt" viewBox="0 -9 512 512" width="512pt" xmlns="http://www.w3.org/2000/svg"><path d="m215.570312 257.699219h78.945313c2.042969-1.363281 3.390625-3.683594 3.390625-6.324219 0-23.636719-19.230469-42.863281-42.863281-42.863281-23.636719 0-42.863281 19.226562-42.863281 42.863281 0 2.640625 1.347656 4.960938 3.390624 6.324219zm0 0" fill="#d0cfd1"/><path d="m255.042969 208.511719c-4.039063 0-7.941407.570312-11.648438 1.621093 17.988281 5.089844 31.214844 21.644532 31.214844 41.242188 0 2.636719-1.347656 4.960938-3.390625 6.324219h23.296875c2.042969-1.363281 3.390625-3.683594 3.390625-6.324219 0-23.636719-19.230469-42.863281-42.863281-42.863281zm0 0" fill="#9c9b9d"/><path d="m341.265625 141.40625c-4.195313 0-7.59375-3.402344-7.59375-7.597656 0-43.355469-35.273437-78.628906-78.628906-78.628906s-78.628907 35.273437-78.628907 78.628906c0 4.195312-3.398437 7.597656-7.597656 7.597656-4.195312 0-7.59375-3.402344-7.59375-7.597656 0-51.734375 42.085938-93.820313 93.820313-93.820313s93.820312 42.085938 93.820312 93.820313c0 4.195312-3.398437 7.597656-7.597656 7.597656zm0 0" fill="#d0cfd1"/><path d="m381.253906 141.40625c-4.195312 0-7.597656-3.402344-7.597656-7.597656 0-65.402344-53.207031-118.613282-118.613281-118.613282s-118.617188 53.210938-118.617188 118.613282c0 4.195312-3.398437 7.597656-7.597656 7.597656-4.195313 0-7.59375-3.402344-7.59375-7.597656 0-73.78125 60.027344-133.808594 133.808594-133.808594s133.808593 60.027344 133.808593 133.808594c0 4.195312-3.402343 7.597656-7.597656 7.597656zm0 0" fill="#d0cfd1"/><path d="m297.367188 141.40625c-4.195313 0-7.597657-3.402344-7.597657-7.597656 0-19.148438-15.578125-34.726563-34.726562-34.726563-19.148438 0-34.726563 15.578125-34.726563 34.726563 0 4.195312-3.402344 7.597656-7.597656 7.597656s-7.597656-3.402344-7.597656-7.597656c0-27.527344 22.394531-49.917969 49.921875-49.917969 27.527343 0 49.921875 22.390625 49.921875 49.917969 0 4.195312-3.402344 7.597656-7.597656 7.597656zm0 0" fill="#d0cfd1"/><path d="m469.964844 251.683594h-427.929688c-23.179687 0-42.035156 18.859375-42.035156 42.035156v157.785156c0 23.179688 18.855469 42.035156 42.035156 42.035156h427.929688c23.179687 0 42.035156-18.855468 42.035156-42.035156v-157.785156c0-23.179688-18.855469-42.035156-42.035156-42.035156zm0 0" fill="#f45a3c"/><path d="m469.964844 251.683594h-23.296875c23.179687 0 42.035156 18.859375 42.035156 42.035156v157.785156c0 23.179688-18.855469 42.035156-42.035156 42.035156h23.296875c23.179687 0 42.035156-18.855468 42.035156-42.035156v-157.785156c0-23.179688-18.855469-42.035156-42.035156-42.035156zm0 0" fill="#e24a2a"/><g fill="#fff4f1"><path d="m88.664062 278.128906h-41.757812c-4.195312 0-7.59375 3.402344-7.59375 7.597656v41.753907c0 4.195312 3.398438 7.597656 7.59375 7.597656h41.757812c4.195313 0 7.597657-3.402344 7.597657-7.597656v-41.753907c-.003907-4.195312-3.402344-7.597656-7.597657-7.597656zm0 0"/><path d="m162.105469 278.128906h-41.757813c-4.195312 0-7.597656 3.402344-7.597656 7.597656v41.753907c0 4.195312 3.402344 7.597656 7.597656 7.597656h41.757813c4.195312 0 7.59375-3.402344 7.59375-7.597656v-41.753907c0-4.195312-3.398438-7.597656-7.59375-7.597656zm0 0"/><path d="m193.789062 335.078125h41.757813c4.195313 0 7.59375-3.402344 7.59375-7.597656v-41.753907c0-4.195312-3.398437-7.597656-7.59375-7.597656h-41.757813c-4.195312 0-7.597656 3.402344-7.597656 7.597656v41.753907c0 4.195312 3.402344 7.597656 7.597656 7.597656zm0 0"/><path d="m308.988281 278.128906h-41.757812c-4.195313 0-7.597657 3.402344-7.597657 7.597656v41.753907c0 4.195312 3.402344 7.597656 7.597657 7.597656h41.757812c4.195313 0 7.59375-3.402344 7.59375-7.597656v-41.753907c0-4.195312-3.398437-7.597656-7.59375-7.597656zm0 0"/><path d="m382.425781 278.128906h-41.753906c-4.195313 0-7.597656 3.402344-7.597656 7.597656v41.753907c0 4.195312 3.402343 7.597656 7.597656 7.597656h41.753906c4.199219 0 7.597657-3.402344 7.597657-7.597656v-41.753907c0-4.195312-3.402344-7.597656-7.597657-7.597656zm0 0"/><path d="m455.867188 278.128906h-41.753907c-4.199219 0-7.597656 3.402344-7.597656 7.597656v41.753907c0 4.195312 3.398437 7.597656 7.597656 7.597656h41.753907c4.199218 0 7.597656-3.402344 7.597656-7.597656v-41.753907c0-4.195312-3.398438-7.597656-7.597656-7.597656zm0 0"/><path d="m88.664062 343.683594h-41.757812c-4.195312 0-7.59375 3.402344-7.59375 7.597656v41.757812c0 4.195313 3.398438 7.59375 7.59375 7.59375h41.757812c4.195313 0 7.597657-3.398437 7.597657-7.59375v-41.757812c-.003907-4.195312-3.402344-7.597656-7.597657-7.597656zm0 0"/><path d="m162.105469 343.683594h-41.757813c-4.195312 0-7.597656 3.402344-7.597656 7.597656v41.757812c0 4.195313 3.402344 7.59375 7.597656 7.59375h41.757813c4.195312 0 7.59375-3.398437 7.59375-7.59375v-41.757812c0-4.195312-3.398438-7.597656-7.59375-7.597656zm0 0"/><path d="m193.789062 400.632812h41.757813c4.195313 0 7.59375-3.398437 7.59375-7.59375v-41.757812c0-4.195312-3.398437-7.597656-7.59375-7.597656h-41.757813c-4.195312 0-7.597656 3.402344-7.597656 7.597656v41.757812c0 4.195313 3.402344 7.59375 7.597656 7.59375zm0 0"/><path d="m308.988281 343.683594h-41.757812c-4.195313 0-7.597657 3.402344-7.597657 7.597656v41.757812c0 4.195313 3.402344 7.59375 7.597657 7.59375h41.757812c4.195313 0 7.59375-3.398437 7.59375-7.59375v-41.757812c0-4.195312-3.398437-7.597656-7.59375-7.597656zm0 0"/><path d="m382.425781 343.683594h-41.753906c-4.195313 0-7.597656 3.402344-7.597656 7.597656v41.757812c0 4.195313 3.402343 7.59375 7.597656 7.59375h41.753906c4.199219 0 7.597657-3.398437 7.597657-7.59375v-41.757812c0-4.195312-3.402344-7.597656-7.597657-7.597656zm0 0"/><path d="m455.867188 343.683594h-41.753907c-4.199219 0-7.597656 3.402344-7.597656 7.597656v41.757812c0 4.195313 3.398437 7.59375 7.597656 7.59375h41.753907c4.199218 0 7.597656-3.398437 7.597656-7.59375v-41.757812c0-4.195312-3.398438-7.597656-7.597656-7.597656zm0 0"/><path d="m88.664062 409.242188h-41.757812c-4.195312 0-7.59375 3.402343-7.59375 7.597656v41.753906c0 4.195312 3.398438 7.597656 7.59375 7.597656h41.757812c4.195313 0 7.597657-3.402344 7.597657-7.597656v-41.753906c-.003907-4.195313-3.402344-7.597656-7.597657-7.597656zm0 0"/><path d="m162.105469 409.242188h-41.757813c-4.195312 0-7.597656 3.402343-7.597656 7.597656v41.753906c0 4.195312 3.402344 7.597656 7.597656 7.597656h41.757813c4.195312 0 7.59375-3.402344 7.59375-7.597656v-41.753906c0-4.195313-3.398438-7.597656-7.59375-7.597656zm0 0"/><path d="m308.988281 409.242188h-115.199219c-4.195312 0-7.597656 3.402343-7.597656 7.597656v41.753906c0 4.195312 3.402344 7.597656 7.597656 7.597656h115.199219c4.195313 0 7.59375-3.402344 7.59375-7.597656v-41.753906c0-4.195313-3.398437-7.597656-7.59375-7.597656zm0 0"/><path d="m382.425781 409.242188h-41.753906c-4.195313 0-7.597656 3.402343-7.597656 7.597656v41.753906c0 4.195312 3.402343 7.597656 7.597656 7.597656h41.753906c4.199219 0 7.597657-3.402344 7.597657-7.597656v-41.753906c0-4.195313-3.402344-7.597656-7.597657-7.597656zm0 0"/><path d="m455.867188 409.242188h-41.753907c-4.199219 0-7.597656 3.402343-7.597656 7.597656v41.753906c0 4.195312 3.398437 7.597656 7.597656 7.597656h41.753907c4.199218 0 7.597656-3.402344 7.597656-7.597656v-41.753906c0-4.195313-3.398438-7.597656-7.597656-7.597656zm0 0"/></g><path d="m88.664062 278.128906h-24.3125c4.199219 0 7.597657 3.402344 7.597657 7.597656v41.753907c0 4.195312-3.398438 7.597656-7.597657 7.597656h24.3125c4.195313 0 7.59375-3.402344 7.59375-7.597656v-41.753907c0-4.195312-3.398437-7.597656-7.59375-7.597656zm0 0" fill="#ecedef"/><path d="m162.105469 278.128906h-24.3125c4.199219 0 7.597656 3.402344 7.597656 7.597656v41.753907c0 4.195312-3.398437 7.597656-7.597656 7.597656h24.3125c4.195312 0 7.59375-3.402344 7.59375-7.597656v-41.753907c0-4.195312-3.398438-7.597656-7.59375-7.597656zm0 0" fill="#ecedef"/><path d="m235.546875 278.128906h-24.3125c4.199219 0 7.597656 3.402344 7.597656 7.597656v41.753907c0 4.195312-3.398437 7.597656-7.597656 7.597656h24.3125c4.195313 0 7.59375-3.402344 7.59375-7.597656v-41.753907c0-4.195312-3.398437-7.597656-7.59375-7.597656zm0 0" fill="#ecedef"/><path d="m308.988281 278.128906h-24.3125c4.199219 0 7.597657 3.402344 7.597657 7.597656v41.753907c0 4.195312-3.398438 7.597656-7.597657 7.597656h24.3125c4.195313 0 7.59375-3.402344 7.59375-7.597656v-41.753907c0-4.195312-3.398437-7.597656-7.59375-7.597656zm0 0" fill="#ecedef"/><path d="m382.425781 278.128906h-24.308593c4.195312 0 7.597656 3.402344 7.597656 7.597656v41.753907c0 4.195312-3.402344 7.597656-7.597656 7.597656h24.308593c4.199219 0 7.597657-3.402344 7.597657-7.597656v-41.753907c0-4.195312-3.402344-7.597656-7.597657-7.597656zm0 0" fill="#ecedef"/><path d="m455.867188 278.128906h-24.308594c4.195312 0 7.597656 3.402344 7.597656 7.597656v41.753907c0 4.195312-3.402344 7.597656-7.597656 7.597656h24.308594c4.199218 0 7.597656-3.402344 7.597656-7.597656v-41.753907c0-4.195312-3.398438-7.597656-7.597656-7.597656zm0 0" fill="#ecedef"/><path d="m88.664062 343.683594h-24.3125c4.199219 0 7.597657 3.402344 7.597657 7.597656v41.757812c0 4.195313-3.398438 7.59375-7.597657 7.59375h24.3125c4.195313 0 7.59375-3.398437 7.59375-7.59375v-41.757812c0-4.195312-3.398437-7.597656-7.59375-7.597656zm0 0" fill="#ecedef"/><path d="m162.105469 343.683594h-24.3125c4.199219 0 7.597656 3.402344 7.597656 7.597656v41.757812c0 4.195313-3.398437 7.59375-7.597656 7.59375h24.3125c4.195312 0 7.59375-3.398437 7.59375-7.59375v-41.757812c0-4.195312-3.398438-7.597656-7.59375-7.597656zm0 0" fill="#ecedef"/><path d="m235.546875 343.683594h-24.3125c4.199219 0 7.597656 3.402344 7.597656 7.597656v41.757812c0 4.195313-3.398437 7.59375-7.597656 7.59375h24.3125c4.195313 0 7.59375-3.398437 7.59375-7.59375v-41.757812c0-4.195312-3.398437-7.597656-7.59375-7.597656zm0 0" fill="#ecedef"/><path d="m308.988281 343.683594h-24.3125c4.199219 0 7.597657 3.402344 7.597657 7.597656v41.757812c0 4.195313-3.398438 7.59375-7.597657 7.59375h24.3125c4.195313 0 7.59375-3.398437 7.59375-7.59375v-41.757812c0-4.195312-3.398437-7.597656-7.59375-7.597656zm0 0" fill="#ecedef"/><path d="m382.425781 343.683594h-24.308593c4.195312 0 7.597656 3.402344 7.597656 7.597656v41.757812c0 4.195313-3.402344 7.59375-7.597656 7.59375h24.308593c4.199219 0 7.597657-3.398437 7.597657-7.59375v-41.757812c0-4.195312-3.402344-7.597656-7.597657-7.597656zm0 0" fill="#ecedef"/><path d="m455.867188 343.683594h-24.308594c4.195312 0 7.597656 3.402344 7.597656 7.597656v41.757812c0 4.195313-3.402344 7.59375-7.597656 7.59375h24.308594c4.199218 0 7.597656-3.398437 7.597656-7.59375v-41.757812c0-4.195312-3.398438-7.597656-7.597656-7.597656zm0 0" fill="#ecedef"/><path d="m88.664062 409.242188h-24.3125c4.199219 0 7.597657 3.402343 7.597657 7.597656v41.753906c0 4.195312-3.398438 7.597656-7.597657 7.597656h24.3125c4.195313 0 7.59375-3.402344 7.59375-7.597656v-41.753906c0-4.195313-3.398437-7.597656-7.59375-7.597656zm0 0" fill="#ecedef"/><path d="m162.105469 409.242188h-24.3125c4.199219 0 7.597656 3.402343 7.597656 7.597656v41.753906c0 4.195312-3.398437 7.597656-7.597656 7.597656h24.3125c4.195312 0 7.59375-3.402344 7.59375-7.597656v-41.753906c0-4.195313-3.398438-7.597656-7.59375-7.597656zm0 0" fill="#ecedef"/><path d="m308.988281 409.242188h-24.3125c4.199219 0 7.597657 3.402343 7.597657 7.597656v41.753906c0 4.195312-3.398438 7.597656-7.597657 7.597656h24.3125c4.195313 0 7.59375-3.402344 7.59375-7.597656v-41.753906c0-4.195313-3.398437-7.597656-7.59375-7.597656zm0 0" fill="#ecedef"/><path d="m382.425781 409.242188h-24.308593c4.195312 0 7.597656 3.402343 7.597656 7.597656v41.753906c0 4.195312-3.402344 7.597656-7.597656 7.597656h24.308593c4.199219 0 7.597657-3.402344 7.597657-7.597656v-41.753906c0-4.195313-3.402344-7.597656-7.597657-7.597656zm0 0" fill="#ecedef"/><path d="m455.867188 409.242188h-24.308594c4.195312 0 7.597656 3.402343 7.597656 7.597656v41.753906c0 4.195312-3.402344 7.597656-7.597656 7.597656h24.308594c4.199218 0 7.597656-3.402344 7.597656-7.597656v-41.753906c0-4.195313-3.398438-7.597656-7.597656-7.597656zm0 0" fill="#ecedef"/></svg>