<svg height="512pt" viewBox="0 -3 512 512" width="512pt" xmlns="http://www.w3.org/2000/svg"><path d="m106.898438 174.402344c-.089844-15.101563-12.40625-27.359375-27.527344-27.359375-15.125 0-27.4375 12.257812-27.523438 27.359375l-6.953125 170.640625c-.082031 2.039062.671875 4.023437 2.085938 5.5 1.414062 1.472656 3.367187 2.304687 5.410156 2.304687h53.964844c2.042969 0 3.996093-.832031 5.410156-2.304687 1.414063-1.472657 2.167969-3.460938 2.082031-5.5zm0 0" fill="#4890e3"/><path d="m460.152344 174.402344c-.085938-15.101563-12.398438-27.359375-27.523438-27.359375-15.121094 0-27.4375 12.257812-27.527344 27.359375l-6.949218 170.640625c-.082032 2.039062.667968 4.023437 2.082031 5.5 1.414063 1.472656 3.371094 2.304687 5.410156 2.304687h53.96875c2.039063 0 3.996094-.832031 5.410157-2.304687 1.414062-1.472657 2.164062-3.460938 2.082031-5.5zm0 0" fill="#4890e3"/><path d="m106.898438 174.402344c-.089844-15.101563-12.40625-27.359375-27.527344-27.359375-4.300782 0-8.371094.992187-12 2.757812 9.136718 4.445313 15.464844 13.792969 15.527344 24.601563l6.949218 170.640625c.082032 2.039062-.667968 4.023437-2.082031 5.5-1.414063 1.472656-3.371094 2.304687-5.410156 2.304687h24c2.039062 0 3.996093-.832031 5.410156-2.304687 1.414063-1.472657 2.164063-3.460938 2.082031-5.5zm0 0" fill="#2970d6"/><path d="m460.152344 174.402344c-.085938-15.101563-12.398438-27.359375-27.523438-27.359375-4.300781 0-8.371094.992187-12 2.757812 9.136719 4.445313 15.460938 13.792969 15.523438 24.601563l6.953125 170.640625c.082031 2.039062-.667969 4.023437-2.082031 5.5-1.414063 1.472656-3.371094 2.304687-5.410157 2.304687h24c2.039063 0 3.996094-.832031 5.410157-2.304687 1.414062-1.472657 2.164062-3.460938 2.082031-5.5zm0 0" fill="#2970d6"/><path d="m281.5625 110.058594c-4.140625 0-7.5-3.359375-7.5-7.5 0-9.960938-8.101562-18.066406-18.0625-18.066406s-18.0625 8.105468-18.0625 18.066406c0 4.140625-3.359375 7.5-7.5 7.5-4.144531 0-7.5-3.359375-7.5-7.5 0-18.234375 14.832031-33.066406 33.0625-33.066406s33.0625 14.832031 33.0625 33.066406c0 4.140625-3.355469 7.5-7.5 7.5zm0 0" fill="#d0cfd1"/><path d="m314.871094 110.058594c-4.140625 0-7.5-3.359375-7.5-7.5 0-28.328125-23.042969-51.375-51.371094-51.375s-51.371094 23.046875-51.371094 51.375c0 4.140625-3.359375 7.5-7.5 7.5-4.144531 0-7.5-3.359375-7.5-7.5 0-36.597656 29.773438-66.375 66.371094-66.375s66.371094 29.777344 66.371094 66.375c0 4.140625-3.355469 7.5-7.5 7.5zm0 0" fill="#d0cfd1"/><path d="m351.058594 110.058594c-4.144532 0-7.5-3.359375-7.5-7.5 0-48.28125-39.277344-87.558594-87.558594-87.558594s-87.558594 39.277344-87.558594 87.558594c0 4.140625-3.355468 7.5-7.5 7.5-4.140625 0-7.5-3.359375-7.5-7.5 0-56.550782 46.007813-102.558594 102.558594-102.558594s102.558594 46.007812 102.558594 102.558594c0 4.140625-3.359375 7.5-7.5 7.5zm0 0" fill="#d0cfd1"/><path d="m504.5 338.632812h-164.902344l-24.542968 13-22.195313-13h-54.703125l-59.964844 13-52.6875-13h-118.003906c-4.144531 0-7.5 3.355469-7.5 7.5v152.199219c0 4.140625 3.355469 7.5 7.5 7.5h194.902344l53.597656-20 59.054688 20h54.703124l21.421876-20 25.3125 20h88.007812c4.144531 0 7.5-3.359375 7.5-7.5v-152.199219c0-4.144531-3.355469-7.5-7.5-7.5zm0 0" fill="#91bcee"/><g fill="#4890e3"><path d="m504.5 338.632812h-24c4.144531 0 7.5 3.355469 7.5 7.5v152.199219c0 4.140625-3.355469 7.5-7.5 7.5h24c4.144531 0 7.5-3.359375 7.5-7.5v-152.199219c0-4.144531-3.355469-7.5-7.5-7.5zm0 0"/><path d="m315.054688 505.832031h-112.652344l-76.898438-167.199219h112.652344zm0 0"/><path d="m416.496094 505.832031h-46.738282l-76.898437-167.199219h46.738281zm0 0"/></g><path d="m71 430.285156h-31c-4.144531 0-7.5 3.359375-7.5 7.5v31c0 4.144532 3.355469 7.5 7.5 7.5h31c4.144531 0 7.5-3.355468 7.5-7.5v-31c0-4.140625-3.355469-7.5-7.5-7.5zm0 0" fill="#2970d6"/><path d="m468.628906 368.003906h-31c-4.144531 0-7.5 3.355469-7.5 7.5v31c0 4.140625 3.355469 7.5 7.5 7.5h31c4.144532 0 7.5-3.359375 7.5-7.5v-31c0-4.144531-3.359375-7.5-7.5-7.5zm0 0" fill="#2970d6"/></svg>