<svg height="511pt" viewBox="-165 1 511 511.99899" width="511pt" xmlns="http://www.w3.org/2000/svg"><path d="m175.839844 503.660156-4.363282-43.628906c.082032-.953125-.011718-1.917969-.285156-2.84375l-12.722656-127.132812c0-.007813-.003906-.015626-.003906-.023438l-17.671875-176.585938h25.484375c4.191406 0 7.585937-3.394531 7.585937-7.585937 0-4.1875-3.394531-7.582031-7.585937-7.582031h-46.414063c-4.1875 0-7.585937 3.394531-7.585937 7.582031 0 4.191406 3.398437 7.585937 7.585937 7.585937h5.683594l6.546875 65.390626-38.96875 38.96875-38.96875-38.96875 6.542969-65.390626c4.1875-.003906 7.578125-3.398437 7.578125-7.585937s-3.394532-7.582031-7.582032-7.582031h-46.417968c-4.1875 0-7.582032 3.394531-7.582032 7.582031 0 4.191406 3.394532 7.585937 7.582032 7.585937h31.179687l-17.675781 176.597657-12.722656 127.144531c-.273438.925781-.367188 1.890625-.285156 2.839844l-4.363282 43.632812c-.214844 2.132813.484375 4.253906 1.921875 5.84375s3.480469 2.496094 5.625 2.496094h150.339844c2.140625 0 4.1875-.90625 5.625-2.496094 1.433594-1.589844 2.132813-3.710937 1.917969-5.84375zm-134.554688-156.210937 41.113282 41.113281-50.253907 50.253906zm2.550782-18.902344 49.289062-49.289063 49.289062 49.289063-49.289062 49.289063zm101.128906 18.902344 9.144531 91.371093-50.257813-50.257812zm-10.921875-109.109375 6.714843 67.101562-36.90625-36.910156zm-51.644531 30.191406-36.910157 36.910156 6.714844-67.105468zm-56.0625 228.300781 3.421874-34.175781 63.367188-63.367188 63.367188 63.367188 3.421874 34.175781zm0 0" fill="#d0cfd1"/><path d="m93.125 111.535156c-18.929688 0-34.324219 15.398438-34.324219 34.324219s15.398438 34.324219 34.324219 34.324219 34.320312-15.398438 34.320312-34.324219-15.394531-34.324219-34.320312-34.324219zm0 0" fill="#f45a3c"/><path d="m93.125 111.535156c-4.273438 0-8.359375.792969-12.136719 2.222656 12.953125 4.914063 22.1875 17.449219 22.1875 32.101563 0 14.65625-9.234375 27.1875-22.1875 32.101563 3.777344 1.433593 7.863281 2.222656 12.136719 2.222656 18.925781 0 34.320312-15.398438 34.320312-34.324219s-15.394531-34.324219-34.320312-34.324219zm0 0" fill="#e24a2a"/><g fill="#d0cfd1"><path d="m127.414062 98.371094c-4.1875 0-7.582031-3.394532-7.582031-7.582032 0-15.742187-12.804687-28.546874-28.546875-28.546874-15.738281 0-28.542968 12.804687-28.542968 28.546874 0 4.1875-3.394532 7.582032-7.585938 7.582032-4.1875 0-7.582031-3.394532-7.582031-7.582032 0-24.105468 19.609375-43.714843 43.710937-43.714843 24.105469 0 43.714844 19.609375 43.714844 43.714843 0 4.1875-3.394531 7.582032-7.585938 7.582032zm0 0"/><path d="m174.488281 98.371094c-4.1875 0-7.582031-3.394532-7.582031-7.582032 0-41.695312-33.925781-75.621093-75.621094-75.621093-41.695312 0-75.617187 33.925781-75.617187 75.621093 0 4.1875-3.394531 7.582032-7.582031 7.582032-4.191407 0-7.585938-3.394532-7.585938-7.582032 0-50.0625 40.726562-90.789062 90.785156-90.789062 50.0625 0 90.789063 40.726562 90.789063 90.789062 0 4.1875-3.394531 7.582032-7.585938 7.582032zm0 0"/></g></svg>