<svg height="512pt" viewBox="0 -4 512 512" width="512pt" xmlns="http://www.w3.org/2000/svg"><path d="m430.339844 43.355469c4.140625 0 7.5-3.359375 7.5-7.5v-28.355469c0-4.140625-3.359375-7.5-7.5-7.5h-348.679688c-4.140625 0-7.5 3.359375-7.5 7.5v201.808594c0 4.144531 3.359375 7.5 7.5 7.5h24.085938v22.011718h-24.085938c-4.140625 0-7.5 3.359376-7.5 7.5v35.15625c0 4.140626 3.359375 7.5 7.5 7.5h24.085938v41.027344h-24.085938c-4.140625 0-7.5 3.355469-7.5 7.5v38.9375c0 4.144532 3.359375 7.5 7.5 7.5h348.679688c4.140625 0 7.5-3.355468 7.5-7.5v-312.574218c0-4.140626-3.359375-7.5-7.5-7.5h-23.605469v-13.011719zm0 0" fill="#f45a3c"/><path d="m430.339844 43.355469c4.140625 0 7.5-3.359375 7.5-7.5v-28.355469c0-4.140625-3.359375-7.5-7.5-7.5h-24c4.140625 0 7.5 3.359375 7.5 7.5v28.355469c0 4.140625-3.359375 7.5-7.5 7.5h-157.097656c-3.59375 0-6.507813 2.910156-6.507813 6.503906s2.914063 6.507813 6.507813 6.507813h157.097656c4.140625 0 7.5 3.359374 7.5 7.5v312.578124c0 4.140626-3.359375 7.5-7.5 7.5h24c4.140625 0 7.5-3.359374 7.5-7.5v-312.578124c0-4.140626-3.359375-7.5-7.5-7.5h-23.605469v-13.011719zm0 0" fill="#e24a2a"/><path d="m173.964844 321.777344h-21.632813c-4.140625 0-7.5-3.359375-7.5-7.5 0-4.144532 3.359375-7.5 7.5-7.5h21.632813c4.144531 0 7.5 3.355468 7.5 7.5 0 4.140625-3.355469 7.5-7.5 7.5zm7.5-35.316406c0-4.140626-3.355469-7.5-7.5-7.5h-21.632813c-4.140625 0-7.5 3.359374-7.5 7.5 0 4.144531 3.359375 7.5 7.5 7.5h21.632813c4.144531 0 7.5-3.355469 7.5-7.5zm0-27.8125c0-4.140626-3.355469-7.5-7.5-7.5h-21.632813c-4.140625 0-7.5 3.359374-7.5 7.5 0 4.140624 3.359375 7.5 7.5 7.5h21.632813c4.144531 0 7.5-3.359376 7.5-7.5zm0-27.8125c0-4.144532-3.355469-7.5-7.5-7.5h-21.632813c-4.140625 0-7.5 3.355468-7.5 7.5 0 4.140624 3.359375 7.5 7.5 7.5h21.632813c4.144531 0 7.5-3.359376 7.5-7.5zm0-27.816407c0-4.140625-3.355469-7.5-7.5-7.5h-21.632813c-4.140625 0-7.5 3.359375-7.5 7.5s3.359375 7.5 7.5 7.5h21.632813c4.144531 0 7.5-3.359375 7.5-7.5zm0-27.8125c0-4.144531-3.355469-7.5-7.5-7.5h-21.632813c-4.140625 0-7.5 3.355469-7.5 7.5 0 4.140625 3.359375 7.5 7.5 7.5h21.632813c4.144531 0 7.5-3.359375 7.5-7.5zm0-27.816406c0-4.140625-3.355469-7.5-7.5-7.5h-21.632813c-4.140625 0-7.5 3.359375-7.5 7.5 0 4.144531 3.359375 7.5 7.5 7.5h21.632813c4.144531 0 7.5-3.355469 7.5-7.5zm0-27.8125c0-4.140625-3.355469-7.5-7.5-7.5h-21.632813c-4.140625 0-7.5 3.359375-7.5 7.5s3.359375 7.5 7.5 7.5h21.632813c4.144531 0 7.5-3.359375 7.5-7.5zm185.246094 194.699219c0-4.144532-3.359376-7.5-7.5-7.5h-21.632813c-4.144531 0-7.5 3.355468-7.5 7.5 0 4.140625 3.355469 7.5 7.5 7.5h21.632813c4.140624 0 7.5-3.359375 7.5-7.5zm0-27.816406c0-4.140626-3.359376-7.5-7.5-7.5h-21.632813c-4.144531 0-7.5 3.359374-7.5 7.5 0 4.144531 3.355469 7.5 7.5 7.5h21.632813c4.140624 0 7.5-3.355469 7.5-7.5zm0-27.8125c0-4.140626-3.359376-7.5-7.5-7.5h-21.632813c-4.144531 0-7.5 3.359374-7.5 7.5 0 4.140624 3.355469 7.5 7.5 7.5h21.632813c4.140624 0 7.5-3.359376 7.5-7.5zm0-27.8125c0-4.144532-3.359376-7.5-7.5-7.5h-21.632813c-4.144531 0-7.5 3.355468-7.5 7.5 0 4.140624 3.355469 7.5 7.5 7.5h21.632813c4.140624 0 7.5-3.359376 7.5-7.5zm0-27.816407c0-4.140625-3.359376-7.5-7.5-7.5h-21.632813c-4.144531 0-7.5 3.359375-7.5 7.5s3.355469 7.5 7.5 7.5h21.632813c4.140624 0 7.5-3.359375 7.5-7.5zm0-27.8125c0-4.144531-3.359376-7.5-7.5-7.5h-21.632813c-4.144531 0-7.5 3.355469-7.5 7.5 0 4.140625 3.355469 7.5 7.5 7.5h21.632813c4.140624 0 7.5-3.359375 7.5-7.5zm0-27.816406c0-4.140625-3.359376-7.5-7.5-7.5h-21.632813c-4.144531 0-7.5 3.359375-7.5 7.5 0 4.144531 3.355469 7.5 7.5 7.5h21.632813c4.140624 0 7.5-3.355469 7.5-7.5zm0-27.8125c0-4.140625-3.359376-7.5-7.5-7.5h-21.632813c-4.144531 0-7.5 3.359375-7.5 7.5s3.355469 7.5 7.5 7.5h21.632813c4.140624 0 7.5-3.359375 7.5-7.5zm0 0" fill="#2970d6"/><path d="m256 435.910156c-4.140625 0-7.5-3.359375-7.5-7.5v-33.246094c0-4.144531 3.359375-7.5 7.5-7.5s7.5 3.355469 7.5 7.5v33.246094c0 4.140625-3.359375 7.5-7.5 7.5zm0 0" fill="#d0cfd1"/><path d="m0 436.257812v52.890626h512v-52.890626zm0 0" fill="#4890e3"/><path d="m337.605469 89.644531h-163.210938c-4.140625 0-7.5 3.359375-7.5 7.5v239.566407c0 4.140624 3.359375 7.5 7.5 7.5h163.210938c4.144531 0 7.5-3.359376 7.5-7.5v-239.566407c0-4.140625-3.355469-7.5-7.5-7.5zm0 0" fill="#f9e075"/><path d="m337.605469 89.644531h-23c4.144531 0 7.5 3.359375 7.5 7.5v239.566407c0 4.140624-3.355469 7.5-7.5 7.5h23c4.144531 0 7.5-3.359376 7.5-7.5v-239.566407c0-4.140625-3.355469-7.5-7.5-7.5zm0 0" fill="#f9cd45"/><g fill="#e24a2a"><path d="m132.746094 48.78125c0 5.53125-4.484375 10.015625-10.011719 10.015625-5.53125 0-10.015625-4.484375-10.015625-10.015625s4.484375-10.011719 10.015625-10.011719c5.527344 0 10.011719 4.480469 10.011719 10.011719zm0 0"/><path d="m175.285156 48.78125c0 5.53125-4.484375 10.015625-10.011718 10.015625-5.53125 0-10.015626-4.484375-10.015626-10.015625s4.484376-10.011719 10.015626-10.011719c5.527343 0 10.011718 4.480469 10.011718 10.011719zm0 0"/><path d="m217.824219 48.78125c0 5.53125-4.480469 10.015625-10.011719 10.015625s-10.015625-4.484375-10.015625-10.015625 4.484375-10.011719 10.015625-10.011719 10.011719 4.480469 10.011719 10.011719zm0 0"/></g><path d="m256 128.941406c-18.617188 0-33.761719 15.144532-33.761719 33.761719 0 18.613281 15.144531 33.761719 33.761719 33.761719s33.761719-15.148438 33.761719-33.761719c0-18.617187-15.144531-33.761719-33.761719-33.761719zm0 0" fill="#4890e3"/><path d="m256 230.945312c-18.617188 0-33.761719 15.144532-33.761719 33.757813 0 18.617187 15.144531 33.761719 33.761719 33.761719s33.761719-15.144532 33.761719-33.761719c0-18.613281-15.144531-33.757813-33.761719-33.757813zm0 0" fill="#4890e3"/><path d="m256 298.46875c-4.140625 0-7.5-3.359375-7.5-7.5v-52.523438c0-4.144531 3.359375-7.5 7.5-7.5s7.5 3.355469 7.5 7.5v52.523438c0 4.140625-3.359375 7.5-7.5 7.5zm0 0" fill="#1f54a1"/><path d="m256 420.910156c-23.046875 0-41.792969 18.746094-41.792969 41.792969 0 23.042969 18.746094 41.792969 41.792969 41.792969s41.792969-18.746094 41.792969-41.792969-18.746094-41.792969-41.792969-41.792969zm0 0" fill="#f45a3c"/><path d="m256 420.910156c-4.171875 0-8.195312.621094-12 1.761719 17.214844 5.171875 29.792969 21.15625 29.792969 40.03125s-12.578125 34.859375-29.792969 40.03125c3.804688 1.140625 7.828125 1.761719 12 1.761719 23.046875 0 41.792969-18.746094 41.792969-41.792969s-18.746094-41.792969-41.792969-41.792969zm0 0" fill="#e24a2a"/><path d="m256 196.464844c-4.140625 0-7.5-3.359375-7.5-7.5v-52.523438c0-4.140625 3.359375-7.5 7.5-7.5s7.5 3.359375 7.5 7.5v52.523438c0 4.140625-3.359375 7.5-7.5 7.5zm0 0" fill="#1f54a1"/></svg>