<svg height="512pt" viewBox="-32 0 512 512" width="512pt" xmlns="http://www.w3.org/2000/svg"><path d="m389.546875 118.753906c.082031-1.773437.125-3.539062.125-5.28125 0-62.566406-50.902344-113.472656-113.472656-113.472656-25.796875 0-51.046875 8.890625-71.101563 25.035156-17.410156 14.011719-30.355468 32.984375-37.078125 54.105469-4.367187-1.386719-8.941406-2.105469-13.554687-2.105469-18.945313 0-35.398438 11.625-41.875 28.917969h-3.277344c-60.273438 0-109.3125 49.039063-109.3125 109.3125s49.039062 109.308594 109.3125 109.308594h229.0625c60.277344 0 109.3125-49.035157 109.3125-109.308594 0-40.238281-22.65625-77.566406-58.140625-96.511719zm0 0" fill="#91bcee"/><path d="m142.371094 78.671875c.527344.148437 1.054687.300781 1.582031.46875.101563-.320313.214844-.632813.320313-.949219-.640626.144532-1.273438.308594-1.902344.480469zm0 0" fill="#4890e3"/><path d="m389.546875 118.753906c.082031-1.773437.125-3.539062.125-5.28125 0-62.566406-50.902344-113.472656-113.472656-113.472656-3.984375 0-7.949219.238281-11.886719.65625 56.863281 6.09375 101.292969 54.363281 101.292969 112.816406 0 1.742188-.042969 3.507813-.125 5.28125 35.484375 18.945313 58.140625 56.273438 58.140625 96.511719 0 60.273437-49.035156 109.308594-109.308594 109.308594h24.066406c60.273438 0 109.308594-49.035157 109.308594-109.308594 0-40.238281-22.65625-77.566406-58.140625-96.511719zm0 0" fill="#4890e3"/><path d="m253.503906 188.144531c-4.152344 0-7.519531-3.367187-7.519531-7.519531 0-7.398438-6.019531-13.414062-13.414063-13.414062-7.398437 0-13.414062 6.015624-13.414062 13.414062 0 4.152344-3.367188 7.519531-7.523438 7.519531-4.152343 0-7.519531-3.367187-7.519531-7.519531 0-15.691406 12.765625-28.457031 28.457031-28.457031 15.691407 0 28.457032 12.765625 28.457032 28.457031 0 4.152344-3.371094 7.519531-7.523438 7.519531zm0 0" fill="#fff4f1"/><path d="m280.78125 188.144531c-4.152344 0-7.519531-3.367187-7.519531-7.519531 0-22.4375-18.253907-40.695312-40.691407-40.695312-22.441406 0-40.695312 18.257812-40.695312 40.695312 0 4.152344-3.367188 7.519531-7.519531 7.519531-4.15625 0-7.523438-3.367187-7.523438-7.519531 0-30.734375 25.003907-55.734375 55.738281-55.734375 30.730469 0 55.734376 25 55.734376 55.734375 0 4.152344-3.367188 7.519531-7.523438 7.519531zm0 0" fill="#fff4f1"/><path d="m331.289062 210.425781h-214.890624c-4.15625 0-7.523438 3.367188-7.523438 7.523438v286.53125c0 4.152343 3.367188 7.519531 7.523438 7.519531h214.890624c4.15625 0 7.523438-3.367188 7.523438-7.519531v-286.53125c0-4.15625-3.367188-7.523438-7.523438-7.523438zm0 0" fill="#fff4f1"/><path d="m331.289062 210.425781h-24.066406c4.15625 0 7.523438 3.367188 7.523438 7.523438v286.53125c0 4.152343-3.367188 7.519531-7.523438 7.519531h24.066406c4.15625 0 7.523438-3.367188 7.523438-7.519531v-286.53125c0-4.15625-3.367188-7.523438-7.523438-7.523438zm0 0" fill="#ecedef"/><g fill="#4890e3"><path d="m303.488281 282.351562h-155.488281c-4.15625 0-7.523438-3.371093-7.523438-7.523437s3.367188-7.519531 7.523438-7.519531h155.488281c4.152344 0 7.519531 3.367187 7.519531 7.519531s-3.367187 7.523437-7.519531 7.523437zm0 0"/><path d="m303.488281 330.304688h-155.488281c-4.15625 0-7.523438-3.367188-7.523438-7.523438 0-4.152344 3.367188-7.519531 7.523438-7.519531h155.488281c4.152344 0 7.519531 3.367187 7.519531 7.519531 0 4.15625-3.367187 7.523438-7.519531 7.523438zm0 0"/><path d="m303.488281 378.257812h-155.488281c-4.15625 0-7.523438-3.367187-7.523438-7.523437 0-4.152344 3.367188-7.519531 7.523438-7.519531h155.488281c4.152344 0 7.519531 3.367187 7.519531 7.519531 0 4.15625-3.367187 7.523437-7.519531 7.523437zm0 0"/><path d="m303.488281 426.210938h-155.488281c-4.15625 0-7.523438-3.367188-7.523438-7.523438 0-4.152344 3.367188-7.519531 7.523438-7.519531h155.488281c4.152344 0 7.519531 3.367187 7.519531 7.519531 0 4.15625-3.367187 7.523438-7.519531 7.523438zm0 0"/><path d="m303.488281 474.160156h-155.488281c-4.15625 0-7.523438-3.367187-7.523438-7.519531s3.367188-7.519531 7.523438-7.519531h155.488281c4.152344 0 7.519531 3.367187 7.519531 7.519531s-3.367187 7.519531-7.519531 7.519531zm0 0"/></g></svg>