<svg height="512pt" viewBox="0 0 512 511" width="512pt" xmlns="http://www.w3.org/2000/svg"><g fill="#4890e3"><path d="m432.5625 394.875c-43.800781 0-79.4375 35.636719-79.4375 79.4375v30.074219c0 4.164062 3.375 7.539062 7.539062 7.539062h143.796876c4.164062 0 7.539062-3.375 7.539062-7.539062v-30.074219c0-43.800781-35.632812-79.4375-79.4375-79.4375zm0 0"/><path d="m256 394.875c-43.800781 0-79.4375 35.636719-79.4375 79.4375v30.074219c0 4.164062 3.375 7.539062 7.539062 7.539062h143.796876c4.164062 0 7.539062-3.375 7.539062-7.539062v-30.074219c0-43.800781-35.636719-79.4375-79.4375-79.4375zm0 0"/><path d="m79.4375 394.875c-43.800781 0-79.4375 35.636719-79.4375 79.4375v30.074219c0 4.164062 3.375 7.539062 7.539062 7.539062h143.796876c4.164062 0 7.539062-3.375 7.539062-7.539062v-30.074219c0-43.800781-35.636719-79.4375-79.4375-79.4375zm0 0"/></g><path d="m432.5625 394.875c-4.097656 0-8.125.3125-12.058594.914062 38.097656 5.828126 67.375 38.824219 67.375 78.523438v30.074219c0 4.164062-3.375 7.539062-7.539062 7.539062h24.121094c4.164062 0 7.539062-3.375 7.539062-7.539062v-30.074219c0-43.800781-35.632812-79.4375-79.4375-79.4375zm0 0" fill="#2970d6"/><path d="m256 394.875c-4.097656 0-8.125.3125-12.058594.914062 38.097656 5.828126 67.375 38.824219 67.375 78.523438v30.074219c0 4.164062-3.375 7.539062-7.539062 7.539062h24.121094c4.164062 0 7.539062-3.375 7.539062-7.539062v-30.074219c0-43.800781-35.636719-79.4375-79.4375-79.4375zm0 0" fill="#2970d6"/><path d="m79.4375 394.875c-4.101562 0-8.128906.3125-12.0625.914062 38.101562 5.828126 67.378906 38.824219 67.378906 78.523438v30.074219c0 4.164062-3.375 7.539062-7.539062 7.539062h24.121094c4.164062 0 7.539062-3.375 7.539062-7.539062v-30.074219c0-43.800781-35.636719-79.4375-79.4375-79.4375zm0 0" fill="#2970d6"/><path d="m253.359375 325.675781h6.953125c2.414062-1.257812 4.0625-3.777343 4.0625-6.6875v-116.507812h-15.078125v116.507812c.003906 2.910157 1.652344 5.429688 4.0625 6.6875zm0 0" fill="#d0cfd1"/><path d="m86.976562 325.675781v-151.253906h43.953126v-15.074219h-51.492188c-4.164062 0-7.539062 3.375-7.539062 7.539063v158.789062zm0 0" fill="#d0cfd1"/><path d="m426.699219 325.675781h15.078125v-158.789062c0-4.164063-3.375-7.539063-7.539063-7.539063h-36.382812v15.074219h28.84375zm0 0" fill="#d0cfd1"/><path d="m379.070312 85.484375c.027344-.824219.039063-1.640625.039063-2.453125 0-45.507812-37.023437-82.53125-82.535156-82.53125-18.761719 0-37.125 6.464844-51.714844 18.207031-12.097656 9.738281-21.234375 22.773438-26.289063 37.320313-2.660156-.660156-5.402343-1-8.160156-1-13.820312 0-25.886718 8.167968-31.140625 20.46875h-.820312c-43.882813 0-79.585938 35.703125-79.585938 79.585937 0 43.882813 35.699219 79.585938 79.585938 79.585938h162.136719c43.882812 0 79.585937-35.703125 79.585937-79.585938 0-28.832031-15.972656-55.609375-41.101563-69.597656zm0 0" fill="#4890e3"/><path d="m379.070312 85.484375c.027344-.824219.039063-1.640625.039063-2.453125 0-45.507812-37.023437-82.53125-82.535156-82.53125-4.027344 0-8.03125.316406-11.988281.898438 39.777343 5.886718 70.402343 40.246093 70.402343 81.632812 0 .8125-.015625 1.628906-.039062 2.453125 25.125 13.988281 41.101562 40.765625 41.101562 69.597656 0 43.882813-35.703125 79.585938-79.585937 79.585938h24.121094c43.882812 0 79.585937-35.703125 79.585937-79.585938 0-28.832031-15.972656-55.609375-41.101563-69.597656zm0 0" fill="#2970d6"/><path d="m432.5625 311.453125c-27.3125 0-49.53125 25.621094-49.53125 57.113281 0 31.492188 22.21875 57.113282 49.53125 57.113282s49.53125-25.621094 49.53125-57.113282c0-31.492187-22.21875-57.113281-49.53125-57.113281zm0 0" fill="#f0bca6"/><path d="m256 311.453125c-27.308594 0-49.53125 25.621094-49.53125 57.113281 0 31.492188 22.21875 57.113282 49.53125 57.113282s49.53125-25.621094 49.53125-57.113282c0-31.492187-22.21875-57.113281-49.53125-57.113281zm0 0" fill="#f0bca6"/><path d="m79.4375 311.453125c-27.3125 0-49.53125 25.621094-49.53125 57.113281 0 31.492188 22.21875 57.113282 49.53125 57.113282s49.53125-25.621094 49.53125-57.113282c0-31.492187-22.21875-57.113281-49.53125-57.113281zm0 0" fill="#f0bca6"/><path d="m432.5625 311.453125c-3.980469 0-7.847656.558594-11.558594 1.585937 21.753906 6.019532 37.972656 28.621094 37.972656 55.527344 0 26.902344-16.21875 49.503906-37.972656 55.527344 3.710938 1.027344 7.578125 1.585938 11.558594 1.585938 27.3125 0 49.53125-25.621094 49.53125-57.113282 0-31.492187-22.21875-57.113281-49.53125-57.113281zm0 0" fill="#e3ac90"/><path d="m256 311.453125c-3.980469 0-7.847656.558594-11.558594 1.585937 21.753906 6.019532 37.972656 28.621094 37.972656 55.527344 0 26.902344-16.21875 49.503906-37.972656 55.527344 3.710938 1.027344 7.578125 1.585938 11.558594 1.585938 27.3125 0 49.53125-25.621094 49.53125-57.113282 0-31.492187-22.21875-57.113281-49.53125-57.113281zm0 0" fill="#e3ac90"/><path d="m79.4375 311.453125c-3.980469 0-7.847656.558594-11.558594 1.585937 21.753906 6.019532 37.972656 28.621094 37.972656 55.527344 0 26.902344-16.222656 49.503906-37.972656 55.527344 3.710938 1.027344 7.578125 1.585938 11.558594 1.585938 27.3125 0 49.53125-25.621094 49.53125-57.113282 0-31.492187-22.21875-57.113281-49.53125-57.113281zm0 0" fill="#e3ac90"/><path d="m96.324219 225.71875c0 9.324219-7.5625 16.886719-16.886719 16.886719s-16.886719-7.5625-16.886719-16.886719c0-9.328125 7.5625-16.886719 16.886719-16.886719s16.886719 7.558594 16.886719 16.886719zm0 0" fill="#646464"/><path d="m451.125 236.742188c0 9.328124-7.5625 16.886718-16.886719 16.886718-9.328125 0-16.886719-7.558594-16.886719-16.886718 0-9.324219 7.558594-16.886719 16.886719-16.886719 9.324219 0 16.886719 7.5625 16.886719 16.886719zm0 0" fill="#646464"/><path d="m272.382812 273.652344c0 9.328125-7.558593 16.886718-16.886718 16.886718-9.324219 0-16.882813-7.558593-16.882813-16.886718 0-9.324219 7.558594-16.886719 16.882813-16.886719 9.328125 0 16.886718 7.5625 16.886718 16.886719zm0 0" fill="#646464"/></svg>