<svg height="512pt" viewBox="0 -4 512 512" width="512pt" xmlns="http://www.w3.org/2000/svg"><path d="m489.480469 48.050781c-.316407-26.550781-22.011719-48.050781-48.632813-48.050781-20.058594 0-37.570312 12.007812-44.960937 30.015625-.757813-.078125-1.515625-.121094-2.28125-.121094-8.179688 0-15.410157 4.414063-19.195313 11.253907-25.160156.882812-45.347656 21.625-45.347656 46.992187 0 25.925781 21.09375 47.023437 47.019531 47.023437h88.894531c25.929688 0 47.023438-21.09375 47.023438-47.023437 0-16.351563-8.695312-31.585937-22.519531-40.089844zm0 0" fill="#91bcee"/><path d="m489.480469 48.050781c-.316407-26.550781-22.011719-48.050781-48.632813-48.050781-3.980468 0-7.859375.480469-11.582031 1.378906 21.113281 5.128906 36.886719 24.066406 37.15625 46.671875 13.824219 8.503907 22.515625 23.738281 22.515625 40.089844 0 25.929687-21.09375 47.023437-47.019531 47.023437h23.058593c25.929688 0 47.023438-21.09375 47.023438-47.023437 0-16.351563-8.695312-31.585937-22.519531-40.089844zm0 0" fill="#4890e3"/><path d="m170.410156 157.777344h-162.890625c-4.152343 0-7.519531 3.367187-7.519531 7.519531v92.148437l20.054688 64.855469-20.054688 64.855469v29.585938l10.027344 22.28125-10.027344 27.386718v30.742188c0 4.152344 3.367188 7.519531 7.519531 7.519531h162.890625c4.15625 0 7.519532-3.367187 7.519532-7.519531v-30.742188l-10.023438-24.835937 10.023438-24.832031v-29.585938l-20.050782-61.992188 20.050782-67.71875v-92.148437c0-4.152344-3.367188-7.519531-7.519532-7.519531zm0 0" fill="#646464"/><path d="m177.929688 165.296875c0-4.152344-3.367188-7.519531-7.519532-7.519531h-24.0625c4.152344 0 7.519532 3.367187 7.519532 7.519531v92.148437l-20.054688 67.71875 20.054688 61.992188v29.585938l-10.027344 24.832031 10.027344 24.835937v30.742188c0 4.152344-3.367188 7.519531-7.519532 7.519531h24.0625c4.152344 0 7.519532-3.367187 7.519532-7.519531v-30.742188l-10.027344-24.835937 10.027344-24.832031v-29.585938l-20.050782-61.992188 20.050782-67.71875zm0 0" fill="#4b4b4b"/><path d="m0 257.445312h177.929688v129.710938h-177.929688zm0 0" fill="#ecedef"/><path d="m0 301.917969h177.929688v45.980469h-177.929688zm0 0" fill="#a2a2a2"/><path d="m153.867188 257.445312h24.0625v129.710938h-24.0625zm0 0" fill="#d0cfd1"/><path d="m0 301.917969h177.929688v45.980469h-177.929688zm0 0" fill="#a2a2a2"/><path d="m153.796875 301.917969h24.132813v45.980469h-24.132813zm0 0" fill="#939393"/><path d="m0 416.742188h177.929688v49.671874h-177.929688zm0 0" fill="#f45a3c"/><path d="m153.796875 416.742188h24.132813v49.671874h-24.132813zm0 0" fill="#e24a2a"/><g fill="#d0cfd1"><path d="m87.574219 193.046875c-11.175781 0-20.269531 9.09375-20.269531 20.269531 0 11.179688 9.09375 20.269532 20.269531 20.269532 11.179687 0 18.265625-9.089844 18.265625-20.269532 0-11.175781-7.085938-20.269531-18.265625-20.269531zm0 0"/><path d="m135.53125 193.046875c-11.175781 0-20.269531 9.09375-20.269531 20.269531 0 11.179688 9.09375 20.269532 20.269531 20.269532s18.265625-9.089844 18.265625-20.269532c0-11.175781-7.089844-20.269531-18.265625-20.269531zm0 0"/><path d="m40.382812 193.046875c-11.175781 0-20.269531 9.09375-20.269531 20.269531 0 11.179688 9.09375 20.269532 20.269531 20.269532 11.179688 0 18.265626-9.089844 18.265626-20.269532 0-11.175781-7.085938-20.269531-18.265626-20.269531zm0 0"/></g><path d="m87.574219 193.046875c-2.46875 0-4.828125.46875-7.015625 1.28125 7.71875 2.863281 13.25 10.28125 13.25 18.988281 0 8.707032-5.53125 16.125-13.25 18.992188 2.1875.8125 4.546875 1.277344 7.015625 1.277344 11.179687 0 20.269531-9.09375 20.269531-20.269532 0-11.175781-9.089844-20.269531-20.269531-20.269531zm0 0" fill="#939393"/><path d="m135.53125 193.046875c-2.46875 0-4.828125.46875-7.019531 1.28125 7.722656 2.863281 13.25 10.28125 13.25 18.988281 0 8.707032-5.527344 16.125-13.25 18.992188 2.191406.8125 4.550781 1.277344 7.019531 1.277344 11.175781 0 20.269531-9.09375 20.269531-20.269532 0-11.175781-9.09375-20.269531-20.269531-20.269531zm0 0" fill="#939393"/><path d="m40.382812 193.046875c-2.46875 0-4.824218.46875-7.015624 1.28125 7.722656 2.863281 13.25 10.28125 13.25 18.988281 0 8.707032-5.527344 16.125-13.25 18.992188 2.191406.8125 4.546874 1.277344 7.015624 1.277344 11.179688 0 20.269532-9.09375 20.269532-20.269532 0-11.175781-9.089844-20.269531-20.269532-20.269531zm0 0" fill="#939393"/><path d="m347.945312 157.777344h-162.890624c-4.15625 0-7.519532 3.367187-7.519532 7.519531v92.148437l20.050782 64.855469-20.050782 64.855469v29.585938l10.027344 22.28125-10.027344 27.386718v30.742188c0 4.152344 3.363282 7.519531 7.519532 7.519531h162.890624c4.152344 0 7.519532-3.367187 7.519532-7.519531v-30.742188l-10.027344-24.835937 10.027344-24.832031v-29.585938l-20.054688-61.992188 20.054688-67.71875v-92.148437c0-4.152344-3.367188-7.519531-7.519532-7.519531zm0 0" fill="#646464"/><path d="m355.464844 165.296875c0-4.152344-3.367188-7.519531-7.519532-7.519531h-24.0625c4.152344 0 7.519532 3.367187 7.519532 7.519531v92.148437l-20.054688 67.71875 20.054688 61.992188v29.585938l-10.027344 24.832031 10.027344 24.835937v30.742188c0 4.152344-3.367188 7.519531-7.519532 7.519531h24.0625c4.152344 0 7.519532-3.367187 7.519532-7.519531v-30.742188l-10.027344-24.835937 10.027344-24.832031v-29.585938l-20.054688-61.992188 20.054688-67.71875zm0 0" fill="#4b4b4b"/><path d="m177.535156 257.445312h177.929688v129.710938h-177.929688zm0 0" fill="#ecedef"/><path d="m177.535156 301.917969h177.929688v45.980469h-177.929688zm0 0" fill="#a2a2a2"/><path d="m331.402344 257.445312h24.0625v129.710938h-24.0625zm0 0" fill="#d0cfd1"/><path d="m177.535156 301.917969h177.929688v45.980469h-177.929688zm0 0" fill="#a2a2a2"/><path d="m331.328125 301.917969h24.136719v45.980469h-24.136719zm0 0" fill="#939393"/><path d="m177.535156 416.742188h177.929688v49.671874h-177.929688zm0 0" fill="#f9cd45"/><path d="m331.328125 416.742188h24.136719v49.671874h-24.136719zm0 0" fill="#f8c03c"/><path d="m265.109375 193.046875c-11.175781 0-20.269531 9.09375-20.269531 20.269531 0 11.179688 9.09375 20.269532 20.269531 20.269532 11.179687 0 18.265625-9.089844 18.265625-20.269532 0-11.175781-7.085938-20.269531-18.265625-20.269531zm0 0" fill="#d0cfd1"/><path d="m313.066406 193.046875c-11.175781 0-20.269531 9.09375-20.269531 20.269531 0 11.179688 9.089844 20.269532 20.269531 20.269532 11.175782 0 18.261719-9.089844 18.261719-20.269532 0-11.175781-7.085937-20.269531-18.261719-20.269531zm0 0" fill="#d0cfd1"/><path d="m217.917969 193.046875c-11.175781 0-20.269531 9.09375-20.269531 20.269531 0 11.179688 9.09375 20.269532 20.269531 20.269532 11.179687 0 18.265625-9.089844 18.265625-20.269532 0-11.175781-7.089844-20.269531-18.265625-20.269531zm0 0" fill="#d0cfd1"/><path d="m265.109375 193.046875c-2.46875 0-4.828125.46875-7.019531 1.28125 7.722656 2.863281 13.253906 10.28125 13.253906 18.988281 0 8.707032-5.53125 16.125-13.253906 18.992188 2.191406.8125 4.550781 1.277344 7.019531 1.277344 11.175781 0 20.269531-9.09375 20.269531-20.269532 0-11.175781-9.089844-20.269531-20.269531-20.269531zm0 0" fill="#939393"/><path d="m313.066406 193.046875c-2.472656 0-4.828125.46875-7.019531 1.28125 7.722656 2.863281 13.25 10.28125 13.25 18.988281 0 8.707032-5.527344 16.125-13.25 18.992188 2.191406.8125 4.546875 1.277344 7.019531 1.277344 11.175782 0 20.269532-9.09375 20.269532-20.269532 0-11.175781-9.09375-20.269531-20.269532-20.269531zm0 0" fill="#939393"/><path d="m217.917969 193.046875c-2.46875 0-4.828125.46875-7.019531 1.28125 7.722656 2.863281 13.253906 10.28125 13.253906 18.988281 0 8.707032-5.53125 16.125-13.253906 18.992188 2.191406.8125 4.550781 1.277344 7.019531 1.277344 11.175781 0 20.269531-9.09375 20.269531-20.269532 0-11.175781-9.09375-20.269531-20.269531-20.269531zm0 0" fill="#939393"/><path d="m364.171875 260.222656c-3.214844 0-6.191406-2.078125-7.183594-5.308594-1.222656-3.972656 1.007813-8.179687 4.976563-9.398437 19.511718-6.003906 37.039062-18.351563 49.359375-34.777344 12.734375-16.972656 19.464843-37.191406 19.464843-58.476562 0-3.433594 2.324219-6.429688 5.652344-7.28125 3.320313-.855469 6.804688.65625 8.460938 3.664062l15.539062 28.308594c2 3.640625.667969 8.210937-2.972656 10.210937s-8.210938.667969-10.210938-2.972656l-4.082031-7.4375c-3.421875 15.488282-10.109375 30.066406-19.820312 43.011719-14.214844 18.945313-34.445313 33.195313-56.96875 40.125-.738281.226563-1.480469.332031-2.214844.332031zm0 0" fill="#d0cfd1"/><path d="m229.066406 146.105469c-3.0625 0-5.867187-1.875-7-4.789063l-11.722656-30.085937c-1.507812-3.871094.40625-8.230469 4.277344-9.738281 3.871094-1.507813 8.226562.40625 9.734375 4.277343l3.082031 7.902344c5.40625-14.910156 13.933594-28.496094 25.25-40.066406 16.558594-16.933594 38.472656-28.425781 61.707031-32.363281 4.097657-.695313 7.976563 2.0625 8.671875 6.15625.691406 4.09375-2.066406 7.976562-6.160156 8.671874-20.125 3.410157-39.113281 13.371094-53.46875 28.050782-14.832031 15.171875-24.136719 34.34375-26.910156 55.445312-.445313 3.40625-3.140625 6.074219-6.550782 6.488282-.304687.035156-.609374.050781-.910156.050781zm0 0" fill="#d0cfd1"/></svg>