<svg id="Content" xmlns="http://www.w3.org/2000/svg" xmlns:xlink="http://www.w3.org/1999/xlink" viewBox="0 0 705 135">
  <defs>
    <style>
      .cls-1 {
        fill: #cd163f;
      }

      .cls-2 {
        fill: url(#RA-Gradient_Orange_to_Red);
      }
    </style>
    <linearGradient id="RA-Gradient_Orange_to_Red" data-name="RA-Gradient | Orange to Red" x1="45.15" y1="93.1" x2="78.03" y2="36.15" gradientUnits="userSpaceOnUse">
      <stop offset="0.28" stop-color="#cd163f"/>
      <stop offset="0.9" stop-color="#f58025"/>
    </linearGradient>
  </defs>
  <title>2019_RA_Logo</title>
  <g>
    <g id="RA_Logo_-_Left_w_bug" data-name="RA Logo - Left w/ bug">
      <g id="RA_Logo_-_Left" data-name="RA Logo - Left">
        <g>
          <path class="cls-1" d="M471.6,57.39c-9.63,0-15.39,5.06-15.39,13.54S462,84.41,471.6,84.41,487,79.37,487,70.93,481.27,57.39,471.6,57.39Zm0,19.53c-2.83,0-4.74-2.43-4.74-6s1.91-6.09,4.74-6.09,4.74,2.39,4.74,6.09S474.52,76.92,471.6,76.92Z"/>
          <path class="cls-1" d="M593.17,80a3.73,3.73,0,0,0,3.71,3.76h7.21V58.05H593.17Z"/>
          <rect class="cls-1" x="593.17" y="49.6" width="10.92" height="5.33"/>
          <path class="cls-1" d="M623.83,57.39c-9.63,0-15.38,5.06-15.38,13.54s5.75,13.48,15.38,13.48,15.44-5,15.44-13.48S633.5,57.39,623.83,57.39Zm0,19.53c-2.83,0-4.74-2.43-4.74-6s1.91-6.09,4.74-6.09,4.74,2.39,4.74,6.09S626.76,76.92,623.83,76.92Z"/>
          <path class="cls-1" d="M558.25,58V61.3a8.4,8.4,0,0,0-7.49-3.95c-8.15,0-12.75,5-12.75,13.48v.1c0,8.44,4.6,13.48,12.75,13.48a8.4,8.4,0,0,0,7.49-4V81A2.75,2.75,0,0,0,561,83.8h7.57V58h-10.3Zm-4.74,19c-2.84,0-4.74-2.44-4.74-6.05s1.9-6,4.74-6,4.74,2.33,4.74,6S556.43,76.93,553.51,76.93Z"/>
          <path class="cls-1" d="M422.34,69.19c0,4.41-1.41,6.65-4.2,6.65-1.73,0-3.5-.57-3.5-4.82v-13h-10.3v14.7c0,7.4,3.69,11.47,10.39,11.47a11.32,11.32,0,0,0,8.4-3.4V81a2.76,2.76,0,0,0,2.74,2.77h6.77V58.05h-10.3Z"/>
          <path class="cls-1" d="M525.05,57.44a10.81,10.81,0,0,0-8.82,4.34,9.46,9.46,0,0,0-8.44-4.34,10.88,10.88,0,0,0-8,3.38V58.05h-9.41V83.8h10.2V71.39c0-3.33,1.51-5.48,3.85-5.48,1.67,0,3.21.57,3.21,4.69V83.8h10.25V71.39c0-3.38,1.45-5.48,3.8-5.48,1.67,0,3.21.57,3.21,4.69V83.8h10.2V68.86C535.1,61.49,531.53,57.44,525.05,57.44Z"/>
          <path class="cls-1" d="M660.52,57.39a11.31,11.31,0,0,0-8.4,3.44V58.05h-9.51V83.8h10.3V71.39c0-3.41,1.65-5.62,4.2-5.62,1.73,0,3.5.57,3.5,4.83V83.8h10.25V68.86C670.86,61.46,667.19,57.39,660.52,57.39Z"/>
          <path class="cls-1" d="M583.21,49.6h-10.3V80a3.73,3.73,0,0,0,3.7,3.76h6.6V65.64h6.22V58.05h-6.22Z"/>
          <path class="cls-1" d="M379.59,49.6a2.69,2.69,0,0,0-2.51,1.7l-13,32.5h10.79l2.41-6.46h12.41L391,81.08h0a4.53,4.53,0,0,0,4.05,2.71h8.45L389.86,49.6Zm.49,20.12,3.54-9.66L387,69.72Z"/>
          <path class="cls-1" d="M448.21,49.62H437.29V80.06a3.74,3.74,0,0,0,3.7,3.76h7.22V65.65h6.22V58.07h-6.22Z"/>
        </g>
      </g>
    </g>
    <g>
      <path class="cls-1" d="M165.67,57.39c-9.64,0-15.39,5.06-15.39,13.53S156,84.41,165.67,84.41s15.43-5,15.43-13.49S175.33,57.39,165.67,57.39Zm0,19.53c-2.84,0-4.74-2.43-4.74-6s1.9-6.09,4.74-6.09,4.74,2.39,4.74,6.09S168.59,76.92,165.67,76.92Z"/>
      <path class="cls-1" d="M307.78,77.49c-4.42,0-6-.46-6.86-3.31h17.47a.82.82,0,0,0,.82-.83v-2c0-8.87-4.7-13.84-13.7-14-10.06-.12-14.77,5.15-14.77,13.11,0,8.74,4.61,14,15.58,14,7.86,0,11.41-3.2,12.1-6.89,0-.13-.13-.37-.27-.37C317,77.24,312.1,77.49,307.78,77.49Zm-2.22-14.13c2.9,0,4.2,2.39,4.2,5.33h-9C300.79,65.71,301.8,63.36,305.56,63.36Z"/>
      <path class="cls-1" d="M333.87,49.6h-7.1a3.73,3.73,0,0,0-3.71,3.76V83.8h10.81Z"/>
      <path class="cls-1" d="M196.59,84.22a39.72,39.72,0,0,0,10.85-.86,1,1,0,0,0,.75-.94V76.13s-2,.22-6.74.22c-4.12,0-6.67-2.12-6.67-5.54s2.4-5.59,6.27-5.59a38.77,38.77,0,0,1,7.14.55V59.41a1,1,0,0,0-.75-.94,43.17,43.17,0,0,0-10.26-1.08c-8,.48-13,5.16-13,13.46C184.18,78.73,188.88,83.51,196.59,84.22Z"/>
      <path class="cls-1" d="M145.27,70.69a7.56,7.56,0,0,0-4.8-2.83v-.09c4.79-.57,7.62-3.84,7.62-9.09,0-6.58-4.7-9.13-12.32-9.13H117.31V83.8h10.9V71.33h3c1.5,0,3,.24,3.46,1.78l3.08,9a2,2,0,0,0,2,1.73h10.09l-3.78-11.45A4.47,4.47,0,0,0,145.27,70.69Zm-12.6-6.5h-4.31V56.91h4.48c2.23,0,4.34.45,4.34,3.53C137.18,63.89,135,64.19,132.67,64.19Z"/>
      <path class="cls-1" d="M279.07,58.05,276,74.9l-3.41-16.85H260.32L256.91,74.9l-3.05-16.85H243.62l6.16,25.75h11.49a2.63,2.63,0,0,0,2.57-2.22L266,66.31h.85l2.2,15.27a2.63,2.63,0,0,0,2.57,2.22h11.5l6.15-25.75Z"/>
      <path class="cls-1" d="M349.85,49.6h-7.1A3.73,3.73,0,0,0,339,53.36V83.8h10.81Z"/>
      <path class="cls-1" d="M222.9,70.9,230,81.2a4.7,4.7,0,0,0,4,2.52l10.68.08L234.21,70l9.43-12L233,58a4.72,4.72,0,0,0-4,2.52L222.9,69.3V49.52h-6.59a3.73,3.73,0,0,0-3.71,3.76V83.72h10.3Z"/>
    </g>
  </g>
  <g>
    <path class="cls-2" d="M52.32,55.07,77.37,36.51a.46.46,0,0,0-.28-.83H56.56a8.93,8.93,0,0,0-6.35,2.63L37.13,51.39a9,9,0,0,0-2.63,6.35v18.5a9,9,0,0,0,2.63,6.35L50.21,95.66a8.94,8.94,0,0,0,6.35,2.64H74.34a.47.47,0,0,0,.2-.89L39.19,80.74a4.22,4.22,0,0,1-2.42-3.81V68.06A2.91,2.91,0,0,1,38,65.71l5.09-3.77V55.07Z"/>
    <polygon class="cls-1" points="76.68 62.23 74.27 68.81 79 68.81 76.68 62.23"/>
    <path class="cls-1" d="M56.35,62.49c0-2.1-1.44-2.4-3-2.4h-3v5h2.94C54.83,65.05,56.35,64.84,56.35,62.49Z"/>
    <path class="cls-1" d="M94.83,51.74,82.65,39.56a2,2,0,0,0-2.55-.23L56.66,55.12c4.44.27,7.13,2.07,7.13,6.17,0,3.58-1.94,5.81-5.2,6.2v.06a5.15,5.15,0,0,1,3.27,1.93,3,3,0,0,1,.54,1.13l1.85,5.61,8-19.95a1.84,1.84,0,0,1,1.71-1.17h7l9.31,23.31H84.48a3.08,3.08,0,0,1-2.76-1.85h0L80.83,74H72.37l-1.64,4.4H58.1a1.39,1.39,0,0,1-1.36-1.18l-2.1-6.11c-.3-1-1.34-1.21-2.36-1.21h-2v8.5H43.05V64.28l-4.3,2.9a1.44,1.44,0,0,0-.62,1.19v9A1.47,1.47,0,0,0,39,78.7l40.55,17a2,2,0,0,0,2.21-.42l13.06-13a7.78,7.78,0,0,0,2.29-5.52V57.24A7.78,7.78,0,0,0,94.83,51.74Z"/>
  </g>
</svg>
