<svg id="Content" xmlns="http://www.w3.org/2000/svg" viewBox="0 0 625 105">
  <defs>
    <style>
      .cls-1 {
        fill: #cd163f;
      }
    </style>
  </defs>
  <title>2019_RA_Logo</title>
  <g>
    <g id="RA_Logo_-_Left_w_bug" data-name="RA Logo - Left w/ bug">
      <g id="RA_Logo_-_Left" data-name="RA Logo - Left">
        <g>
          <path class="cls-1" d="M391.6,42.39c-9.63,0-15.39,5.06-15.39,13.54S382,69.41,391.6,69.41,407,64.37,407,55.93,401.27,42.39,391.6,42.39Zm0,19.53c-2.83,0-4.74-2.43-4.74-6s1.91-6.09,4.74-6.09,4.74,2.39,4.74,6.09S394.52,61.92,391.6,61.92Z"/>
          <path class="cls-1" d="M513.17,65a3.73,3.73,0,0,0,3.71,3.76h7.21V43.05H513.17Z"/>
          <rect class="cls-1" x="513.17" y="34.6" width="10.92" height="5.33"/>
          <path class="cls-1" d="M543.83,42.39c-9.63,0-15.38,5.06-15.38,13.54s5.75,13.48,15.38,13.48,15.44-5,15.44-13.48S553.5,42.39,543.83,42.39Zm0,19.53c-2.83,0-4.74-2.43-4.74-6s1.91-6.09,4.74-6.09,4.74,2.39,4.74,6.09S546.76,61.92,543.83,61.92Z"/>
          <path class="cls-1" d="M478.25,43V46.3a8.4,8.4,0,0,0-7.49-3.95c-8.15,0-12.75,5-12.75,13.48v.1c0,8.44,4.6,13.48,12.75,13.48a8.4,8.4,0,0,0,7.49-4V66A2.75,2.75,0,0,0,481,68.8h7.57V43h-10.3Zm-4.74,19c-2.84,0-4.74-2.44-4.74-6s1.9-6.05,4.74-6.05,4.74,2.33,4.74,6.05S476.43,61.93,473.51,61.93Z"/>
          <path class="cls-1" d="M342.34,54.19c0,4.41-1.41,6.65-4.2,6.65-1.73,0-3.5-.57-3.5-4.82v-13h-10.3v14.7c0,7.4,3.69,11.47,10.39,11.47a11.32,11.32,0,0,0,8.4-3.4V66a2.76,2.76,0,0,0,2.74,2.77h6.77V43.05h-10.3Z"/>
          <path class="cls-1" d="M445.05,42.44a10.81,10.81,0,0,0-8.82,4.34,9.46,9.46,0,0,0-8.44-4.34,10.88,10.88,0,0,0-8,3.38V43.05h-9.41V68.8h10.2V56.39c0-3.33,1.51-5.48,3.85-5.48,1.67,0,3.21.57,3.21,4.69V68.8h10.25V56.39c0-3.38,1.45-5.48,3.8-5.48,1.67,0,3.21.57,3.21,4.69V68.8h10.2V53.86C455.1,46.49,451.53,42.44,445.05,42.44Z"/>
          <path class="cls-1" d="M580.52,42.39a11.31,11.31,0,0,0-8.4,3.44V43.05h-9.51V68.8h10.3V56.39c0-3.41,1.65-5.62,4.2-5.62,1.73,0,3.5.57,3.5,4.83V68.8h10.25V53.86C590.86,46.46,587.19,42.39,580.52,42.39Z"/>
          <path class="cls-1" d="M503.21,34.6h-10.3V65a3.73,3.73,0,0,0,3.7,3.76h6.6V50.64h6.22V43.05h-6.22Z"/>
          <path class="cls-1" d="M299.59,34.6a2.69,2.69,0,0,0-2.51,1.7l-13,32.5h10.79l2.41-6.46h12.41L311,66.08h0a4.53,4.53,0,0,0,4.05,2.71h8.45L309.86,34.6Zm.49,20.12,3.54-9.66L307,54.72Z"/>
          <path class="cls-1" d="M368.21,34.62H357.29V65.06a3.74,3.74,0,0,0,3.7,3.76h7.22V50.65h6.22V43.07h-6.22Z"/>
        </g>
      </g>
    </g>
    <g>
      <path class="cls-1" d="M85.67,42.39c-9.64,0-15.39,5.06-15.39,13.53S76,69.41,85.67,69.41s15.43-5,15.43-13.49S95.33,42.39,85.67,42.39Zm0,19.53c-2.84,0-4.74-2.43-4.74-6s1.9-6.09,4.74-6.09,4.74,2.39,4.74,6.09S88.59,61.92,85.67,61.92Z"/>
      <path class="cls-1" d="M227.78,62.49c-4.42,0-6-.46-6.86-3.31h17.47a.82.82,0,0,0,.82-.83v-2c0-8.87-4.7-13.84-13.7-14-10.06-.12-14.77,5.15-14.77,13.11,0,8.74,4.61,14,15.58,14,7.86,0,11.41-3.2,12.1-6.89,0-.13-.13-.37-.27-.37C237,62.24,232.1,62.49,227.78,62.49Zm-2.22-14.13c2.9,0,4.2,2.39,4.2,5.33h-9C220.79,50.71,221.8,48.36,225.56,48.36Z"/>
      <path class="cls-1" d="M253.87,34.6h-7.1a3.73,3.73,0,0,0-3.71,3.76V68.8h10.81Z"/>
      <path class="cls-1" d="M116.59,69.22a39.72,39.72,0,0,0,10.85-.86,1,1,0,0,0,.75-.94V61.13s-2,.22-6.74.22c-4.12,0-6.67-2.12-6.67-5.54s2.4-5.59,6.27-5.59a38.77,38.77,0,0,1,7.14.55V44.41a1,1,0,0,0-.75-.94,43.17,43.17,0,0,0-10.26-1.08c-8,.48-13,5.16-13,13.46C104.18,63.73,108.88,68.51,116.59,69.22Z"/>
      <path class="cls-1" d="M65.27,55.69a7.56,7.56,0,0,0-4.8-2.83v-.09c4.79-.57,7.62-3.84,7.62-9.09,0-6.58-4.7-9.13-12.32-9.13H37.31V68.8h10.9V56.33h3c1.5,0,3,.24,3.46,1.78l3.08,9a2,2,0,0,0,2,1.73H69.84L66.06,57.35A4.47,4.47,0,0,0,65.27,55.69Zm-12.6-6.5H48.36V41.91h4.48c2.23,0,4.34.45,4.34,3.53C57.18,48.89,55,49.19,52.67,49.19Z"/>
      <path class="cls-1" d="M199.07,43.05,196,59.9l-3.41-16.85H180.32L176.91,59.9l-3-16.85H163.62l6.16,25.75h11.49a2.63,2.63,0,0,0,2.57-2.22L186,51.31h.85l2.2,15.27a2.63,2.63,0,0,0,2.57,2.22h11.5l6.15-25.75Z"/>
      <path class="cls-1" d="M269.85,34.6h-7.1A3.73,3.73,0,0,0,259,38.36V68.8h10.81Z"/>
      <path class="cls-1" d="M142.9,55.9,150,66.2a4.7,4.7,0,0,0,4,2.52l10.68.08L154.21,55l9.43-12L153,43a4.72,4.72,0,0,0-4,2.52L142.9,54.3V34.52h-6.59a3.73,3.73,0,0,0-3.71,3.76V68.72h10.3Z"/>
    </g>
  </g>
</svg>
