<svg id="Content" xmlns="http://www.w3.org/2000/svg" viewBox="0 0 376 145">
  <defs>
    <style>
      .cls-1 {
        fill: #231f20;
      }
    </style>
  </defs>
  <title>2019_RA_Logo</title>
  <g id="RA_Logo_-_Left_w_bug" data-name="RA Logo - Left w/ bug">
    <g id="RA_Logo_-_Left" data-name="RA Logo - Left">
      <g>
        <path class="cls-1" d="M141.53,83.73c-9.64,0-15.39,5.06-15.39,13.53s5.75,13.49,15.39,13.49S157,105.7,157,97.26,151.19,83.73,141.53,83.73Zm0,19.53c-2.84,0-4.74-2.43-4.74-6.05s1.9-6.09,4.74-6.09,4.74,2.39,4.74,6.09S144.45,103.26,141.53,103.26Z"/>
        <path class="cls-1" d="M263.1,106.38a3.74,3.74,0,0,0,3.71,3.76H274V84.39H263.1Z"/>
        <rect class="cls-1" x="263.1" y="75.94" width="10.92" height="5.33"/>
        <path class="cls-1" d="M293.76,83.73c-9.63,0-15.38,5.06-15.38,13.53s5.75,13.49,15.38,13.49,15.44-5,15.44-13.49S303.43,83.73,293.76,83.73Zm0,19.53c-2.83,0-4.74-2.43-4.74-6.05s1.91-6.09,4.74-6.09,4.74,2.39,4.74,6.09S296.69,103.26,293.76,103.26Z"/>
        <path class="cls-1" d="M155.54,42.88c-9.64,0-15.39,5-15.39,13.53s5.75,13.48,15.39,13.48S171,64.85,171,56.41,165.2,42.88,155.54,42.88Zm0,19.53c-2.84,0-4.75-2.43-4.75-6s1.91-6.09,4.75-6.09,4.74,2.39,4.74,6.09S158.46,62.41,155.54,62.41Z"/>
        <path class="cls-1" d="M297.65,63c-4.42,0-6-.46-6.86-3.31h17.47a.82.82,0,0,0,.82-.82v-2c0-8.87-4.7-13.84-13.7-13.95C285.32,42.75,280.6,48,280.6,56c0,8.74,4.61,14,15.59,14,7.85,0,11.41-3.19,12.1-6.88,0-.14-.14-.38-.27-.37C306.85,62.72,302,63,297.65,63Zm-2.23-14.12c2.9,0,4.21,2.38,4.21,5.33h-9C290.66,51.2,291.67,48.85,295.42,48.85Z"/>
        <path class="cls-1" d="M323.74,35.08h-7.1a3.74,3.74,0,0,0-3.71,3.76V69.28h10.81Z"/>
        <path class="cls-1" d="M186.46,69.71a39.68,39.68,0,0,0,10.85-.87,1,1,0,0,0,.75-.94V61.61s-2,.23-6.75.23c-4.11,0-6.66-2.13-6.66-5.55s2.4-5.59,6.27-5.59a38.1,38.1,0,0,1,7.14.56V44.89a.94.94,0,0,0-.75-.93,43.14,43.14,0,0,0-10.26-1.09c-8,.48-13,5.16-13,13.47C174.05,64.21,178.74,69,186.46,69.71Z"/>
        <path class="cls-1" d="M135.13,56.18a7.52,7.52,0,0,0-4.8-2.84v-.09c4.79-.56,7.63-3.83,7.63-9.09,0-6.57-4.7-9.12-12.33-9.12H107.17V69.28h10.91V56.81h3c1.5,0,3,.25,3.45,1.78l3.08,9a2.06,2.06,0,0,0,2,1.73h10.09l-3.78-11.45A4.23,4.23,0,0,0,135.13,56.18Zm-12.59-6.51h-4.31V42.39h4.47c2.24,0,4.34.45,4.34,3.54C127,49.37,124.82,49.67,122.54,49.67Z"/>
        <path class="cls-1" d="M228.17,84.3v3.33a8.39,8.39,0,0,0-7.48-3.95c-8.15,0-12.75,5-12.75,13.49v.09c0,8.45,4.6,13.49,12.75,13.49a8.39,8.39,0,0,0,7.48-4v.57a2.75,2.75,0,0,0,2.74,2.76h7.57V84.3H228.17Zm-4.73,19c-2.84,0-4.74-2.43-4.74-6s1.9-6,4.74-6,4.73,2.32,4.73,6S226.36,103.26,223.44,103.26Z"/>
        <path class="cls-1" d="M268.94,43.53l-3.05,16.86-3.41-16.86h-12.3l-3.4,16.86-3.05-16.86H233.49l6.15,25.75h11.5a2.62,2.62,0,0,0,2.57-2.22l2.2-15.26h.85L259,67.06a2.61,2.61,0,0,0,2.56,2.22H273l6.15-25.75Z"/>
        <path class="cls-1" d="M92.27,95.53c0,4.41-1.42,6.65-4.2,6.65-1.73,0-3.5-.57-3.5-4.82v-13H74.26v14.7c0,7.4,3.7,11.47,10.4,11.47a11.32,11.32,0,0,0,8.4-3.4v.2a2.76,2.76,0,0,0,2.73,2.78h6.78V84.39H92.27Z"/>
        <path class="cls-1" d="M195,83.77a10.82,10.82,0,0,0-8.82,4.35,9.48,9.48,0,0,0-8.44-4.35,10.83,10.83,0,0,0-8,3.39V84.38h-9.41v25.75h10.2V97.73c0-3.33,1.51-5.48,3.85-5.48,1.67,0,3.21.57,3.21,4.68v13.2h10.25V97.73c0-3.38,1.45-5.48,3.8-5.48,1.66,0,3.21.57,3.21,4.68v13.2H205V95.19C205,87.83,201.46,83.77,195,83.77Z"/>
        <path class="cls-1" d="M330.45,83.73a11.27,11.27,0,0,0-8.4,3.44V84.38h-9.51v25.75h10.3V97.73c0-3.42,1.65-5.62,4.2-5.62,1.73,0,3.5.57,3.5,4.82v13.2h10.25V95.19C340.79,87.8,337.12,83.73,330.45,83.73Z"/>
        <path class="cls-1" d="M253.14,75.94H242.83v30.43a3.74,3.74,0,0,0,3.71,3.77h6.6V92h6.22V84.39h-6.22Z"/>
        <path class="cls-1" d="M339.72,35.08h-7.1a3.74,3.74,0,0,0-3.71,3.76V69.28h10.81Z"/>
        <path class="cls-1" d="M49.52,75.94A2.69,2.69,0,0,0,47,77.64L34,110.13H44.82l2.41-6.45H59.64L61,107.41h0a4.51,4.51,0,0,0,4,2.71h8.45L59.79,75.94ZM50,96.05l3.54-9.66L57,96.05Z"/>
        <path class="cls-1" d="M118.14,76H107.22v30.44a3.73,3.73,0,0,0,3.7,3.76h7.22V92h6.22V84.4h-6.22Z"/>
      </g>
      <path class="cls-1" d="M212.77,56.39l7.07,10.29a4.7,4.7,0,0,0,4,2.52l10.68.09L224.08,55.52l9.43-12-10.68-.09a4.7,4.7,0,0,0-4,2.52l-6.06,8.81V35h-6.59a3.73,3.73,0,0,0-3.71,3.76V69.2h10.3Z"/>
    </g>
  </g>
</svg>
