<svg height="512pt" viewBox="0 -15 512 512" width="512pt" xmlns="http://www.w3.org/2000/svg"><path d="m135.832031 251.3125h113.292969v175.652344h-113.292969zm0 0" fill="#f8b53c"/><path d="m225.480469 251.3125h23.644531v175.652344h-23.644531zm0 0" fill="#ba882d"/><path d="m135.832031 298.679688h247.609375v175.652343h-247.609375zm0 0" fill="#f9cd45"/><path d="m359.796875 298.679688h23.644531v175.652343h-23.644531zm0 0" fill="#f8b53c"/><path d="m7.542969 7.542969h57.921875v89.804687h-57.921875zm0 0" fill="#f8b53c"/><path d="m7.542969 36.671875h126.597656v89.804687h-126.597656zm0 0" fill="#f9cd45"/><path d="m110.496094 36.671875h23.644531v89.804687h-23.644531zm0 0" fill="#f8b53c"/><path d="m192.703125 7.542969h57.921875v89.804687h-57.921875zm0 0" fill="#f8b53c"/><path d="m192.703125 36.671875h126.597656v89.804687h-126.597656zm0 0" fill="#f9cd45"/><path d="m295.652344 36.671875h23.644531v89.804687h-23.644531zm0 0" fill="#f8b53c"/><path d="m377.859375 7.542969h57.925781v89.804687h-57.925781zm0 0" fill="#f8b53c"/><path d="m377.859375 36.671875h126.597656v89.804687h-126.597656zm0 0" fill="#f9cd45"/><path d="m479.785156 36.671875h24.671875v89.804687h-24.671875zm0 0" fill="#f8b53c"/><path d="m383.445312 291.136719h-126.78125v-39.824219c0-4.164062-3.375-7.539062-7.539062-7.539062h-113.292969c-4.167969 0-7.542969 3.375-7.542969 7.539062v44.398438h.609376c-.390626.910156-.609376 1.914062-.609376 2.96875v175.652343c0 4.164063 3.375 7.539063 7.542969 7.539063h247.613281c4.164063 0 7.539063-3.375 7.539063-7.539063v-54.015625c0-4.164062-3.375-7.542968-7.539063-7.542968-4.167968 0-7.542968 3.378906-7.542968 7.542968v46.472656h-232.53125v-160.570312h232.53125v83.824219c0 4.164062 3.375 7.539062 7.542968 7.539062 4.164063 0 7.539063-3.375 7.539063-7.539062v-91.363281c0-4.164063-3.375-7.542969-7.539063-7.542969zm-141.863281-32.28125v32.28125h-98.210937v-32.28125zm0 0"/><path d="m504.457031 29.128906h-61.132812v-21.585937c0-4.167969-3.375-7.542969-7.539063-7.542969h-57.925781c-4.164063 0-7.539063 3.375-7.539063 7.542969v118.933593c0 4.164063 3.375 7.542969 7.539063 7.542969h68.890625v39.484375h-179.570312v-39.484375h52.121093c4.164063 0 7.539063-3.378906 7.539063-7.542969v-89.804687c0-4.164063-3.375-7.542969-7.539063-7.542969h-61.132812v-21.585937c0-4.167969-3.378907-7.542969-7.542969-7.542969h-57.925781c-4.164063 0-7.539063 3.375-7.539063 7.542969v118.933593c0 4.164063 3.375 7.542969 7.539063 7.542969h59.394531v39.484375h-189.847656v-39.484375h71.894531c4.164063 0 7.539063-3.378906 7.539063-7.542969v-29.128906c0-4.164062-3.375-7.542968-7.539063-7.542968-4.167969 0-7.542969 3.378906-7.542969 7.542968v21.589844h-111.515625v-74.722656h111.515625v22.222656c0 4.164062 3.375 7.542969 7.542969 7.542969 4.164063 0 7.539063-3.378907 7.539063-7.542969v-29.765625c0-4.164063-3.375-7.542969-7.539063-7.542969h-61.132813v-21.585937c0-4.167969-3.378906-7.542969-7.542968-7.542969h-57.921875c-4.167969 0-7.542969 3.375-7.542969 7.542969v118.933593c0 4.164063 3.375 7.542969 7.542969 7.542969h39.621093v47.027344c0 4.164063 3.375 7.539063 7.539063 7.539063h197.390625v25.136718h-18.878906c-4.164063 0-7.539063 3.378906-7.539063 7.542969s3.375 7.539063 7.539063 7.539063h55.566406c4.164062 0 7.539062-3.375 7.539062-7.539063s-3.375-7.542969-7.539062-7.542969h-21.601562v-25.136718h187.109374c4.167969 0 7.542969-3.375 7.542969-7.539063v-47.027344h42.625c4.167969 0 7.542969-3.378906 7.542969-7.542969v-89.804687c0-4.164063-3.375-7.542969-7.542969-7.542969zm-261.371093-14.046875v14.046875h-42.84375v-14.046875zm-42.84375 29.132813h111.515624v74.722656h-111.515624zm-142.320313-29.132813v14.046875h-42.839844v-14.046875zm370.320313 0v14.046875h-42.839844v-14.046875zm68.675781 103.855469h-111.515625v-74.722656h111.515625zm0 0"/><path d="m216.261719 410.613281c0 4.164063 3.375 7.542969 7.542969 7.542969 4.164062 0 7.539062-3.378906 7.539062-7.542969 0-11.433593 9.589844-20.734375 21.371094-20.734375 11.785156 0 21.371094 9.300782 21.371094 20.734375 0 4.164063 3.375 7.542969 7.542968 7.542969 4.164063 0 7.539063-3.378906 7.539063-7.542969 0-19.75-16.351563-35.816406-36.453125-35.816406-20.097656 0-36.453125 16.066406-36.453125 35.816406zm0 0"/><path d="m311.757812 410.613281c0 4.164063 3.375 7.542969 7.542969 7.542969 4.164063 0 7.539063-3.378906 7.539063-7.542969 0-40.066406-33.25-72.660156-74.125-72.660156-40.871094 0-74.125 32.59375-74.125 72.660156 0 4.164063 3.378906 7.542969 7.542968 7.542969 4.164063 0 7.539063-3.378906 7.539063-7.542969 0-31.75 26.488281-57.578125 59.042969-57.578125 32.558594 0 59.042968 25.828125 59.042968 57.578125zm0 0"/></svg>