<svg height="511pt" viewBox="-56 1 511 511.99899" width="511pt" xmlns="http://www.w3.org/2000/svg"><path d="m391.960938 187.035156h-382.964844v-51.691406c0-23.285156 18.875-42.15625 42.15625-42.15625h340.808594zm0 0" fill="#4890e3"/><path d="m367.742188 93.1875h24.21875v93.847656h-24.21875zm0 0" fill="#2970d6"/><path d="m45.289062 372.03125v-184.996094h39.335938v317.394532h-39.335938v-37.089844" fill="#d0cfd1"/><path d="m320.484375 372.03125v-184.996094h39.335937v317.394532h-39.335937v-37.089844" fill="#d0cfd1"/><path d="m8.996094 232.609375h382.964844v93.847656h-382.964844zm0 0" fill="#4890e3"/><path d="m367.742188 232.609375h24.21875v93.847656h-24.21875zm0 0" fill="#2970d6"/><path d="m358.660156 465.882812h-350.589844v-93.851562h382.964844v61.476562c0 17.878907-14.496094 32.375-32.375 32.375zm0 0" fill="#4890e3"/><path d="m366.816406 372.03125v61.472656c0 17.882813-14.496094 32.378906-32.378906 32.378906h24.222656c17.878906 0 32.375-14.496093 32.375-32.378906v-61.472656zm0 0" fill="#2970d6"/><path d="m170.914062 56.089844c0 4.179687 3.386719 7.570312 7.566407 7.570312 4.183593 0 7.570312-3.390625 7.570312-7.570312 0-7.441406 6.058594-13.5 13.5-13.5 7.445313 0 13.5 6.058594 13.5 13.5 0 4.179687 3.390625 7.570312 7.570313 7.570312 4.179687 0 7.566406-3.390625 7.566406-7.570312 0-15.789063-12.84375-28.636719-28.636719-28.636719-15.789062 0-28.636719 12.84375-28.636719 28.636719zm0 0"/><path d="m151.03125 63.660156c4.179688 0 7.566406-3.390625 7.566406-7.570312 0-22.582032 18.371094-40.953125 40.953125-40.953125s40.953125 18.371093 40.953125 40.953125c0 4.179687 3.390625 7.570312 7.570313 7.570312 4.179687 0 7.570312-3.390625 7.570312-7.570312 0-30.929688-25.164062-56.089844-56.09375-56.089844-30.925781 0-56.089843 25.160156-56.089843 56.089844 0 4.179687 3.390624 7.570312 7.570312 7.570312zm0 0"/><path d="m391.960938 194.605469c4.179687 0 7.570312-3.390625 7.570312-7.570313v-93.847656c0-4.179688-3.390625-7.570312-7.570312-7.570312h-279.339844c-4.179688 0-7.566406 3.390624-7.566406 7.570312s3.386718 7.566406 7.566406 7.566406h271.773437v78.710938h-367.828125v-44.121094c0-19.074219 15.515625-34.589844 34.585938-34.589844h31.085937c4.179688 0 7.570313-3.386718 7.570313-7.566406s-3.390625-7.570312-7.570313-7.570312h-31.085937c-27.417969 0-49.726563 22.308593-49.726563 49.726562v51.691406c0 4.179688 3.390625 7.570313 7.570313 7.570313h28.722656v30.433593h-28.722656c-4.179688 0-7.570313 3.390626-7.570313 7.570313v93.847656c0 4.179688 3.390625 7.570313 7.570313 7.570313h28.722656v30.4375h-29.648438c-4.183593 0-7.570312 3.386718-7.570312 7.566406v93.851562c0 4.179688 3.386719 7.566407 7.570312 7.566407h29.648438v30.980469c0 4.179687 3.390625 7.570312 7.570312 7.570312h39.335938c4.179688 0 7.570312-3.390625 7.570312-7.570312v-30.980469h220.71875v30.980469c0 4.179687 3.386719 7.570312 7.566407 7.570312h39.339843c4.179688 0 7.566407-3.390625 7.566407-7.570312v-31.953126c17.839843-3.992187 31.21875-19.945312 31.21875-38.96875v-61.476562c0-4.179688-3.390625-7.566406-7.570313-7.566406h-23.644531v-30.4375h24.570313c4.179687 0 7.570312-3.386719 7.570312-7.566406v-93.851563c0-4.179687-3.390625-7.566406-7.570312-7.566406h-24.570313v-30.4375zm-299.765626 30.433593v-30.433593h220.71875v30.433593zm-39.339843-30.433593h24.199219v30.433593h-24.199219zm0 139.421875h24.199219v30.4375h-24.199219zm24.203125 162.835937h-24.199219v-23.414062h24.199219zm250.992187 0v-23.414062h24.199219v23.414062zm55.417969-63.355469c0 13.675782-11.128906 24.804688-24.808594 24.804688h-343.023437v-78.710938h171.046875c4.179687 0 7.566406-3.386718 7.566406-7.570312 0-4.179688-3.386719-7.566406-7.566406-7.566406h-94.488282v-30.4375h220.71875v30.4375h-95.335937c-4.179687 0-7.570313 3.386718-7.570313 7.566406 0 4.183594 3.390626 7.570312 7.570313 7.570312h165.886719v53.90625zm-31.21875-69.042968h-24.199219v-30.4375h24.199219zm32.144531-45.574219h-367.828125v-78.710937h367.828125zm-32.144531-93.851563h-24.199219v-30.433593h24.199219zm0 0"/><path d="m363.707031 140.109375c0 6.507813-5.273437 11.777344-11.777343 11.777344-6.507813 0-11.777344-5.269531-11.777344-11.777344 0-6.503906 5.269531-11.773437 11.777344-11.773437 6.503906 0 11.777343 5.269531 11.777343 11.773437zm0 0"/><path d="m316.84375 140.109375c0 6.507813-5.273438 11.777344-11.777344 11.777344s-11.777344-5.269531-11.777344-11.777344c0-6.503906 5.273438-11.773437 11.777344-11.773437s11.777344 5.269531 11.777344 11.773437zm0 0"/><path d="m269.980469 140.109375c0 6.507813-5.273438 11.777344-11.777344 11.777344s-11.777344-5.269531-11.777344-11.777344c0-6.503906 5.273438-11.773437 11.777344-11.773437s11.777344 5.269531 11.777344 11.773437zm0 0"/><path d="m363.707031 418.957031c0 6.503907-5.273437 11.777344-11.777343 11.777344-6.507813 0-11.777344-5.273437-11.777344-11.777344 0-6.503906 5.269531-11.777343 11.777344-11.777343 6.503906 0 11.777343 5.273437 11.777343 11.777343zm0 0"/><path d="m316.84375 418.957031c0 6.503907-5.273438 11.777344-11.777344 11.777344s-11.777344-5.273437-11.777344-11.777344c0-6.503906 5.273438-11.777343 11.777344-11.777343s11.777344 5.273437 11.777344 11.777343zm0 0"/><path d="m269.980469 418.957031c0 6.503907-5.273438 11.777344-11.777344 11.777344s-11.777344-5.273437-11.777344-11.777344c0-6.503906 5.273438-11.777343 11.777344-11.777343s11.777344 5.273437 11.777344 11.777343zm0 0"/><path d="m259.121094 279.535156c0 6.503906-5.273438 11.777344-11.777344 11.777344-6.507812 0-11.777344-5.273438-11.777344-11.777344s5.269532-11.777344 11.777344-11.777344c6.503906 0 11.777344 5.273438 11.777344 11.777344zm0 0"/><path d="m212.253906 279.535156c0 6.503906-5.269531 11.777344-11.773437 11.777344-6.507813 0-11.777344-5.273438-11.777344-11.777344s5.269531-11.777344 11.777344-11.777344c6.503906 0 11.773437 5.273438 11.773437 11.777344zm0 0"/><path d="m165.390625 279.535156c0 6.503906-5.269531 11.777344-11.777344 11.777344-6.503906 0-11.773437-5.273438-11.773437-11.777344s5.269531-11.777344 11.773437-11.777344c6.507813 0 11.777344 5.273438 11.777344 11.777344zm0 0"/></svg>