<svg height="512pt" viewBox="0 -1 512 512" width="512pt" xmlns="http://www.w3.org/2000/svg"><path d="m504.464844 145.65625c0 76.28125-61.835938 138.117188-138.121094 138.117188-76.28125 0-138.117188-61.835938-138.117188-138.117188 0-76.285156 61.835938-138.121094 138.117188-138.121094 76.285156 0 138.121094 61.835938 138.121094 138.121094zm0 0" fill="#4890e3"/><path d="m366.34375 7.535156c-4.0625 0-8.078125.183594-12.054688.527344 70.636719 6.109375 126.066407 65.375 126.066407 137.59375s-55.429688 131.480469-126.066407 137.589844c3.976563.34375 7.992188.527344 12.054688.527344 76.285156 0 138.121094-61.835938 138.121094-138.117188s-61.839844-138.121094-138.121094-138.121094zm0 0" fill="#2970d6"/><path d="m76.808594 327.039062v-66.824218c0-20.011719 16.28125-36.292969 36.292968-36.292969 20.015626 0 36.292969 16.28125 36.292969 36.292969v66.824218h34.15625v-66.824218c0-38.746094-31.703125-70.449219-70.449219-70.449219-38.746093 0-70.445312 31.703125-70.445312 70.449219v66.824218zm0 0" fill="#4890e3"/><path d="m183.511719 501.964844h-140.816407c-19.339843 0-35.160156-15.820313-35.160156-35.15625v-130.722656c0-19.339844 15.820313-35.160157 35.160156-35.160157h140.816407c19.339843 0 35.160156 15.820313 35.160156 35.160157v130.722656c0 19.335937-15.820313 35.15625-35.160156 35.15625zm0 0" fill="#f9cd45"/><path d="m183.511719 300.925781h-24.109375c19.339844 0 35.160156 15.820313 35.160156 35.160157v130.722656c0 19.335937-15.820312 35.15625-35.160156 35.15625h24.109375c19.339843 0 35.160156-15.820313 35.160156-35.15625v-130.722656c0-19.339844-15.820313-35.160157-35.160156-35.160157zm0 0" fill="#f8b53c"/><path d="m113.101562 358.796875c-15.699218 0-28.429687 12.730469-28.429687 28.433594v56.863281h56.863281v-56.863281c0-15.703125-12.730468-28.433594-28.433594-28.433594zm0 0" fill="#f45a3c"/><path d="m113.101562 358.796875c-4.308593 0-8.390624.964844-12.054687 2.683594 9.675781 4.535156 16.378906 14.359375 16.378906 25.75v56.863281h24.109375v-56.863281c0-15.703125-12.730468-28.433594-28.433594-28.433594zm0 0" fill="#e24a2a"/><path d="m383.347656 401.445312c0 13.253907-10.742187 24-23.996094 24-13.253906 0-24-10.746093-24-24 0-13.253906 10.746094-23.996093 24-23.996093 13.253907 0 23.996094 10.742187 23.996094 23.996093zm0 0" fill="#f45a3c"/><path d="m148.089844 76.078125c0 13.253906-10.742188 24-23.996094 24s-24-10.746094-24-24 10.746094-24 24-24 23.996094 10.746094 23.996094 24zm0 0" fill="#f45a3c"/><g fill="#18191b"><path d="m512 145.65625c0-80.316406-65.339844-145.65625-145.65625-145.65625-48.207031 0-91.015625 23.546875-117.539062 59.742188-.308594-.039063-.617188-.066407-.933594-.066407h-94.867188c-.65625 0-1.308594.015625-1.960937.042969-5.539063-9.089844-15.550781-15.175781-26.953125-15.175781-17.386719 0-31.53125 14.148437-31.53125 31.535156 0 10.5 5.164062 19.8125 13.078125 25.546875-.230469 1.910156-.351563 3.835938-.351563 5.765625v75.234375c-39.34375 3.929688-70.167968 37.226562-70.167968 77.585938v33.867187c-19.933594 3.585937-35.117188 21.050781-35.117188 42.007813v130.722656c0 23.539062 19.152344 42.691406 42.695312 42.691406h140.816407c23.542969 0 42.695312-19.152344 42.695312-42.691406v-43.105469h110.828125c5.710938 5.726563 13.605469 9.277344 22.316406 9.277344 17.386719 0 31.53125-14.148438 31.53125-31.535157 0-12.292968-7.074218-22.957031-17.359374-28.15625v-82.15625c76.992187-3.753906 138.476562-67.570312 138.476562-145.476562zm-104.011719 0c0 12.394531-.601562 24.507812-1.738281 36.117188-12.257812 1.230468-25.589844 1.925781-39.90625 1.925781s-27.648438-.695313-39.90625-1.925781c-1.132812-11.609376-1.734375-23.722657-1.734375-36.117188 0-12.273438.59375-24.425781 1.746094-36.121094 12.253906-1.230468 25.582031-1.925781 39.894531-1.925781 14.316406 0 27.648438.695313 39.90625 1.929687 1.136719 11.605469 1.738281 23.71875 1.738281 36.117188zm13.519531-34.242188c47.71875 7.019532 75.425782 22.378907 75.425782 34.242188 0 11.859375-27.707032 27.21875-75.425782 34.238281 1.023438-11.304687 1.546876-22.828125 1.546876-34.238281s-.523438-22.933594-1.546876-34.242188zm-55.164062 164.828126c-9.425781 0-19.769531-13.25-27.671875-35.449219-4.523437-12.703125-8.023437-27.554688-10.390625-43.753907 12.253906 1.132813 25.023438 1.730469 38.0625 1.730469 13.042969 0 25.8125-.597656 38.066406-1.730469-2.367187 16.199219-5.867187 31.050782-10.390625 43.753907-7.902343 22.195312-18.25 35.449219-27.675781 35.449219zm-55.160156-96.347657c-47.71875-7.019531-75.425782-22.378906-75.425782-34.238281s27.691407-27.210938 75.382813-34.234375c-.988281 11.148437-1.503906 22.644531-1.503906 34.234375 0 11.410156.519531 22.933594 1.546875 34.238281zm-44.867188 5.144531c13.585938 4.484376 29.402344 7.941407 46.597656 10.265626 4.269532 31.636718 12.65625 60.195312 24.871094 77.785156-49.769531-11.148438-88.898437-50.78125-99.300781-100.824219 6.691406 4.425781 15.71875 8.773437 27.832031 12.773437zm128.589844 88.050782c12.214844-17.589844 20.601562-46.148438 24.867188-77.785156 17.195312-2.324219 33.015624-5.785157 46.597656-10.265626 12.113281-3.996093 21.140625-8.347656 27.832031-12.773437-10.402344 50.042969-49.53125 89.675781-99.296875 100.824219zm99.296875-154.042969c-6.691406-4.429687-15.71875-8.777344-27.832031-12.777344-13.582032-4.480469-29.402344-7.9375-46.59375-10.265625-4.269532-31.636718-12.65625-60.191406-24.871094-77.78125 49.765625 11.148438 88.894531 50.78125 99.296875 100.824219zm-156.382813-100.832031c-4.316406 6.199218-8.570312 14.359375-12.550781 25.066406-1.449219 3.898438.539063 8.234375 4.4375 9.6875 3.898438 1.445312 8.238281-.539062 9.6875-4.4375 7.785157-20.953125 17.859375-33.460938 26.949219-33.460938 9.429688 0 19.773438 13.25 27.675781 35.445313 4.523438 12.707031 8.027344 27.554687 10.390625 43.757813-12.253906-1.132813-25.023437-1.730469-38.0625-1.730469-13.035156 0-25.796875.597656-38.039062 1.726562.832031-5.699219 1.800781-11.246093 2.910156-16.585937.84375-4.074219-1.769531-8.0625-5.84375-8.910156-4.074219-.847657-8.0625 1.769531-8.910156 5.84375-1.421875 6.851562-2.628906 14.011718-3.617188 21.398437-17.167968 2.324219-32.964844 5.78125-46.53125 10.257813-12.113281 3.996093-21.140625 8.347656-27.828125 12.773437 10.402344-50.054687 49.546875-89.695313 99.332031-100.832031zm-213.726562 41.398437c9.078125 0 16.464844 7.386719 16.464844 16.464844s-7.386719 16.464844-16.464844 16.464844-16.464844-7.386719-16.464844-16.464844 7.386719-16.464844 16.464844-16.464844zm-10.992188 137.6875c34.691407 0 62.914063 28.222657 62.914063 62.910157v33.179687h-19.085937v-33.179687c0-24.164063-19.660157-43.824219-43.828126-43.824219-24.164062 0-43.824218 19.660156-43.824218 43.824219v33.179687h-19.089844v-33.179687c0-34.6875 28.226562-62.910157 62.914062-62.910157zm28.761719 96.089844h-57.519531v-33.175781c0-15.859375 12.902344-28.757813 28.757812-28.757813 15.859376 0 28.761719 12.898438 28.761719 28.757813zm84.34375 115.242187v-22.28125c0-4.164062-3.375-7.535156-7.535156-7.535156s-7.535156 3.371094-7.535156 7.535156v80.457032c0 15.230468-12.390625 27.625-27.625 27.625h-140.816407c-15.234374 0-27.628906-12.394532-27.628906-27.625v-130.722656c0-15.234376 12.394532-27.625 27.628906-27.625h140.816407c15.234375 0 27.625 12.390624 27.625 27.625v20.019531c0 4.160156 3.375 7.535156 7.535156 7.535156s7.535156-3.375 7.535156-7.535156v-20.019531c0-20.957032-15.183593-38.421876-35.121093-42.007813v-33.863281c0-40.554688-31.121094-73.960938-70.730469-77.632813v-75.191406c0-.003906 0-.003906 0-.007813 1.226562.144532 2.472656.226563 3.738281.226563 17.386719 0 31.53125-14.144531 31.53125-31.53125 0-.449219-.015625-.890625-.035156-1.332031h83.566406c-11.753906 20.996094-18.46875 45.183594-18.46875 70.910156 0 77.667969 61.105469 141.324219 137.765625 145.4375v78.84375c-16.972656.476562-30.636719 14.421875-30.636719 31.507812 0 2.472657.292969 4.878907.835938 7.1875zm133.144531 9.277344c-9.082031 0-16.464843-7.386718-16.464843-16.464844 0-9.078124 7.382812-16.464843 16.464843-16.464843 1.675782 0 3.289063.253906 4.816407.722656.011719 0 .019531.007813.03125.007813 6.71875 2.074218 11.617187 8.34375 11.617187 15.734374 0 9.078126-7.386718 16.464844-16.464844 16.464844zm0 0"/><path d="m113.101562 351.265625c-19.832031 0-35.964843 16.132813-35.964843 35.964844v56.863281c0 4.160156 3.375 7.535156 7.535156 7.535156h56.863281c4.160156 0 7.535156-3.375 7.535156-7.535156v-56.863281c0-19.832031-16.136718-35.964844-35.96875-35.964844zm20.898438 85.292969h-41.792969v-49.328125c0-11.523438 9.375-20.898438 20.894531-20.898438 11.523438 0 20.898438 9.375 20.898438 20.898438zm0 0"/></g></svg>