<svg height="512pt" viewBox="-14 0 512 512" width="512pt" xmlns="http://www.w3.org/2000/svg"><path d="m428.050781 102.746094c.242188-2.640625.371094-5.316406.371094-8.019532 0-48.125-39.015625-87.144531-87.144531-87.144531-41.34375 0-75.960938 28.792969-84.898438 67.417969-4.488281-2.574219-9.679687-4.054688-15.222656-4.054688-14.5625 0-26.742188 10.164063-29.851562 23.78125h-7.285157c-46.046875 0-83.71875 37.675782-83.71875 83.71875 0 46.046876 37.671875 83.722657 83.71875 83.722657h188.398438c46.046875 0 83.71875-37.675781 83.71875-83.722657 0-33.320312-19.730469-62.253906-48.085938-75.699218zm0 0" fill="#4890e3"/><path d="m228.960938 73.476562c1.046874.457032 2.070312.957032 3.054687 1.523438.222656-.96875.476563-1.925781.730469-2.878906-1.296875.371094-2.5625.824218-3.785156 1.355468zm0 0" fill="#2970d6"/><path d="m428.050781 102.746094c.242188-2.640625.371094-5.316406.371094-8.019532 0-48.125-39.015625-87.144531-87.144531-87.144531-4.144532 0-8.21875.304688-12.210938.863281 42.375 5.914063 74.992188 42.28125 74.992188 86.28125 0 2.703126-.128906 5.375-.371094 8.015626 28.355469 13.449218 48.085938 42.382812 48.085938 75.703124 0 46.046876-37.675782 83.71875-83.71875 83.71875h24.363281c46.042969 0 83.71875-37.671874 83.71875-83.71875 0-33.320312-19.730469-62.253906-48.085938-75.699218zm0 0" fill="#2970d6"/><path d="m282.707031 504.417969c-.5625-8.816407 4.011719-28.109375-16.898437-28.109375h-142.203125c-21.394531 0-16.335938 19.292968-16.898438 28.109375zm0 0" fill="#d0cfd1"/><path d="m265.808594 476.308594h-24.363282c20.914063 0 16.335938 19.292968 16.898438 28.109375h24.363281c-.5625-8.816407 4.015625-28.109375-16.898437-28.109375zm0 0" fill="#9c9b9d"/><path d="m143.734375 414.738281h101.863281v61.570313h-101.863281zm0 0" fill="#fff4f1"/><path d="m222.25 414.738281h23.347656v61.570313h-23.347656zm0 0" fill="#ecedef"/><path d="m351.164062 438.773438h-312.996093c-16.820313 0-30.585938-13.761719-30.585938-30.582032v-213.316406c0-16.820312 13.765625-30.582031 30.585938-30.582031h312.996093c16.820313 0 30.582032 13.761719 30.582032 30.582031v213.316406c0 16.820313-13.761719 30.582032-30.582032 30.582032zm0 0" fill="#d0cfd1"/><path d="m351.164062 164.292969h-24.363281c16.820313 0 30.582031 13.761719 30.582031 30.582031v213.316406c0 16.820313-13.761718 30.582032-30.582031 30.582032h24.363281c16.820313 0 30.582032-13.761719 30.582032-30.582032v-213.316406c0-16.820312-13.761719-30.582031-30.582032-30.582031zm0 0" fill="#9c9b9d"/><path d="m381.746094 204.1875v-9.3125c0-16.820312-13.761719-30.582031-30.582032-30.582031h-312.996093c-16.820313 0-30.585938 13.761719-30.585938 30.582031v9.3125zm0 0" fill="#fff4f1"/><path d="m326.800781 164.292969c16.820313 0 30.582031 13.761719 30.582031 30.582031v9.3125h24.363282v-9.3125c0-16.820312-13.761719-30.582031-30.582032-30.582031zm0 0" fill="#ecedef"/><path d="m7.585938 398.882812v9.308594c0 16.820313 13.761718 30.582032 30.582031 30.582032h312.996093c16.820313 0 30.585938-13.761719 30.585938-30.582032v-9.308594zm0 0" fill="#fff4f1"/><path d="m381.746094 398.882812h-24.363282v9.308594c0 16.820313-13.761718 30.582032-30.582031 30.582032h24.363281c1.578126 0 3.128907-.121094 4.640626-.351563 1.011718-.15625 2.003906-.363281 2.980468-.613281.488282-.128906.972656-.265625 1.449219-.414063 12.429687-3.886719 21.515625-15.535156 21.515625-29.203125v-9.308594zm0 0" fill="#ecedef"/><g fill="#f45a3c"><path d="m141.703125 297.027344c0 11.472656-9.296875 20.769531-20.769531 20.769531s-20.769532-9.296875-20.769532-20.769531c0-11.46875 9.296876-20.769532 20.769532-20.769532s20.769531 9.300782 20.769531 20.769532zm0 0"/><path d="m216.78125 297.027344c0 11.472656-9.300781 20.769531-20.769531 20.769531-11.472657 0-20.769531-9.296875-20.769531-20.769531 0-11.46875 9.296874-20.769532 20.769531-20.769532 11.46875 0 20.769531 9.300782 20.769531 20.769532zm0 0"/><path d="m291.859375 297.027344c0 11.472656-9.300781 20.769531-20.769531 20.769531-11.472656 0-20.769532-9.296875-20.769532-20.769531 0-11.46875 9.296876-20.769532 20.769532-20.769532 11.46875 0 20.769531 9.300782 20.769531 20.769532zm0 0"/></g><path d="m435.9375 98.253906c.046875-1.183594.066406-2.363281.066406-3.527344 0-52.230468-42.492187-94.726562-94.726562-94.726562-18.382813 0-36.214844 5.273438-51.566406 15.253906-3.511719 2.28125-4.507813 6.980469-2.222657 10.492188 2.28125 3.511718 6.976563 4.507812 10.492188 2.222656 12.882812-8.375 27.855469-12.800781 43.296875-12.800781 43.871094 0 79.5625 35.691406 79.5625 79.558593 0 2.398438-.117188 4.863282-.339844 7.328126-.289062 3.167968 1.429688 6.179687 4.300781 7.542968 26.578125 12.605469 43.753907 39.632813 43.753907 68.847656 0 41.984376-34.15625 76.136719-76.136719 76.136719h-3.085938v-59.707031c0-21.046875-17.121093-38.167969-38.167969-38.167969h-220.082031c4.199219-13.953125 12.402344-26.574219 23.679688-36.1875 13.773437-11.742187 31.265625-18.210937 49.257812-18.210937h7.28125c3.539063 0 6.605469-2.445313 7.394531-5.890625 2.40625-10.535157 11.644532-17.890625 22.460938-17.890625 4.015625 0 7.972656 1.054687 11.445312 3.046875 2.082032 1.199219 4.609376 1.335937 6.804688.375 2.203125-.957031 3.816406-2.902344 4.359375-5.238281 2.457031-10.613282 7-20.453126 13.507813-29.25 2.488281-3.367188 1.777343-8.117188-1.589844-10.605469-3.363282-2.492188-8.113282-1.78125-10.605469 1.585937-5.976563 8.082032-10.5625 16.902344-13.691406 26.316406-3.320313-.921874-6.761719-1.398437-10.230469-1.398437-15.84375 0-29.640625 9.519531-35.398438 23.785156h-1.738281c-21.59375 0-42.582031 7.753907-59.09375 21.832031-14.667969 12.503907-24.996093 29.273438-29.554687 47.734376h-77.203125c-21.046875 0-38.167969 17.121093-38.167969 38.164062v213.316406c0 21.046875 17.121094 38.167969 38.167969 38.167969h97.980469v22.363281h-12.542969c-7.933594 0-14.109375 2.234375-18.359375 6.644532-6.785156 7.035156-6.410156 17.304687-6.160156 24.101562.0625 1.722656.121093 3.351562.050781 4.464844-.132813 2.089844.605469 4.144531 2.039062 5.671875 1.433594 1.527343 3.433594 2.394531 5.53125 2.394531h176c2.09375 0 4.097657-.867188 5.53125-2.394531 1.433594-1.527344 2.171875-3.582031 2.035157-5.671875-.066407-1.097656-.027344-2.671875.015624-4.335938.179688-6.878906.453126-17.265625-6.421874-24.324218-4.234376-4.347657-10.308594-6.550782-18.058594-6.550782h-12.625v-22.363281h97.980468c21.046876 0 38.167969-17.121094 38.167969-38.167969v-63.039062c0-4.1875-3.394531-7.585938-7.582031-7.585938-4.191406 0-7.585938 3.398438-7.585938 7.585938v46.144531h-358.996093v-179.527344h358.996093v102.820313c0 4.1875 3.394532 7.582031 7.582032 7.582031 4.191406 0 7.585937-3.394531 7.585937-7.582031v-44.839844h3.085938c50.34375 0 91.304687-40.957031 91.304687-91.304688 0-33.3125-18.597656-64.242187-47.785156-80.191406zm-170.128906 385.636719c2.40625 0 5.609375.34375 7.195312 1.96875 2.011719 2.066406 2.226563 6.796875 2.171875 10.972656h-161c-.105469-4.136719.019531-8.894531 1.988281-10.9375 1.597657-1.65625 4.925782-2.003906 7.441407-2.003906zm-114.492188-15.167969v-22.363281h86.699219v22.363281zm222.847656-62.257812v1.726562c0 12.683594-10.316406 23-23 23h-312.996093c-12.683594 0-23-10.316406-23-23v-1.726562zm-358.996093-209.863282v-1.726562c0-12.679688 10.316406-23 23-23h312.996093c12.683594 0 23 10.320312 23 23v1.726562zm0 0" fill="#18191b"/><path d="m298.40625 289.445312c-3.328125-11.964843-14.308594-20.769531-27.316406-20.769531-13.007813 0-23.988282 8.804688-27.316406 20.769531h-20.445313c-3.328125-11.964843-14.308594-20.769531-27.316406-20.769531-13.007813 0-23.988281 8.804688-27.316407 20.769531h-20.445312c-3.324219-11.964843-14.308594-20.769531-27.316406-20.769531-13.007813 0-23.988282 8.804688-27.3125 20.769531h-23.398438c-4.1875 0-7.585937 3.394532-7.585937 7.582032 0 4.191406 3.398437 7.585937 7.585937 7.585937h23.394532c3.324218 11.960938 14.308593 20.769531 27.316406 20.769531 13.007812 0 23.988281-8.808593 27.3125-20.769531h20.449218c3.324219 11.960938 14.308594 20.769531 27.3125 20.769531 13.007813 0 23.992188-8.808593 27.316407-20.769531h20.449219c3.324218 11.960938 14.308593 20.769531 27.3125 20.769531 13.007812 0 23.992187-8.808593 27.316406-20.769531h20.28125c4.1875 0 7.582031-3.394531 7.582031-7.585937 0-4.1875-3.394531-7.582032-7.582031-7.582032zm-177.472656 20.769532c-7.269532 0-13.1875-5.914063-13.1875-13.1875 0-7.269532 5.917968-13.183594 13.1875-13.183594 7.269531 0 13.1875 5.914062 13.1875 13.183594 0 7.273437-5.917969 13.1875-13.1875 13.1875zm75.078125 0c-7.273438 0-13.1875-5.914063-13.1875-13.1875 0-7.269532 5.914062-13.183594 13.1875-13.183594 7.269531 0 13.183593 5.914062 13.183593 13.183594.003907 7.273437-5.914062 13.1875-13.183593 13.1875zm75.078125 0c-7.269532 0-13.1875-5.914063-13.1875-13.1875 0-7.269532 5.917968-13.183594 13.1875-13.183594 7.269531 0 13.1875 5.914062 13.1875 13.183594 0 7.273437-5.917969 13.1875-13.1875 13.1875zm0 0" fill="#18191b"/></svg>