<svg height="512pt" viewBox="-65 0 512 512.00101" width="512pt" xmlns="http://www.w3.org/2000/svg"><path d="m340.875 73.03125c.167969-1.820312.257812-3.660156.257812-5.519531 0-33.121094-26.851562-59.96875-59.972656-59.96875-28.449218 0-52.273437 19.8125-58.425781 46.390625-3.085937-1.769532-6.660156-2.789063-10.476563-2.789063-10.019531 0-18.402343 6.996094-20.542968 16.367188h-5.011719c-31.6875 0-57.613281 25.925781-57.613281 57.613281s25.925781 57.617188 57.613281 57.617188h129.652344c31.6875 0 57.613281-25.929688 57.613281-57.617188 0-22.929688-13.578125-42.839844-33.09375-52.09375zm0 0" fill="#4890e3"/><path d="m340.875 73.03125c.167969-1.820312.257812-3.660156.257812-5.519531 0-33.121094-26.851562-59.96875-59.972656-59.96875-3.953125 0-7.8125.394531-11.554687 1.125 27.582031 5.394531 48.398437 29.683593 48.398437 58.84375 0 1.859375-.089844 3.699219-.257812 5.519531 19.511718 9.253906 33.09375 29.164062 33.09375 52.09375 0 31.6875-25.929688 57.617188-57.617188 57.617188h23.132813c31.6875 0 57.613281-25.929688 57.613281-57.617188 0-22.929688-13.578125-42.839844-33.09375-52.09375zm0 0" fill="#2970d6"/><path d="m10.304688 79.074219h110.824218v175.679687h-110.824218zm0 0" fill="#f8b53c"/><path d="m98 79.074219h23.128906v175.679687h-23.128906zm0 0" fill="#ba882d"/><path d="m10.304688 126.449219h242.214843v175.675781h-242.214843zm0 0" fill="#f9cd45"/><path d="m229.390625 126.449219h23.128906v175.675781h-23.128906zm0 0" fill="#f8b53c"/><path d="m335.070312 475.039062c0 16.179688-13.238281 29.417969-29.417968 29.417969h-108.246094c-16.179688 0-29.417969-13.238281-29.417969-29.417969" fill="#f45a3c"/><path d="m167.988281 270.910156c0-16.179687 13.238281-29.414062 29.417969-29.414062h108.246094c16.179687 0 29.417968 13.234375 29.417968 29.414062" fill="#f45a3c"/><path d="m305.652344 241.496094h-20.113282c16.179688 0 29.417969 13.234375 29.417969 29.414062v204.128906c0 16.179688-13.238281 29.417969-29.417969 29.417969h20.113282c16.179687 0 29.417968-13.238281 29.417968-29.417969v-84.984374l-10.058593-19.449219 10.058593-17.257813v-82.4375c0-16.179687-13.238281-29.414062-29.417968-29.414062zm0 0" fill="#e24a2a"/><path d="m335.070312 470.804688v-200.398438h-167.082031v200.398438zm0 0" fill="#fff4f1"/><path d="m314.957031 270.40625h20.113281v200.398438h-20.113281zm0 0" fill="#ecedef"/><g fill="#4890e3"><path d="m197.390625 299.109375h108.277344v31.039063h-108.277344zm0 0"/><path d="m197.390625 354.769531h108.277344v31.035157h-108.277344zm0 0"/><path d="m197.390625 410.425781h108.277344v31.039063h-108.277344zm0 0"/></g><path d="m316.355469 190.28125c35.925781 0 65.15625-29.226562 65.15625-65.15625 0-23.296875-12.738281-44.957031-32.847657-56.523438.007813-.363281.011719-.726562.011719-1.089843 0-37.226563-30.289062-67.511719-67.515625-67.511719-28.753906 0-53.734375 17.777344-63.371094 44.144531-1.816406-.359375-3.667968-.542969-5.53125-.542969-11.320312 0-21.246093 6.492188-25.878906 16.371094-25.148437.125-46.957031 14.578125-57.707031 35.589844v-16.488281c0-4.164063-3.375-7.542969-7.542969-7.542969h-110.824218c-4.164063 0-7.542969 3.378906-7.542969 7.542969v223.050781c0 4.167969 3.378906 7.542969 7.542969 7.542969h57.441406c4.167968 0 7.542968-3.375 7.542968-7.542969 0-4.164062-3.375-7.539062-7.542968-7.539062h-49.898438v-160.597657h227.128906v99.964844h-47.574218c-.078125 0-.15625.003906-.234375.003906-2.304688-38.007812-33.945313-68.230469-72.527344-68.230469-40.070313 0-72.671875 32.601563-72.671875 72.671876 0 4.167968 3.375 7.542968 7.539062 7.542968 4.167969 0 7.542969-3.375 7.542969-7.542968 0-31.753907 25.835938-57.589844 57.589844-57.589844 31.367187 0 56.9375 25.210937 57.558594 56.429687-12.523438 5.675781-21.335938 18.132813-21.730469 32.660157-.007812.167968-.023438.335937-.023438.507812v24.179688h-62.421874c-4.167969 0-7.542969 3.375-7.542969 7.539062 0 4.167969 3.375 7.542969 7.542969 7.542969h62.421874v161.136719c0 .734374.109376 1.445312.304688 2.117187-.195312.675781-.304688 1.382813-.304688 2.121094 0 20.378906 16.578126 36.957031 36.957032 36.957031h108.25c20.378906 0 36.957031-16.578125 36.957031-36.957031 0-.738281-.109375-1.445313-.304687-2.121094.195312-.671875.304687-1.382813.304687-2.117187v-82.257813c0-4.164063-3.375-7.542969-7.542969-7.542969-4.164062 0-7.539062 3.378906-7.539062 7.542969v74.714844h-151.996094v-185.3125h151.996094v77.382812c0 4.164063 3.375 7.542969 7.542968 7.542969 4.164063 0 7.539063-3.378906 7.539063-7.542969v-84.925781c0-.171875-.011719-.339844-.023437-.507812-.542969-19.910157-16.894532-35.945313-36.933594-35.945313h-45.589844v-43.671875zm-10.703125 306.632812h-108.246094c-10.9375 0-20.027344-8.070312-21.625-18.566406h151.496094c-1.597656 10.496094-10.6875 18.566406-21.625 18.566406zm20.335937-234.046874h-148.917969c3.214844-8.09375 11.113282-13.828126 20.332032-13.828126h108.25c9.21875-.003906 17.121094 5.734376 20.335937 13.828126zm-212.402343-176.25v32.289062h-95.738282v-32.289062zm23.445312 32.289062c3.074219-24.683594 24.171875-43.851562 49.671875-43.851562h5.011719c3.519531 0 6.570312-2.429688 7.355468-5.863282 1.410157-6.183594 6.835938-10.503906 13.1875-10.503906 2.359376 0 4.683594.617188 6.722657 1.789062 2.070312 1.1875 4.585937 1.324219 6.769531.371094 2.1875-.953125 3.792969-2.886718 4.332031-5.210937 5.527344-23.875 26.53125-40.550781 51.078125-40.550781 28.910156 0 52.429688 23.515624 52.429688 52.425781 0 1.574219-.074219 3.203125-.222656 4.835937-.289063 3.148438 1.421874 6.140625 4.277343 7.496094 17.484375 8.292969 28.78125 26.066406 28.78125 45.28125 0 27.609375-22.460937 50.074219-50.070312 50.074219h-56.292969v-48.75c0-4.164063-3.375-7.542969-7.542969-7.542969zm0 0"/><path d="m96.359375 245.941406c4.167969 0 7.542969-3.375 7.542969-7.542968 0-11.433594 9.304687-20.738282 20.738281-20.738282 11.4375 0 20.742187 9.304688 20.742187 20.738282 0 4.167968 3.375 7.542968 7.542969 7.542968 4.164063 0 7.539063-3.375 7.539063-7.542968 0-19.753907-16.070313-35.824219-35.824219-35.824219s-35.820313 16.070312-35.820313 35.824219c0 4.167968 3.375 7.542968 7.539063 7.542968zm0 0"/><path d="m91.941406 423.5c-20.867187-4.496094-39.273437-15.371094-53.222656-31.441406-13.496094-15.550782-21.902344-35.347656-23.660156-55.746094-.359375-4.148438-4-7.226562-8.164063-6.863281-4.148437.355469-7.222656 4.011719-6.8671872 8.160156 2.0351562 23.550781 11.7304682 46.398437 27.3007812 64.335937 10.640625 12.257813 23.523437 21.898438 37.984375 28.523438l-8.15625 2.433594c-3.988281 1.1875-6.261719 5.390625-5.070312 9.382812.976562 3.273438 3.976562 5.386719 7.226562 5.386719.710938 0 1.4375-.101563 2.15625-.3125l31.039062-9.257813c3.300782-.984374 5.511719-4.078124 5.378907-7.519531-.132813-3.441406-2.582031-6.355469-5.945313-7.082031zm0 0"/><path d="m313.210938 299.109375c0-4.164063-3.375-7.542969-7.542969-7.542969h-108.277344c-4.167969 0-7.542969 3.378906-7.542969 7.542969v31.039063c0 4.164062 3.375 7.542968 7.542969 7.542968h108.277344c4.167969 0 7.542969-3.378906 7.542969-7.542968zm-15.085938 23.496094h-93.195312v-15.953125h93.195312zm0 0"/><path d="m313.210938 354.769531c0-4.167969-3.375-7.542969-7.542969-7.542969h-108.277344c-4.167969 0-7.542969 3.375-7.542969 7.542969v31.035157c0 4.167968 3.375 7.542968 7.542969 7.542968h108.277344c4.167969 0 7.542969-3.375 7.542969-7.542968zm-15.085938 23.496094h-93.195312v-15.957031h93.195312zm0 0"/><path d="m305.667969 402.882812h-108.277344c-4.167969 0-7.542969 3.378907-7.542969 7.542969v31.039063c0 4.164062 3.375 7.542968 7.542969 7.542968h108.277344c4.167969 0 7.542969-3.378906 7.542969-7.542968v-31.039063c0-4.164062-3.378907-7.542969-7.542969-7.542969zm-7.542969 31.039063h-93.195312v-15.953125h93.195312zm0 0"/></svg>