<svg height="512pt" viewBox="0 -1 512 512" width="512pt" xmlns="http://www.w3.org/2000/svg"><path d="m99.003906 75.335938h77.417969v90.636718h-77.417969zm0 0" fill="#646464"/><path d="m226.484375 136.445312h-177.546875c-3.335938 0-6.070312-2.730468-6.070312-6.070312v-116.804688c0-3.339843 2.734374-6.070312 6.070312-6.070312h177.546875c3.339844 0 6.070313 2.730469 6.070313 6.070312v116.804688c0 3.339844-2.730469 6.070312-6.070313 6.070312zm0 0" fill="#d0cfd1"/><path d="m226.484375 7.5h-24c3.339844 0 6.070313 2.730469 6.070313 6.070312v116.804688c0 3.339844-2.730469 6.070312-6.070313 6.070312h24c3.339844 0 6.070313-2.730468 6.070313-6.070312v-116.804688c0-3.339843-2.730469-6.070312-6.070313-6.070312zm0 0" fill="#9c9b9d"/><path d="m42.871094 106.054688v24.320312c0 3.339844 2.730468 6.070312 6.070312 6.070312h177.546875c3.335938 0 6.070313-2.730468 6.070313-6.070312v-24.320312zm0 0" fill="#ecedef"/><path d="m208.554688 130.375c0 3.339844-2.730469 6.070312-6.070313 6.070312h24c3.339844 0 6.070313-2.730468 6.070313-6.070312v-24.320312h-24zm0 0" fill="#d0cfd1"/><path d="m42.871094 418.839844h426.261718v83.515625h-426.261718zm0 0" fill="#646464"/><path d="m445.132812 418.839844h24v83.515625h-24zm0 0" fill="#4b4b4b"/><path d="m114.066406 460.597656c0 11.597656-9.402344 21-21 21s-21-9.402344-21-21 9.402344-21 21-21 21 9.402344 21 21zm0 0" fill="#f45a3c"/><path d="m180.921875 460.597656c0 11.597656-9.402344 21-21 21s-21-9.402344-21-21 9.402344-21 21-21 21 9.402344 21 21zm0 0" fill="#f45a3c"/><path d="m180.921875 460.597656c0 11.597656-9.402344 21-21 21s-21-9.402344-21-21 9.402344-21 21-21 21 9.402344 21 21zm0 0" fill="#4890e3"/><path d="m247.621094 460.597656c0 11.597656-9.402344 21-21 21s-21-9.402344-21-21 9.402344-21 21-21 21 9.402344 21 21zm0 0" fill="#f45a3c"/><path d="m247.621094 460.597656c0 11.597656-9.402344 21-21 21s-21-9.402344-21-21 9.402344-21 21-21 21 9.402344 21 21zm0 0" fill="#f9cd45"/><path d="m159.921875 375.597656c0 12.265625-9.941406 22.207032-22.207031 22.207032s-22.210938-9.941407-22.210938-22.207032 9.945313-22.210937 22.210938-22.210937 22.207031 9.945312 22.207031 22.210937zm0 0" fill="#f45a3c"/><path d="m399.105469 375.597656c0 12.265625-9.941407 22.207032-22.207031 22.207032-12.265626 0-22.210938-9.941407-22.210938-22.207032s9.945312-22.210937 22.210938-22.210937c12.265624 0 22.207031 9.945312 22.207031 22.210937zm0 0" fill="#f45a3c"/><path d="m99.003906 233.808594h77.417969v90.632812h-77.417969zm0 0" fill="#646464"/><path d="m226.484375 294.917969h-177.546875c-3.335938 0-6.070312-2.730469-6.070312-6.070313v-116.804687c0-3.339844 2.734374-6.070313 6.070312-6.070313h177.546875c3.339844 0 6.070313 2.730469 6.070313 6.070313v116.804687c0 3.339844-2.730469 6.070313-6.070313 6.070313zm0 0" fill="#d0cfd1"/><path d="m226.484375 165.972656h-24c3.339844 0 6.070313 2.730469 6.070313 6.066406v116.808594c0 3.335938-2.730469 6.070313-6.070313 6.070313h24c3.339844 0 6.070313-2.730469 6.070313-6.070313v-116.804687c0-3.339844-2.730469-6.070313-6.070313-6.070313zm0 0" fill="#9c9b9d"/><path d="m42.871094 264.523438v24.324218c0 3.335938 2.730468 6.070313 6.070312 6.070313h177.546875c3.335938 0 6.070313-2.730469 6.070313-6.070313v-24.324218zm0 0" fill="#ecedef"/><path d="m208.554688 288.847656c0 3.335938-2.730469 6.066406-6.066407 6.070313h24c1.042969 0 2.027344-.269531 2.886719-.734375.171875-.09375.339844-.199219.5-.304688.320312-.222656.621094-.46875.898438-.746094.6875-.6875 1.210937-1.535156 1.507812-2.484374.179688-.570313.273438-1.175782.273438-1.800782v-24.324218h-24zm0 0" fill="#d0cfd1"/><path d="m337.988281 75.335938h77.417969v90.636718h-77.417969zm0 0" fill="#646464"/><path d="m465.472656 136.445312h-177.546875c-3.339843 0-6.070312-2.730468-6.070312-6.070312v-116.804688c0-3.339843 2.730469-6.070312 6.070312-6.070312h177.546875c3.335938 0 6.070313 2.730469 6.070313 6.070312v116.804688c-.003907 3.339844-2.734375 6.070312-6.070313 6.070312zm0 0" fill="#d0cfd1"/><path d="m465.472656 7.5h-24c3.335938 0 6.070313 2.730469 6.070313 6.070312v116.804688c0 3.339844-2.730469 6.070312-6.070313 6.070312h24c3.335938 0 6.070313-2.730468 6.070313-6.070312v-116.804688c-.003907-3.339843-2.734375-6.070312-6.070313-6.070312zm0 0" fill="#9c9b9d"/><path d="m281.855469 106.054688v24.320312c0 3.339844 2.730469 6.070312 6.070312 6.070312h177.546875c3.335938 0 6.070313-2.730468 6.070313-6.070312v-24.320312zm0 0" fill="#ecedef"/><path d="m447.539062 130.375c0 3.339844-2.730468 6.070312-6.066406 6.070312h24c3.335938 0 6.066406-2.730468 6.066406-6.070312v-24.320312h-24zm0 0" fill="#d0cfd1"/><path d="m337.988281 233.808594h77.417969v90.632812h-77.417969zm0 0" fill="#646464"/><path d="m465.472656 294.917969h-177.546875c-3.339843 0-6.070312-2.730469-6.070312-6.070313v-116.804687c0-3.339844 2.730469-6.070313 6.070312-6.070313h177.546875c3.335938 0 6.070313 2.730469 6.070313 6.070313v116.804687c-.003907 3.339844-2.734375 6.070313-6.070313 6.070313zm0 0" fill="#d0cfd1"/><path d="m465.472656 165.972656h-24c3.335938 0 6.070313 2.730469 6.070313 6.066406v116.808594c0 3.335938-2.730469 6.070313-6.070313 6.070313h24c3.335938 0 6.070313-2.730469 6.070313-6.070313v-116.804687c-.003907-3.339844-2.734375-6.070313-6.070313-6.070313zm0 0" fill="#9c9b9d"/><path d="m281.855469 264.523438v24.324218c0 3.335938 2.730469 6.070313 6.070312 6.070313h177.546875c3.335938 0 6.070313-2.730469 6.070313-6.070313v-24.324218zm0 0" fill="#ecedef"/><path d="m447.539062 288.847656c0 3.335938-2.730468 6.066406-6.066406 6.070313h24c1.042969 0 2.027344-.269531 2.886719-.734375.171875-.09375.339844-.199219.5-.304688.324219-.222656.625-.46875.898437-.746094.6875-.6875 1.210938-1.535156 1.507813-2.484374.179687-.570313.273437-1.175782.273437-1.800782v-24.324218h-24zm0 0" fill="#d0cfd1"/><path d="m469.132812 411.339844h-174.46875c-4.140624 0-7.5 3.359375-7.5 7.5 0 4.144531 3.359376 7.5 7.5 7.5h166.96875v26.757812h-176.96875c-4.140624 0-7.5 3.355469-7.5 7.5 0 4.140625 3.359376 7.5 7.5 7.5h176.96875v26.753906h-411.261718v-68.511718h213.996094c4.144531 0 7.5-3.359375 7.5-7.5s-3.355469-7.5-7.5-7.5h-221.496094c-4.144532 0-7.5 3.359375-7.5 7.5v83.511718c0 4.144532 3.355468 7.5 7.5 7.5h426.261718c4.140626 0 7.5-3.355468 7.5-7.5v-83.511718c0-4.140625-3.359374-7.5-7.5-7.5zm0 0"/><path d="m64.566406 460.597656c0 15.714844 12.785156 28.5 28.5 28.5s28.5-12.785156 28.5-28.5-12.785156-28.5-28.5-28.5-28.5 12.785156-28.5 28.5zm42 0c0 7.441406-6.058594 13.5-13.5 13.5-7.445312 0-13.5-6.058594-13.5-13.5 0-7.445312 6.054688-13.5 13.5-13.5 7.441406 0 13.5 6.054688 13.5 13.5zm0 0"/><path d="m131.421875 460.597656c0 15.714844 12.785156 28.5 28.5 28.5s28.5-12.785156 28.5-28.5-12.785156-28.5-28.5-28.5-28.5 12.785156-28.5 28.5zm42 0c0 7.441406-6.058594 13.5-13.5 13.5-7.445313 0-13.5-6.058594-13.5-13.5 0-7.445312 6.054687-13.5 13.5-13.5s13.5 6.054688 13.5 13.5zm0 0"/><path d="m198.121094 460.597656c0 15.714844 12.785156 28.5 28.5 28.5s28.5-12.785156 28.5-28.5-12.785156-28.5-28.5-28.5-28.5 12.785156-28.5 28.5zm42 0c0 7.441406-6.058594 13.5-13.5 13.5s-13.5-6.058594-13.5-13.5c0-7.445312 6.058594-13.5 13.5-13.5s13.5 6.054688 13.5 13.5zm0 0"/><path d="m504.5 368.097656h-98.855469c-3.332031-12.761718-14.957031-22.210937-28.746093-22.210937-13.792969 0-25.417969 9.449219-28.75 22.210937h-181.6875c-3.332032-12.761718-14.957032-22.210937-28.746094-22.210937-13.792969 0-25.417969 9.449219-28.75 22.210937h-101.464844c-4.140625 0-7.5 3.355469-7.5 7.5 0 4.140625 3.359375 7.5 7.5 7.5h101.464844c3.332031 12.761719 14.957031 22.207032 28.75 22.207032 13.789062 0 25.414062-9.445313 28.746094-22.207032h181.6875c3.332031 12.761719 14.957031 22.207032 28.75 22.207032 13.789062 0 25.414062-9.445313 28.746093-22.207032h98.855469c4.140625 0 7.5-3.359375 7.5-7.5 0-4.144531-3.359375-7.5-7.5-7.5zm-366.785156 22.207032c-8.113282 0-14.710938-6.597657-14.710938-14.707032s6.597656-14.710937 14.710938-14.710937c8.109375 0 14.707031 6.601562 14.707031 14.710937s-6.597656 14.707032-14.707031 14.707032zm239.183594 0c-8.113282 0-14.710938-6.597657-14.710938-14.707032s6.597656-14.710937 14.710938-14.710937c8.109374 0 14.707031 6.601562 14.707031 14.710937s-6.597657 14.707032-14.707031 14.707032zm0 0"/><path d="m48.9375 302.417969h42.566406v22.027343c0 4.140626 3.359375 7.5 7.5 7.5h77.417969c4.140625 0 7.5-3.359374 7.5-7.5v-22.027343h42.5625c7.484375 0 13.570313-6.089844 13.570313-13.570313v-116.804687c0-7.484375-6.085938-13.570313-13.570313-13.570313h-42.5625v-14.527344h42.5625c7.484375 0 13.570313-6.085937 13.570313-13.570312v-116.804688c0-7.480468-6.085938-13.570312-13.570313-13.570312h-177.546875c-7.480469 0-13.570312 6.085938-13.570312 13.570312v116.804688c0 7.484375 6.089843 13.570312 13.570312 13.570312h42.566406v14.527344h-42.566406c-7.480469 0-13.570312 6.085938-13.570312 13.570313v30.628906c0 4.144531 3.359374 7.5 7.5 7.5 4.144531 0 7.5-3.355469 7.5-7.5v-29.199219h174.6875v83.628906h-174.683594v-23.292968c0-4.144532-3.359375-7.5-7.5-7.5-4.144532 0-7.5 3.355468-7.5 7.5v55.039062c0 7.480469 6.085937 13.570313 13.566406 13.570313zm176.117188-287.417969v83.632812h-174.683594v-83.632812zm-174.683594 98.632812h174.683594v15.3125h-174.683594zm56.132812 44.839844v-14.527344h62.417969v14.527344zm62.417969 158.472656h-62.417969v-14.527343h62.417969zm56.132813-44.839843v15.3125h-174.683594v-15.3125zm0 0"/><path d="m287.925781 302.417969h42.5625v22.027343c0 4.140626 3.359375 7.5 7.5 7.5h77.417969c4.144531 0 7.5-3.359374 7.5-7.5v-22.027343h42.566406c7.480469 0 13.566406-6.089844 13.566406-13.570313v-116.804687c0-7.484375-6.085937-13.570313-13.566406-13.570313h-42.566406v-14.527344h42.566406c7.480469 0 13.566406-6.085937 13.566406-13.570312v-53.789062c0-4.144532-3.355468-7.5-7.5-7.5-4.140624 0-7.5 3.355468-7.5 7.5v22.046874h-174.683593v-83.632812h174.683593v30.671875c0 4.144531 3.359376 7.5 7.5 7.5 4.144532 0 7.5-3.355469 7.5-7.5v-32.101563c0-7.480468-6.085937-13.570312-13.566406-13.570312h-177.546875c-7.484375 0-13.570312 6.085938-13.570312 13.570312v116.804688c0 7.484375 6.085937 13.570312 13.570312 13.570312h42.5625v14.527344h-42.5625c-7.484375 0-13.570312 6.085938-13.570312 13.570313v116.804687c0 7.480469 6.085937 13.570313 13.570312 13.570313zm119.980469 14.527343h-62.417969v-14.527343h62.417969zm-118.550781-29.527343v-15.3125h174.683593v15.3125zm0-173.785157h174.683593v15.3125h-174.683593zm56.132812 30.3125h62.417969v14.527344h-62.417969zm-7.5 29.527344h126.050781v83.628906h-174.683593v-83.628906zm0 0"/></svg>