<svg height="512pt" viewBox="0 -38 512 512" width="512pt" xmlns="http://www.w3.org/2000/svg"><path d="m7.5 7.5h497v87.886719h-497zm0 0" fill="#4890e3"/><path d="m481.5 7.5h23v87.886719h-23zm0 0" fill="#2970d6"/><path d="m7.5 95.386719h497v332.210937h-497zm0 0" fill="#f9cd45"/><path d="m481.5 95.386719h23v332.210937h-23zm0 0" fill="#f8b53c"/><path d="m187.347656 96.546875v-41.046875h-179.847656v87.886719h497v-46.839844zm0 0" fill="#fff4f1"/><path d="m481.5 96.546875h23v46.839844h-23zm0 0" fill="#9c9b9d"/><path d="m406.578125 299.378906-.855469-.492187h-300.300781v42.273437h199.960937v36.644532zm0 0" fill="#f45a3c"/><path d="m105.421875 271.003906.855469.496094h300.300781v-42.277344h-199.960937v-36.644531zm0 0" fill="#4890e3"/><path d="m354.332031 51.445312c0 7.730469-6.265625 14-14 14-7.730469 0-14-6.269531-14-14 0-7.734374 6.269531-14 14-14 7.734375 0 14 6.265626 14 14zm0 0" fill="#fff4f1"/><path d="m411 51.445312c0 7.730469-6.269531 14-14 14s-14-6.269531-14-14c0-7.734374 6.269531-14 14-14s14 6.265626 14 14zm0 0" fill="#fff4f1"/><path d="m467.664062 51.445312c0 7.730469-6.265624 14-14 14-7.730468 0-14-6.269531-14-14 0-7.734374 6.269532-14 14-14 7.734376 0 14 6.265626 14 14zm0 0" fill="#fff4f1"/><g fill="#18191b"><path d="m504.5 0h-497c-4.140625 0-7.5 3.359375-7.5 7.5v420.097656c0 4.140625 3.359375 7.5 7.5 7.5h497c4.144531 0 7.5-3.359375 7.5-7.5v-191.328125c0-4.140625-3.355469-7.5-7.5-7.5s-7.5 3.359375-7.5 7.5v183.828125h-482v-269.207031h51.234375c4.140625 0 7.5-3.359375 7.5-7.5 0-4.144531-3.359375-7.5-7.5-7.5h-51.234375v-72.890625h164.847656v33.546875c0 4.140625 3.355469 7.5 7.5 7.5h309.652344v31.839844h-400.65625c-4.144531 0-7.5 3.359375-7.5 7.5 0 4.144531 3.355469 7.5 7.5 7.5h400.65625v55.273437c0 4.144532 3.355469 7.5 7.5 7.5s7.5-3.355468 7.5-7.5v-198.660156c0-4.140625-3.355469-7.5-7.5-7.5zm-489.5 48v-33h482v72.886719h-302.152344v-32.386719c0-4.140625-3.359375-7.5-7.5-7.5zm0 0"/><path d="m302.082031 384.539062c1.046875.515626 2.175781.765626 3.300781.765626 1.632813 0 3.253907-.53125 4.59375-1.570313l101.195313-78.425781c1.976563-1.53125 3.058594-3.945313 2.890625-6.4375-.171875-2.492188-1.570312-4.738282-3.734375-5.988282l-.855469-.492187c-1.140625-.660156-2.433594-1.003906-3.75-1.003906h-300.300781c-4.144531 0-7.5 3.355469-7.5 7.5v42.273437c0 4.140625 3.355469 7.5 7.5 7.5h192.460937v29.144532c0 2.863281 1.628907 5.472656 4.199219 6.734374zm-189.160156-50.878906v-27.273437h272.371094l-72.410157 56.117187v-21.34375c0-4.140625-3.355468-7.5-7.5-7.5zm0 0"/><path d="m414.078125 229.222656c0-4.140625-3.355469-7.5-7.5-7.5h-192.460937v-29.144531c0-2.859375-1.628907-5.472656-4.199219-6.730469-2.570313-1.261718-5.632813-.949218-7.894531.804688l-101.195313 78.425781c-1.976563 1.53125-3.058594 3.941406-2.890625 6.4375.171875 2.492187 1.570312 4.738281 3.734375 5.988281l.855469.492188c1.140625.65625 2.433594 1.003906 3.75 1.003906h300.300781c4.144531 0 7.5-3.359375 7.5-7.5zm-15 34.773438h-272.375l72.414063-56.113282v21.339844c0 4.144532 3.355468 7.5 7.5 7.5h192.460937zm0 0"/><path d="m340.332031 72.945312c11.855469 0 21.5-9.644531 21.5-21.5 0-11.855468-9.644531-21.5-21.5-21.5s-21.5 9.644532-21.5 21.5c0 11.855469 9.644531 21.5 21.5 21.5zm0-28c3.585938 0 6.5 2.914063 6.5 6.5 0 3.582032-2.914062 6.5-6.5 6.5-3.582031 0-6.5-2.917968-6.5-6.5 0-3.585937 2.917969-6.5 6.5-6.5zm0 0"/><path d="m397 72.945312c11.855469 0 21.5-9.644531 21.5-21.5 0-11.855468-9.644531-21.5-21.5-21.5s-21.5 9.644532-21.5 21.5c0 11.855469 9.644531 21.5 21.5 21.5zm0-28c3.585938 0 6.5 2.914063 6.5 6.5 0 3.582032-2.914062 6.5-6.5 6.5s-6.5-2.917968-6.5-6.5c0-3.585937 2.914062-6.5 6.5-6.5zm0 0"/><path d="m453.664062 72.945312c11.855469 0 21.5-9.644531 21.5-21.5 0-11.855468-9.644531-21.5-21.5-21.5-11.851562 0-21.5 9.644532-21.5 21.5 0 11.855469 9.648438 21.5 21.5 21.5zm0-28c3.585938 0 6.5 2.914063 6.5 6.5 0 3.582032-2.914062 6.5-6.5 6.5-3.582031 0-6.5-2.917968-6.5-6.5 0-3.585937 2.917969-6.5 6.5-6.5zm0 0"/></g></svg>