<svg height="511pt" viewBox="0 1 511 511.999" width="511pt" xmlns="http://www.w3.org/2000/svg"><path d="m100.359375 200.273438h103.300781v55.589843h-103.300781zm0 0" fill="#646464"/><path d="m180.546875 200.273438h23.113281v55.589843h-23.113281zm0 0" fill="#323232"/><path d="m272.445312 218.769531h-240.875c-12.945312 0-23.535156-10.589843-23.535156-23.535156v-164.164063c0-12.941406 10.589844-23.53125 23.535156-23.53125h240.875c12.945313 0 23.535157 10.589844 23.535157 23.53125v164.164063c0 12.945313-10.589844 23.535156-23.535157 23.535156zm0 0" fill="#d0cfd1"/><path d="m272.445312 7.539062h-23.113281c12.945313 0 23.535157 10.589844 23.535157 23.53125v164.164063c0 12.945313-10.589844 23.535156-23.535157 23.535156h23.113281c12.945313 0 23.535157-10.589843 23.535157-23.535156v-164.164063c0-12.941406-10.589844-23.53125-23.535157-23.53125zm0 0" fill="#b0afb1"/><path d="m8.035156 188.070312v7.164063c0 12.945313 10.59375 23.535156 23.535156 23.535156h240.875c12.945313 0 23.535157-10.589843 23.535157-23.535156v-7.164063zm0 0" fill="#fff4f1"/><path d="m295.980469 195.234375v-7.164063h-23.113281v7.164063c0 12.945313-10.589844 23.535156-23.53125 23.535156h23.109374c3.078126 0 6.015626-.601562 8.714844-1.6875.304688-.121093.601563-.25.898438-.382812.359375-.160157.710937-.332031 1.0625-.511719.296875-.152344.589844-.308594.882812-.476562.539063-.304688 1.066406-.625 1.578125-.972657 6.261719-4.242187 10.398438-11.414062 10.398438-19.503906zm0 0" fill="#d0cfd1"/><path d="m295.980469 38.238281v-7.164062c0-12.945313-10.589844-23.535157-23.535157-23.535157h-240.875c-12.945312 0-23.535156 10.589844-23.535156 23.53125v7.167969zm0 0" fill="#fff4f1"/><path d="m249.335938 7.539062c12.941406 0 23.53125 10.589844 23.53125 23.53125v7.167969h23.113281v-7.167969c0-7.597656-3.652344-14.382812-9.285157-18.691406-.855468-.652344-1.753906-1.25-2.695312-1.78125-.289062-.167968-.582031-.324218-.878906-.476562-.351563-.179688-.707032-.351563-1.0625-.511719-.296875-.132813-.59375-.261719-.898438-.382813-2.699218-1.085937-5.640625-1.6875-8.714844-1.6875zm0 0" fill="#d0cfd1"/><path d="m166.953125 407.027344c0 11.476562-9.304687 20.78125-20.78125 20.78125s-20.78125-9.304688-20.78125-20.78125c0-11.476563 9.304687-20.78125 20.78125-20.78125s20.78125 9.304687 20.78125 20.78125zm0 0" fill="#f45a3c"/><path d="m424.710938 128.210938c0 11.476562-9.304688 20.777343-20.78125 20.777343-11.476563 0-20.78125-9.300781-20.78125-20.777343 0-11.476563 9.304687-20.78125 20.78125-20.78125 11.476562 0 20.78125 9.304687 20.78125 20.78125zm0 0" fill="#f45a3c"/><path d="m291.359375 415.3125v60.914062c0 15.59375 47.722656 28.234376 106.59375 28.234376s106.597656-12.640626 106.597656-28.234376v-60.914062zm0 0" fill="#646464"/><path d="m481.4375 415.3125v60.914062c0 14.558594-41.605469 26.542969-95.039062 28.070313 3.792968.109375 7.648437.164063 11.554687.164063 58.871094 0 106.597656-12.640626 106.597656-28.234376v-60.914062zm0 0" fill="#4b4b4b"/><path d="m291.359375 354.402344v60.914062c0 15.59375 47.722656 28.234375 106.59375 28.234375s106.597656-12.640625 106.597656-28.234375v-60.914062zm0 0" fill="#d0cfd1"/><path d="m481.4375 354.402344v60.914062c0 14.558594-41.605469 26.542969-95.039062 28.066406 3.792968.109376 7.648437.167969 11.554687.167969 58.871094 0 106.597656-12.640625 106.597656-28.234375v-60.914062zm0 0" fill="#9c9b9d"/><path d="m291.359375 293.492188v60.910156c0 15.59375 47.722656 28.234375 106.59375 28.234375s106.597656-12.640625 106.597656-28.234375v-60.910156zm0 0" fill="#646464"/><path d="m481.4375 293.492188v60.910156c0 14.558594-41.605469 26.542968-95.039062 28.070312 3.792968.109375 7.648437.164063 11.554687.164063 58.871094 0 106.597656-12.640625 106.597656-28.234375v-60.910156zm0 0" fill="#4b4b4b"/><path d="m504.550781 293.492188c0-15.59375-47.726562-28.238282-106.597656-28.238282s-106.597656 12.644532-106.597656 28.238282 47.726562 28.234374 106.597656 28.234374 106.597656-12.640624 106.597656-28.234374zm0 0" fill="#d0cfd1"/><path d="m397.953125 265.253906c-3.90625 0-7.761719.058594-11.554687.167969 53.433593 1.527344 95.039062 13.507813 95.039062 28.070313 0 14.558593-41.605469 26.542968-95.039062 28.066406 3.792968.109375 7.648437.167968 11.554687.167968 58.871094 0 106.597656-12.640624 106.597656-28.234374s-47.726562-28.238282-106.597656-28.238282zm0 0" fill="#686869"/><path d="m248.976562 283.109375v-17.007813c0-5.804687-4.75-10.554687-10.554687-10.554687h-175.957031c-5.804688 0-10.554688 4.75-10.554688 10.554687v17.007813zm0 0" fill="#fff4f1"/><path d="m238.421875 255.550781h-24.117187c5.804687 0 10.550781 4.746094 10.550781 10.550781v17.007813h24.121093v-17.007813c0-5.804687-4.75-10.550781-10.554687-10.550781zm0 0" fill="#ecedef"/><path d="m118.03125 145.832031h-58.078125c-9.949219 0-18.089844-8.140625-18.089844-18.089843v-33.15625c0-9.949219 8.140625-18.089844 18.089844-18.089844h58.078125c9.949219 0 18.089844 8.140625 18.089844 18.089844v33.15625c0 9.949218-8.140625 18.089843-18.089844 18.089843zm0 0" fill="#4890e3"/><path d="m118.03125 76.496094h-23.113281c9.949219 0 18.089843 8.140625 18.089843 18.089844v33.15625c0 9.949218-8.140624 18.089843-18.089843 18.089843h23.113281c9.949219 0 18.089844-8.140625 18.089844-18.089843v-33.15625c0-9.949219-8.140625-18.089844-18.089844-18.089844zm0 0" fill="#2970d6"/><path d="m475.261719 266.238281c-17.503907-4.632812-39.78125-7.503906-63.792969-8.292969v-102.445312c11.964844-3.308594 20.78125-14.285156 20.78125-27.289062 0-15.617188-12.703125-28.320313-28.320312-28.320313-13.003907 0-23.980469 8.816406-27.289063 20.78125h-73.121094v-29.277344c0-4.164062-3.375-7.535156-7.539062-7.535156-4.164063 0-7.535157 3.371094-7.535157 7.535156v89.136719h-272.871093v-134.753906h272.871093v15.359375c0 4.164062 3.371094 7.539062 7.535157 7.539062 4.164062 0 7.539062-3.375 7.539062-7.539062v-30.066407c0-17.128906-13.9375-31.070312-31.074219-31.070312h-240.875c-17.132812 0-31.070312 13.941406-31.070312 31.070312v164.164063c0 17.136719 13.9375 31.074219 31.070312 31.074219h61.25v21.703125h-30.355468c-9.972656 0-18.089844 8.117187-18.089844 18.089843v17.007813c0 4.164063 3.375 7.535156 7.539062 7.535156h88.0625v88.753907c-12.644531 2.835937-22.125 14.140624-22.125 27.628906 0 15.613281 12.707032 28.316406 28.320313 28.316406 13.003906 0 23.980469-8.8125 27.289063-20.78125h43.929687c4.164063 0 7.539063-3.375 7.539063-7.535156 0-4.164063-3.375-7.539063-7.539063-7.539063h-43.929687c-2.519532-9.113281-9.484376-16.390625-18.410157-19.347656v-89.496094h93.925781c4.164063 0 7.535157-3.375 7.535157-7.535156v-17.007813c0-9.976562-8.113281-18.089843-18.089844-18.089843h-27.222656v-21.703125h61.246093c17.136719 0 31.074219-13.941406 31.074219-31.074219v-59.488281h73.121094c2.644531 9.5625 10.1875 17.109375 19.753906 19.753906v102.226562c-28.527343.105469-55.371093 3.113282-75.746093 8.511719-24.4375 6.472657-36.828126 15.640625-36.828126 27.25v106h-36.171874c-4.164063 0-7.535157 3.375-7.535157 7.539063 0 4.160156 3.371094 7.535156 7.535157 7.535156h36.171874v61.664062c0 11.609376 12.390626 20.777344 36.828126 27.25 20.746093 5.496094 48.199218 8.523438 77.304687 8.523438s56.558594-3.027344 77.308594-8.523438c24.433593-6.472656 36.824219-15.640624 36.824219-27.25v-182.738281c0-11.605469-12.390626-20.777343-36.824219-27.25zm-315.847657 140.789063c0 7.304687-5.941406 13.242187-13.242187 13.242187-7.304687 0-13.246094-5.941406-13.246094-13.242187 0-7.300782 5.941407-13.242188 13.246094-13.242188 7.300781 0 13.242187 5.9375 13.242187 13.242188zm-127.84375-391.953125h240.878907c8.695312 0 15.777343 6.980469 15.976562 15.628906h-272.832031c.199219-8.648437 7.28125-15.628906 15.976562-15.628906zm209.867188 251.027343v9.46875h-181.988281v-9.46875c0-1.632812 1.382812-3.015624 3.015625-3.015624h175.957031c1.636719 0 3.015625 1.382812 3.015625 3.015624zm-45.3125-18.089843h-88.230469v-21.703125h88.230469zm76.320312-36.777344h-240.875c-8.695312 0-15.777343-6.976563-15.976562-15.625h272.832031c-.199219 8.648437-7.285156 15.625-15.980469 15.625zm224.566407 204.082031c0 .96875-4.453125 7.074219-25.613281 12.679688-19.519532 5.171875-45.605469 8.015625-73.445313 8.015625s-53.921875-2.84375-73.445313-8.015625c-21.160156-5.605469-25.613281-11.710938-25.613281-12.679688v-41.730468c5.667969 3.035156 12.921875 5.726562 21.753907 8.066406 20.746093 5.496094 48.199218 8.523437 77.304687 8.523437s56.558594-3.027343 77.308594-8.523437c8.832031-2.335938 16.082031-5.03125 21.75-8.066406zm0-60.914062c0 .96875-4.453125 7.074218-25.613281 12.679687-19.519532 5.171875-45.605469 8.019531-73.445313 8.019531s-53.921875-2.847656-73.445313-8.019531c-21.160156-5.605469-25.613281-11.710937-25.613281-12.679687v-41.726563c5.667969 3.03125 12.921875 5.726563 21.753907 8.066407 20.746093 5.496093 48.199218 8.519531 77.304687 8.519531s56.558594-3.023438 77.308594-8.519531c8.832031-2.339844 16.082031-5.035157 21.75-8.066407zm-106.324219-226.191406c0-7.304688 5.941406-13.246094 13.242188-13.246094 7.304687 0 13.246093 5.941406 13.246093 13.246094 0 7.300781-5.941406 13.242187-13.246093 13.242187-7.300782 0-13.242188-5.941406-13.242188-13.242187zm-66.179688 152.601562c19.523438-5.171875 45.605469-8.019531 73.445313-8.019531s53.925781 2.847656 73.445313 8.019531c21.164062 5.605469 25.613281 11.707031 25.613281 12.679688 0 .96875-4.453125 7.074218-25.613281 12.675781-19.519532 5.171875-45.605469 8.019531-73.445313 8.019531s-53.921875-2.847656-73.445313-8.019531c-21.160156-5.605469-25.613281-11.707031-25.613281-12.675781 0-.972657 4.453125-7.078126 25.613281-12.679688zm146.890626 208.09375c-19.519532 5.171875-45.605469 8.019531-73.445313 8.019531s-53.921875-2.847656-73.445313-8.019531c-21.160156-5.605469-25.613281-11.707031-25.613281-12.679688v-41.726562c5.667969 3.03125 12.921875 5.726562 21.753907 8.066406 20.746093 5.496094 48.199218 8.519532 77.304687 8.519532s56.558594-3.023438 77.308594-8.519532c8.832031-2.339844 16.082031-5.035156 21.75-8.066406v41.726562c0 .96875-4.453125 7.074219-25.613281 12.679688zm0 0"/><path d="m59.953125 68.957031c-14.132813 0-25.625 11.496094-25.625 25.628907v33.15625c0 14.128906 11.492187 25.625 25.625 25.625h58.078125c14.132812 0 25.628906-11.496094 25.628906-25.625v-33.15625c0-14.132813-11.496094-25.628907-25.628906-25.628907zm68.632813 25.628907v33.15625c0 5.820312-4.734376 10.550781-10.554688 10.550781h-58.078125c-5.820313 0-10.550781-4.730469-10.550781-10.550781v-33.15625c0-5.820313 4.730468-10.554688 10.550781-10.554688h58.078125c5.820312 0 10.554688 4.734375 10.554688 10.554688zm0 0"/><path d="m251.867188 68.957031h-77.609376c-4.164062 0-7.539062 3.375-7.539062 7.539063 0 4.160156 3.375 7.535156 7.539062 7.535156h77.609376c4.164062 0 7.539062-3.375 7.539062-7.535156 0-4.164063-3.375-7.539063-7.539062-7.539063zm0 0"/><path d="m251.867188 99.890625h-77.609376c-4.164062 0-7.539062 3.375-7.539062 7.539063 0 4.160156 3.375 7.535156 7.539062 7.535156h77.609376c4.164062 0 7.539062-3.375 7.539062-7.535156 0-4.164063-3.375-7.539063-7.539062-7.539063zm0 0"/><path d="m251.867188 130.824219h-77.609376c-4.164062 0-7.539062 3.375-7.539062 7.539062 0 4.160157 3.375 7.535157 7.539062 7.535157h77.609376c4.164062 0 7.539062-3.375 7.539062-7.535157 0-4.164062-3.375-7.539062-7.539062-7.539062zm0 0"/></svg>