<svg height="512pt" viewBox="-123 0 512 512.00101" width="512pt" xmlns="http://www.w3.org/2000/svg"><path d="m258.75 471.183594c0-18.375-56.234375-33.269532-125.601562-33.269532-69.367188 0-125.601563 14.894532-125.601563 33.269532s56.234375 33.269531 125.601563 33.269531c69.367187 0 125.601562-14.894531 125.601562-33.269531zm0 0" fill="#f9e075"/><path d="m7.546875 399.414062h251.203125v71.769532h-251.203125z" fill="#f9e075"/><path d="m258.75 399.414062c0-18.375-56.234375-33.269531-125.601562-33.269531-69.367188 0-125.601563 14.894531-125.601563 33.269531 0 18.371094 56.234375 33.269532 125.601563 33.269532 69.367187 0 125.601562-14.898438 125.601562-33.269532zm0 0" fill="#f9cd45"/><path d="m7.546875 327.640625h251.203125v71.773437h-251.203125z" fill="#f9cd45"/><path d="m258.75 327.640625c0-18.375-56.234375-33.269531-125.601562-33.269531-69.367188 0-125.601563 14.894531-125.601563 33.269531s56.234375 33.269531 125.601563 33.269531c69.367187 0 125.601562-14.894531 125.601562-33.269531zm0 0" fill="#f9e075"/><path d="m7.546875 255.867188h251.203125v71.773437h-251.203125z" fill="#f9e075"/><path d="m157.007812 96.261719c0 13.175781-10.679687 23.859375-23.859374 23.859375-13.175782 0-23.859376-10.683594-23.859376-23.859375s10.683594-23.859375 23.859376-23.859375c13.179687 0 23.859374 10.683594 23.859374 23.859375zm0 0" fill="#f45a3c"/><path d="m133.148438 72.402344c-3.59375 0-7.003907.800781-10.0625 2.226562 8.148437 3.796875 13.796874 12.054688 13.796874 21.632813 0 9.582031-5.648437 17.835937-13.796874 21.632812 3.058593 1.425781 6.46875 2.226563 10.0625 2.226563 13.179687 0 23.859374-10.683594 23.859374-23.859375s-10.679687-23.859375-23.859374-23.859375zm0 0" fill="#e24a2a"/><path d="m236.511719 399.414062v90.671876c14.019531-5.367188 22.238281-11.878907 22.238281-18.902344v-71.769532zm0 0" fill="#f9cd45"/><path d="m236.511719 327.640625v90.675781c14.019531-5.371094 22.238281-11.882812 22.238281-18.902344v-71.773437zm0 0" fill="#f8b53c"/><g fill="#f9cd45"><path d="m236.511719 255.867188v90.675781c14.019531-5.367188 22.238281-11.882813 22.238281-18.902344v-71.773437zm0 0"/><path d="m258.75 255.867188c0-18.375-56.234375-33.269532-125.601562-33.269532-69.367188 0-125.601563 14.894532-125.601563 33.269532s56.234375 33.269531 125.601563 33.269531c69.367187 0 125.601562-14.894531 125.601562-33.269531zm0 0"/><path d="m7.546875 184.09375h251.203125v71.773438h-251.203125z"/></g><path d="m236.511719 184.09375v90.675781c14.019531-5.367187 22.238281-11.878906 22.238281-18.902343v-71.773438zm0 0" fill="#f8b53c"/><path d="m258.75 184.09375c0-18.371094-56.234375-33.269531-125.601562-33.269531-69.367188 0-125.601563 14.898437-125.601563 33.269531 0 18.375 56.234375 33.269531 125.601563 33.269531 69.367187 0 125.601562-14.894531 125.601562-33.269531zm0 0" fill="#f9e075"/><path d="m133.148438 150.828125c-4.074219 0-8.097657.050781-12.074219.152344 63.703125 1.609375 113.527343 15.820312 113.527343 33.117187 0 17.292969-49.824218 31.503906-113.527343 33.113282 3.976562.101562 8 .15625 12.074219.15625 69.367187 0 125.601562-14.898438 125.601562-33.269532 0-18.375-56.234375-33.269531-125.601562-33.269531zm0 0" fill="#f8b53c"/><path d="m223.894531 153.273438c-24.335937-6.445313-56.5625-9.996094-90.746093-9.996094-34.183594 0-66.410157 3.550781-90.746094 9.996094-28.136719 7.453124-42.402344 17.824218-42.402344 30.820312v29.722656c0 4.167969 3.378906 7.546875 7.546875 7.546875s7.546875-3.378906 7.546875-7.546875v-9.359375c6.816406 3.949219 15.925781 7.445313 27.308594 10.457031 24.335937 6.449219 56.5625 9.996094 90.746094 9.996094 34.183593 0 66.410156-3.546875 90.746093-9.996094 11.382813-3.011718 20.492188-6.507812 27.308594-10.457031v51.410157c0 2.066406-5.726563 9.492187-31.171875 16.230468-23.113281 6.121094-53.964844 9.492188-86.882812 9.492188-32.914063 0-63.769532-3.371094-86.878907-9.492188-25.449219-6.738281-31.175781-14.164062-31.175781-16.230468v-11.753907c0-4.167969-3.378906-7.546875-7.546875-7.546875s-7.546875 3.378906-7.546875 7.546875v227.070313c0 13 14.265625 23.371094 42.402344 30.820312 24.335937 6.445313 56.5625 9.996094 90.746094 9.996094 34.183593 0 66.410156-3.550781 90.746093-9.996094 28.136719-7.449218 42.402344-17.820312 42.402344-30.820312v-10.828125c0-4.167969-3.378906-7.546875-7.546875-7.546875s-7.546875 3.378906-7.546875 7.546875v10.828125c0 2.066406-5.726563 9.488281-31.171875 16.230468-23.113281 6.121094-53.964844 9.492188-86.882812 9.492188-32.914063 0-63.769532-3.371094-86.878907-9.492188-25.449219-6.742187-31.175781-14.164062-31.175781-16.230468v-51.410156c6.816406 3.949218 15.925781 7.445312 27.308594 10.457031 24.335937 6.445312 56.5625 9.996093 90.746094 9.996093 34.183593 0 66.410156-3.550781 90.746093-9.996093 11.382813-3.011719 20.492188-6.507813 27.308594-10.457031v9.640624c0 4.167969 3.378906 7.546876 7.546875 7.546876s7.546875-3.378907 7.546875-7.546876v-245.320312c0-12.996094-14.265625-23.367188-42.402344-30.820312zm-3.863281 47.050781c-23.113281 6.121093-53.964844 9.496093-86.882812 9.496093-32.914063 0-63.769532-3.371093-86.878907-9.496093-25.449219-6.738281-31.175781-14.160157-31.175781-16.226563 0-2.070312 5.726562-9.488281 31.175781-16.230468 23.109375-6.121094 53.964844-9.492188 86.878907-9.492188 32.917968 0 63.769531 3.371094 86.882812 9.492188 25.445312 6.738281 31.171875 14.160156 31.171875 16.230468 0 2.066406-5.726563 9.488282-31.171875 16.226563zm-177.628906 86.363281c24.335937 6.445312 56.5625 9.996094 90.746094 9.996094 34.183593 0 66.410156-3.550782 90.746093-9.996094 11.382813-3.015625 20.492188-6.507812 27.308594-10.457031v51.410156c0 2.066406-5.726563 9.488281-31.171875 16.230469-23.109375 6.121094-53.964844 9.492187-86.882812 9.492187-32.914063 0-63.769532-3.371093-86.878907-9.492187-25.449219-6.742188-31.175781-14.164063-31.175781-16.230469v-51.410156c6.816406 3.949219 15.925781 7.441406 27.308594 10.457031zm177.628906 128.953125c-23.113281 6.121094-53.964844 9.496094-86.882812 9.496094-32.914063 0-63.769532-3.371094-86.878907-9.496094-25.449219-6.738281-31.175781-14.160156-31.175781-16.226563v-51.410156c6.816406 3.949219 15.925781 7.441406 27.308594 10.457032 24.335937 6.445312 56.5625 9.996093 90.746094 9.996093 34.183593 0 66.410156-3.550781 90.746093-9.996093 11.382813-3.015626 20.492188-6.507813 27.308594-10.457032v51.410156c0 2.066407-5.726563 9.488282-31.171875 16.226563zm0 0"/><path d="m101.742188 96.261719c0 17.316406 14.089843 31.40625 31.40625 31.40625 17.316406 0 31.40625-14.089844 31.40625-31.40625 0-17.316407-14.089844-31.40625-31.40625-31.40625-17.316407 0-31.40625 14.089843-31.40625 31.40625zm47.71875 0c0 8.992187-7.316407 16.3125-16.3125 16.3125-8.992188 0-16.308594-7.316407-16.308594-16.3125 0-8.996094 7.316406-16.3125 16.308594-16.3125 8.996093 0 16.3125 7.316406 16.3125 16.3125zm0 0"/><path d="m180.546875 96.261719c0 4.167969 3.378906 7.546875 7.546875 7.546875s7.546875-3.378906 7.546875-7.546875c0-34.460938-28.03125-62.492188-62.492187-62.492188-34.457032 0-62.492188 28.035157-62.492188 62.492188 0 4.167969 3.378906 7.546875 7.546875 7.546875s7.546875-3.378906 7.546875-7.546875c0-26.136719 21.265625-47.398438 47.398438-47.398438 26.136718 0 47.398437 21.261719 47.398437 47.398438zm0 0"/><path d="m44.433594 103.808594c4.167968 0 7.546875-3.378906 7.546875-7.546875 0-44.757813 36.414062-81.167969 81.167969-81.167969 44.757812 0 81.171874 36.410156 81.171874 81.167969 0 4.167969 3.378907 7.546875 7.542969 7.546875 4.167969 0 7.546875-3.378906 7.546875-7.546875 0-53.078125-43.183594-96.261719-96.261718-96.261719-53.078126 0-96.261719 43.183594-96.261719 96.261719 0 4.167969 3.378906 7.546875 7.546875 7.546875zm0 0"/></svg>