<svg height="512pt" viewBox="-34 0 512 512" width="512pt" xmlns="http://www.w3.org/2000/svg"><path d="m221.9375 73.871094c.167969-1.839844.257812-3.699219.257812-5.585938 0-33.519531-27.171874-60.695312-60.691406-60.695312-28.796875 0-52.90625 20.054687-59.136718 46.957031-3.121094-1.792969-6.738282-2.824219-10.601563-2.824219-10.140625 0-18.625 7.078125-20.789063 16.5625h-5.074218c-32.070313 0-58.3125 26.242188-58.3125 58.3125 0 32.070313 26.242187 58.308594 58.3125 58.308594h131.21875c32.070312 0 58.308594-26.238281 58.308594-58.308594 0-23.210937-13.742188-43.359375-33.492188-52.726562zm0 0" fill="#4890e3"/><path d="m221.9375 73.871094c.167969-1.839844.257812-3.699219.257812-5.582032 0-33.523437-27.171874-60.695312-60.691406-60.695312-4.34375 0-8.574218.460938-12.65625 1.328125 27.449219 5.820313 48.046875 30.183594 48.046875 59.367187 0 1.882813-.089843 3.742188-.257812 5.582032 19.746093 9.367187 33.488281 29.519531 33.488281 52.726562 0 32.070313-26.238281 58.3125-58.308594 58.3125h25.304688c32.070312 0 58.308594-26.242187 58.308594-58.3125 0-23.207031-13.742188-43.359375-33.492188-52.726562zm0 0" fill="#2970d6"/><path d="m117.246094 237.617188.351562.605468v213.429688h-30.046875v-142.117188h-26.042969zm0 0" fill="#4890e3"/><path d="m117.597656 459.242188h-30.046875c-4.191406 0-7.589843-3.398438-7.589843-7.589844v-134.523438h-18.453126c-2.894531 0-5.539062-1.652344-6.8125-4.25-1.277343-2.601562-.960937-5.703125.8125-7.992187l55.738282-71.921875c1.550781-2 3.996094-3.09375 6.515625-2.921875 2.523437.171875 4.796875 1.589843 6.058593 3.78125l.351563.605469c.667969 1.15625 1.015625 2.464843 1.015625 3.792968v213.429688c0 4.191406-3.398438 7.589844-7.589844 7.589844zm-22.453125-15.183594h14.859375v-184.707032l-33.007812 42.59375h10.554687c4.195313 0 7.59375 3.398438 7.59375 7.589844zm0 0" fill="#18191b"/><path d="m154.902344 131.808594h282.035156v372.601562h-282.035156zm0 0" fill="#f9cd45"/><path d="m411.632812 131.808594h25.304688v372.601562h-25.304688zm0 0" fill="#f8b53c"/><path d="m398.164062 318.109375c0 56.46875-45.777343 102.246094-102.246093 102.246094s-102.246094-45.777344-102.246094-102.246094 45.777344-102.246094 102.246094-102.246094 102.246093 45.777344 102.246093 102.246094zm0 0" fill="#fff4f1"/><path d="m295.917969 215.863281c-4.109375 0-8.160157.25-12.144531.722657 50.742187 6.007812 90.097656 49.164062 90.097656 101.523437s-39.355469 95.519531-90.097656 101.523437c3.984374.472657 8.035156.722657 12.144531.722657 56.46875 0 102.246093-45.777344 102.246093-102.246094s-45.777343-102.246094-102.246093-102.246094zm0 0" fill="#ecedef"/><path d="m320.105469 318.109375c0 13.359375-10.828125 24.1875-24.1875 24.1875s-24.1875-10.828125-24.1875-24.1875 10.828125-24.1875 24.1875-24.1875 24.1875 10.828125 24.1875 24.1875zm0 0" fill="#4890e3"/><path d="m406.25 236.296875c-11.574219 11.578125-72.578125 53.8125-84.15625 42.238281-11.578125-11.578125 30.65625-72.582031 42.234375-84.160156 11.578125-11.574219 30.347656-11.574219 41.921875 0 11.578125 11.578125 11.578125 30.347656 0 41.921875zm0 0" fill="#4890e3"/><path d="m328.148438 281.027344c-2.710938 0-4.921876-.644532-6.410157-2.136719-6.523437-6.523437 3.117188-26.816406 12.355469-42.691406 10.242188-17.601563 23.71875-36.019531 29.878906-42.179688 11.753906-11.753906 30.882813-11.753906 42.636719 0 11.757813 11.753907 11.757813 30.882813 0 42.636719-6.160156 6.160156-24.578125 19.636719-42.179687 29.878906-12.25 7.125-27.125 14.492188-36.28125 14.492188zm57.140624-94.8125c-7.460937 0-14.921874 2.839844-20.601562 8.519531-11.933594 11.933594-53.332031 72.34375-42.234375 83.441406 4.734375 4.734375 19.460937.289063 41.464844-12.511719 17.53125-10.203124 35.859375-23.605468 41.972656-29.722656 11.363281-11.359375 11.363281-29.84375 0-41.207031-5.679687-5.679687-13.140625-8.519531-20.601563-8.519531zm0 0" fill="#d0cfd1"/><path d="m406.25 194.375c-9.089844-9.089844-22.617188-11.035156-33.613281-5.847656 3.003906 1.417968 5.824219 3.363281 8.308593 5.847656 11.578126 11.578125 11.578126 30.347656 0 41.921875-7.796874 7.800781-38.023437 29.507813-60.460937 39.308594.320313 1.171875.84375 2.160156 1.609375 2.925781 11.578125 11.578125 72.582031-30.65625 84.15625-42.234375 11.578125-11.574219 11.578125-30.34375 0-41.921875zm0 0" fill="#2970d6"/><path d="m436.9375 124.21875h-88.527344c-4.191406 0-7.589844 3.398438-7.589844 7.589844 0 4.195312 3.398438 7.59375 7.589844 7.59375h80.933594v357.414062h-266.851562v-27.125c0-4.195312-3.398438-7.59375-7.589844-7.59375-4.195313 0-7.59375 3.398438-7.59375 7.59375v34.71875c0 4.191406 3.398437 7.589844 7.59375 7.589844h282.035156c4.191406 0 7.589844-3.398438 7.589844-7.589844v-372.601562c0-4.191406-3.398438-7.589844-7.589844-7.589844zm0 0"/><path d="m147.308594 436.773438c0 4.191406 3.398437 7.589843 7.59375 7.589843 4.191406 0 7.589844-3.398437 7.589844-7.589843v-297.371094h155.445312c4.191406 0 7.589844-3.398438 7.589844-7.59375 0-4.191406-3.398438-7.589844-7.589844-7.589844h-54.960938c-.835937-22.660156-13.535156-43.5-33.199218-54.804688.007812-.378906.011718-.753906.011718-1.128906 0-37.652344-30.632812-68.285156-68.285156-68.285156-29.101562 0-54.375 17.996094-64.109375 44.683594-1.847656-.367188-3.730469-.550782-5.625-.550782-11.453125 0-21.492187 6.570313-26.167969 16.5625-36.203124.164063-65.601562 29.664063-65.601562 65.902344 0 36.335938 29.5625 65.902344 65.902344 65.902344h81.40625zm-81.40625-259.457032c-27.964844 0-50.71875-22.753906-50.71875-50.71875s22.753906-50.71875 50.71875-50.71875h5.074218c3.539063 0 6.609376-2.449218 7.398438-5.902344 1.433594-6.277343 6.941406-10.664062 13.394531-10.664062 2.390625 0 4.75.628906 6.820313 1.816406 2.085937 1.195313 4.613281 1.335938 6.816406.375 2.199219-.960937 3.816406-2.90625 4.359375-5.246094 5.597656-24.183593 26.871094-41.074218 51.738281-41.074218 29.28125 0 53.101563 23.820312 53.101563 53.101562 0 1.597656-.074219 3.246094-.226563 4.894532-.289062 3.167968 1.429688 6.183593 4.308594 7.546874 16.984375 8.058594 28.199219 24.949219 29.085938 43.492188h-92.871094c-4.195313 0-7.59375 3.398438-7.59375 7.589844v45.503906h-81.40625zm0 0"/><path d="m303.511719 242.9375c0-4.195312-3.402344-7.59375-7.59375-7.59375-45.636719 0-82.765625 37.128906-82.765625 82.765625 0 4.191406 3.398437 7.59375 7.59375 7.59375 4.191406 0 7.589844-3.402344 7.589844-7.59375 0-37.265625 30.316406-67.582031 67.582031-67.582031 4.191406 0 7.59375-3.398438 7.59375-7.589844zm0 0"/><path d="m363.5 318.109375c0 37.265625-30.316406 67.582031-67.582031 67.582031-4.191407 0-7.589844 3.398438-7.589844 7.59375 0 4.191406 3.398437 7.589844 7.589844 7.589844 45.636719 0 82.765625-37.128906 82.765625-82.765625 0-4.191406-3.398438-7.59375-7.589844-7.59375-4.195312 0-7.59375 3.402344-7.59375 7.59375zm0 0"/><path d="m327.695312 318.109375c0-17.523437-14.253906-31.777344-31.777343-31.777344-17.523438 0-31.777344 14.253907-31.777344 31.777344s14.253906 31.777344 31.777344 31.777344c17.523437 0 31.777343-14.253907 31.777343-31.777344zm-48.371093 0c0-9.152344 7.441406-16.597656 16.59375-16.597656 9.152343 0 16.597656 7.445312 16.597656 16.597656s-7.445313 16.59375-16.597656 16.59375c-9.152344 0-16.59375-7.441406-16.59375-16.59375zm0 0"/><path d="m411.617188 189.007812c-14.515626-14.515624-38.136719-14.515624-52.65625 0-4.566407 4.566407-12.753907 15.179688-21 27.609376-13.324219-5.535157-27.445313-8.347657-42.042969-8.347657-60.5625 0-109.835938 49.273438-109.835938 109.839844 0 60.5625 49.273438 109.835937 109.835938 109.835937 60.566406 0 109.835937-49.273437 109.835937-109.835937 0-20.960937-5.863281-41.117187-16.976562-58.660156 10.332031-7.105469 18.871094-13.8125 22.839844-17.78125 14.519531-14.519531 14.519531-38.140625 0-52.660157zm-21.042969 129.101563c0 52.191406-42.464844 94.652344-94.65625 94.652344-52.191407 0-94.652344-42.460938-94.652344-94.652344s42.460937-94.65625 94.652344-94.65625c11.703125 0 23.042969 2.09375 33.800781 6.21875-.589844.988281-1.175781 1.976563-1.75 2.964844-15.902344 27.328125-19.371094 43.136719-11.242188 51.261719 2.8125 2.816406 6.546876 4.238281 11.359376 4.238281 9.089843 0 22.039062-5.082031 39.90625-15.476563 2.710937-1.578125 5.417968-3.21875 8.085937-4.882812 9.488281 15.0625 14.496094 32.351562 14.496094 50.332031zm10.308593-87.179687c-4.570312 4.570312-20.214843 16.476562-37.710937 26.945312-21.863281 13.082031-32.351563 15.320312-35.488281 15.070312-.246094-3.148437 1.988281-13.625 15.070312-35.488281 10.46875-17.496093 22.375-33.140625 26.941406-37.710937 8.601563-8.597656 22.589844-8.597656 31.1875 0 8.597657 8.597656 8.597657 22.585937 0 31.183594zm0 0"/></svg>