<svg height="511pt" viewBox="-5 1 511 511.999" width="511pt" xmlns="http://www.w3.org/2000/svg"><path d="m459.335938 213.316406c-4.21875 0-8.253907.769532-11.980469 2.171875 12.90625 4.851563 22.09375 17.304688 22.09375 31.90625 0 11.300781-12.277344 30.304688-22.09375 43.695313.199219.273437.398437.546875.597656.816406 5.65625 7.664062 17.109375 7.664062 22.769531 0 9.90625-13.425781 22.691406-32.984375 22.691406-44.511719 0-18.820312-15.257812-34.078125-34.078124-34.078125zm0 0" fill="#e24a2a"/><path d="m388.996094 259.480469c0 75.824219-61.46875 137.292969-137.296875 137.292969-75.824219 0-137.292969-61.46875-137.292969-137.292969 0-75.828125 61.46875-137.296875 137.292969-137.296875 75.828125 0 137.296875 61.46875 137.296875 137.296875zm0 0" fill="#f9cd45"/><path d="m251.699219 122.183594c-3.867188 0-7.695313.167968-11.484375.484375 70.453125 5.835937 125.8125 64.855469 125.8125 136.8125s-55.359375 130.976562-125.8125 136.8125c3.789062.3125 7.617187.484375 11.484375.484375 75.828125 0 137.296875-61.46875 137.296875-137.296875 0-75.824219-61.46875-137.296875-137.296875-137.296875zm0 0" fill="#f8b53c"/><path d="m300.582031 259.480469c0-75.828125-21.886719-137.296875-48.882812-137.296875-26.996094 0-48.882813 61.46875-48.882813 137.296875 0 75.824219 21.886719 137.292969 48.882813 137.292969 26.996093 0 48.882812-61.46875 48.882812-137.292969zm0 0" fill="#f9cd45"/><path d="m251.699219 122.183594c-4.132813 0-8.148438 1.449218-11.980469 4.164062 21.203125 15.007813 36.898438 68.917969 36.898438 133.132813 0 64.210937-15.695313 118.125-36.898438 133.132812 3.832031 2.714844 7.847656 4.160157 11.980469 4.160157 26.996093 0 48.882812-61.46875 48.882812-137.292969 0-75.828125-21.886719-137.296875-48.882812-137.296875zm0 0" fill="#f8b53c"/><path d="m284.78125 41.566406c0 11.527344-12.785156 31.085938-22.695312 44.511719-5.65625 7.664063-17.113282 7.664063-22.769532 0-9.910156-13.425781-22.695312-32.984375-22.695312-44.511719 0-18.820312 15.257812-34.078125 34.078125-34.078125 18.820312 0 34.082031 15.257813 34.082031 34.078125zm0 0" fill="#f45a3c"/><path d="m250.703125 7.488281c-4.21875 0-8.253906.773438-11.984375 2.171875 12.910156 4.851563 22.097656 17.304688 22.097656 31.90625 0 11.300782-12.28125 30.304688-22.097656 43.695313.199219.273437.402344.546875.597656.816406 5.660156 7.664063 17.113282 7.664063 22.769532 0 9.910156-13.425781 22.695312-32.984375 22.695312-44.511719 0-18.820312-15.257812-34.078125-34.078125-34.078125zm0 0" fill="#e24a2a"/><path d="m284.78125 454.25c0 11.53125-12.785156 31.085938-22.695312 44.511719-5.65625 7.664062-17.113282 7.664062-22.769532 0-9.910156-13.425781-22.695312-32.980469-22.695312-44.511719 0-18.820312 15.257812-34.078125 34.078125-34.078125 18.820312 0 34.082031 15.257813 34.082031 34.078125zm0 0" fill="#f45a3c"/><path d="m250.703125 420.171875c-4.21875 0-8.253906.773437-11.984375 2.175781 12.910156 4.847656 22.097656 17.300782 22.097656 31.902344 0 11.300781-12.28125 30.304688-22.097656 43.699219.199219.269531.402344.542969.597656.8125 5.660156 7.664062 17.113282 7.664062 22.769532 0 9.910156-13.425781 22.695312-32.980469 22.695312-44.511719 0-18.820312-15.257812-34.078125-34.078125-34.078125zm0 0" fill="#e24a2a"/><path d="m76.144531 251.390625c0 11.527344-12.785156 31.082031-22.691406 44.507813-5.660156 7.667968-17.113281 7.667968-22.769531 0-9.910156-13.425782-22.695313-32.980469-22.695313-44.507813 0-18.820313 15.257813-34.078125 34.078125-34.078125 18.820313 0 34.078125 15.257812 34.078125 34.078125zm0 0" fill="#f45a3c"/><path d="m42.066406 217.3125c-4.214844 0-8.253906.769531-11.980468 2.171875 12.90625 4.847656 22.09375 17.300781 22.09375 31.90625 0 11.296875-12.277344 30.300781-22.09375 43.695313.199218.273437.398437.546874.597656.8125 5.65625 7.667968 17.113281 7.667968 22.769531 0 9.910156-13.425782 22.695313-32.980469 22.695313-44.507813-.003907-18.820313-15.261719-34.078125-34.082032-34.078125zm0 0" fill="#e24a2a"/><path d="m493.414062 251.390625c0 11.527344-12.785156 31.082031-22.695312 44.507813-5.65625 7.667968-17.109375 7.667968-22.769531 0-9.90625-13.425782-22.691407-32.980469-22.691407-44.507813 0-18.820313 15.257813-34.078125 34.078126-34.078125 18.820312 0 34.078124 15.257812 34.078124 34.078125zm0 0" fill="#f45a3c"/><g fill="#18191b"><path d="m251.699219 404.265625c79.835937 0 144.785156-64.949219 144.785156-144.785156 0-79.835938-64.949219-144.785157-144.785156-144.785157-79.832031 0-144.78125 64.949219-144.78125 144.785157 0 79.835937 64.949219 144.785156 144.78125 144.785156zm-127.09375-118.335937c6.652343 4.402343 15.625 8.722656 27.664062 12.699218 13.484375 4.449219 29.1875 7.882813 46.25 10.195313 2.726563 20.367187 7.140625 38.898437 12.984375 54.097656 3.777344 9.824219 7.789063 17.40625 11.847656 23.238281-49.488281-11.070312-88.402343-50.472656-98.746093-100.230468zm78.300781-37.6875c4.136719.1875 7.644531-2.984376 7.84375-7.117188.289062-5.953125.71875-11.816406 1.28125-17.546875 12.1875-1.222656 25.4375-1.914063 39.667969-1.914063s27.484375.691407 39.667969 1.914063c1.128906 11.535156 1.726562 23.582031 1.726562 35.902344 0 12.320312-.59375 24.363281-1.726562 35.902343-12.183594 1.21875-25.4375 1.914063-39.667969 1.914063-14.226563 0-27.480469-.691406-39.667969-1.914063-.789062-8.046874-1.316406-16.339843-1.5625-24.800781-.121094-4.132812-3.539062-7.402343-7.703125-7.265625-4.136719.117188-7.386719 3.566406-7.269531 7.703125.222656 7.632813.679687 15.144531 1.332031 22.488281-47.410156-6.980468-74.933594-22.242187-74.933594-34.027343 0-11.789063 27.527344-27.050781 74.941407-34.03125-.457032 4.988281-.804688 9.984375-1.046876 14.949219-.199218 4.132812 2.984376 7.644531 7.117188 7.84375zm48.792969-118.570313c9.371093 0 19.65625 13.171875 27.511719 35.238281 4.496093 12.628906 7.976562 27.390625 10.328124 43.492188-12.179687-1.125-24.875-1.71875-37.839843-1.71875-12.953125 0-25.636719.59375-37.808594 1.714844 2.746094-18.777344 6.992187-35.667969 12.480469-49.230469 7.472656-18.46875 16.941406-29.496094 25.328125-29.496094zm54.832031 95.773437c47.433594 6.976563 74.976562 22.242188 74.976562 34.035157 0 11.789062-27.542968 27.054687-74.976562 34.035156 1.019531-11.238281 1.539062-22.695313 1.539062-34.035156 0-11.34375-.519531-22.796875-1.539062-34.035157zm-54.832031 163.839844c-8.773438 0-18.574219-11.863281-26.214844-31.734375-5.085937-13.234375-9.011719-29.285156-11.597656-46.992187 12.175781 1.125 24.859375 1.71875 37.816406 1.71875 12.960937 0 25.65625-.597656 37.835937-1.71875-2.351562 16.101562-5.832031 30.863281-10.328124 43.492187-7.855469 22.0625-18.140626 35.234375-27.511719 35.234375zm28.390625-3.136718c12.140625-17.480469 20.480468-45.867188 24.722656-77.316407 17.089844-2.3125 32.8125-5.75 46.316406-10.203125 12.042969-3.976562 21.015625-8.296875 27.664063-12.699218-10.335938 49.742187-49.234375 89.140624-98.703125 100.21875zm98.703125-153.117188c-6.648438-4.402344-15.621094-8.726562-27.664063-12.699219-13.503906-4.457031-29.226562-7.894531-46.316406-10.207031-4.242188-31.445312-12.578125-59.832031-24.722656-77.316406 49.46875 11.082031 88.367187 50.476562 98.703125 100.222656zm-155.4375-100.230469c-12.332031 17.78125-20.609375 46.640625-24.785157 77.328125-17.082031 2.3125-32.800781 5.75-46.300781 10.203125-12.039062 3.972657-21.011719 8.296875-27.664062 12.699219 10.34375-49.757812 49.257812-89.164062 98.75-100.230469zm0 0"/><path d="m462.101562 209.921875c-19.488281-83.078125-86.703124-147.214844-170.449218-162.878906.394531-1.957031.617187-3.792969.617187-5.476563 0-22.917968-18.648437-41.566406-41.566406-41.566406-22.921875 0-41.566406 18.648438-41.566406 41.566406 0 1.789063.242187 3.75.691406 5.851563-36.097656 7.09375-69.84375 23.355469-98.054687 47.347656-3.152344 2.679687-3.535157 7.40625-.855469 10.554687 1.484375 1.742188 3.589843 2.636719 5.710937 2.636719 1.714844 0 3.4375-.585937 4.847656-1.78125 26.867188-22.847656 59.125-38.164062 93.597657-44.507812 4.035156 8.238281 10.113281 17.875 18.21875 28.855469 4.121093 5.585937 10.46875 8.792968 17.410156 8.792968s13.285156-3.207031 17.410156-8.792968c8.214844-11.128907 14.339844-20.871094 18.371094-29.183594 78.488281 13.683594 141.804687 73.027344 160.644531 150.3125-16.980468 5.230468-29.359375 21.0625-29.359375 39.738281 0 10.765625 8.128907 27.238281 24.15625 48.957031 1.570313 2.125 3.464844 3.90625 5.589844 5.296875-17.890625 76.210938-78.960937 135.304688-155.367187 150.90625.074218-.789062.121093-1.5625.121093-2.300781 0-22.921875-18.648437-41.566406-41.566406-41.566406-22.921875 0-41.566406 18.644531-41.566406 41.566406 0 .605469.03125 1.234375.085937 1.875-75.761718-16.324219-136.300781-75.796875-153.628906-151.726562 1.4375-1.160157 2.75-2.511719 3.882812-4.050782 16.03125-21.722656 24.160157-38.191406 24.160157-48.957031 0-17.984375-11.480469-33.328125-27.492188-39.113281 7.558594-31.390625 22.695313-60.699219 44.097657-85.164063 2.722656-3.113281 2.410156-7.847656-.707032-10.570312-3.113281-2.722657-7.84375-2.40625-10.566406.707031-23.238281 26.566406-39.621094 58.445312-47.65625 92.589844-22.574219.40625-40.8125 18.882812-40.8125 41.550781 0 10.765625 8.128906 27.234375 24.15625 48.957031 3.972656 5.382813 10.011719 8.542969 16.660156 8.765625 19.664063 83.59375 88.125 148.367188 172.808594 163.230469 4.003906 8.671875 10.390625 18.972656 19.164062 30.863281 4.125 5.585938 10.46875 8.792969 17.410157 8.792969h.003906c6.9375 0 13.285156-3.207031 17.410156-8.792969 8.648438-11.722656 14.980469-21.902343 18.992188-30.496093 85.871093-14.15625 155.199219-79.148438 175.015625-163.753907 5.835937-.738281 11.0625-3.78125 14.625-8.609375 16.027344-21.71875 24.15625-38.191406 24.15625-48.957031 0-21.992187-17.164063-40.035156-38.800782-41.46875zm-206.039062-128.292969c-1.269531 1.722656-3.226562 2.707032-5.359375 2.707032-2.136719 0-4.089844-.984376-5.359375-2.707032-9.003906-12.195312-15.535156-22.992187-18.824219-30.894531-.058593-.160156-.128906-.316406-.199219-.472656-1.445312-3.554688-2.207031-6.503907-2.207031-8.695313 0-14.660156 11.925781-26.589844 26.589844-26.589844 14.660156 0 26.589844 11.929688 26.589844 26.589844-.003907 7.074219-7.9375 22.050782-21.230469 40.0625zm-219.355469 209.824219c-13.292969-18.015625-21.230469-32.988281-21.230469-40.0625 0-14.664063 11.929688-26.589844 26.589844-26.589844.226563 0 .449219.011719.671875.015625.832031.585938 1.792969 1.015625 2.855469 1.226563.492188.097656.980469.144531 1.464844.144531.789062 0 1.558594-.128906 2.285156-.367188 11.132812 3.175782 19.3125 13.429688 19.3125 25.570313 0 7.074219-7.9375 22.050781-21.230469 40.0625-1.269531 1.71875-3.222656 2.707031-5.359375 2.707031-2.132812 0-4.085937-.988281-5.359375-2.707031zm219.355469 202.859375c-1.269531 1.722656-3.226562 2.707031-5.359375 2.707031-2.136719 0-4.089844-.984375-5.359375-2.707031-13.292969-18.011719-21.230469-32.988281-21.230469-40.0625 0-14.660156 11.925781-26.589844 26.589844-26.589844 14.660156 0 26.585937 11.929688 26.585937 26.589844 0 7.074219-7.933593 22.050781-21.226562 40.0625zm208.632812-202.859375c-1.269531 1.71875-3.222656 2.707031-5.359374 2.707031-2.132813 0-4.089844-.988281-5.359376-2.707031-13.292968-18.011719-21.230468-32.988281-21.230468-40.0625 0-14.664063 11.929687-26.589844 26.589844-26.589844 14.660156 0 26.589843 11.925781 26.589843 26.589844 0 7.074219-7.9375 22.050781-21.230469 40.0625zm0 0"/></g></svg>