<svg height="511pt" viewBox="1 -78 511.99899 511" width="511pt" xmlns="http://www.w3.org/2000/svg"><path d="m181.574219 348.902344h-155.265625c-10.320313 0-18.761719-8.445313-18.761719-18.761719v-303.332031c0-10.320313 8.441406-18.761719 18.761719-18.761719h155.265625c10.320312 0 18.765625 8.441406 18.765625 18.761719v303.332031c0 10.316406-8.445313 18.761719-18.765625 18.761719zm0 0" fill="#fff4f1"/><path d="m181.574219 8.046875h-23.136719c10.320312 0 18.761719 8.441406 18.761719 18.761719v303.332031c0 10.320313-8.441407 18.761719-18.761719 18.761719h23.136719c10.320312 0 18.765625-8.441406 18.765625-18.761719v-303.332031c0-10.320313-8.445313-18.761719-18.765625-18.761719zm0 0" fill="#ecedef"/><path d="m7.546875 301.128906v29.011719c0 10.316406 8.441406 18.761719 18.761719 18.761719h155.265625c10.320312 0 18.765625-8.445313 18.765625-18.761719v-29.011719zm0 0" fill="#d0cfd1"/><path d="m200.339844 330.140625v-29.011719h-23.140625v29.011719c0 10.316406-8.441407 18.761719-18.761719 18.761719h23.136719c.644531 0 1.285156-.035156 1.914062-.097656 9.429688-.964844 16.851563-8.992188 16.851563-18.664063zm0 0" fill="#9c9b9d"/><path d="m200.339844 55.820312v-29.011718c0-10.320313-8.445313-18.761719-18.765625-18.761719h-155.265625c-10.320313 0-18.761719 8.441406-18.761719 18.761719v29.011718zm0 0" fill="#d0cfd1"/><path d="m177.199219 26.808594v29.011718h23.140625v-29.011718c0-9.675782-7.421875-17.699219-16.851563-18.664063-.628906-.066406-1.269531-.097656-1.914062-.097656h-23.136719c10.320312 0 18.761719 8.441406 18.761719 18.761719zm0 0" fill="#9c9b9d"/><path d="m485.691406 348.1875h-155.265625c-10.320312 0-18.765625-8.441406-18.765625-18.761719v-303.332031c0-10.320312 8.445313-18.761719 18.765625-18.761719h155.265625c10.320313 0 18.761719 8.441407 18.761719 18.761719v303.332031c0 10.320313-8.441406 18.761719-18.761719 18.761719zm0 0" fill="#fff4f1"/><path d="m485.691406 8.046875h-24.144531c10.320313 0 18.761719 8.441406 18.761719 18.761719v303.332031c0 10.320313-8.441406 18.761719-18.761719 18.761719h24.144531c10.320313 0 18.761719-8.441406 18.761719-18.761719v-303.332031c0-10.320313-8.441406-18.761719-18.761719-18.761719zm0 0" fill="#ecedef"/><path d="m311.660156 301.128906v29.011719c0 10.316406 8.445313 18.761719 18.765625 18.761719h155.265625c10.320313 0 18.761719-8.445313 18.761719-18.761719v-29.011719zm0 0" fill="#646464"/><path d="m480.308594 330.140625c0 10.316406-8.441406 18.761719-18.761719 18.761719h24.144531c7.738282 0 14.421875-4.75 17.28125-11.476563.238282-.5625.449219-1.136719.632813-1.722656.550781-1.757813.847656-3.628906.847656-5.5625v-29.011719h-24.144531zm0 0" fill="#323232"/><path d="m504.453125 55.820312v-29.011718c0-10.320313-8.441406-18.761719-18.761719-18.761719h-155.265625c-10.320312 0-18.765625 8.441406-18.765625 18.761719v29.011718zm0 0" fill="#646464"/><path d="m502.972656 19.523438c-.609375-1.441407-1.417968-2.78125-2.351562-4.011719-.332032-.433594-.675782-.851563-1.042969-1.257813-.578125-.636718-1.1875-1.246094-1.847656-1.800781-.109375-.089844-.21875-.175781-.328125-.265625-3.21875-2.582031-7.289063-4.140625-11.710938-4.140625h-24.144531c10.320313 0 18.761719 8.441406 18.761719 18.761719v29.011718h24.144531v-29.011718c0-1.933594-.296875-3.804688-.84375-5.5625-.1875-.589844-.398437-1.164063-.636719-1.722656zm0 0" fill="#323232"/><path d="m181.574219.5h-155.265625c-14.507813 0-26.308594 11.800781-26.308594 26.308594v303.332031c0 14.503906 11.800781 26.304687 26.308594 26.304687h155.265625c14.507812 0 26.308593-11.800781 26.308593-26.304687v-303.332031c0-14.507813-11.800781-26.308594-26.308593-26.308594zm-166.484375 26.308594c0-6.1875 5.03125-11.21875 11.21875-11.21875h155.265625c6.1875 0 11.21875 5.03125 11.21875 11.21875v21.464844h-177.703125zm177.703125 303.332031c0 6.183594-5.03125 11.214844-11.21875 11.214844h-155.265625c-6.1875 0-11.21875-5.03125-11.21875-11.214844v-21.46875h177.703125zm-177.703125-36.558594v-230.21875h177.703125v230.21875zm0 0"/><path d="m485.691406.5h-155.269531c-14.503906 0-26.304687 11.800781-26.304687 26.308594v213.265625c0 4.167969 3.375 7.546875 7.542968 7.546875 4.167969 0 7.546875-3.378906 7.546875-7.546875v-176.710938h177.703125v230.21875h-177.703125v-23.183593c0-4.167969-3.378906-7.546876-7.546875-7.546876-4.167968 0-7.542968 3.378907-7.542968 7.546876v59.742187c0 14.503906 11.800781 26.304687 26.304687 26.304687h155.269531c14.507813 0 26.308594-11.800781 26.308594-26.304687v-303.332031c0-14.507813-11.800781-26.308594-26.308594-26.308594zm11.21875 329.640625c0 6.183594-5.035156 11.214844-11.21875 11.214844h-155.269531c-6.183594 0-11.214844-5.03125-11.214844-11.214844v-21.46875h177.703125zm0-281.867187h-177.703125v-21.464844c0-6.1875 5.03125-11.21875 11.214844-11.21875h155.269531c6.183594 0 11.21875 5.03125 11.21875 11.21875zm0 0"/><path d="m290.316406 175.625h-66.394531c-3.003906 0-5.71875-1.78125-6.917969-4.53125-1.199218-2.75-.652344-5.949219 1.386719-8.148438l21.265625-22.902343c2.835938-3.054688 7.609375-3.230469 10.664062-.394531 3.054688 2.835937 3.230469 7.609374.394532 10.664062l-9.492188 10.222656h49.09375c4.167969 0 7.546875 3.375 7.546875 7.542969s-3.378906 7.546875-7.546875 7.546875zm0 0"/><path d="m269.050781 224.414062c-1.839843 0-3.679687-.664062-5.132812-2.015624-3.054688-2.835938-3.230469-7.609376-.398438-10.664063l9.496094-10.222656h-49.097656c-4.167969 0-7.542969-3.375-7.542969-7.542969s3.375-7.546875 7.542969-7.546875h66.398437c3 0 5.71875 1.78125 6.917969 4.53125s.652344 5.949219-1.390625 8.148437l-21.265625 22.902344c-1.484375 1.601563-3.503906 2.410156-5.527344 2.410156zm0 0"/><path d="m151.925781 118.007812h-95.96875c-9.957031 0-18.105469 8.148438-18.105469 18.105469v63.453125c0 9.960938 8.148438 18.109375 18.105469 18.109375h20.273438l27.710937 27.875 27.710938-27.875h20.273437c9.957031 0 18.105469-8.148437 18.105469-18.109375v-63.453125c0-9.957031-8.148438-18.105469-18.105469-18.105469zm0 0" fill="#00bf9e"/><path d="m151.925781 118.007812h-23.140625c9.960938 0 18.109375 8.148438 18.109375 18.105469l.476563 53.441407c0 9.960937-8.148438 18.109374-18.109375 18.109374h-10.210938l-26.679687 26.25 11.570312 11.636719 27.710938-27.875h20.273437c9.957031 0 18.105469-8.148437 18.105469-18.109375v-63.449218c0-9.960938-8.148438-18.109376-18.105469-18.109376zm0 0" fill="#00a983"/><path d="m103.941406 253.097656c-2.007812 0-3.933594-.800781-5.351562-2.226562l-25.496094-25.652344h-17.136719c-14.144531 0-25.652343-11.507812-25.652343-25.652344v-63.449218c0-14.148438 11.507812-25.65625 25.652343-25.65625h19.832031c4.167969 0 7.542969 3.378906 7.542969 7.546874 0 4.167969-3.375 7.542969-7.542969 7.542969h-19.832031c-5.824219 0-10.5625 4.738281-10.5625 10.566407v63.449218c0 5.824219 4.738281 10.5625 10.5625 10.5625h20.273438c2.007812 0 3.933593.800782 5.351562 2.226563l22.359375 22.492187 22.359375-22.492187c1.417969-1.425781 3.34375-2.226563 5.351563-2.226563h20.269531c5.828125 0 10.566406-4.738281 10.566406-10.5625v-63.449218c0-5.828126-4.738281-10.566407-10.566406-10.566407h-44.066406c-4.167969 0-7.546875-3.375-7.546875-7.542969 0-4.167968 3.378906-7.546874 7.546875-7.546874h44.066406c14.148437 0 25.65625 11.507812 25.65625 25.65625v63.449218c0 14.144532-11.507813 25.652344-25.65625 25.652344h-17.128906l-25.5 25.652344c-1.417969 1.421875-3.34375 2.226562-5.351563 2.226562zm0 0"/><path d="m456.039062 118.007812h-95.964843c-9.957031 0-18.105469 8.148438-18.105469 18.105469v63.453125c0 9.960938 8.148438 18.109375 18.105469 18.109375h20.273437l27.710938 27.875 27.710937-27.875h20.273438c9.957031 0 18.105469-8.148437 18.105469-18.109375v-63.453125c0-9.957031-8.148438-18.105469-18.109376-18.105469zm0 0" fill="#f45a3c"/><path d="m456.039062 118.007812h-23.136718c9.960937 0 18.109375 8.148438 18.109375 18.105469l.476562 53.441407c0 9.960937-8.148437 18.109374-18.109375 18.109374h-10.210937l-26.679688 26.25 11.570313 11.636719 27.710937-27.875h20.273438c9.957031 0 18.105469-8.148437 18.105469-18.109375v-63.449218c0-9.960938-8.148438-18.109376-18.109376-18.109376zm0 0" fill="#e24a2a"/><path d="m408.058594 253.097656c-2.011719 0-3.9375-.800781-5.351563-2.226562l-25.5-25.652344h-17.132812c-14.144531 0-25.652344-11.507812-25.652344-25.652344v-63.449218c0-14.148438 11.507813-25.65625 25.652344-25.65625h95.964843c14.148438 0 25.65625 11.507812 25.65625 25.65625v63.449218c0 14.144532-11.507812 25.652344-25.65625 25.652344h-17.132812l-25.496094 25.652344c-1.417968 1.421875-3.34375 2.226562-5.351562 2.226562zm-47.984375-127.546875c-5.824219 0-10.5625 4.738281-10.5625 10.5625v63.453125c0 5.824219 4.738281 10.5625 10.5625 10.5625h20.273437c2.007813 0 3.933594.800782 5.351563 2.226563l22.359375 22.492187 22.359375-22.492187c1.414062-1.425781 3.339843-2.226563 5.351562-2.226563h20.269531c5.824219 0 10.5625-4.738281 10.5625-10.5625v-63.453125c0-5.824219-4.738281-10.5625-10.5625-10.5625zm0 0"/></svg>