<svg height="511pt" viewBox="1 -3 511.999 511" width="511pt" xmlns="http://www.w3.org/2000/svg"><path d="m102.347656 407.277344h305.964844v89.769531h-305.964844zm0 0" fill="#d0cfd1"/><path d="m386.328125 407.277344h21.984375v89.769531h-21.984375zm0 0" fill="#9c9b9d"/><path d="m102.347656 317.503906h305.964844v179.542969h-305.964844zm0 0" fill="#d0cfd1"/><path d="m386.328125 317.503906h21.984375v179.542969h-21.984375zm0 0" fill="#9c9b9d"/><path d="m492.773438 221.09375h-97.070313c-6.453125 0-11.730469-5.277344-11.730469-11.730469v-189.636719c0-6.453124 5.277344-11.730468 11.730469-11.730468h97.070313c6.453124 0 11.730468 5.277344 11.730468 11.730468v189.636719c0 6.453125-5.277344 11.730469-11.730468 11.730469zm0 0" fill="#fff4f1"/><path d="m492.773438 7.996094h-23.984376c6.453126 0 11.730469 5.277344 11.730469 11.730468v189.636719c0 6.453125-5.277343 11.730469-11.730469 11.730469h23.984376c6.453124 0 11.730468-5.277344 11.730468-11.730469v-189.636719c0-6.453124-5.277344-11.730468-11.730468-11.730468zm0 0" fill="#ecedef"/><path d="m383.972656 191.226562v18.136719c0 6.453125 5.277344 11.730469 11.730469 11.730469h97.070313c6.453124 0 11.730468-5.277344 11.730468-11.730469v-18.136719zm0 0" fill="#f45a3c"/><path d="m504.503906 209.363281v-18.136719h-23.984375v18.136719c0 6.453125-5.277343 11.730469-11.730469 11.730469h23.984376c6.453124 0 11.730468-5.277344 11.730468-11.730469zm0 0" fill="#e24a2a"/><path d="m504.503906 37.863281v-18.136719c0-6.453124-5.277344-11.730468-11.730468-11.730468h-97.070313c-6.453125 0-11.730469 5.277344-11.730469 11.730468v18.136719zm0 0" fill="#f45a3c"/><path d="m498.699219 9.628906c-.117188-.070312-.226563-.148437-.34375-.210937-1.664063-.90625-3.566407-1.421875-5.582031-1.421875h-23.980469c6.449219 0 11.726562 5.277344 11.726562 11.730468v18.136719h23.984375v-18.136719c0-3.226562-1.320312-6.160156-3.445312-8.285156-.703125-.703125-1.5-1.304687-2.359375-1.8125zm0 0" fill="#e24a2a"/><path d="m304.578125 221.09375h-97.070313c-6.453124 0-11.730468-5.277344-11.730468-11.730469v-189.636719c0-6.453124 5.277344-11.730468 11.730468-11.730468h97.070313c6.453125 0 11.730469 5.277344 11.730469 11.730468v189.636719c0 6.453125-5.277344 11.730469-11.730469 11.730469zm0 0" fill="#fff4f1"/><path d="m304.578125 7.996094h-23.984375c6.453125 0 11.730469 5.277344 11.730469 11.730468v189.636719c0 6.453125-5.277344 11.730469-11.730469 11.730469h23.984375c6.453125 0 11.730469-5.277344 11.730469-11.730469v-189.636719c0-6.453124-5.277344-11.730468-11.730469-11.730468zm0 0" fill="#ecedef"/><path d="m195.777344 191.226562v18.136719c0 6.453125 5.277344 11.730469 11.730468 11.730469h97.070313c6.453125 0 11.730469-5.277344 11.730469-11.730469v-18.136719zm0 0" fill="#4890e3"/><path d="m316.308594 209.363281v-18.136719h-23.984375v18.136719c0 6.453125-5.277344 11.730469-11.730469 11.730469h23.984375c6.453125 0 11.730469-5.277344 11.730469-11.730469zm0 0" fill="#2970d6"/><path d="m316.308594 37.863281v-18.136719c0-6.453124-5.277344-11.730468-11.730469-11.730468h-97.070313c-6.453124 0-11.730468 5.277344-11.730468 11.730468v18.136719zm0 0" fill="#4890e3"/><path d="m310.503906 9.628906c-.117187-.070312-.226562-.148437-.347656-.210937-1.660156-.90625-3.5625-1.421875-5.578125-1.421875h-23.984375c6.453125 0 11.730469 5.277344 11.730469 11.730468v18.136719h23.984375v-18.136719c0-3.226562-1.320313-6.160156-3.445313-8.285156-.703125-.703125-1.5-1.304687-2.359375-1.8125zm0 0" fill="#2970d6"/><path d="m48.484375 284.789062c-13.191406-.472656-24.265625 9.839844-24.734375 23.03125-.472656 13.1875 9.839844 24.265626 23.027344 24.734376 13.191406.472656 24.269531-9.839844 24.738281-23.03125.472656-13.1875-9.839844-24.265626-23.03125-24.734376zm0 0" fill="#f45a3c"/><path d="m71.519531 308.671875c0 13.199219-10.699219 23.898437-23.898437 23.898437-13.199219 0-23.898438-10.699218-23.898438-23.898437s10.699219-23.898437 23.898438-23.898437c13.199218 0 23.898437 10.699218 23.898437 23.898437zm0 0" fill="#91bcee"/><path d="m463.910156 284.773438c-13.191406-.472657-24.265625 9.839843-24.738281 23.03125-.472656 13.1875 9.839844 24.265624 23.03125 24.734374 13.191406.472657 24.265625-9.839843 24.738281-23.03125.46875-13.1875-9.839844-24.265624-23.03125-24.734374zm0 0" fill="#f45a3c"/><path d="m486.941406 308.671875c0 13.199219-10.699218 23.898437-23.898437 23.898437s-23.898438-10.699218-23.898438-23.898437 10.699219-23.898437 23.898438-23.898437 23.898437 10.699218 23.898437 23.898437zm0 0" fill="#91bcee"/><g fill="#fff4f1"><path d="m158.261719 381.410156h-19.480469c-4.949219 0-8.996094-4.046875-8.996094-8.992187v-19.480469c0-4.945312 4.046875-8.992188 8.996094-8.992188h19.480469c4.945312 0 8.992187 4.046876 8.992187 8.992188v19.480469c0 4.945312-4.046875 8.992187-8.992187 8.992187zm0 0"/><path d="m229.457031 381.410156h-19.480469c-4.945312 0-8.992187-4.046875-8.992187-8.992187v-19.480469c0-4.945312 4.046875-8.992188 8.992187-8.992188h19.480469c4.949219 0 8.996094 4.046876 8.996094 8.992188v19.480469c0 4.945312-4.046875 8.992187-8.996094 8.992187zm0 0"/><path d="m300.65625 381.410156h-19.480469c-4.945312 0-8.992187-4.046875-8.992187-8.992187v-19.480469c0-4.945312 4.046875-8.992188 8.992187-8.992188h19.480469c4.945312 0 8.992188 4.046876 8.992188 8.992188v19.480469c0 4.945312-4.046876 8.992187-8.992188 8.992187zm0 0"/><path d="m371.855469 381.410156h-19.480469c-4.945312 0-8.992188-4.046875-8.992188-8.992187v-19.480469c0-4.945312 4.046876-8.992188 8.992188-8.992188h19.480469c4.945312 0 8.992187 4.046876 8.992187 8.992188v19.480469c0 4.945312-4.046875 8.992187-8.992187 8.992187zm0 0"/><path d="m158.261719 470.894531h-19.480469c-4.949219 0-8.996094-4.046875-8.996094-8.992187v-19.480469c0-4.945313 4.046875-8.996094 8.996094-8.996094h19.480469c4.945312 0 8.992187 4.050781 8.992187 8.996094v19.480469c0 4.945312-4.046875 8.992187-8.992187 8.992187zm0 0"/><path d="m229.457031 470.894531h-19.480469c-4.945312 0-8.992187-4.046875-8.992187-8.992187v-19.480469c0-4.945313 4.046875-8.996094 8.992187-8.996094h19.480469c4.949219 0 8.996094 4.050781 8.996094 8.996094v19.480469c0 4.945312-4.046875 8.992187-8.996094 8.992187zm0 0"/><path d="m300.65625 470.894531h-19.480469c-4.945312 0-8.992187-4.046875-8.992187-8.992187v-19.480469c0-4.945313 4.046875-8.996094 8.992187-8.996094h19.480469c4.945312 0 8.992188 4.050781 8.992188 8.996094v19.480469c0 4.945312-4.046876 8.992187-8.992188 8.992187zm0 0"/><path d="m371.855469 470.894531h-19.480469c-4.945312 0-8.992188-4.046875-8.992188-8.992187v-19.480469c0-4.945313 4.046876-8.996094 8.992188-8.996094h19.480469c4.945312 0 8.992187 4.050781 8.992187 8.996094v19.480469c0 4.945312-4.046875 8.992187-8.992187 8.992187zm0 0"/><path d="m116.296875 221.09375h-97.070313c-6.453124 0-11.730468-5.277344-11.730468-11.730469v-189.636719c0-6.453124 5.277344-11.730468 11.730468-11.730468h97.070313c6.453125 0 11.730469 5.277344 11.730469 11.730468v189.636719c0 6.453125-5.277344 11.730469-11.730469 11.730469zm0 0"/></g><path d="m116.296875 7.996094h-23.984375c6.453125 0 11.730469 5.277344 11.730469 11.730468v189.636719c0 6.453125-5.277344 11.730469-11.730469 11.730469h23.984375c6.453125 0 11.730469-5.277344 11.730469-11.730469v-189.636719c0-6.453124-5.277344-11.730468-11.730469-11.730468zm0 0" fill="#ecedef"/><path d="m7.496094 191.226562v18.136719c0 6.453125 5.277344 11.730469 11.730468 11.730469h97.070313c6.453125 0 11.730469-5.277344 11.730469-11.730469v-18.136719zm0 0" fill="#f9cd45"/><path d="m128.027344 209.363281v-18.136719h-23.984375v18.136719c0 6.453125-5.277344 11.730469-11.730469 11.730469h23.984375c6.453125 0 11.730469-5.277344 11.730469-11.730469zm0 0" fill="#f8b53c"/><path d="m128.027344 37.863281v-18.136719c0-6.453124-5.277344-11.730468-11.730469-11.730468h-97.070313c-6.453124 0-11.730468 5.277344-11.730468 11.730468v18.136719zm0 0" fill="#f9cd45"/><path d="m122.222656 9.628906c-.117187-.070312-.226562-.148437-.347656-.210937-1.660156-.90625-3.5625-1.421875-5.578125-1.421875h-23.984375c6.453125 0 11.730469 5.277344 11.730469 11.730468v18.136719h23.984375v-18.136719c0-3.226562-1.320313-6.160156-3.445313-8.285156-.703125-.703125-1.5-1.304687-2.359375-1.8125zm0 0" fill="#f8b53c"/><path d="m492.773438.5h-97.070313c-10.601563 0-19.226563 8.625-19.226563 19.226562v136.238282h-52.671874v-136.238282c0-10.601562-8.625-19.226562-19.226563-19.226562h-97.070313c-10.601562 0-19.226562 8.625-19.226562 19.226562v136.238282h-52.757812v-35.605469c0-4.140625-3.355469-7.496094-7.496094-7.496094-4.136719 0-7.492188 3.355469-7.492188 7.496094v63.375h-105.546875v-138.375h105.542969v44.527344c0 4.140625 3.355469 7.496093 7.496094 7.496093 4.136718 0 7.496094-3.355468 7.496094-7.496093v-70.160157c0-10.601562-8.625-19.226562-19.226563-19.226562h-97.070313c-10.601562 0-19.226562 8.625-19.226562 19.226562v189.636719c0 10.601563 8.625 19.226563 19.226562 19.226563h20.898438v49.601562c-13.703125 3.367188-23.898438 15.753906-23.898438 30.480469s10.195313 27.113281 23.898438 30.484375v68.074219c0 4.136719 3.355469 7.492187 7.496094 7.492187h47.234375v25.933594c0 4.140625 3.355469 7.496094 7.492187 7.496094 4.140625 0 7.496094-3.355469 7.496094-7.496094v-25.886719h290.976562v74.78125h-290.976562v-15.5625c0-4.140625-3.355469-7.496093-7.496094-7.496093-4.136718 0-7.492187 3.355468-7.492187 7.496093v23.058594c0 4.140625 3.355469 7.496094 7.492187 7.496094h305.964844c4.140625 0 7.496094-3.355469 7.496094-7.496094v-82.320313h47.234375c4.136719 0 7.496093-3.359374 7.496093-7.496093v-68.074219c13.703126-3.371094 23.898438-15.753906 23.898438-30.484375 0-14.726563-10.195312-27.113281-23.898438-30.480469v-49.601562h22.234376c10.601562 0 19.226562-8.625 19.226562-19.226563v-189.636719c0-10.601562-8.625-19.226562-19.226562-19.226562zm-101.304688 19.226562c0-2.296874 1.9375-4.234374 4.234375-4.234374h97.070313c2.296874 0 4.238281 1.9375 4.238281 4.234374v10.640626h-105.542969zm105.542969 25.632813v138.371094h-105.542969v-138.371094zm-289.503907 168.238281c-2.296874 0-4.234374-1.9375-4.234374-4.234375v-10.640625h105.539062v10.640625c0 2.296875-1.9375 4.234375-4.234375 4.234375zm-4.234374-29.867187v-138.371094h105.539062v138.371094zm0-164.003907c0-2.296874 1.9375-4.234374 4.234374-4.234374h97.070313c2.296875 0 4.234375 1.9375 4.234375 4.234374v10.640626h-105.539062zm-184.046876-4.238281h97.070313c2.296875 0 4.234375 1.941407 4.234375 4.238281v10.640626h-105.542969v-10.640626c0-2.296874 1.941407-4.238281 4.238281-4.238281zm-4.238281 193.875v-10.640625h105.542969v10.640625c0 2.296875-1.9375 4.234375-4.234375 4.234375h-97.070313c-2.296874 0-4.238281-1.9375-4.238281-4.234375zm16.226563 99.308594c0-9.042969 7.359375-16.402344 16.40625-16.402344 9.042968 0 16.402344 7.359375 16.402344 16.402344 0 9.046875-7.359376 16.40625-16.402344 16.40625-9.046875 0-16.40625-7.359375-16.40625-16.40625zm23.902344 30.484375c13.703124-3.371094 23.898437-15.753906 23.898437-30.484375 0-14.726563-10.195313-27.113281-23.898437-30.480469v-49.601562h61.179687c10.601563 0 19.226563-8.625 19.226563-19.226563v-38.40625h52.757812v38.40625c0 10.601563 8.625 19.226563 19.226562 19.226563h40.328126v81.421875h-145.488282c-4.136718 0-7.492187 3.355469-7.492187 7.496093v82.226563h-39.738281zm345.703124 60.625h-290.976562v-74.78125h290.976562zm78.625-91.109375c0 9.046875-7.359374 16.40625-16.402343 16.40625-9.046875 0-16.40625-7.359375-16.40625-16.40625 0-9.042969 7.359375-16.402344 16.40625-16.402344 9.042969 0 16.402343 7.359375 16.402343 16.402344zm-23.898437-30.480469c-13.703125 3.367188-23.898437 15.753906-23.898437 30.480469s10.195312 27.113281 23.898437 30.484375v60.578125h-39.738281v-82.230469c0-4.136718-3.355469-7.492187-7.492188-7.492187h-145.488281v-81.421875h41.75c10.601563 0 19.226563-8.625 19.226563-19.226563v-38.410156h52.671874v38.410156c0 10.601563 8.625 19.226563 19.226563 19.226563h59.84375zm41.464844-68.828125c0 2.296875-1.941407 4.234375-4.238281 4.234375h-97.070313c-2.296875 0-4.234375-1.9375-4.234375-4.234375v-10.640625h105.542969zm0 0"/><path d="m138.78125 388.90625h19.480469c9.089843 0 16.488281-7.398438 16.488281-16.488281v-19.480469c0-9.09375-7.398438-16.488281-16.488281-16.488281h-19.480469c-9.09375 0-16.492188 7.394531-16.492188 16.488281v19.480469c0 9.089843 7.398438 16.488281 16.492188 16.488281zm-1.5-35.96875c0-.8125.6875-1.5 1.5-1.5h19.480469c.8125 0 1.496093.6875 1.496093 1.5v19.480469c0 .8125-.683593 1.5-1.496093 1.5h-19.480469c-.8125 0-1.5-.6875-1.5-1.5zm0 0"/><path d="m209.976562 388.90625h19.480469c9.09375 0 16.488281-7.398438 16.488281-16.488281v-19.480469c0-9.09375-7.394531-16.488281-16.488281-16.488281h-19.480469c-9.089843 0-16.488281 7.394531-16.488281 16.488281v19.480469c0 9.089843 7.398438 16.488281 16.488281 16.488281zm-1.496093-35.96875c0-.8125.683593-1.5 1.496093-1.5h19.480469c.8125 0 1.5.6875 1.5 1.5v19.480469c0 .8125-.6875 1.5-1.5 1.5h-19.480469c-.8125 0-1.496093-.6875-1.496093-1.5zm0 0"/><path d="m281.175781 388.90625h19.480469c9.09375 0 16.488281-7.398438 16.488281-16.488281v-19.480469c0-9.09375-7.394531-16.488281-16.488281-16.488281h-19.480469c-9.089843 0-16.488281 7.394531-16.488281 16.488281v19.480469c0 9.089843 7.398438 16.488281 16.488281 16.488281zm-1.496093-35.96875c0-.8125.683593-1.5 1.496093-1.5h19.480469c.8125 0 1.5.6875 1.5 1.5v19.480469c0 .8125-.6875 1.5-1.5 1.5h-19.480469c-.8125 0-1.496093-.6875-1.496093-1.5zm0 0"/><path d="m352.375 388.90625h19.480469c9.089843 0 16.488281-7.398438 16.488281-16.488281v-19.480469c0-9.09375-7.398438-16.488281-16.488281-16.488281h-19.480469c-9.09375 0-16.488281 7.394531-16.488281 16.488281v19.480469c0 9.089843 7.394531 16.488281 16.488281 16.488281zm-1.5-35.96875c0-.8125.6875-1.5 1.5-1.5h19.480469c.8125 0 1.5.6875 1.5 1.5v19.480469c0 .8125-.6875 1.5-1.5 1.5h-19.480469c-.8125 0-1.5-.6875-1.5-1.5zm0 0"/><path d="m158.261719 478.390625c9.089843 0 16.488281-7.398437 16.488281-16.488281v-19.480469c0-9.09375-7.398438-16.488281-16.488281-16.488281h-19.480469c-9.09375 0-16.492188 7.394531-16.492188 16.488281v19.480469c0 9.089844 7.398438 16.488281 16.492188 16.488281zm-20.980469-16.488281v-19.480469c0-.8125.6875-1.5 1.5-1.5h19.480469c.8125 0 1.496093.6875 1.496093 1.5v19.480469c0 .8125-.683593 1.5-1.496093 1.5h-19.480469c-.8125 0-1.5-.6875-1.5-1.5zm0 0"/><path d="m229.457031 478.390625c9.09375 0 16.488281-7.398437 16.488281-16.488281v-19.480469c0-9.09375-7.394531-16.488281-16.488281-16.488281h-19.480469c-9.089843 0-16.488281 7.394531-16.488281 16.488281v19.480469c0 9.089844 7.398438 16.488281 16.488281 16.488281zm-20.976562-16.488281v-19.480469c0-.8125.683593-1.5 1.496093-1.5h19.480469c.8125 0 1.5.6875 1.5 1.5v19.480469c0 .8125-.6875 1.5-1.5 1.5h-19.480469c-.8125 0-1.496093-.6875-1.496093-1.5zm0 0"/><path d="m300.65625 478.390625c9.09375 0 16.488281-7.398437 16.488281-16.488281v-19.480469c0-9.09375-7.394531-16.488281-16.488281-16.488281h-19.480469c-9.09375 0-16.488281 7.394531-16.488281 16.488281v19.480469c0 9.089844 7.394531 16.488281 16.488281 16.488281zm-20.976562-16.488281v-19.480469c0-.8125.683593-1.5 1.496093-1.5h19.480469c.8125 0 1.5.6875 1.5 1.5v19.480469c0 .8125-.6875 1.5-1.5 1.5h-19.480469c-.8125 0-1.496093-.6875-1.496093-1.5zm0 0"/><path d="m371.855469 478.390625c9.089843 0 16.488281-7.398437 16.488281-16.488281v-19.480469c0-9.09375-7.398438-16.488281-16.488281-16.488281h-19.480469c-9.09375 0-16.488281 7.394531-16.488281 16.488281v19.480469c0 9.089844 7.394531 16.488281 16.488281 16.488281zm-20.980469-16.488281v-19.480469c0-.8125.6875-1.5 1.5-1.5h19.480469c.8125 0 1.5.6875 1.5 1.5v19.480469c0 .8125-.6875 1.5-1.5 1.5h-19.480469c-.8125 0-1.5-.6875-1.5-1.5zm0 0"/></svg>