<svg height="512pt" viewBox="0 -6 512 511" width="512pt" xmlns="http://www.w3.org/2000/svg"><path d="m319.132812 492.269531h-214.898437c-14.285156 0-25.96875-11.683593-25.96875-25.96875v-419.832031c0-14.285156 11.683594-25.96875 25.96875-25.96875h214.898437c14.285157 0 25.972657 11.6875 25.972657 25.96875v419.832031c0 14.285157-11.6875 25.96875-25.972657 25.96875zm0 0" fill="#fff4f1"/><path d="m319.132812 20.5h-25.085937c14.28125 0 25.96875 11.683594 25.96875 25.96875v419.832031c0 14.28125-11.6875 25.96875-25.96875 25.96875h25.085937c14.285157 0 25.972657-11.6875 25.972657-25.96875v-419.832031c0-14.285156-11.6875-25.96875-25.972657-25.96875zm0 0" fill="#ecedef"/><path d="m78.261719 426.148438v40.152343c0 14.285157 11.6875 25.96875 25.972656 25.96875h214.898437c14.285157 0 25.972657-11.683593 25.972657-25.96875v-40.152343zm0 0" fill="#d0cfd1"/><path d="m345.105469 466.300781v-40.152343h-25.089844v40.152343c0 14.285157-11.6875 25.96875-25.96875 25.96875h25.089844c14.28125 0 25.96875-11.683593 25.96875-25.96875zm0 0" fill="#9c9b9d"/><path d="m345.105469 86.621094v-40.152344c0-14.285156-11.6875-25.96875-25.96875-25.96875h-214.902344c-14.285156 0-25.96875 11.6875-25.96875 25.96875v40.152344zm0 0" fill="#d0cfd1"/><path d="m294.046875 20.5c14.28125 0 25.96875 11.683594 25.96875 25.96875v40.152344h25.089844v-40.152344c0-14.285156-11.6875-25.96875-25.972657-25.96875zm0 0" fill="#9c9b9d"/><path d="m495.441406 349.835938h-275.917968c-4.964844 0-9.03125-4.0625-9.03125-9.03125v-169.601563c0-4.96875 4.066406-9.035156 9.03125-9.035156h275.917968c4.96875 0 9.03125 4.066406 9.03125 9.035156v169.601563c0 4.96875-4.0625 9.03125-9.03125 9.03125zm0 0" fill="#4890e3"/><path d="m495.441406 162.167969h-24.085937c4.96875 0 9.03125 4.066406 9.03125 9.035156v169.601563c0 4.96875-4.0625 9.03125-9.03125 9.03125h24.085937c4.96875 0 9.03125-4.0625 9.03125-9.03125v-169.601563c0-4.96875-4.0625-9.035156-9.03125-9.035156zm0 0" fill="#2970d6"/><path d="m435.980469 224.066406c0 15.507813-12.574219 28.082032-28.082031 28.082032-15.511719 0-28.085938-12.574219-28.085938-28.082032 0-15.511718 12.574219-28.085937 28.085938-28.085937 15.507812 0 28.082031 12.574219 28.082031 28.085937zm0 0" fill="#f9cd45"/><path d="m473.027344 224.066406c0 15.507813-12.574219 28.082032-28.085938 28.082032-15.507812 0-28.082031-12.574219-28.082031-28.082032 0-15.511718 12.574219-28.085937 28.082031-28.085937 15.511719 0 28.085938 12.574219 28.085938 28.085937zm0 0" fill="#f9e075"/><path d="m320.484375 250.121094h-65.808594c-4.96875 0-9.03125-4.0625-9.03125-9.03125v-34.050782c0-4.964843 4.0625-9.03125 9.03125-9.03125h65.808594c4.96875 0 9.035156 4.066407 9.035156 9.03125v34.050782c0 4.96875-4.066406 9.03125-9.035156 9.03125zm0 0" fill="#fb900d"/><path d="m468.082031 309.582031h-218.402343c-4.96875 0-9.035157-4.0625-9.035157-9.03125v-11.242187c0-4.964844 4.066407-9.03125 9.035157-9.03125h218.402343c4.964844 0 9.03125 4.066406 9.03125 9.03125v11.242187c0 4.96875-4.066406 9.03125-9.03125 9.03125zm0 0" fill="#91bcee"/><path d="m139.75 74.140625c0 36.511719-29.597656 66.109375-66.109375 66.109375-36.515625 0-66.113281-29.597656-66.113281-66.109375 0-36.515625 29.597656-66.113281 66.113281-66.113281 36.511719 0 66.109375 29.597656 66.109375 66.113281zm0 0" fill="#00bf9e"/><path d="m73.640625 8.027344c-4.292969 0-8.484375.421875-12.546875 1.203125 30.511719 5.863281 53.566406 32.6875 53.566406 64.910156 0 32.21875-23.054687 59.042969-53.566406 64.90625 4.0625.78125 8.253906 1.203125 12.546875 1.203125 36.511719 0 66.109375-29.597656 66.109375-66.109375 0-36.515625-29.597656-66.113281-66.109375-66.113281zm0 0" fill="#00a983"/><path d="m495.441406 154.644531h-142.808594v-108.175781c0-1.15625-.058593-2.296875-.175781-3.421875-1.71875-16.867187-16.007812-30.074219-33.320312-30.074219h-204.546875c-11.714844-7.871094-25.804688-12.472656-40.949219-12.472656-40.605469 0-73.640625 33.035156-73.640625 73.640625 0 39.628906 31.472656 72.03125 70.738281 73.5625v70.210937c0 4.15625 3.367188 7.527344 7.523438 7.527344 4.160156 0 7.527343-3.371094 7.527343-7.527344v-71.15625c28.214844-4.707031 51.035157-25.503906 58.703126-52.609374h193.085937v60.492187h-118.054687c-.507813 0-1.007813.027344-1.503907.074219v-25.933594h-15.054687v255.027344h15.054687v-26.519532c.496094.046876.996094.074219 1.503907.074219h118.054687v61.257813h-251.789063v-168.5c0-4.15625-3.367187-7.527344-7.527343-7.527344-4.15625 0-7.523438 3.371094-7.523438 7.527344v216.179687c0 18.46875 15.023438 33.496094 33.496094 33.496094h214.902344c17.3125 0 31.601562-13.207031 33.320312-30.074219.117188-1.125.175781-2.265625.175781-3.421875v-108.9375h45.5c4.15625 0 7.523438-3.371093 7.523438-7.527343s-3.367188-7.527344-7.523438-7.527344h-178.609374c-.8125 0-1.503907-.6875-1.503907-1.503906v-169.605469c0-.8125.691407-1.503907 1.503907-1.503907h275.917968c.816406 0 1.503906.691407 1.503906 1.503907v169.605469c0 .816406-.6875 1.503906-1.503906 1.503906h-64.367187c-4.15625 0-7.527344 3.371094-7.527344 7.527344s3.371094 7.527343 7.527344 7.527343h64.367187c9.132813 0 16.558594-7.429687 16.558594-16.558593v-169.605469c0-9.128907-7.429688-16.554688-16.558594-16.554688zm-421.800781-21.921875c-32.304687 0-58.585937-26.28125-58.585937-58.582031 0-32.304687 26.28125-58.585937 58.585937-58.585937 32.300781 0 58.582031 26.28125 58.582031 58.585937 0 32.300781-26.28125 58.582031-58.582031 58.582031zm73.449219-53.628906c.109375-1.640625.1875-3.289062.1875-4.953125 0-17.445313-6.109375-33.484375-16.285156-46.117187h188.140624c8.898438 0 16.347657 6.335937 18.070313 14.730468.246094 1.199219.375 2.441406.375 3.714844v32.625zm-42.855469 405.652344c-10.171875 0-18.445313-8.273438-18.445313-18.445313v-32.625h251.789063v32.625c0 1.273438-.128906 2.515625-.375 3.714844-1.722656 8.394531-9.171875 14.730469-18.070313 14.730469zm0 0"/><path d="m426.410156 254.460938c5.402344 3.304687 11.746094 5.214843 18.53125 5.214843 19.636719 0 35.609375-15.976562 35.609375-35.609375 0-19.636718-15.972656-35.609375-35.609375-35.609375-6.785156 0-13.128906 1.90625-18.535156 5.214844-5.398438-3.304687-11.730469-5.214844-18.507812-5.214844-19.636719 0-35.609376 15.972657-35.609376 35.609375 0 19.632813 15.972657 35.609375 35.609376 35.609375 6.777343 0 13.113281-1.914062 18.511718-5.214843zm39.089844-30.394532c0 11.332032-9.222656 20.554688-20.558594 20.554688-11.332031 0-20.554687-9.222656-20.554687-20.554688 0-11.335937 9.222656-20.558594 20.554687-20.558594 11.335938 0 20.558594 9.222657 20.558594 20.558594zm-78.160156 0c0-11.335937 9.222656-20.558594 20.558594-20.558594 2.503906 0 4.902343.457032 7.125 1.285157-3.59375 5.558593-5.691407 12.171875-5.691407 19.273437 0 7.097656 2.097657 13.714844 5.691407 19.273438-2.222657.824218-4.621094 1.28125-7.125 1.28125-11.335938 0-20.558594-9.222656-20.558594-20.554688zm0 0"/><path d="m320.484375 257.648438c9.132813 0 16.5625-7.429688 16.5625-16.558594v-34.050782c0-9.128906-7.429687-16.558593-16.5625-16.558593h-65.808594c-9.132812 0-16.558593 7.429687-16.558593 16.558593v34.050782c0 9.128906 7.425781 16.558594 16.558593 16.558594zm-67.3125-16.558594v-34.050782c0-.816406.6875-1.503906 1.503906-1.503906h65.808594c.816406 0 1.507813.6875 1.507813 1.503906v34.050782c0 .816406-.691407 1.503906-1.507813 1.503906h-65.808594c-.816406 0-1.503906-.6875-1.503906-1.503906zm0 0"/><path d="m233.121094 289.308594v11.242187c0 9.128907 7.425781 16.558594 16.558594 16.558594h218.398437c9.132813 0 16.5625-7.429687 16.5625-16.558594v-11.242187c0-9.128906-7.429687-16.558594-16.5625-16.558594h-218.398437c-9.132813 0-16.558594 7.429688-16.558594 16.558594zm15.050781 0c0-.816406.691406-1.503906 1.507813-1.503906h218.398437c.816406 0 1.507813.6875 1.507813 1.503906v11.242187c0 .816407-.691407 1.503907-1.507813 1.503907h-218.398437c-.816407 0-1.507813-.6875-1.507813-1.503907zm0 0"/><path d="m89.921875 53.769531-22.257813 24.105469-9.972656-12.417969c-2.605468-3.242187-7.339844-3.761719-10.582031-1.15625-3.242187 2.601563-3.757813 7.339844-1.15625 10.582031l15.441406 19.230469c1.371094 1.707031 3.421875 2.734375 5.609375 2.808594.085938.003906.175782.007813.261719.007813 2.097656 0 4.101563-.878907 5.527344-2.421876l28.191406-30.527343c2.820313-3.050781 2.628906-7.816407-.425781-10.632813-3.050782-2.820312-7.816406-2.632812-10.636719.421875zm0 0"/></svg>