<svg height="512pt" viewBox="0 -14 512 512" width="512pt" xmlns="http://www.w3.org/2000/svg"><path d="m285.671875 92.242188c0 16.386718-13.285156 29.671874-29.671875 29.671874s-29.671875-13.285156-29.671875-29.671874c0-16.386719 13.285156-29.671876 29.671875-29.671876s29.671875 13.285157 29.671875 29.671876zm0 0" fill="#91bcee"/><path d="m256 62.570312c-4.46875 0-8.699219.992188-12.5 2.761719 10.140625 4.71875 17.171875 14.988281 17.171875 26.910157 0 11.917968-7.03125 22.191406-17.171875 26.910156 3.800781 1.769531 8.03125 2.761718 12.5 2.761718 16.386719 0 29.671875-13.285156 29.671875-29.671874 0-16.386719-13.285156-29.671876-29.671875-29.671876zm0 0" fill="#4890e3"/><path d="m462.261719 476.089844h-412.523438c-4.949219 0-9-4.050782-9-9v-188.632813c0-4.949219 4.050781-9 9-9h412.523438c4.953125 0 9 4.050781 9 9v188.632813c0 4.949218-4.050781 9-9 9zm0 0" fill="#4890e3"/><path d="m462.261719 269.457031h-24c4.949219 0 9 4.050781 9 9v188.632813c0 4.949218-4.050781 9-9 9h24c4.949219 0 9-4.050782 9-9v-188.632813c0-4.949219-4.050781-9-9-9zm0 0" fill="#2970d6"/><path d="m7.5 304.800781h497v135.941407h-497zm0 0" fill="#646464"/><path d="m479.5 304.800781h25v135.941407h-25zm0 0" fill="#323232"/><g fill="#f9cd45"><path d="m101.757812 343.785156h-59.34375v43.546875h9.992188v14.425781h39.355469v-14.425781h9.996093zm0 0"/><path d="m198.578125 343.785156h-59.339844v43.546875h9.992188v14.425781h39.355469v-14.425781h9.992187zm0 0"/><path d="m295.402344 343.785156h-59.339844v43.546875h9.992188v14.425781h39.355468v-14.425781h9.992188zm0 0"/><path d="m386.554688 372.773438c0 14.960937-12.125 27.085937-27.085938 27.085937s-27.089844-12.125-27.089844-27.085937c0-14.960938 12.128906-27.089844 27.089844-27.089844s27.085938 12.128906 27.085938 27.089844zm0 0"/></g><path d="m386.554688 372.773438c0 14.960937-12.125 27.085937-27.085938 27.085937s-27.089844-12.125-27.089844-27.085937c0-14.960938 12.128906-27.089844 27.089844-27.089844s27.085938 12.128906 27.085938 27.089844zm0 0" fill="#f45a3c"/><path d="m472.9375 372.773438c0 14.960937-12.128906 27.085937-27.089844 27.085937-14.957031 0-27.085937-12.125-27.085937-27.085937 0-14.960938 12.128906-27.089844 27.085937-27.089844 14.960938 0 27.089844 12.128906 27.089844 27.089844zm0 0" fill="#f9cd45"/><path d="m472.9375 372.773438c0 14.960937-12.128906 27.085937-27.089844 27.085937-14.957031 0-27.085937-12.125-27.085937-27.085937 0-14.960938 12.128906-27.089844 27.085937-27.089844 14.960938 0 27.089844 12.128906 27.089844 27.089844zm0 0" fill="#2970d6"/><path d="m504.5 297.300781h-25.738281v-18.84375c0-9.097656-7.402344-16.5-16.5-16.5h-198.761719v-77.777343c47.367188-3.832032 84.742188-43.601563 84.742188-91.9375 0-50.863282-41.378907-92.242188-92.242188-92.242188s-92.242188 41.378906-92.242188 92.242188c0 48.335937 37.375 88.105468 84.742188 91.9375v77.777343h-94.636719c-4.144531 0-7.5 3.355469-7.5 7.5 0 4.140625 3.355469 7.5 7.5 7.5h308.398438c.8125 0 1.5.6875 1.5 1.5v18.84375h-415.523438v-18.84375c0-.8125.6875-1.5 1.5-1.5h74.015625c4.140625 0 7.5-3.359375 7.5-7.5 0-4.144531-3.359375-7.5-7.5-7.5h-74.015625c-9.097656 0-16.5 7.402344-16.5 16.5v18.84375h-25.738281c-4.140625 0-7.5 3.359375-7.5 7.5v135.941407c0 4.144531 3.359375 7.5 7.5 7.5h25.738281v18.847656c0 9.097656 7.402344 16.5 16.5 16.5h412.523438c9.097656 0 16.5-7.402344 16.5-16.5v-18.847656h25.738281c4.140625 0 7.5-3.355469 7.5-7.5v-135.941407c0-4.140625-3.359375-7.5-7.5-7.5zm-248.5-182.886719c-12.226562 0-22.171875-9.945312-22.171875-22.171874 0-12.226563 9.945313-22.171876 22.171875-22.171876s22.171875 9.945313 22.171875 22.171876c0 12.226562-9.945313 22.171874-22.171875 22.171874zm7.5 14.238282c16.914062-3.476563 29.671875-18.480469 29.671875-36.410156 0-20.496094-16.675781-37.171876-37.171875-37.171876s-37.171875 16.675782-37.171875 37.171876c0 17.929687 12.757813 32.933593 29.671875 36.410156v11.3125c-23.085938-3.617188-40.804688-23.636719-40.804688-47.722656 0-26.636719 21.667969-48.304688 48.304688-48.304688s48.304688 21.667969 48.304688 48.304688c0 24.085937-17.71875 44.105468-40.804688 47.722656zm-84.742188-36.410156c0-42.589844 34.648438-77.242188 77.242188-77.242188s77.242188 34.648438 77.242188 77.242188c0 40.0625-30.65625 73.085937-69.742188 76.871093v-14.023437c31.382812-3.726563 55.804688-30.480469 55.804688-62.847656 0-34.90625-28.398438-63.304688-63.304688-63.304688s-63.304688 28.398438-63.304688 63.304688c0 32.367187 24.421876 59.121093 55.804688 62.847656v14.023437c-39.085938-3.785156-69.742188-36.808593-69.742188-76.871093zm318.242188 341h-94.136719c-4.144531 0-7.5 3.359374-7.5 7.5 0 4.144531 3.355469 7.5 7.5 7.5h60.898438v18.847656c0 .8125-.6875 1.5-1.5 1.5h-412.523438c-.8125 0-1.5-.6875-1.5-1.5v-18.847656h324.515625c4.140625 0 7.5-3.355469 7.5-7.5 0-4.140626-3.359375-7.5-7.5-7.5h-357.753906v-120.941407h482zm0 0"/><path d="m42.414062 394.832031h2.492188v6.925781c0 4.140626 3.359375 7.5 7.5 7.5h39.355469c4.140625 0 7.5-3.359374 7.5-7.5v-6.925781h2.496093c4.140626 0 7.5-3.359375 7.5-7.5v-43.546875c0-4.140625-3.359374-7.5-7.5-7.5h-59.34375c-4.144531 0-7.5 3.359375-7.5 7.5v43.546875c0 4.140625 3.355469 7.5 7.5 7.5zm7.5-43.546875h44.34375v28.546875h-2.496093c-4.144531 0-7.5 3.355469-7.5 7.5v6.925781h-24.355469v-6.925781c0-4.144531-3.355469-7.5-7.5-7.5h-2.496094v-28.546875zm0 0"/><path d="m139.238281 394.832031h2.492188v6.925781c0 4.140626 3.359375 7.5 7.5 7.5h39.355469c4.140624 0 7.5-3.359374 7.5-7.5v-6.925781h2.496093c4.140625 0 7.5-3.359375 7.5-7.5v-43.546875c0-4.140625-3.359375-7.5-7.5-7.5h-59.34375c-4.140625 0-7.5 3.359375-7.5 7.5v43.546875c0 4.140625 3.355469 7.5 7.5 7.5zm7.5-43.546875h44.339844v28.546875h-2.492187c-4.144532 0-7.5 3.355469-7.5 7.5v6.925781h-24.355469v-6.925781c0-4.144531-3.359375-7.5-7.5-7.5h-2.496094v-28.546875zm0 0"/><path d="m236.0625 394.832031h2.496094v6.925781c0 4.140626 3.355468 7.5 7.5 7.5h39.351562c4.144532 0 7.5-3.359374 7.5-7.5v-6.925781h2.496094c4.140625 0 7.5-3.359375 7.5-7.5v-43.546875c0-4.140625-3.359375-7.5-7.5-7.5h-59.34375c-4.140625 0-7.5 3.359375-7.5 7.5v43.546875c0 4.140625 3.355469 7.5 7.5 7.5zm7.5-43.546875h44.34375v28.546875h-2.496094c-4.140625 0-7.5 3.355469-7.5 7.5v6.925781h-24.355468v-6.925781c0-4.144531-3.355469-7.5-7.5-7.5h-2.492188zm0 0"/><path d="m359.46875 407.359375c19.070312 0 34.585938-15.515625 34.585938-34.585937 0-19.074219-15.515626-34.589844-34.585938-34.589844s-34.589844 15.515625-34.589844 34.589844c0 19.070312 15.515625 34.585937 34.589844 34.585937zm0-54.175781c10.800781 0 19.585938 8.789062 19.585938 19.589844 0 10.800781-8.785157 19.585937-19.585938 19.585937s-19.589844-8.785156-19.589844-19.585937c0-10.800782 8.789063-19.589844 19.589844-19.589844zm0 0"/><path d="m445.847656 407.359375c19.074219 0 34.589844-15.515625 34.589844-34.585937 0-19.074219-15.515625-34.589844-34.589844-34.589844-19.070312 0-34.585937 15.515625-34.585937 34.589844 0 19.070312 15.515625 34.585937 34.585937 34.585937zm0-54.175781c10.800782 0 19.589844 8.789062 19.589844 19.589844 0 10.800781-8.789062 19.585937-19.589844 19.585937-10.796875 0-19.585937-8.785156-19.585937-19.585937 0-10.800782 8.789062-19.589844 19.585937-19.589844zm0 0"/></svg>