<svg height="512pt" viewBox="0 -1 512.00101 512" width="512pt" xmlns="http://www.w3.org/2000/svg"><path d="m428.085938 449.796875v-126.691406h-52.277344v126.691406h-17.070313l43.207031 52.929687 43.207032-52.929687zm0 0" fill="#4890e3"/><path d="m428.085938 449.796875v-126.691406h-20.125v126.691406l-21.6875 33.730469 15.671874 19.199218 43.207032-52.929687zm0 0" fill="#2970d6"/><path d="m299.605469 302.949219v58.527343c0 14.984376 45.855469 27.132813 102.425781 27.132813 56.566406 0 102.421875-12.148437 102.421875-27.132813v-58.527343zm0 0" fill="#646464"/><path d="m299.605469 244.421875v58.527344c0 14.984375 45.855469 27.128906 102.425781 27.128906 56.566406 0 102.421875-12.144531 102.421875-27.128906v-58.527344zm0 0" fill="#d0cfd1"/><path d="m299.605469 185.894531v58.527344c0 14.984375 45.855469 27.128906 102.425781 27.128906 56.566406 0 102.421875-12.148437 102.421875-27.128906v-58.527344zm0 0" fill="#646464"/><path d="m480.308594 302.949219v58.527343c0 13.902344-39.476563 25.359376-90.351563 26.941407 3.960938.125 7.988281.191406 12.074219.191406 56.566406 0 102.421875-12.148437 102.421875-27.132813v-58.527343zm0 0" fill="#4b4b4b"/><path d="m480.308594 244.421875v58.527344c0 13.902343-39.476563 25.359375-90.351563 26.941406 3.960938.125 7.988281.191406 12.074219.191406 56.566406 0 102.421875-12.148437 102.421875-27.132812v-58.527344zm0 0" fill="#9c9b9d"/><path d="m480.308594 185.894531v58.527344c0 13.902344-39.476563 25.359375-90.351563 26.941406 3.960938.121094 7.988281.1875 12.074219.1875 56.566406 0 102.421875-12.148437 102.421875-27.128906v-58.527344zm0 0" fill="#4b4b4b"/><path d="m504.453125 185.894531c0-14.984375-45.855469-27.132812-102.421875-27.132812-56.570312 0-102.425781 12.148437-102.425781 27.132812 0 14.980469 45.855469 27.128907 102.425781 27.128907 56.566406 0 102.421875-12.148438 102.421875-27.128907zm0 0" fill="#d0cfd1"/><path d="m400.6875 158.761719c-4.03125 0-8 .0625-11.90625.183593 50.957031 1.5625 90.519531 13.03125 90.519531 26.949219 0 13.914063-39.5625 25.382813-90.519531 26.945313 3.90625.121094 7.875.183594 11.90625.183594 56.566406 0 102.421875-12.148438 102.421875-27.128907 0-14.984375-45.855469-27.132812-102.421875-27.132812zm0 0" fill="#9c9b9d"/><path d="m420.699219 86.625c0 10.355469-8.398438 18.75-18.753907 18.75-10.355468 0-18.75-8.394531-18.75-18.75s8.394532-18.753906 18.75-18.753906c10.355469 0 18.753907 8.398437 18.753907 18.753906zm0 0" fill="#f9cd45"/><path d="m83.832031 389.15625v76.382812h52.277344v-76.382812h17.070313l-43.210938-52.933594-43.207031 52.933594zm0 0" fill="#f45a3c"/><path d="m110.976562 336.222656-12.578124 15.40625 16.582031 37.527344-1.007813 76.382812h23.140625v-76.382812h17.070313zm0 0" fill="#e24a2a"/><path d="m128.722656 26.296875c0 10.355469-8.394531 18.75-18.753906 18.75-10.355469 0-18.75-8.394531-18.75-18.75s8.394531-18.753906 18.75-18.753906c10.359375 0 18.753906 8.398437 18.753906 18.753906zm0 0" fill="#f9cd45"/><path d="m7.546875 244.421875v58.527344c0 14.984375 45.855469 27.128906 102.421875 27.128906 56.570312 0 102.425781-12.144531 102.425781-27.128906v-58.527344zm0 0" fill="#646464"/><path d="m7.546875 185.894531v58.527344c0 14.984375 45.855469 27.128906 102.421875 27.128906 56.570312 0 102.425781-12.148437 102.425781-27.128906v-58.527344zm0 0" fill="#d0cfd1"/><path d="m7.546875 127.363281v58.53125c0 14.984375 45.855469 27.128907 102.421875 27.128907 56.570312 0 102.425781-12.148438 102.425781-27.128907v-58.53125zm0 0" fill="#646464"/><path d="m188.246094 244.421875v58.527344c0 13.902343-39.472656 25.359375-90.347656 26.941406 3.957031.125 7.984374.191406 12.070312.191406 56.570312 0 102.425781-12.148437 102.425781-27.132812v-58.527344zm0 0" fill="#4b4b4b"/><path d="m188.246094 185.894531v58.527344c0 13.902344-39.472656 25.359375-90.347656 26.941406 3.957031.125 7.984374.1875 12.070312.1875 56.570312 0 102.425781-12.144531 102.425781-27.128906v-58.527344zm0 0" fill="#9c9b9d"/><path d="m188.246094 127.363281v58.53125c0 13.898438-39.472656 25.359375-90.347656 26.941407 3.957031.121093 7.984374.1875 12.070312.1875 56.570312 0 102.425781-12.148438 102.425781-27.128907v-58.53125zm0 0" fill="#4b4b4b"/><path d="m109.96875 279.097656c-27.992188 0-54.398438-2.914062-74.355469-8.199218-23.632812-6.257813-35.613281-15.167969-35.613281-26.476563 0-4.167969 3.378906-7.546875 7.546875-7.546875s7.546875 3.378906 7.546875 7.546875c.199219 1.234375 5.175781 7.007813 25.796875 12.253906 18.570313 4.726563 43.105469 7.332031 69.078125 7.332031s50.507812-2.605468 69.082031-7.332031c20.621094-5.242187 25.59375-11.019531 25.800781-12.277343 0-4.167969 3.375-7.535157 7.542969-7.535157s7.546875 3.390625 7.546875 7.558594c0 11.3125-11.980468 20.21875-35.613281 26.476563-19.957031 5.289062-46.367187 8.199218-74.359375 8.199218zm0 0"/><path d="m212.394531 127.363281c0-14.980469-45.855469-27.128906-102.425781-27.128906-56.566406 0-102.421875 12.148437-102.421875 27.128906 0 14.984375 45.855469 27.132813 102.421875 27.132813 56.570312 0 102.425781-12.148438 102.425781-27.132813zm0 0" fill="#d0cfd1"/><path d="m108.625 100.234375c-4.027344 0-7.996094.0625-11.90625.183594 50.960938 1.5625 90.523438 13.03125 90.523438 26.945312 0 13.917969-39.5625 25.386719-90.523438 26.949219 3.90625.117188 7.878906.183594 11.90625.183594 56.566406 0 102.425781-12.148438 102.425781-27.132813 0-14.980469-45.859375-27.128906-102.425781-27.128906zm0 0" fill="#9c9b9d"/><path d="m272.246094 55.019531c0 10.355469-8.394532 18.75-18.753906 18.75-10.355469 0-18.75-8.394531-18.75-18.75s8.394531-18.75 18.75-18.75c10.359374 0 18.753906 8.394531 18.753906 18.75zm0 0" fill="#f9cd45"/><path d="m476.386719 159.414062c-18.171875-4.8125-41.699219-7.648437-66.894531-8.121093v-39.480469c10.832031-3.253906 18.75-13.3125 18.75-25.191406 0-14.5-11.796876-26.292969-26.296876-26.292969-9.984374 0-18.683593 5.589844-23.136718 13.808594l-99.050782-20.464844c-.707031-13.875-12.214843-24.949219-26.265624-24.949219-10.320313 0-19.265626 5.980469-23.566407 14.652344l-93.765625-19.371094c-1.167968-13.429687-12.464844-24.003906-26.191406-24.003906-14.5 0-26.292969 11.796875-26.292969 26.296875 0 11.878906 7.914063 21.9375 18.75 25.1875v41.285156c-25.164062.472657-48.660156 3.308594-66.8125 8.117188-23.632812 6.257812-35.613281 15.167969-35.613281 26.476562v175.585938c0 11.3125 11.980469 20.21875 35.613281 26.476562 17.375 4.605469 39.644531 7.40625 63.589844 8.050781l-38.289063 46.90625c-1.839843 2.257813-2.21875 5.375-.96875 8.007813s3.902344 4.308594 6.816407 4.308594h9.523437v68.839843c0 4.167969 3.378906 7.546876 7.546875 7.546876h52.273438c4.167969 0 7.546875-3.378907 7.546875-7.546876v-22.265624c0-4.167969-3.378906-7.546876-7.546875-7.546876-4.164063 0-7.542969 3.378907-7.542969 7.546876v14.722656h-37.183594v-68.839844c0-4.167969-3.378906-7.546875-7.546875-7.546875h-1.171875l27.308594-33.453125 27.308594 33.453125h-1.167969c-4.167969 0-7.546875 3.378906-7.546875 7.546875v22.148438c0 4.167968 3.378906 7.546874 7.546875 7.546874s7.546875-3.378906 7.546875-7.546874v-14.605469h9.523438c2.914062 0 5.566406-1.675781 6.816406-4.308594s.871094-5.75-.972656-8.007813l-38.285157-46.90625c23.945313-.644531 46.210938-3.445312 63.589844-8.050781 23.632813-6.257812 35.613281-15.167969 35.613281-26.476562v-175.585938c0-11.308593-11.980468-20.21875-35.613281-26.476562-18.152344-4.808594-41.648437-7.644531-66.8125-8.117188v-41.285156c6.714844-2.015625 12.308594-6.644531 15.59375-12.703125l94.296875 19.484375c1.605469 12.972656 12.6875 23.050781 26.089844 23.050781 9.640625 0 18.082031-5.21875 22.660156-12.976562l99.601562 20.578125c.945313 10.863281 8.515626 19.851562 18.644532 22.894531v39.484375c-9.898438.1875-19.589844.738281-28.882813 1.65625-4.148437.410156-7.179687 4.105469-6.769531 8.253906.410156 4.144531 4.097656 7.175781 8.25 6.765625 8.8125-.871094 18.003906-1.386718 27.402344-1.574218v16.273437c0 4.164063 3.378906 7.542969 7.546875 7.542969s7.546875-3.378906 7.546875-7.542969v-16.28125c23.179687.449219 44.832031 2.976563 61.617187 7.25 20.617188 5.242187 25.59375 11.015625 25.800781 12.230469-.207031 1.261718-5.1875 7.035156-25.800781 12.28125-18.574219 4.726562-43.109375 7.328125-69.082031 7.328125s-50.503906-2.601563-69.078125-7.328125c-20.59375-5.238282-25.582031-11.003906-25.796875-12.226563v-.011719c.035156-.132812 2.953125-7.230468 30.441406-13.382812 4.066406-.914062 6.625-4.949219 5.714844-9.015625s-4.941406-6.625-9.011719-5.714844c-28.027343 6.277344-42.238281 15.726563-42.238281 28.09375v175.582031c0 11.3125 11.980469 20.222657 35.613281 26.480469 11.648438 3.085938 25.507813 5.355469 40.585938 6.714844v47.578125h-9.523438c-2.914062 0-5.566406 1.679688-6.816406 4.3125s-.871094 5.75.972656 8.007812l43.207031 52.929688c1.433594 1.757812 3.578126 2.773438 5.84375 2.773438 2.269532 0 4.414063-1.015626 5.847657-2.773438l43.207031-52.929688c1.84375-2.257812 2.222656-5.375.972656-8.007812s-3.902344-4.3125-6.816406-4.3125h-9.523438v-47.5625c15.144532-1.359375 29.0625-3.632812 40.753907-6.730469 23.632812-6.257812 35.613281-15.167969 35.613281-26.476562v-175.585938c0-11.3125-11.980469-20.222656-35.613281-26.480469zm-271.539063 26.460938c-.214844 1.269531-5.203125 7.035156-25.796875 12.273438-18.574219 4.726562-43.109375 7.328124-69.082031 7.328124s-50.507812-2.601562-69.078125-7.328124c-20.621094-5.246094-25.597656-11.019532-25.796875-12.253907v-39.59375c5.402344 2.832031 12.242188 5.351563 20.519531 7.542969 19.957031 5.285156 46.363281 8.199219 74.355469 8.199219s54.398438-2.914063 74.359375-8.199219c8.273437-2.191406 15.117187-4.710938 20.519531-7.542969zm-25.796875 129.332031c-18.574219 4.722657-43.109375 7.328125-69.082031 7.328125s-50.507812-2.605468-69.078125-7.328125c-20.621094-5.246093-25.597656-11.023437-25.796875-12.257812v-98.117188c5.402344 2.828125 12.242188 5.347657 20.519531 7.539063 19.957031 5.285156 46.363281 8.199218 74.355469 8.199218s54.398438-2.914062 74.359375-8.199218c8.273437-2.191406 15.117187-4.710938 20.519531-7.539063v98.097657c-.214844 1.269531-5.203125 7.035156-25.796875 12.277343zm0-200.097656c20.496094 5.214844 25.535157 10.949219 25.792969 12.257813-.257812 1.304687-5.296875 7.039062-25.792969 12.253906-18.574219 4.726562-43.109375 7.328125-69.082031 7.328125s-50.507812-2.601563-69.078125-7.328125c-20.59375-5.238282-25.582031-11.003906-25.796875-12.226563v-.011719c.214844-1.269531 5.203125-7.035156 25.796875-12.273437 16.761719-4.265625 38.386719-6.792969 61.535156-7.246094v14.480469c0 4.167969 3.378907 7.546875 7.542969 7.546875 4.167969 0 7.546875-3.378906 7.546875-7.546875v-14.480469c23.148437.453125 44.773437 2.980469 61.535156 7.246094zm-69.082031-77.609375c-6.175781 0-11.203125-5.027344-11.203125-11.203125 0-6.179687 5.027344-11.207031 11.203125-11.207031 6.179688 0 11.207031 5.027344 11.207031 11.207031s-5.027343 11.203125-11.207031 11.203125zm143.523438 28.722656c-6.175782 0-11.203126-5.027344-11.203126-11.203125 0-6.179687 5.027344-11.207031 11.203126-11.207031 6.179687 0 11.207031 5.027344 11.207031 11.207031 0 6.179688-5.027344 11.203125-11.207031 11.203125zm137.25 20.402344c0-6.179688 5.027343-11.207031 11.203124-11.207031 6.175782 0 11.207032 5.027343 11.207032 11.207031 0 6.175781-5.027344 11.203125-11.207032 11.203125-6.175781 0-11.203124-5.027344-11.203124-11.203125zm106.164062 216.308594c-.214844 1.269531-5.203125 7.035156-25.796875 12.273437-18.574219 4.722657-43.105469 7.328125-69.078125 7.328125s-50.507812-2.605468-69.082031-7.328125c-20.621094-5.246093-25.59375-11.023437-25.800781-12.257812v-39.59375c5.40625 2.832031 12.246093 5.351562 20.523437 7.542969 19.957031 5.285156 46.363281 8.199218 74.355469 8.199218 27.992187 0 54.402344-2.914062 74.359375-8.199218 8.273437-2.191407 15.117187-4.710938 20.519531-7.542969zm-169.234375-90.5625c19.957031 5.285156 46.367187 8.199218 74.359375 8.199218s54.398438-2.914062 74.355469-8.199218c8.277343-2.191406 15.117187-4.710938 20.519531-7.539063v39.570313c-.214844 1.269531-5.203125 7.035156-25.796875 12.273437-18.570313 4.726563-43.105469 7.332031-69.078125 7.332031s-50.507812-2.605468-69.082031-7.332031c-20.621094-5.242187-25.59375-11.019531-25.796875-12.253906v-39.589844c5.402344 2.828125 12.246094 5.347657 20.519531 7.539063zm100.414063 244.972656h1.167968l-27.308594 33.453125-27.308593-33.453125h1.171875c4.164062 0 7.542968-3.378906 7.542968-7.546875v-54.089844c6.109376.292969 12.351563.449219 18.679688.449219 6.269531 0 12.449219-.15625 18.507812-.441406v54.082031c0 4.167969 3.378907 7.546875 7.546876 7.546875zm43.023437-83.609375c-18.574219 4.726563-43.105469 7.328125-69.078125 7.328125s-50.507812-2.601562-69.082031-7.328125c-20.621094-5.246094-25.59375-11.019531-25.800781-12.257813v-39.589843c5.40625 2.828125 12.246093 5.347656 20.523437 7.539062 19.957031 5.289063 46.363281 8.199219 74.355469 8.199219 27.992187 0 54.402344-2.910156 74.359375-8.199219 8.273437-2.191406 15.117187-4.710937 20.519531-7.539062v39.574219c-.214844 1.269531-5.203125 7.035156-25.796875 12.273437zm0 0"/></svg>