<svg height="512pt" viewBox="-79 0 512 512" width="512pt" xmlns="http://www.w3.org/2000/svg"><path d="m322.96875 504.429688h-229.855469c-12.875 0-23.40625-10.53125-23.40625-23.40625v-378.371094c0-12.871094 10.53125-23.40625 23.40625-23.40625h229.855469c12.871094 0 23.40625 10.535156 23.40625 23.40625v378.371094c-.003906 12.875-10.535156 23.40625-23.40625 23.40625zm0 0" fill="#fff4f1"/><path d="m322.96875 79.246094h-25.238281c12.875 0 23.40625 10.535156 23.40625 23.40625v378.371094c0 12.875-10.53125 23.40625-23.40625 23.40625h25.238281c12.871094 0 23.402344-10.53125 23.402344-23.40625v-378.371094c0-12.871094-10.53125-23.40625-23.402344-23.40625zm0 0" fill="#ecedef"/><path d="m69.707031 444.835938v36.1875c0 12.875 10.53125 23.40625 23.40625 23.40625h229.855469c12.871094 0 23.40625-10.53125 23.40625-23.40625v-36.1875zm0 0" fill="#d0cfd1"/><path d="m346.371094 481.023438v-36.1875h-25.234375v36.1875c0 12.875-10.53125 23.40625-23.40625 23.40625h25.238281c12.871094 0 23.402344-10.53125 23.402344-23.40625zm0 0" fill="#9c9b9d"/><path d="m163.253906 233.976562c0 19.21875-19.21875 32.304688-19.21875 32.304688s-19.21875-13.085938-19.21875-32.304688c0-10.613281 8.605469-19.21875 19.21875-19.21875 10.613282 0 19.21875 8.605469 19.21875 19.21875zm0 0" fill="#f45a3c"/><path d="m291.261719 371.320312c0 19.21875-19.21875 32.304688-19.21875 32.304688s-19.21875-13.085938-19.21875-32.304688c0-10.613281 8.605469-19.21875 19.21875-19.21875s19.21875 8.605469 19.21875 19.21875zm0 0" fill="#f45a3c"/><path d="m140.5625 74.066406c0 36.726563-29.769531 66.496094-66.496094 66.496094-36.722656 0-66.496094-29.769531-66.496094-66.496094 0-36.722656 29.773438-66.496094 66.496094-66.496094 36.726563 0 66.496094 29.773438 66.496094 66.496094zm0 0" fill="#00bf9e"/><path d="m74.066406 7.570312c-4.316406 0-8.53125.425782-12.617187 1.210938 30.6875 5.898438 53.878906 32.878906 53.878906 65.285156 0 32.410156-23.191406 59.390625-53.878906 65.289063 4.085937.785156 8.300781 1.210937 12.617187 1.210937 36.726563 0 66.496094-29.773437 66.496094-66.496094 0-36.726562-29.769531-66.5-66.496094-66.5zm0 0" fill="#00a983"/><path d="m240.042969 198.855469c-21.820313 0-39.574219 17.753906-39.574219 39.574219v139.644531c0 13.472656-10.960938 24.429687-24.433594 24.429687-13.46875 0-24.429687-10.957031-24.429687-24.429687v-108.089844c6.277343-5.253906 19.21875-18.238281 19.21875-36.007813 0-14.773437-12.019531-26.789062-26.789063-26.789062-14.769531 0-26.789062 12.015625-26.789062 26.789062 0 17.769532 12.941406 30.753907 19.21875 36.007813v108.089844c0 21.820312 17.75 39.570312 39.570312 39.570312 21.824219 0 39.574219-17.75 39.574219-39.570312v-139.644531c0-13.472657 10.960937-24.429688 24.433594-24.429688 13.46875 0 24.429687 10.957031 24.429687 24.429688v107.199218c-11.09375 3.273438-19.21875 13.550782-19.21875 25.691406 0 22.957032 21.605469 37.9375 22.527344 38.5625 1.285156.875 2.773438 1.3125 4.261719 1.3125s2.976562-.4375 4.261719-1.3125c.917968-.625 22.527343-15.605468 22.527343-38.5625 0-12.140624-8.125-22.417968-19.21875-25.691406v-107.199218c0-21.820313-17.753906-39.574219-39.570312-39.574219zm-96.007813 23.472656c6.421875 0 11.648438 5.222656 11.648438 11.648437 0 9.863282-6.925782 18.050782-11.640625 22.480469-4.710938-4.441406-11.65625-12.65625-11.65625-22.480469 0-6.421874 5.226562-11.648437 11.648437-11.648437zm139.65625 148.992187c0 9.867188-6.933594 18.0625-11.648437 22.488282-4.71875-4.433594-11.648438-12.621094-11.648438-22.488282 0-6.421874 5.226563-11.648437 11.648438-11.648437s11.648437 5.226563 11.648437 11.648437zm0 0"/><path d="m263.03125 177.28125c4.183594 0 7.570312-3.390625 7.570312-7.570312 0-36.339844-29.5625-65.90625-65.902343-65.90625-36.339844 0-65.902344 29.566406-65.902344 65.90625 0 4.179687 3.390625 7.570312 7.570313 7.570312 4.179687 0 7.570312-3.390625 7.570312-7.570312 0-27.992188 22.773438-50.761719 50.761719-50.761719 27.992187 0 50.761719 22.769531 50.761719 50.761719 0 4.179687 3.390624 7.570312 7.570312 7.570312zm0 0"/><path d="m204.699219 129.457031c-20.089844 0-36.4375 16.347657-36.4375 36.4375 0 4.183594 3.390625 7.570313 7.570312 7.570313 4.183594 0 7.570313-3.386719 7.570313-7.570313 0-11.742187 9.554687-21.292969 21.296875-21.292969 11.742187 0 21.296875 9.550782 21.296875 21.292969 0 4.183594 3.386718 7.570313 7.570312 7.570313 4.179688 0 7.570313-3.386719 7.570313-7.570313 0-20.089843-16.347657-36.4375-36.4375-36.4375zm0 0"/><path d="m62.136719 362.773438c0 4.179687 3.386719 7.570312 7.570312 7.570312 4.179688 0 7.570313-3.390625 7.570313-7.570312v-214.71875c35.050781-1.503907 63.851562-27.480469 69.734375-61.238282h116.019531c4.183594 0 7.570312-3.386718 7.570312-7.570312 0-4.179688-3.386718-7.570313-7.570312-7.570313h-114.957031c-1.269531-39.734375-33.96875-71.675781-74.007813-71.675781-40.839844 0-74.066406 33.226562-74.066406 74.066406 0 36.78125 26.949219 67.367188 62.136719 73.09375zm-46.996094-288.707032c0-32.492187 26.433594-58.925781 58.925781-58.925781 32.492188 0 58.925782 26.433594 58.925782 58.925781 0 32.492188-26.433594 58.925782-58.925782 58.925782-32.492187 0-58.925781-26.433594-58.925781-58.925782zm0 0"/><path d="m322.96875 71.675781h-21.878906c-4.179688 0-7.570313 3.390625-7.570313 7.570313 0 4.183594 3.390625 7.570312 7.570313 7.570312h21.878906c8.730469 0 15.835938 7.105469 15.835938 15.835938v334.613281h-261.527344v-44.578125c0-4.183594-3.390625-7.570312-7.570313-7.570312-4.183593 0-7.570312 3.386718-7.570312 7.570312v88.335938c0 17.082031 13.894531 30.976562 30.976562 30.976562h229.855469c17.082031 0 30.976562-13.894531 30.976562-30.976562v-378.371094c0-17.082032-13.898437-30.976563-30.976562-30.976563zm15.832031 409.347657c0 8.730468-7.101562 15.835937-15.832031 15.835937h-229.855469c-8.734375 0-15.835937-7.105469-15.835937-15.835937v-28.617188h261.523437zm0 0"/><path d="m101.144531 53.152344c-3.070312-2.835938-7.859375-2.644532-10.695312.425781l-22.390625 24.246094-10.03125-12.488281c-2.617188-3.261719-7.382813-3.785157-10.644532-1.164063-3.257812 2.617187-3.78125 7.382813-1.160156 10.644531l15.53125 19.34375c1.378906 1.71875 3.4375 2.75 5.640625 2.824219.089844.003906.175781.003906.261719.003906 2.109375 0 4.125-.878906 5.5625-2.433593l28.351562-30.703126c2.835938-3.070312 2.648438-7.859374-.425781-10.699218zm0 0"/></svg>