<svg height="512pt" viewBox="-22 0 512 512" width="512pt" xmlns="http://www.w3.org/2000/svg"><path d="m413.957031 504.425781h-383.636719c-12.511718 0-22.746093-10.234375-22.746093-22.746093v-302.179688c0-12.507812 10.234375-22.746094 22.746093-22.746094h383.636719c12.507813 0 22.746094 10.238282 22.746094 22.746094v302.179688c0 12.511718-10.238281 22.746093-22.746094 22.746093zm0 0" fill="#d0cfd1"/><path d="m413.957031 156.753906h-26.253906c12.511719 0 22.746094 10.238282 22.746094 22.746094v302.179688c0 12.511718-10.234375 22.75-22.746094 22.75h26.253906c12.507813 0 22.746094-10.238282 22.746094-22.75v-302.179688c0-12.507812-10.238281-22.746094-22.746094-22.746094zm0 0" fill="#9c9b9d"/><path d="m7.574219 443.839844v37.839844c0 12.511718 10.234375 22.746093 22.746093 22.746093h383.636719c12.507813 0 22.746094-10.234375 22.746094-22.746093v-37.839844zm0 0" fill="#646464"/><path d="m430.054688 497.710938c4.105468-4.121094 6.648437-9.792969 6.648437-16.03125v-37.835938h-26.253906v37.835938c0 12.511718-10.234375 22.75-22.746094 22.75h26.253906c2.476563 0 4.863281-.410157 7.105469-1.152344.382812-.125.765625-.265625 1.140625-.414063 1.917969-.75 3.714844-1.75 5.339844-2.96875.878906-.65625 1.707031-1.375 2.480469-2.148437.007812-.011719.019531-.027344.03125-.035156zm0 0" fill="#4b4b4b"/><path d="m441.636719 273.90625h-66.324219c-10.355469 0-18.824219-8.46875-18.824219-18.824219v-228.6875c0-10.351562 8.46875-18.820312 18.824219-18.820312h66.324219c10.351562 0 18.824219 8.46875 18.824219 18.820312v228.691407c0 10.351562-8.472657 18.820312-18.824219 18.820312zm0 0" fill="#646464"/><path d="m441.636719 7.574219h-25.242188c10.351563 0 18.820313 8.46875 18.820313 18.820312v228.691407c0 10.351562-8.46875 18.820312-18.820313 18.820312h25.242188c10.351562 0 18.824219-8.46875 18.824219-18.820312v-228.691407c0-10.351562-8.472657-18.820312-18.824219-18.820312zm0 0" fill="#4b4b4b"/><path d="m408.472656 84.851562c-7.886718 0-14.335937-6.453124-14.335937-14.339843v-25.300781c0-7.886719 6.453125-14.339844 14.335937-14.339844 7.890625 0 14.339844 6.453125 14.339844 14.339844v25.300781c0 7.890625-6.449219 14.339843-14.339844 14.339843zm0 0" fill="#d0cfd1"/><path d="m408.472656 159.375c-7.886718 0-14.335937-6.453125-14.335937-14.339844v-25.300781c0-7.886719 6.453125-14.339844 14.335937-14.339844 7.890625 0 14.339844 6.453125 14.339844 14.339844v25.300781c0 7.886719-6.449219 14.339844-14.339844 14.339844zm0 0" fill="#d0cfd1"/><path d="m439.246094 220.15625c0 16.996094-13.777344 30.773438-30.773438 30.773438-16.992187 0-30.769531-13.777344-30.769531-30.773438 0-16.992188 13.777344-30.769531 30.769531-30.769531 16.996094 0 30.773438 13.777343 30.773438 30.769531zm0 0" fill="#f45a3c"/><path d="m408.472656 189.386719c-4.300781 0-8.394531.886719-12.113281 2.480469 10.96875 4.707031 18.652344 15.597656 18.652344 28.289062s-7.683594 23.585938-18.652344 28.289062c3.71875 1.597657 7.8125 2.484376 12.113281 2.484376 16.996094 0 30.773438-13.777344 30.773438-30.773438 0-16.992188-13.777344-30.769531-30.773438-30.769531zm0 0" fill="#e24a2a"/><path d="m441.636719 0h-66.324219c-14.554688 0-26.398438 11.839844-26.398438 26.394531v24.441407c0 4.179687 3.390626 7.570312 7.574219 7.570312 4.183594 0 7.574219-3.390625 7.574219-7.570312v-24.441407c0-6.203125 5.046875-11.25 11.25-11.25h66.324219c6.203125 0 11.25 5.046875 11.25 11.25v228.691407c0 6.199218-5.046875 11.246093-11.25 11.246093h-66.324219c-6.203125 0-11.25-5.046875-11.25-11.246093v-173.660157c0-4.183593-3.390625-7.574219-7.574219-7.574219-4.183593 0-7.574219 3.390626-7.574219 7.574219v67.753907h-318.59375c-16.71875 0-30.320312 13.601562-30.320312 30.320312v193.628906c0 4.179688 3.390625 7.570313 7.574219 7.570313 4.183593 0 7.570312-3.390625 7.570312-7.570313v-193.628906c0-8.363281 6.808594-15.171875 15.175781-15.171875h318.59375v90.757813c0 14.550781 11.84375 26.394531 26.398438 26.394531h53.816406v154.789062h-413.984375v-32.742187c0-4.179688-3.386719-7.570313-7.570312-7.570313-4.183594 0-7.574219 3.390625-7.574219 7.570313v78.152344c0 14.628906 10.414062 26.871093 24.21875 29.703124 1.96875.40625 4.011719.617188 6.101562.617188h383.636719c2.089844 0 4.128907-.210938 6.101563-.617188 13.804687-2.832031 24.214844-15.074218 24.214844-29.703124v-200.332032c13.324218-1.328125 23.757812-12.601562 23.757812-26.265625v-228.6875c0-14.554687-11.839844-26.394531-26.394531-26.394531zm-27.679688 496.855469h-383.636719c-8.367187 0-15.175781-6.808594-15.175781-15.175781v-30.265626h413.984375v30.265626c0 8.367187-6.804687 15.175781-15.171875 15.175781zm0 0"/><path d="m408.472656 92.425781c12.085938 0 21.914063-9.828125 21.914063-21.914062v-25.304688c0-12.082031-9.828125-21.910156-21.914063-21.910156-12.082031 0-21.910156 9.828125-21.910156 21.910156v25.304688c0 12.085937 9.828125 21.914062 21.910156 21.914062zm-6.765625-47.21875c0-3.730469 3.035157-6.765625 6.765625-6.765625 3.734375 0 6.769532 3.035156 6.769532 6.765625v25.304688c0 3.734375-3.035157 6.769531-6.769532 6.769531-3.730468 0-6.765625-3.035156-6.765625-6.769531zm0 0"/><path d="m386.5625 145.035156c0 12.082032 9.828125 21.914063 21.910156 21.914063 12.085938 0 21.914063-9.832031 21.914063-21.914063v-25.300781c0-12.082031-9.828125-21.914063-21.914063-21.914063-12.082031 0-21.910156 9.828126-21.910156 21.914063zm15.144531-25.300781c0-3.734375 3.035157-6.769531 6.765625-6.769531 3.734375 0 6.769532 3.035156 6.769532 6.769531v25.300781c0 3.734375-3.035157 6.769532-6.769532 6.769532-3.730468 0-6.765625-3.035157-6.765625-6.769532zm0 0"/><path d="m370.128906 220.15625c0 21.144531 17.203125 38.347656 38.34375 38.347656 21.144532 0 38.34375-17.203125 38.34375-38.347656 0-21.140625-17.199218-38.34375-38.34375-38.34375-21.140625 0-38.34375 17.203125-38.34375 38.34375zm38.34375-23.195312c12.792969 0 23.199219 10.40625 23.199219 23.195312 0 12.792969-10.40625 23.199219-23.199219 23.199219-12.789062 0-23.195312-10.40625-23.195312-23.199219 0-12.789062 10.40625-23.195312 23.195312-23.195312zm0 0"/><path d="m189.582031 348.042969c4.3125 0 8.621094-1.769531 8.621094-5.304688v-60.027343h15.257813c3.316406 0 5.195312-3.648438 5.195312-7.847657 0-3.648437-1.546875-7.628906-5.195312-7.628906h-47.757813c-3.648437 0-5.195313 3.980469-5.195313 7.628906 0 4.199219 1.878907 7.847657 5.195313 7.847657h15.253906v60.027343c.003907 3.535157 4.3125 5.304688 8.625 5.304688zm0 0"/><path d="m252.152344 348.707031c5.085937 0 10.058594-1.878906 11.273437-5.75l20.5625-67.433593c.113281-.441407.222657-.882813.222657-1.214844 0-4.089844-6.300782-7.078125-11.054688-7.078125-2.761719 0-4.976562.886719-5.636719 3.207031l-15.367187 56.710938-15.476563-56.710938c-.664062-2.320312-2.875-3.207031-5.636719-3.207031-4.753906 0-11.054687 2.988281-11.054687 7.078125 0 .332031.109375.773437.21875 1.214844l20.675781 67.433593c1.214844 3.871094 6.1875 5.75 11.273438 5.75zm0 0"/><g fill="#18191b"><path d="m280.488281 127.476562c-4.183593 0-7.574219-3.390624-7.574219-7.574218 0-28-22.777343-50.777344-50.773437-50.777344-28 0-50.777344 22.777344-50.777344 50.777344 0 4.183594-3.390625 7.574218-7.574219 7.574218-4.183593 0-7.574218-3.390624-7.574218-7.574218 0-36.351563 29.574218-65.921875 65.925781-65.921875 36.347656 0 65.921875 29.570312 65.921875 65.921875 0 4.183594-3.390625 7.574218-7.574219 7.574218zm0 0"/><path d="m251.015625 123.660156c-4.183594 0-7.574219-3.390625-7.574219-7.574218 0-11.746094-9.554687-21.300782-21.300781-21.300782-11.75 0-21.304687 9.554688-21.304687 21.300782 0 4.183593-3.390626 7.574218-7.574219 7.574218-4.183594 0-7.574219-3.390625-7.574219-7.574218 0-20.097657 16.351562-36.445313 36.453125-36.445313 20.09375 0 36.445313 16.347656 36.445313 36.445313 0 4.183593-3.390626 7.574218-7.570313 7.574218zm0 0"/></g></svg>