<svg height="512pt" viewBox="0 -31 512.001 512" width="512pt" xmlns="http://www.w3.org/2000/svg"><path d="m483.035156 419.28125c.007813-.3125.023438-.621094.023438-.933594v-270.875c0-20.421875-16.707032-37.132812-37.128906-37.132812h-379.859376c-20.421874 0-37.128906 16.710937-37.128906 37.132812v270.875c0 .3125.015625.621094.023438.933594zm0 0" fill="#d0cfd1"/><path d="m445.929688 110.339844h-24.984376c20.421876 0 37.128907 16.710937 37.128907 37.132812v270.875c0 .3125-.015625.621094-.023438.933594h24.984375c.007813-.3125.023438-.621094.023438-.933594v-270.875c0-20.421875-16.707032-37.132812-37.128906-37.132812zm0 0" fill="#9c9b9d"/><path d="m451.136719 419.28125c.058593-.304688.097656-.617188.097656-.933594v-270.875c0-2.828125-2.480469-5.304687-5.304687-5.304687h-379.859376c-2.824218 0-5.304687 2.476562-5.304687 5.304687v270.875c0 .316406.039063.628906.097656.933594zm0 0" fill="#4890e3"/><path d="m445.929688 142.167969h-24.984376c2.824219 0 5.304688 2.476562 5.304688 5.304687v270.875c0 .316406-.035156.628906-.097656.933594h24.984375c.058593-.304688.097656-.617188.097656-.933594v-270.875c0-2.828125-2.480469-5.304687-5.304687-5.304687zm0 0" fill="#2970d6"/><path d="m283.984375 221.703125c0-.078125.003906-.15625.003906-.238281 0-15.390625-12.476562-27.867188-27.867187-27.867188s-27.867188 12.476563-27.867188 27.867188c0 .082031.003906.160156.007813.238281zm0 0" fill="#f45a3c"/><path d="m256.25 328.726562c-25.535156 0-46.429688-20.890624-46.429688-46.429687v-43.246094c0-9.332031 7.636719-16.964843 16.964844-16.964843h58.925782c9.332031 0 16.96875 7.632812 16.96875 16.964843v43.246094c0 25.539063-20.894532 46.429687-46.429688 46.429687zm0 0" fill="#f45a3c"/><path d="m285.710938 222.085938h-23.984376c9.332032 0 16.96875 7.632812 16.96875 16.964843v43.246094c0 21.394531-14.667968 39.519531-34.4375 44.84375 3.832032 1.03125 7.847657 1.589844 11.992188 1.589844 25.535156 0 46.429688-20.894531 46.429688-46.429688v-43.25c0-9.332031-7.636719-16.964843-16.96875-16.964843zm0 0" fill="#e24a2a"/><path d="m314.082031 72.742188c-4.140625 0-7.492187-3.355469-7.492187-7.496094 0-27.710938-22.546875-50.253906-50.257813-50.253906-27.710937 0-50.253906 22.542968-50.253906 50.253906 0 4.140625-3.355469 7.496094-7.496094 7.496094s-7.496093-3.355469-7.496093-7.496094c0-35.976563 29.269531-65.246094 65.246093-65.246094 35.976563 0 65.246094 29.269531 65.246094 65.246094 0 4.140625-3.355469 7.496094-7.496094 7.496094zm0 0" fill="#18191b"/><path d="m284.910156 68.964844c-4.140625 0-7.492187-3.355469-7.492187-7.496094 0-11.625-9.460938-21.082031-21.085938-21.082031s-21.082031 9.457031-21.082031 21.082031c0 4.140625-3.355469 7.496094-7.496094 7.496094s-7.496094-3.355469-7.496094-7.496094c0-19.890625 16.183594-36.070312 36.074219-36.070312s36.074219 16.179687 36.074219 36.070312c0 4.140625-3.355469 7.496094-7.496094 7.496094zm0 0" fill="#18191b"/><path d="m315.128906 390.59375-10.15625 7.324219h-97.269531l-10.15625-7.324219h-190.050781v16.21875c0 19.523438 15.972656 35.496094 35.492187 35.496094h426.023438c19.519531 0 35.492187-15.972656 35.492187-35.496094v-16.21875zm0 0" fill="#d0cfd1"/><path d="m207.703125 397.917969-10.15625-7.324219h-24.984375l10.15625 7.324219zm0 0" fill="#9c9b9d"/><path d="m479.519531 390.59375v16.21875c0 19.523438-15.972656 35.496094-35.492187 35.496094h24.984375c19.519531 0 35.492187-15.972656 35.492187-35.496094v-16.21875zm0 0" fill="#9c9b9d"/><path d="m190.410156 294.347656c-2.042968 0-3.996094.835938-5.410156 2.308594l-23.550781 24.574219c-2.863281 2.992187-2.765625 7.734375.226562 10.597656 1.453125 1.394531 3.320313 2.085937 5.183594 2.085937 1.972656 0 3.9375-.773437 5.414063-2.3125l21.308593-22.234374 16.136719.132812c9.371094 15.972656 26.714844 26.722656 46.53125 26.722656 19.820312 0 37.164062-10.753906 46.535156-26.726562l15.632813-.128906 21.308593 22.234374c1.476563 1.539063 3.441407 2.3125 5.414063 2.3125 1.863281 0 3.734375-.691406 5.183594-2.085937 2.988281-2.863281 3.089843-7.605469.226562-10.597656l-23.550781-24.574219c-1.414062-1.472656-3.367188-2.308594-5.410156-2.308594-.023438 0-.042969 0-.0625 0l-12.75.109375c.902344-3.910156 1.398437-7.976562 1.398437-12.160156v-5.246094l8.242188-.070312 21.308593 22.238281c1.476563 1.535156 3.441407 2.308594 5.414063 2.308594 1.863281 0 3.734375-.691406 5.183594-2.082032 2.988281-2.867187 3.089843-7.609374.226562-10.597656l-23.550781-24.574218c-1.414062-1.476563-3.367188-2.308594-5.410156-2.308594-.023438 0-.042969 0-.0625 0l-11.351563.09375v-17.394532l8.242188-.070312 21.3125 22.238281c1.472656 1.539063 3.441406 2.3125 5.410156 2.3125 1.867187 0 3.734375-.691406 5.1875-2.085937 2.988281-2.863282 3.089844-7.609375.222656-10.597656l-23.550781-24.574219c-1.414062-1.472657-3.367188-2.308594-5.410156-2.308594-.019532 0-.042969 0-.0625 0l-13.21875.113281c-3.035156-7.304687-9.515625-12.828125-17.398438-14.539062-2.988281-16.496094-17.445312-29.046875-34.789062-29.046875-17.363282 0-31.832032 12.582031-34.796875 29.109375-7.765625 1.777344-14.132813 7.257812-17.132813 14.480468l-13.714844-.117187c-2.042968-.035156-4.046874.816406-5.476562 2.308594l-23.550781 24.574219c-2.863281 2.988281-2.761719 7.734374.226562 10.597656 1.453125 1.390625 3.320313 2.082031 5.183594 2.082031 1.972656 0 3.941406-.773437 5.414063-2.308594l21.3125-22.238281 8.738281.074219v17.394531l-11.847657-.101562c-2.042968-.050782-4.046874.820312-5.476562 2.308593l-23.550781 24.574219c-2.863281 2.992188-2.761719 7.734375.226562 10.597656 1.453125 1.394532 3.320313 2.085938 5.183594 2.085938 1.972656 0 3.941406-.773438 5.414063-2.3125l21.3125-22.238282 8.738281.074219v5.246094c0 4.183594.496093 8.25 1.402343 12.160156l-13.25-.109375c-.023437 0-.042968 0-.066406 0zm65.710938-93.253906c8.679687 0 16.105468 5.453125 19.035156 13.113281h-38.070312c2.929687-7.660156 10.359374-13.113281 19.035156-13.113281zm-38.804688 37.957031c0-5.222656 4.25-9.472656 9.46875-9.472656h58.925782c5.226562 0 9.472656 4.25 9.472656 9.472656v43.246094c0 21.46875-17.464844 38.9375-38.933594 38.9375s-38.933594-17.46875-38.933594-38.9375zm0 0"/><path d="m504.503906 383.097656h-13.949218v-235.625c0-24.605468-20.019532-44.625-44.625-44.625h-32.167969c-4.140625 0-7.496094 3.355469-7.496094 7.492188 0 4.140625 3.355469 7.496094 7.496094 7.496094h32.167969c16.339843 0 29.632812 13.296874 29.632812 29.636718v235.625h-16.835938v-235.625c0-6.9375-5.859374-12.800781-12.800781-12.800781h-379.855469c-6.9375 0-12.796874 5.859375-12.796874 12.800781v97.324219c0 4.140625 3.355468 7.496094 7.492187 7.496094 4.140625 0 7.496094-3.355469 7.496094-7.496094v-95.136719h375.476562v233.4375h-128.609375c-1.570312 0-3.105468.496094-4.382812 1.417969l-8.195313 5.90625h-92.425781l-8.195312-5.90625c-1.277344-.921875-2.8125-1.417969-4.382813-1.417969h-129.285156v-101.351562c0-4.140625-3.351563-7.496094-7.492188-7.496094s-7.496093 3.355469-7.496093 7.496094v101.351562h-16.835938v-235.625c0-16.339844 13.292969-29.636718 29.632812-29.636718h317.601563c4.140625 0 7.492187-3.355469 7.492187-7.496094 0-4.136719-3.351562-7.492188-7.492187-7.492188h-317.601563c-24.605468 0-44.625 20.019532-44.625 44.625v235.625h-13.949218c-4.140625 0-7.496094 3.355469-7.496094 7.496094v16.21875c0 23.707031 19.285156 42.988281 42.988281 42.988281h426.023438c23.703125 0 42.988281-19.28125 42.988281-42.988281v-16.21875c0-4.140625-3.355469-7.496094-7.496094-7.496094zm-7.492187 23.714844c0 15.441406-12.5625 28-28 28h-426.023438c-15.4375 0-28-12.558594-28-28v-8.722656h180.136719l8.195312 5.910156c1.273438.917969 2.808594 1.414062 4.382813 1.414062h97.269531c1.574219 0 3.105469-.496093 4.382813-1.414062l8.195312-5.910156h179.460938zm0 0"/></svg>