<svg height="512pt" viewBox="-56 0 512 512" width="512pt" xmlns="http://www.w3.org/2000/svg"><path d="m76.929688 272.746094h-58.5625c-6.007813 0-10.921876-4.914063-10.921876-10.921875v-36.472657c0-6.007812 4.914063-10.921874 10.921876-10.921874h58.5625c6.003906 0 10.917968 4.914062 10.917968 10.921874v36.472657c0 6.007812-4.910156 10.921875-10.917968 10.921875zm0 0" fill="#d0cfd1"/><path d="m383.386719 218.847656h-62.722657c-4.859374 0-8.839843-3.976562-8.839843-8.839844v-20.535156c0-4.863281 3.980469-8.839844 8.839843-8.839844h62.722657c4.863281 0 8.84375 3.976563 8.84375 8.839844v20.535156c0 4.863282-3.980469 8.839844-8.84375 8.839844zm0 0" fill="#d0cfd1"/><path d="m383.386719 317.167969h-62.722657c-4.859374 0-8.839843-3.976563-8.839843-8.839844v-20.535156c0-4.863281 3.980469-8.839844 8.839843-8.839844h62.722657c4.863281 0 8.84375 3.976563 8.84375 8.839844v20.535156c0 4.863281-3.980469 8.839844-8.84375 8.839844zm0 0" fill="#d0cfd1"/><path d="m291.039062 239.257812h-174.554687l19.851563-231.8125h134.851562zm0 0" fill="#4890e3"/><path d="m271.1875 7.445312h-24.820312l19.855468 231.808594h24.816406zm0 0" fill="#2970d6"/><path d="m116.484375 272.746094h174.554687v231.808594h-174.554687zm0 0" fill="#4890e3"/><path d="m266.222656 272.746094h24.816406v231.808594h-24.816406zm0 0" fill="#2970d6"/><path d="m365.339844 245.085938c0 89.234374-72.34375 161.574218-161.578125 161.574218s-161.574219-72.339844-161.574219-161.574218c0-89.238282 72.339844-161.578126 161.574219-161.578126s161.578125 72.339844 161.578125 161.578126zm0 0" fill="#4890e3"/><path d="m203.761719 83.507812c-3.335938 0-6.640625.113282-9.925781.3125 84.609374 5.128907 151.648437 75.363282 151.648437 161.265626 0 85.898437-67.039063 156.132812-151.648437 161.261718 3.285156.199219 6.589843.3125 9.925781.3125 89.238281 0 161.578125-72.339844 161.578125-161.574218 0-89.238282-72.34375-161.578126-161.578125-161.578126zm0 0" fill="#2970d6"/><path d="m333.367188 245.085938c0 71.578124-58.027344 129.601562-129.605469 129.601562s-129.605469-58.023438-129.605469-129.601562c0-71.582032 58.027344-129.605469 129.605469-129.605469s129.605469 58.023437 129.605469 129.605469zm0 0" fill="#fff4f1"/><path d="m203.761719 115.480469c-4.1875 0-8.324219.203125-12.410157.59375 65.757813 6.246093 117.195313 61.617187 117.195313 129.011719 0 67.390624-51.4375 122.761718-117.195313 129.007812 4.085938.390625 8.222657.59375 12.410157.59375 71.578125 0 129.605469-58.023438 129.605469-129.601562 0-71.578126-58.027344-129.605469-129.605469-129.605469zm0 0" fill="#ecedef"/><path d="m184.339844 251.777344c0 10.511718-8.523438 19.035156-19.035156 19.035156-10.515626 0-19.039063-8.523438-19.039063-19.035156 0-10.515625 8.523437-19.039063 19.039063-19.039063 10.511718 0 19.035156 8.523438 19.035156 19.039063zm0 0" fill="#f45a3c"/><path d="m165.304688 232.742188c-2.839844 0-5.523438.636718-7.941407 1.75 6.542969 3.011718 11.09375 9.609374 11.09375 17.285156 0 7.675781-4.550781 14.273437-11.09375 17.285156 2.417969 1.113281 5.101563 1.753906 7.941407 1.753906 10.511718 0 19.035156-8.523437 19.035156-19.039062s-8.523438-19.035156-19.035156-19.035156zm0 0" fill="#e24a2a"/><path d="m261.257812 214.429688c0 10.515624-8.523437 19.039062-19.039062 19.039062-10.511719 0-19.035156-8.523438-19.035156-19.039062 0-10.511719 8.523437-19.035157 19.035156-19.035157 10.515625 0 19.039062 8.523438 19.039062 19.035157zm0 0" fill="#f45a3c"/><path d="m242.21875 195.394531c-3.035156 0-5.890625.726563-8.4375 1.992188 6.277344 3.113281 10.601562 9.5625 10.601562 17.042969 0 7.480468-4.324218 13.933593-10.601562 17.046874 2.546875 1.261719 5.402344 1.992188 8.4375 1.992188 10.515625 0 19.039062-8.523438 19.039062-19.039062 0-10.511719-8.523437-19.035157-19.039062-19.035157zm0 0" fill="#e24a2a"/><path d="m261.257812 290.839844c0 10.511718-8.523437 19.035156-19.039062 19.035156-10.511719 0-19.035156-8.523438-19.035156-19.035156 0-10.515625 8.523437-19.039063 19.035156-19.039063 10.515625 0 19.039062 8.523438 19.039062 19.039063zm0 0" fill="#f45a3c"/><path d="m242.21875 271.800781c-3.035156 0-5.890625.730469-8.4375 1.992188 6.277344 3.113281 10.601562 9.566406 10.601562 17.046875 0 7.480468-4.324218 13.933594-10.601562 17.046875 2.546875 1.261719 5.402344 1.988281 8.4375 1.988281 10.515625 0 19.039062-8.523438 19.039062-19.035156 0-10.515625-8.523437-19.039063-19.039062-19.039063zm0 0" fill="#e24a2a"/><g fill="#18191b"><path d="m399.675781 210.007812v-20.535156c0-8.980468-7.308593-16.285156-16.289062-16.285156h-26.679688c-15.039062-31.863281-39.746093-58.300781-70.320312-75.507812l-7.78125-90.871094c-.332031-3.851563-3.554688-6.808594-7.417969-6.808594h-134.851562c-3.863282 0-7.085938 2.957031-7.417969 6.808594l-2.664063 31.121094c-.351562 4.097656 2.6875 7.703124 6.78125 8.054687 4.101563.347656 7.703125-2.6875 8.054688-6.785156l2.082031-24.308594h121.179687l6.425782 75.039063c-20.558594-8.914063-43.21875-13.867188-67.015625-13.867188-23.800781 0-46.457031 4.953125-67.015625 13.867188l1.78125-20.828126c.351562-4.097656-2.683594-7.703124-6.78125-8.054687-4.101563-.351563-7.703125 2.6875-8.054688 6.785156l-2.558594 29.851563c-40.839843 22.984375-71.226562 62.4375-82.066406 109.300781h-20.699218c-10.128907 0-18.367188 8.238281-18.367188 18.367187v36.472657c0 10.125 8.238281 18.367187 18.367188 18.367187h20.050781c9.199219 43.386719 35.089843 80.679688 70.621093 104.808594v43.703125c0 4.113281 3.332032 7.445313 7.445313 7.445313 4.109375 0 7.445313-3.332032 7.445313-7.445313v-34.675781c23.789062 12.800781 50.976562 20.078125 79.832031 20.078125s56.042969-7.277344 79.832031-20.078125v103.082031h-159.664062v-38.515625c0-4.113281-3.335938-7.449219-7.445313-7.449219-4.113281 0-7.445313 3.335938-7.445313 7.449219v45.960938c0 4.113281 3.332032 7.445312 7.445313 7.445312h174.554687c4.113282 0 7.445313-3.332031 7.445313-7.445312v-116.113282c0-1.074218-.230469-2.089844-.636719-3.011718 22.941406-15.425782 41.90625-36.328126 55.019532-60.816407h30.519531c8.980469 0 16.289062-7.304687 16.289062-16.285156v-20.535156c0-8.980469-7.308593-16.285157-16.289062-16.285157h-12.671875c1.355468-8.613281 2.070312-17.4375 2.070312-26.425781 0-6.347656-.363281-12.617187-1.050781-18.789062h11.652344c8.980469 0 16.289062-7.304688 16.289062-16.285157zm-381.308593 55.289063c-1.886719 0-3.476563-1.589844-3.476563-3.472656v-36.472657c0-1.882812 1.589844-3.476562 3.476563-3.476562h17.972656c-1.046875 7.589844-1.601563 15.335938-1.601563 23.207031 0 6.84375.421875 13.585938 1.214844 20.214844zm185.394531 133.917969c-84.988281 0-154.128907-69.144532-154.128907-154.132813s69.140626-154.128906 154.128907-154.128906c24.667969 0 48 5.835937 68.695312 16.183594 4.765625 2.601562 8.738281 4.589843 8.992188 4.875 45.691406 26.777343 76.441406 76.394531 76.441406 133.070312.003906 84.988281-69.140625 154.132813-154.128906 154.132813zm179.625-112.816406c.757812 0 1.398437.640624 1.398437 1.394531v20.535156c0 .757813-.640625 1.394531-1.398437 1.394531h-23.460938c3.125-7.519531 5.722657-15.308594 7.742188-23.324218zm-20.503907-98.320313h20.503907c.757812 0 1.398437.640625 1.398437 1.394531v20.535156c0 .757813-.640625 1.394532-1.398437 1.394532h-13.976563c-1.625-7.992188-3.816406-15.78125-6.527344-23.324219zm0 0"/><path d="m203.761719 108.035156c-75.570313 0-137.050781 61.476563-137.050781 137.046875 0 75.570313 61.480468 137.050781 137.050781 137.050781 75.570312 0 137.050781-61.480468 137.050781-137.050781 0-75.570312-61.480469-137.046875-137.050781-137.046875zm0 259.207032c-67.359375 0-122.160157-54.800782-122.160157-122.160157s54.800782-122.15625 122.160157-122.15625 122.160156 54.796875 122.160156 122.15625-54.800781 122.160157-122.160156 122.160157zm0 0"/><path d="m242.21875 240.914062c14.601562 0 26.484375-11.882812 26.484375-26.484374 0-14.601563-11.878906-26.480469-26.484375-26.480469-14.601562 0-26.480469 11.878906-26.480469 26.480469 0 1.464843.125 2.902343.355469 4.304687l-33.105469 13.351563c-4.691406-4.21875-10.894531-6.789063-17.683593-6.789063-14.601563 0-26.484376 11.878906-26.484376 26.480469 0 14.601562 11.878907 26.480468 26.484376 26.480468 6.789062 0 12.992187-2.570312 17.683593-6.789062l33.417969 13.480469c-.433594 1.894531-.667969 3.863281-.667969 5.890625 0 14.601562 11.878907 26.480468 26.480469 26.480468s26.484375-11.878906 26.484375-26.480468c0-14.605469-11.882813-26.484375-26.484375-26.484375-7.167969 0-13.671875 2.867187-18.445312 7.507812l-32.882813-13.261719c.582031-2.179687.894531-4.464843.894531-6.824218s-.316406-4.644532-.894531-6.824219l31.6875-12.78125c4.851563 5.363281 11.859375 8.742187 19.640625 8.742187zm-76.914062 22.453126c-6.390626 0-11.59375-5.199219-11.59375-11.589844s5.203124-11.589844 11.59375-11.589844c6.390624 0 11.589843 5.199219 11.589843 11.589844 0 6.394531-5.199219 11.589844-11.589843 11.589844zm76.914062 15.878906c6.390625 0 11.59375 5.203125 11.59375 11.59375s-5.199219 11.589844-11.59375 11.589844c-6.390625 0-11.589844-5.199219-11.589844-11.589844s5.199219-11.59375 11.589844-11.59375zm0-76.40625c6.390625 0 11.59375 5.199218 11.59375 11.589844 0 6.394531-5.199219 11.59375-11.59375 11.59375-6.390625 0-11.589844-5.203126-11.589844-11.59375 0-6.390626 5.199219-11.589844 11.589844-11.589844zm0 0"/><path d="m189.53125 449.039062h25.8125c4.113281 0 7.445312-3.332031 7.445312-7.445312 0-4.109375-3.332031-7.445312-7.445312-7.445312h-25.8125c-4.109375 0-7.445312 3.335937-7.445312 7.445312 0 4.113281 3.335937 7.445312 7.445312 7.445312zm0 0"/><path d="m189.53125 478.820312h25.8125c4.113281 0 7.445312-3.332031 7.445312-7.445312 0-4.109375-3.332031-7.445312-7.445312-7.445312h-25.8125c-4.109375 0-7.445312 3.335937-7.445312 7.445312 0 4.113281 3.335937 7.445312 7.445312 7.445312zm0 0"/></g></svg>