<svg height="511pt" viewBox="-140 0 511 511.99799" width="511pt" xmlns="http://www.w3.org/2000/svg"><path d="m57.90625 98.703125h115.75v86.898437h-115.75zm0 0" fill="#d0cfd1"/><path d="m148.511719 98.703125h25.144531v86.898437h-25.144531zm0 0" fill="#9c9b9d"/><path d="m32.382812 146.339844h166.796876v213.21875h-166.796876zm0 0" fill="#4890e3"/><path d="m174.035156 146.339844h25.144532v213.21875h-25.144532zm0 0" fill="#2970d6"/><path d="m224.082031 396.160156c0 59.808594-48.488281 108.296875-108.300781 108.296875-59.808594 0-108.296875-48.488281-108.296875-108.296875 0-59.8125 48.488281-108.300781 108.296875-108.300781 59.8125 0 108.300781 48.488281 108.300781 108.300781zm0 0" fill="#4890e3"/><path d="m115.78125 287.859375c-4.253906 0-8.445312.253906-12.570312.730469 53.886718 6.234375 95.722656 52.011718 95.722656 107.570312 0 55.554688-41.835938 101.335938-95.722656 107.566406 4.125.476563 8.316406.730469 12.570312.730469 59.8125 0 108.300781-48.488281 108.300781-108.296875 0-59.8125-48.488281-108.300781-108.300781-108.300781zm0 0" fill="#2970d6"/><path d="m158.675781 396.160156c0 23.6875-19.203125 42.890625-42.894531 42.890625-23.6875 0-42.890625-19.203125-42.890625-42.890625 0-23.691406 19.203125-42.894531 42.890625-42.894531 23.691406 0 42.894531 19.203125 42.894531 42.894531zm0 0" fill="#91bcee"/><path d="m116.347656 353.265625c-4.296875 0-8.441406.640625-12.351562 1.8125 17.664062 5.304687 30.539062 21.6875 30.539062 41.082031 0 19.390625-12.875 35.769532-30.539062 41.078125 3.910156 1.171875 8.054687 1.8125 12.351562 1.8125 23.6875 0 42.890625-19.203125 42.890625-42.890625 0-23.691406-19.203125-42.894531-42.890625-42.894531zm0 0" fill="#4890e3"/><g fill="#18191b"><path d="m206.726562 324.484375v-178.144531c0-4.164063-3.378906-7.542969-7.546874-7.542969h-17.980469v-40.09375c0-4.167969-3.375-7.542969-7.542969-7.542969h-115.746094c-4.167968 0-7.546875 3.375-7.546875 7.542969v40.09375h-17.976562c-4.167969 0-7.546875 3.378906-7.546875 7.542969v32.171875c0 4.167969 3.378906 7.542969 7.546875 7.542969 4.164062 0 7.542969-3.375 7.542969-7.542969v-24.625h151.707031v154.789062c-20.335938-17.660156-46.871094-28.359375-75.855469-28.359375-28.765625 0-55.394531 10.53125-75.851562 28.226563v-97.554688c0-4.167969-3.378907-7.546875-7.542969-7.546875-4.167969 0-7.546875 3.378906-7.546875 7.546875v113.324219c-11.441406 14.46875-19.539063 31.816406-23.027344 51.007812-.746094 4.097657 1.972656 8.023438 6.074219 8.769532 4.09375.746094 8.023437-1.972656 8.769531-6.074219 8.699219-47.867187 50.386719-82.613281 99.125-82.613281 55.558594 0 100.753906 45.199218 100.753906 100.757812 0 55.554688-45.195312 100.75-100.753906 100.75-25.113281 0-49.171875-9.292968-67.742188-26.171875-18.445312-16.765625-29.984374-39.589843-32.488281-64.269531-.421875-4.144531-4.105469-7.167969-8.269531-6.746094-4.144531.421875-7.164062 4.125-6.742188 8.269532 2.882813 28.390624 16.148438 54.636718 37.351563 73.910156 21.355469 19.410156 49.015625 30.09375 77.890625 30.09375 63.875 0 115.84375-51.964844 115.84375-115.839844 0-27.035156-9.316406-51.941406-24.898438-71.671875zm-141.273437-218.238281h100.660156v32.550781h-100.660156zm0 0"/><path d="m166.21875 396.160156c0-27.8125-22.625-50.4375-50.4375-50.4375s-50.4375 22.625-50.4375 50.4375c0 27.808594 22.625 50.433594 50.4375 50.433594s50.4375-22.625 50.4375-50.433594zm-85.785156 0c0-19.492187 15.859375-35.351562 35.347656-35.351562 19.492188 0 35.351562 15.859375 35.351562 35.351562 0 19.488282-15.859374 35.347656-35.351562 35.347656-19.488281 0-35.347656-15.859374-35.347656-35.347656zm0 0"/><path d="m101.503906 255.25h28.558594c4.167969 0 7.542969-3.378906 7.542969-7.542969 0-4.167969-3.375-7.546875-7.542969-7.546875h-28.558594c-4.167968 0-7.542968 3.378906-7.542968 7.546875 0 4.164063 3.375 7.542969 7.542968 7.542969zm0 0"/><path d="m101.503906 225.695312h28.558594c4.167969 0 7.542969-3.375 7.542969-7.542968 0-4.164063-3.375-7.542969-7.542969-7.542969h-28.558594c-4.167968 0-7.542968 3.378906-7.542968 7.542969 0 4.167968 3.375 7.542968 7.542968 7.542968zm0 0"/><path d="m101.503906 196.144531h28.558594c4.167969 0 7.542969-3.375 7.542969-7.542969 0-4.167968-3.375-7.542968-7.542969-7.542968h-28.558594c-4.167968 0-7.542968 3.375-7.542968 7.542968 0 4.167969 3.375 7.542969 7.542968 7.542969zm0 0"/><path d="m66.132812 64.738281c4.167969 0 7.542969-3.375 7.542969-7.542969 0-23.21875 18.890625-42.105468 42.105469-42.105468 23.21875 0 42.105469 18.886718 42.105469 42.105468 0 4.167969 3.378906 7.542969 7.546875 7.542969 4.164062 0 7.542968-3.375 7.542968-7.542969 0-31.539062-25.65625-57.195312-57.195312-57.195312-31.535156 0-57.191406 25.65625-57.191406 57.195312 0 4.167969 3.375 7.542969 7.542968 7.542969zm0 0"/><path d="m115.78125 25.859375c-17.707031 0-32.113281 14.40625-32.113281 32.113281 0 4.167969 3.378906 7.542969 7.542969 7.542969 4.167968 0 7.546874-3.375 7.546874-7.542969 0-9.386718 7.636719-17.027344 17.023438-17.027344 9.390625 0 17.027344 7.636719 17.027344 17.027344 0 4.167969 3.378906 7.542969 7.546875 7.542969 4.164062 0 7.542969-3.375 7.542969-7.542969 0-17.707031-14.40625-32.113281-32.117188-32.113281zm0 0"/></g></svg>