<svg height="511pt" viewBox="0 0 511 511.99799" width="511pt" xmlns="http://www.w3.org/2000/svg"><path d="m490.207031 342.039062h-129.390625c-7.1875 0-13.070312-5.882812-13.070312-13.070312v-308.355469c0-7.191406 5.882812-13.074219 13.070312-13.074219h129.390625c7.1875 0 13.070313 5.882813 13.070313 13.074219v308.355469c0 7.1875-5.882813 13.070312-13.070313 13.070312zm0 0" fill="#646464"/><path d="m490.207031 7.539062h-25.136719c7.191407 0 13.070313 5.882813 13.070313 13.074219v308.355469c0 7.1875-5.878906 13.070312-13.070313 13.070312h25.136719c7.1875 0 13.070313-5.882812 13.070313-13.070312v-308.355469c0-7.191406-5.882813-13.074219-13.070313-13.074219zm0 0" fill="#464749"/><path d="m347.746094 163.054688v165.914062c0 7.1875 5.882812 13.070312 13.070312 13.070312h129.390625c7.1875 0 13.070313-5.882812 13.070313-13.070312v-165.914062zm0 0" fill="#464749"/><path d="m478.140625 328.96875c0 7.1875-5.878906 13.070312-13.070313 13.070312h25.136719c7.1875 0 13.070313-5.882812 13.070313-13.070312v-165.914062h-25.136719zm0 0" fill="#323232"/><path d="m101.207031 504.460938c-51.371093 0-93.164062-41.796876-93.164062-93.167969v-77.964844c0-51.371094 41.792969-93.164063 93.164062-93.164063h86.96875c51.371094 0 93.164063 41.792969 93.164063 93.164063v77.964844c0 51.371093-41.792969 93.167969-93.164063 93.167969zm0 0" fill="#d9d9da"/><path d="m188.175781 240.164062h-20.109375c51.371094 0 93.164063 41.792969 93.164063 93.164063v77.964844c0 51.371093-41.792969 93.167969-93.164063 93.167969h20.109375c51.371094 0 93.164063-41.796876 93.164063-93.167969v-77.964844c0-51.371094-41.792969-93.164063-93.164063-93.164063zm0 0" fill="#9c9b9d"/><path d="m188.175781 474.726562h-86.96875c-35.03125 0-63.429687-28.398437-63.429687-63.429687v-77.964844c0-35.03125 28.398437-63.429687 63.429687-63.429687h86.96875c35.03125 0 63.429688 28.398437 63.429688 63.429687v77.964844c0 35.03125-28.398438 63.429687-63.429688 63.429687zm0 0" fill="#646464"/><path d="m188.175781 269.898438h-24.132812c35.03125 0 63.429687 28.402343 63.429687 63.429687v77.964844c0 35.035156-28.398437 63.429687-63.429687 63.429687h24.132812c35.03125 0 63.429688-28.398437 63.429688-63.429687v-77.964844c0-35.027344-28.398438-63.429687-63.429688-63.429687zm0 0" fill="#4b4b4b"/><path d="m438.058594 199.566406h-25.09375c-7.1875 0-13.070313-5.878906-13.070313-13.070312v-70.976563c0-7.1875 5.882813-13.070312 13.070313-13.070312h25.09375c7.1875 0 13.070312 5.882812 13.070312 13.070312v70.976563c0 7.191406-5.882812 13.070312-13.070312 13.070312zm0 0" fill="#464749"/><path d="m414.554688 249.066406c0 9.757813-7.910157 17.664063-17.664063 17.664063-9.757813 0-17.667969-7.90625-17.667969-17.664063 0-9.753906 7.910156-17.664062 17.667969-17.664062 9.753906 0 17.664063 7.910156 17.664063 17.664062zm0 0" fill="#646464"/><path d="m396.890625 274.273438c-13.898437 0-25.207031-11.308594-25.207031-25.207032 0-13.898437 11.308594-25.207031 25.207031-25.207031s25.203125 11.308594 25.203125 25.207031c0 13.898438-11.304688 25.207032-25.203125 25.207032zm0-35.332032c-5.582031 0-10.125 4.542969-10.125 10.125 0 5.582032 4.542969 10.125 10.125 10.125s10.121094-4.542968 10.121094-10.125c0-5.582031-4.539063-10.125-10.121094-10.125zm0 0" fill="#18191b"/><path d="m471.796875 249.066406c0 9.757813-7.90625 17.664063-17.664063 17.664063-9.753906 0-17.664062-7.90625-17.664062-17.664063 0-9.753906 7.910156-17.664062 17.664062-17.664062 9.757813 0 17.664063 7.910156 17.664063 17.664062zm0 0" fill="#646464"/><path d="m454.132812 274.273438c-13.898437 0-25.203124-11.308594-25.203124-25.207032 0-13.898437 11.304687-25.207031 25.203124-25.207031 13.898438 0 25.207032 11.308594 25.207032 25.207031 0 13.898438-11.304688 25.207032-25.207032 25.207032zm0-35.332032c-5.582031 0-10.121093 4.542969-10.121093 10.125 0 5.582032 4.539062 10.125 10.121093 10.125 5.582032 0 10.125-4.542968 10.125-10.125 0-5.582031-4.539062-10.125-10.125-10.125zm0 0" fill="#18191b"/><path d="m414.554688 52.949219c0 9.753906-7.910157 17.664062-17.664063 17.664062-9.757813 0-17.667969-7.910156-17.667969-17.664062 0-9.757813 7.910156-17.664063 17.667969-17.664063 9.753906 0 17.664063 7.90625 17.664063 17.664063zm0 0" fill="#646464"/><path d="m396.890625 78.152344c-13.898437 0-25.207031-11.304688-25.207031-25.203125 0-13.898438 11.308594-25.207031 25.207031-25.207031s25.203125 11.308593 25.203125 25.207031c0 13.898437-11.304688 25.203125-25.203125 25.203125zm0-35.328125c-5.582031 0-10.125 4.542969-10.125 10.125s4.542969 10.125 10.125 10.125 10.121094-4.542969 10.121094-10.125-4.539063-10.125-10.121094-10.125zm0 0" fill="#18191b"/><path d="m471.796875 52.949219c0 9.753906-7.90625 17.664062-17.664063 17.664062-9.753906 0-17.664062-7.910156-17.664062-17.664062 0-9.757813 7.910156-17.664063 17.664062-17.664063 9.757813 0 17.664063 7.90625 17.664063 17.664063zm0 0" fill="#646464"/><path d="m454.132812 78.152344c-13.898437 0-25.203124-11.304688-25.203124-25.203125 0-13.898438 11.304687-25.207031 25.203124-25.207031 13.898438 0 25.207032 11.308593 25.207032 25.207031 0 13.898437-11.304688 25.203125-25.207032 25.203125zm0-35.328125c-5.582031 0-10.121093 4.542969-10.121093 10.125s4.539062 10.125 10.121093 10.125c5.582032 0 10.125-4.542969 10.125-10.125s-4.539062-10.125-10.125-10.125zm0 0" fill="#18191b"/><path d="m414.554688 302.046875c0 9.753906-7.910157 17.664063-17.664063 17.664063-9.757813 0-17.667969-7.910157-17.667969-17.664063 0-9.757813 7.910156-17.664063 17.667969-17.664063 9.753906 0 17.664063 7.90625 17.664063 17.664063zm0 0" fill="#646464"/><path d="m396.890625 327.25c-13.898437 0-25.207031-11.304688-25.207031-25.203125s11.308594-25.207031 25.207031-25.207031 25.203125 11.308594 25.203125 25.207031-11.304688 25.203125-25.203125 25.203125zm0-35.328125c-5.582031 0-10.125 4.542969-10.125 10.125s4.542969 10.121094 10.125 10.121094 10.121094-4.539063 10.121094-10.121094-4.539063-10.125-10.121094-10.125zm0 0" fill="#18191b"/><path d="m471.796875 302.046875c0 9.753906-7.90625 17.664063-17.664063 17.664063-9.753906 0-17.664062-7.910157-17.664062-17.664063 0-9.757813 7.910156-17.664063 17.664062-17.664063 9.757813 0 17.664063 7.90625 17.664063 17.664063zm0 0" fill="#646464"/><path d="m454.132812 327.25c-13.898437 0-25.203124-11.304688-25.203124-25.203125s11.304687-25.207031 25.203124-25.207031c13.898438 0 25.207032 11.308594 25.207032 25.207031s-11.304688 25.203125-25.207032 25.203125zm0-35.328125c-5.582031 0-10.121093 4.542969-10.121093 10.125s4.539062 10.121094 10.121093 10.121094c5.582032 0 10.125-4.539063 10.125-10.121094s-4.539062-10.125-10.125-10.125zm0 0" fill="#18191b"/><path d="m166.367188 168.464844c0 11.078125-8.980469 20.058594-20.0625 20.058594-11.078126 0-20.058594-8.980469-20.058594-20.058594s8.980468-20.0625 20.058594-20.0625c11.082031 0 20.0625 8.984375 20.0625 20.0625zm0 0" fill="#f45a3c"/><path d="m235.972656 72.519531c0 11.078125-8.984375 20.058594-20.0625 20.058594s-20.058594-8.980469-20.058594-20.058594c0-11.082031 8.980469-20.0625 20.058594-20.0625s20.0625 8.980469 20.0625 20.0625zm0 0" fill="#f45a3c"/><path d="m310.976562 168.464844c0 11.078125-8.980468 20.058594-20.058593 20.058594-11.082031 0-20.0625-8.980469-20.0625-20.058594s8.980469-20.0625 20.0625-20.0625c11.078125 0 20.058593 8.984375 20.058593 20.0625zm0 0" fill="#f45a3c"/><g fill="#18191b"><path d="m30.234375 333.328125v36.660156c0 4.167969 3.375 7.542969 7.542969 7.542969 4.164062 0 7.539062-3.375 7.539062-7.542969v-36.660156c0-30.816406 25.074219-55.886719 55.890625-55.886719h86.96875c30.816407 0 55.886719 25.070313 55.886719 55.886719v77.964844c0 30.820312-25.070312 55.890625-55.886719 55.890625h-86.96875c-30.816406 0-55.890625-25.070313-55.890625-55.890625v-8.316407c0-4.164062-3.375-7.539062-7.539062-7.539062-4.167969 0-7.542969 3.375-7.542969 7.539062v8.316407c0 39.132812 31.839844 70.972656 70.972656 70.972656h86.96875c39.132813 0 70.96875-31.839844 70.96875-70.972656v-77.964844c0-39.132813-31.835937-70.96875-70.96875-70.96875h-86.96875c-39.132812 0-70.972656 31.835937-70.972656 70.96875zm0 0"/><path d="m144.691406 292.144531c-4.167968 0-7.542968 3.375-7.542968 7.539063v20.070312c-25.722657 3.671875-45.5625 25.839844-45.5625 52.558594 0 29.285156 23.820312 53.105469 53.105468 53.105469 29.28125 0 53.105469-23.824219 53.105469-53.105469 0-26.71875-19.84375-48.886719-45.566406-52.558594v-20.070312c0-4.164063-3.375-7.539063-7.539063-7.539063zm38.023438 80.167969c0 20.964844-17.058594 38.023438-38.023438 38.023438s-38.023437-17.058594-38.023437-38.023438c0-18.382812 13.117187-33.761719 30.480469-37.269531v26.25c0 4.164062 3.375 7.539062 7.542968 7.539062 4.164063 0 7.539063-3.375 7.539063-7.539062v-26.25c17.367187 3.507812 30.484375 18.886719 30.484375 37.269531zm0 0"/><path d="m490.207031 0h-129.390625c-11.363281 0-20.609375 9.246094-20.609375 20.613281v64.535157c0 4.164062 3.375 7.542968 7.539063 7.542968 4.164062 0 7.539062-3.378906 7.539062-7.542968v-64.535157c0-3.050781 2.484375-5.53125 5.53125-5.53125h129.390625c3.046875 0 5.527344 2.480469 5.527344 5.53125v134.898438h-37.0625v-39.992188c0-11.367187-9.246094-20.613281-20.613281-20.613281h-25.09375c-11.367188 0-20.609375 9.246094-20.609375 20.613281v39.992188h-37.070313v-40.09375c0-4.164063-3.375-7.539063-7.539062-7.539063-4.164063 0-7.539063 3.375-7.539063 7.539063v86.671875c-10.632812-2.644532-20.328125-8.058594-28.246093-15.796875 4.085937-4.8125 6.554687-11.035157 6.554687-17.828125 0-14.507813-11.25-26.429688-25.488281-27.515625-.484375-31.363281-20.5-59.660157-49.628906-70.871094-1.242188-14.078125-13.09375-25.160156-27.488282-25.160156-14.394531 0-26.246094 11.078125-27.488281 25.15625-29.441406 11.324219-49.566406 40.058593-49.652344 71.84375-11.566406 3.289062-20.066406 13.9375-20.066406 26.546875 0 12.601562 8.496094 23.253906 20.058594 26.542968v37.617188h-37.558594c-55.527344 0-100.703125 45.175781-100.703125 100.703125v77.964844c0 55.527343 45.175781 100.703125 100.703125 100.703125h86.96875c55.53125 0 100.707031-45.175782 100.707031-100.703125v-77.964844c0-55.527344-45.179687-100.703125-100.707031-100.703125h-34.328125v-37.617188c11.566406-3.289062 20.0625-13.941406 20.0625-26.542968 0-12.605469-8.496094-23.253906-20.058594-26.546875.085938-24.667969 15.179688-47.050781 37.53125-56.765625 4.59375 8.878906 13.859375 14.964844 24.527344 14.964844 10.660156 0 19.925781-6.078126 24.519531-14.949219 22.410157 9.746093 37.542969 32.230469 37.542969 56.953125 0 .640625.089844 1.257812.238281 1.851562-8.839843 4.605469-14.894531 13.851563-14.894531 24.492188 0 15.21875 12.378906 27.601562 27.601562 27.601562 2.878907 0 5.65625-.445312 8.265626-1.269531 11.085937 11.761719 25.316406 19.664063 41.019531 22.765625v111.402344c0 11.367187 9.246093 20.613281 20.613281 20.613281h129.390625c11.363281 0 20.609375-9.246094 20.609375-20.613281v-308.351563c.003906-11.367187-9.242188-20.613281-20.605469-20.613281zm-302.03125 247.707031c47.210938 0 85.621094 38.410157 85.621094 85.621094v77.964844c0 47.214843-38.410156 85.625-85.621094 85.625h-86.96875c-47.214843 0-85.625-38.410157-85.625-85.625v-77.964844c0-47.210937 38.410157-85.621094 85.625-85.621094zm-29.347656-79.242187c0 6.902344-5.617187 12.519531-12.523437 12.519531-6.902344 0-12.519532-5.617187-12.519532-12.519531s5.617188-12.519532 12.519532-12.519532c6.90625 0 12.523437 5.617188 12.523437 12.519532zm57.082031-83.425782c-6.902344 0-12.519531-5.617187-12.519531-12.519531 0-6.902343 5.617187-12.519531 12.519531-12.519531s12.519532 5.617188 12.519532 12.519531c0 6.902344-5.617188 12.519531-12.519532 12.519531zm75.003906 95.945313c-6.902343 0-12.519531-5.617187-12.519531-12.519531s5.617188-12.519532 12.519531-12.519532c6.90625 0 12.519532 5.617188 12.519532 12.519532s-5.613282 12.519531-12.519532 12.519531zm116.519532-65.464844c0-3.050781 2.484375-5.53125 5.53125-5.53125h25.09375c3.050781 0 5.53125 2.480469 5.53125 5.53125v70.976563c0 3.050781-2.480469 5.53125-5.53125 5.53125h-25.09375c-3.046875 0-5.53125-2.480469-5.53125-5.53125zm88.300781 213.449219c0 3.046875-2.480469 5.527344-5.527344 5.527344h-129.390625c-3.046875 0-5.53125-2.480469-5.53125-5.527344v-158.375h37.070313v15.902344c0 11.363281 9.242187 20.609375 20.609375 20.609375h25.09375c11.367187 0 20.613281-9.246094 20.613281-20.609375v-15.902344h37.0625zm0 0"/></g></svg>