<svg height="511pt" viewBox="-22 1 511 511.999" width="511pt" xmlns="http://www.w3.org/2000/svg"><path d="m22.925781 81.496094c-.019531.859375-.035156 1.722656-.035156 2.585937 0 64.035157 51.914063 115.945313 115.949219 115.945313s115.945312-51.910156 115.945312-115.945313c0-.867187-.011718-1.726562-.03125-2.585937zm0 0" fill="#646464"/><path d="m254.753906 81.496094h-26.125c.019532.859375.03125 1.71875.03125 2.585937 0 59.617188-44.996094 108.71875-102.882812 115.210938 4.289062.480469 8.644531.734375 13.0625.734375 64.035156 0 115.945312-51.910156 115.945312-115.945313 0-.867187-.011718-1.726562-.03125-2.585937zm0 0" fill="#4b4b4b"/><path d="m165.644531 141.714844c0 14.804687-12 26.808594-26.804687 26.808594-14.804688 0-26.804688-12.003907-26.804688-26.808594 0-14.804688 12-26.804688 26.804688-26.804688 14.804687 0 26.804687 12 26.804687 26.804688zm0 0" fill="#d0cfd1"/><path d="m8.035156 7.535156h261.609375v74.285156h-261.609375zm0 0" fill="#d0cfd1"/><path d="m244.523438 7.535156h25.121093v74.285156h-25.121093zm0 0" fill="#9c9b9d"/><path d="m8.035156 7.535156h261.609375v37.144532h-261.609375zm0 0" fill="#f45a3c"/><path d="m244.523438 7.535156h25.121093v37.144532h-25.121093zm0 0" fill="#e24a2a"/><path d="m269.644531 389.296875v-202.945313c0-10.191406 8.335938-18.53125 18.53125-18.53125h153.347657c10.191406 0 18.53125 8.335938 18.53125 18.53125v299.582032c0 10.191406-8.339844 18.53125-18.53125 18.53125h-153.347657c-10.191406 0-18.53125-8.339844-18.53125-18.53125v-64.664063" fill="#fff4f1"/><path d="m441.523438 167.820312h-24.117188c10.191406 0 18.53125 8.339844 18.53125 18.53125v299.582032c0 10.191406-8.335938 18.53125-18.53125 18.53125h24.117188c10.191406 0 18.53125-8.339844 18.53125-18.53125v-299.582032c0-10.191406-8.339844-18.53125-18.53125-18.53125zm0 0" fill="#ecedef"/><path d="m269.644531 457.28125v28.652344c0 10.191406 8.335938 18.53125 18.53125 18.53125h153.347657c10.191406 0 18.53125-8.339844 18.53125-18.53125v-28.652344zm0 0" fill="#4890e3"/><path d="m460.054688 485.933594v-28.652344h-24.117188v28.652344c0 10.191406-8.335938 18.53125-18.53125 18.53125h24.117188c10.191406 0 18.53125-8.339844 18.53125-18.53125zm0 0" fill="#2970d6"/><path d="m460.054688 215.003906v-28.652344c0-10.191406-8.339844-18.53125-18.53125-18.53125h-153.347657c-10.191406 0-18.53125 8.335938-18.53125 18.53125v28.652344zm0 0" fill="#4890e3"/><path d="m441.523438 167.820312h-24.113282c10.191406 0 18.527344 8.339844 18.527344 18.53125v28.652344h24.117188v-28.652344c0-4.523437-1.648438-8.675781-4.363282-11.902343-3.40625-4.042969-8.5-6.628907-14.167968-6.628907zm0 0" fill="#2970d6"/><path d="m441.523438 160.285156h-153.347657c-.449219 0-.894531.007813-1.339843.03125-11.535157.585938-21.117188 8.707032-23.90625 19.527344-.109376.417969-.207032.835938-.292969 1.261719-.171875.84375-.304688 1.707031-.394531 2.582031-.089844.878906-.136719 1.765625-.136719 2.664062v207.40625c0 4.160157 3.375 7.535157 7.539062 7.535157 4.160157 0 7.535157-3.375 7.535157-7.535157v-171.21875h175.339843v227.203126h-175.339843v-19.019532c0-4.160156-3.375-7.535156-7.535157-7.535156-4.164062 0-7.539062 3.375-7.539062 7.535156v55.210938c0 .898437.046875 1.785156.136719 2.660156.089843.875.222656 1.738281.394531 2.585938.089843.421874.183593.84375.292969 1.257812 2.789062 10.820312 12.371093 18.941406 23.90625 19.527344.445312.023437.890624.035156 1.339843.035156h153.347657c14.375 0 26.066406-11.695312 26.066406-26.066406v-299.582032c0-14.375-11.691406-26.066406-26.066406-26.066406zm-164.34375 47.179688v-21.113282c0-4.925781 3.257812-9.109374 7.726562-10.5 1.035156-.324218 2.132812-.496093 3.265625-.496093h153.351563c1.683593 0 3.273437.390625 4.703124 1.070312.269532.128907.535157.265625.792969.417969.390625.226562.765625.476562 1.125.75.402344.308594.792969.628906 1.148438.984375s.679687.746094.984375 1.148437c.269531.359376.523437.730469.75 1.125.148437.257813.285156.523438.414062.792969.679688 1.429688 1.074219 3.019531 1.074219 4.707031v21.113282zm175.339843 278.46875c0 1.136718-.175781 2.230468-.496093 3.265625-1.394532 4.472656-5.574219 7.726562-10.5 7.726562h-153.347657c-6.0625 0-10.996093-4.929687-10.996093-10.992187v-21.117188h175.339843zm0 0"/><path d="m386.109375 336.140625c0-11.179687-9.519531-20.242187-21.261719-20.242187-11.742187 0-21.257812 9.0625-21.257812 20.242187s9.515625 20.246094 21.257812 20.246094c11.742188 0 21.261719-9.066407 21.261719-20.246094zm0 0" fill="#f45a3c"/><g fill="#18191b"><path d="m269.644531 0h-261.609375c-4.160156 0-7.535156 3.375-7.535156 7.535156v74.285156c0 4.160157 3.375 7.535157 7.535156 7.535157h7.449219c.839844 19.726562 6.382813 39.015625 16.175781 56.085937 1.394532 2.429688 3.933594 3.789063 6.542969 3.789063 1.273437 0 2.5625-.320313 3.742187-1 3.613282-2.070313 4.859376-6.675781 2.789063-10.285157-8.488281-14.792968-13.332031-31.492187-14.164063-48.589843h216.550782c-2.761719 57.339843-50.273438 103.136719-108.28125 103.136719-28.082032 0-54.710938-10.695313-74.984375-30.113282-3.003907-2.878906-7.773438-2.777344-10.652344.230469-2.878906 3.003906-2.777344 7.773437.226563 10.652344 23.089843 22.121093 53.425781 34.304687 85.410156 34.304687 66.320312 0 120.589844-52.558594 123.363281-118.210937h7.441406c4.160157 0 7.535157-3.371094 7.535157-7.535157v-74.285156c0-4.160156-3.375-7.535156-7.535157-7.535156zm-254.074219 15.070312h246.535157v22.070313h-246.535157zm0 59.214844v-22.070312h246.535157v22.070312zm0 0"/><path d="m173.183594 141.71875c0-18.9375-15.40625-34.34375-34.34375-34.34375s-34.34375 15.40625-34.34375 34.34375c0 18.933594 15.40625 34.339844 34.34375 34.339844s34.34375-15.40625 34.34375-34.339844zm-53.613282 0c0-10.628906 8.644532-19.273438 19.269532-19.273438s19.269531 8.644532 19.269531 19.273438c0 10.625-8.644531 19.269531-19.269531 19.269531s-19.269532-8.644531-19.269532-19.269531zm0 0"/><path d="m138.839844 271.976562c-36.429688 0-66.066406 29.636719-66.066406 66.066407 0 4.164062 3.375 7.535156 7.535156 7.535156s7.535156-3.371094 7.535156-7.535156c0-28.117188 22.878906-50.996094 50.996094-50.996094 28.117187 0 50.996094 22.878906 50.996094 50.996094 0 4.164062 3.375 7.535156 7.535156 7.535156s7.535156-3.371094 7.535156-7.535156c0-36.429688-29.636719-66.066407-66.066406-66.066407zm0 0"/><path d="m138.839844 242.039062c-52.128906 0-94.539063 42.410157-94.539063 94.539063 0 4.160156 3.375 7.535156 7.539063 7.535156 4.160156 0 7.535156-3.375 7.535156-7.535156 0-43.816406 35.648438-79.464844 79.464844-79.464844s79.464844 35.648438 79.464844 79.464844c0 4.160156 3.375 7.535156 7.535156 7.535156 4.164062 0 7.539062-3.375 7.539062-7.535156 0-52.128906-42.410156-94.539063-94.539062-94.539063zm0 0"/><path d="m138.839844 301.082031c-18.710938 0-33.933594 15.222657-33.933594 33.933594 0 4.164063 3.371094 7.539063 7.535156 7.539063 4.160156 0 7.535156-3.375 7.535156-7.539063 0-10.402344 8.460938-18.863281 18.863282-18.863281s18.863281 8.460937 18.863281 18.863281c0 4.164063 3.375 7.539063 7.535156 7.539063 4.164063 0 7.535157-3.375 7.535157-7.539063 0-18.710937-15.222657-33.933594-33.933594-33.933594zm0 0"/><path d="m437.542969 331.804688c-1.304688-1.859376-32.5-45.53125-72.695313-45.53125-40.195312 0-71.386718 43.671874-72.695312 45.53125-1.832032 2.601562-1.832032 6.070312 0 8.671874 1.308594 1.859376 32.5 45.53125 72.695312 45.53125 40.195313 0 71.390625-43.671874 72.695313-45.53125 1.832031-2.601562 1.832031-6.070312 0-8.671874zm-72.695313 39.132812c-25.773437 0-48.640625-24.617188-56.996094-34.804688 8.335938-10.195312 31.136719-34.785156 56.996094-34.785156 25.765625 0 48.628906 24.601563 56.992188 34.792969-8.363282 10.195313-31.226563 34.796875-56.992188 34.796875zm0 0"/><path d="m364.847656 308.359375c-15.878906 0-28.792968 12.464844-28.792968 27.78125 0 15.320313 12.914062 27.78125 28.792968 27.78125s28.796875-12.464844 28.796875-27.78125-12.917969-27.78125-28.796875-27.78125zm0 40.492187c-7.566406 0-13.722656-5.703124-13.722656-12.710937 0-7.003906 6.15625-12.707031 13.722656-12.707031s13.726563 5.699218 13.726563 12.707031-6.160157 12.710937-13.726563 12.710937zm0 0"/></g></svg>