<svg height="512pt" viewBox="-13 0 512 512" width="512pt" xmlns="http://www.w3.org/2000/svg"><path d="m407.007812 307.90625 56.011719 196.519531h-137.628906l37.519531-160.050781zm0 0" fill="#4890e3"/><path d="m407.007812 307.90625-20.429687 16.894531 51.195313 179.625h25.246093zm0 0" fill="#2970d6"/><path d="m379.851562 267.332031c0 22.261719-18.046874 40.308594-40.308593 40.308594s-40.308594-18.046875-40.308594-40.308594 18.046875-40.308593 40.308594-40.308593 40.308593 18.046874 40.308593 40.308593zm0 0" fill="#646464"/><path d="m235.683594 342.546875c.617187.929687 1.25 1.851563 1.894531 2.773437 42.121094 59.941407 124.863281 74.390626 184.808594 32.269532 59.945312-42.125 74.394531-124.867188 32.269531-184.8125-.644531-.917969-1.300781-1.824219-1.964844-2.71875zm0 0" fill="#d0cfd1"/><path d="m454.65625 192.777344c-.644531-.917969-1.300781-1.824219-1.964844-2.71875l-17.96875 12.625c34.097656 58.863281 18.117188 135.058594-38.589844 174.90625-19.355468 13.601562-41.085937 21.292968-63.0625 23.472656 30.527344 3.03125 62.246094-4.449219 89.316407-23.472656 59.945312-42.125 74.394531-124.867188 32.269531-184.8125zm0 0" fill="#9c9b9d"/><path d="m181.917969 61.484375c.136719-1.496094.210937-3.011719.210937-4.542969 0-27.265625-22.101562-49.367187-49.367187-49.367187-23.421875 0-43.035157 16.308593-48.097657 38.191406-2.542968-1.460937-5.484374-2.296875-8.625-2.296875-8.25 0-15.148437 5.757812-16.910156 13.472656h-4.128906c-26.082031 0-47.425781 21.339844-47.425781 47.425782 0 26.085937 21.339843 47.429687 47.425781 47.429687h106.730469c26.085937 0 47.429687-21.34375 47.429687-47.429687 0-18.875-11.179687-35.265626-27.242187-42.882813zm0 0" fill="#4890e3"/><path d="m181.917969 61.484375c.136719-1.496094.210937-3.011719.210937-4.542969 0-27.265625-22.101562-49.367187-49.367187-49.367187-4.550781 0-8.957031.621093-13.140625 1.773437 20.894531 5.746094 36.25 24.871094 36.25 47.589844 0 1.535156-.074219 3.046875-.210938 4.542969 16.066406 7.621093 27.242188 24.011719 27.242188 42.886719 0 26.085937-21.339844 47.429687-47.425782 47.429687h26.253907c26.085937 0 47.425781-21.34375 47.425781-47.429687.003906-18.875-11.175781-35.265626-27.238281-42.882813zm0 0" fill="#2970d6"/><g fill="#18191b"><path d="m484.257812 293.171875c6.445313-36.902344-1.867187-74.101563-23.402343-104.746094-.683594-.96875-1.375-1.929687-2.078125-2.875-2.445313-3.304687-7.078125-4.054687-10.4375-1.691406l-73.246094 51.46875c-8.769531-9.734375-21.449219-15.878906-35.550781-15.878906-26.402344 0-47.882813 21.480469-47.882813 47.882812 0 8.179688 2.074219 15.875 5.707032 22.613281l-11.84375 8.324219c-3.421876 2.40625-4.25 7.128907-1.84375 10.550781 2.40625 3.421876 7.128906 4.246094 10.550781 1.84375l156.597656-110.039062c17.445313 26.644531 24.015625 58.414062 18.511719 89.941406-5.75 32.910156-23.96875 61.617188-51.304688 80.828125-55.277344 38.84375-131.414062 26.539063-171.777344-27.019531l25.367188-17.824219c3.421875-2.40625 4.246094-7.128906 1.839844-10.550781-2.402344-3.421875-7.128906-4.25-10.550782-1.84375l-31.585937 22.195312c-3.363281 2.363282-4.226563 6.976563-1.945313 10.398438.652344.980469 1.320313 1.957031 2 2.921875 25.957032 36.941406 66.632813 57.511719 108.585938 59.402344l-21.949219 93.625c-.527343 2.25.003907 4.621093 1.441407 6.433593 1.433593 1.808594 3.621093 2.867188 5.933593 2.867188h137.625c2.375 0 4.613281-1.113281 6.042969-3.011719 1.433594-1.894531 1.890625-4.351562 1.238281-6.636719l-35.523437-124.648437c26.179687-21.296875 43.621094-50.960937 49.480468-84.53125zm-177.449218-25.839844c0-18.050781 14.683594-32.734375 32.734375-32.734375 8.980469 0 17.113281 3.648438 23.03125 9.527344l-52.679688 37.015625c-1.964843-4.199219-3.085937-8.871094-3.085937-13.808594zm28.136718 229.519531 20.617188-87.941406c22.890625-1.503906 45.664062-8.628906 66.15625-21.761718l16.710938 58.628906h-54.859376c-4.179687 0-7.570312 3.390625-7.570312 7.574218 0 4.183594 3.390625 7.574219 7.570312 7.574219h59.175782l10.242187 35.925781zm0 0"/><path d="m241.574219 244.335938c1.621093 0 3.257812-.519532 4.636719-1.589844 3.304687-2.5625 3.90625-7.320313 1.34375-10.625-17.109376-22.0625-13.082032-53.929688 8.980468-71.042969s53.929688-13.082031 71.039063 8.980469c2.5625 3.304687 7.324219 3.90625 10.628906 1.339844 3.304687-2.5625 3.90625-7.320313 1.34375-10.625-10.769531-13.882813-26.300781-22.742188-43.734375-24.945313-17.433594-2.207031-34.675781 2.511719-48.5625 13.28125-28.660156 22.230469-33.894531 63.632813-11.664062 92.292969 1.492187 1.925781 3.730468 2.933594 5.988281 2.933594zm0 0"/><path d="m274.269531 183.949219c8.140625-6.3125 19.898438-4.828125 26.210938 3.3125 2.5625 3.304687 7.320312 3.90625 10.625 1.34375 3.304687-2.566407 3.90625-7.324219 1.34375-10.628907-11.433594-14.738281-32.722657-17.425781-47.460938-5.996093-7.140625 5.535156-11.695312 13.523437-12.828125 22.488281-1.132812 8.964844 1.292969 17.832031 6.828125 24.972656 1.492188 1.925782 3.730469 2.933594 5.992188 2.933594 1.621093 0 3.253906-.519531 4.636719-1.589844 3.304687-2.5625 3.90625-7.324218 1.339843-10.625-3.054687-3.945312-4.394531-8.84375-3.769531-13.792968.625-4.949219 3.140625-9.359376 7.082031-12.417969zm0 0"/><path d="m189.703125 57.058594c0-.039063 0-.078125 0-.117188 0-31.398437-25.546875-56.941406-56.941406-56.941406-23.867188 0-44.648438 14.515625-53.050781 36.167969-1.210938-.183594-2.4375-.273438-3.671876-.273438-9.5625 0-17.984374 5.316407-22.164062 13.484375-29.808594.601563-53.875 25.039063-53.875 54.992188 0 30.328125 24.671875 55 55 55h23.207031c4.179688 0 7.570313-3.390625 7.570313-7.574219s-3.390625-7.574219-7.570313-7.574219h-23.207031c-21.976562 0-39.851562-17.878906-39.851562-39.851562 0-21.976563 17.875-39.855469 39.851562-39.855469h4.128906c3.53125 0 6.59375-2.441406 7.382813-5.886719 1.019531-4.46875 4.9375-7.585937 9.527343-7.585937 1.726563 0 3.359376.433593 4.855469 1.289062 2.078125 1.195313 4.597657 1.332031 6.796875.375 2.195313-.957031 3.808594-2.898437 4.351563-5.234375 4.402343-19.03125 21.148437-32.324218 40.71875-32.324218 23.042969 0 41.792969 18.746093 41.792969 41.792968 0 1.257813-.0625 2.554688-.179688 3.851563-.289062 3.164062 1.425781 6.171875 4.296875 7.53125 13.917969 6.601562 22.914063 20.75 22.914063 36.042969 0 21.976562-17.878907 39.855468-39.855469 39.855468h-53.121094c-4.183594 0-7.574219 3.390625-7.574219 7.574219s3.390625 7.574219 7.574219 7.574219h53.121094c30.328125 0 55-24.675782 55-55.003906.003906-19.394532-10.457031-37.449219-27.027344-47.308594zm0 0"/></g></svg>