<svg height="512pt" viewBox="0 0 512 512" width="512pt" xmlns="http://www.w3.org/2000/svg"><path d="m147.511719 323.429688h-20.179688c-7.1875 0-13.066406-5.878907-13.066406-13.066407v-50.714843c0-7.1875 5.878906-13.070313 13.066406-13.070313h20.179688c7.1875 0 13.066406 5.882813 13.066406 13.070313v50.714843c0 7.1875-5.878906 13.066407-13.066406 13.066407zm0 0" fill="#f8b53c"/><path d="m227.300781 323.429688h-20.179687c-7.1875 0-13.066406-5.878907-13.066406-13.066407v-50.714843c0-7.1875 5.878906-13.070313 13.066406-13.070313h20.179687c7.1875 0 13.066407 5.882813 13.066407 13.070313v50.714843c0 7.1875-5.878907 13.066407-13.066407 13.066407zm0 0" fill="#4890e3"/><path d="m307.089844 323.429688h-20.179688c-7.1875 0-13.066406-5.878907-13.066406-13.066407v-50.714843c0-7.1875 5.878906-13.070313 13.066406-13.070313h20.179688c7.1875 0 13.066406 5.882813 13.066406 13.070313v50.714843c0 7.1875-5.878906 13.066407-13.066406 13.066407zm0 0" fill="#f45a3c"/><path d="m386.878906 323.429688h-20.179687c-7.1875 0-13.066407-5.878907-13.066407-13.066407v-50.714843c0-7.1875 5.878907-13.070313 13.066407-13.070313h20.179687c7.1875 0 13.066406 5.882813 13.066406 13.070313v50.714843c0 7.1875-5.878906 13.066407-13.066406 13.066407zm0 0" fill="#00a983"/><path d="m325 504.460938h-138.390625c-59.824219 0-108.773437-48.949219-108.773437-108.773438v-97.613281c0-7.1875 5.882812-13.066407 13.066406-13.066407h329.804687c7.1875 0 13.066407 5.878907 13.066407 13.066407v97.613281c0 59.824219-48.949219 108.773438-108.773438 108.773438zm0 0" fill="#d0cfd1"/><path d="m420.707031 285.007812h-26.132812c7.1875 0 13.066406 5.878907 13.066406 13.066407v97.613281c0 59.824219-48.949219 108.773438-108.773437 108.773438h26.132812c59.824219 0 108.773438-48.949219 108.773438-108.773438v-97.613281c0-7.1875-5.878907-13.066407-13.066407-13.066407zm0 0" fill="#a2a2a2"/><path d="m161.625 337.539062h188.363281v51.042969h-188.363281zm0 0" fill="#fff4f1"/><g fill="#18191b"><path d="m511.585938 28.914062c-.335938-4.152343-3.976563-7.242187-8.125-6.902343-38.171876 3.113281-73.976563 32.398437-100.820313 82.464843-21.867187 40.785157-35.648437 92.015626-36.316406 134.585938-11.1875.199219-20.234375 9.351562-20.234375 20.585938v17.820312h-18.394532v-17.820312c0-11.363282-9.246093-20.605469-20.605468-20.605469h-2.554688v-231.503907c0-4.164062-3.375-7.539062-7.539062-7.539062-4.164063 0-7.539063 3.375-7.539063 7.539062v231.503907h-2.550781c-11.359375 0-20.605469 9.242187-20.605469 20.605469v17.820312h-18.394531v-17.820312c0-11.363282-9.242188-20.605469-20.605469-20.605469h-2.125v-231.503907c0-4.164062-3.375-7.539062-7.539062-7.539062-4.164063 0-7.539063 3.375-7.539063 7.539062v231.503907h-2.976562c-11.363282 0-20.605469 9.242187-20.605469 20.605469v17.820312h-18.398437v-17.820312c0-11.363282-9.242188-20.605469-20.605469-20.605469h-2.226563c-.671875-42.566407-14.453125-93.785157-36.316406-134.566407-26.839844-50.066406-62.644531-79.351562-100.816406-82.464843-4.15625-.34375-7.789063 2.75-8.1289065 6.902343-.3359375 4.148438 2.7539065 7.785157 6.9023435 8.125 73.109375 5.960938 121.949219 124.203126 123.285157 202.003907h-2.878907c-11.359375 0-20.605469 9.242187-20.605469 20.605469v17.820312h-15.824218c-11.359375 0-20.601563 9.242188-20.601563 20.605469v54.925781c0 4.160156 3.375 7.535156 7.535157 7.535156 4.164062 0 7.539062-3.375 7.539062-7.535156v-54.925781c0-3.050781 2.480469-5.53125 5.527344-5.53125h329.804687c3.046875 0 5.527344 2.480469 5.527344 5.53125v97.613281c0 55.824219-45.414063 101.234375-101.234375 101.234375h-138.390625c-55.820313 0-101.234375-45.410156-101.234375-101.234375v-12.425781c0-4.164063-3.375-7.539063-7.539062-7.539063-4.160157 0-7.535157 3.375-7.535157 7.539063v12.425781c0 64.136719 52.175781 116.3125 116.308594 116.3125h138.390625c64.136719 0 116.3125-52.175781 116.3125-116.3125v-97.613281c0-11.363281-9.242188-20.605469-20.605469-20.605469h-13.222656v-17.820312c0-11.363282-9.242187-20.605469-20.605469-20.605469h-5.476562c1.335937-77.800781 50.175781-196.042969 123.285156-202.003907 4.148438-.339843 7.238281-3.976562 6.898438-8.125zm-230.207032 230.734376c0-3.050782 2.480469-5.527344 5.53125-5.527344h20.179688c3.046875 0 5.527344 2.476562 5.527344 5.527344v17.820312h-31.238282zm-79.785156 0c0-3.050782 2.480469-5.527344 5.527344-5.527344h20.179687c3.050781 0 5.527344 2.476562 5.527344 5.527344v17.820312h-31.234375zm-79.789062 0c0-3.050782 2.480468-5.527344 5.527343-5.527344h20.179688c3.050781 0 5.53125 2.476562 5.53125 5.527344v17.820312h-31.238281zm270.601562 0v17.820312h-31.238281v-17.820312c0-3.050782 2.480469-5.527344 5.53125-5.527344h20.179687c3.046875 0 5.527344 2.476562 5.527344 5.527344zm0 0"/><path d="m284.039062 345.074219c4.164063 0 7.535157-3.375 7.535157-7.539063 0-4.164062-3.371094-7.539062-7.535157-7.539062h-122.414062c-4.164062 0-7.539062 3.375-7.539062 7.539062v51.046875c0 4.164063 3.375 7.539063 7.539062 7.539063h188.363281c4.164063 0 7.539063-3.375 7.539063-7.539063v-51.046875c0-4.164062-3.375-7.539062-7.539063-7.539062h-36.519531c-4.164062 0-7.539062 3.375-7.539062 7.539062 0 4.164063 3.375 7.539063 7.539062 7.539063h28.980469v35.96875h-173.289063v-35.96875zm0 0"/><path d="m161.625 435.269531h188.363281c4.164063 0 7.539063-3.375 7.539063-7.539062 0-4.160157-3.375-7.539063-7.539063-7.539063h-188.363281c-4.164062 0-7.539062 3.378906-7.539062 7.539063 0 4.164062 3.375 7.539062 7.539062 7.539062zm0 0"/></g></svg>