<svg height="512pt" viewBox="-68 0 512 512" width="512pt" xmlns="http://www.w3.org/2000/svg"><path d="m32.574219 333.058594h106.5v171.414062h-106.5zm0 0" fill="#f9e075"/><path d="m139.519531 333.058594h-107.390625l-16.96875-73.3125-7.636718-229.917969h156.601562l-7.636719 228.601563zm0 0" fill="#f9cd45"/><path d="m113.992188 333.058594h25.082031v171.414062h-25.082031zm0 0" fill="#f9cd45"/><path d="m139.042969 29.828125-7.636719 228.601563-16.96875 74.628906h25.082031l16.96875-74.628906 7.636719-228.601563zm0 0" fill="#f8b53c"/><path d="m59.589844 7.523438h52.46875v201.765624h-52.46875zm0 0" fill="#fff4f1"/><path d="m87.980469 7.523438h24.078125v201.765624h-24.078125zm0 0" fill="#ecedef"/><path d="m237.035156 333.058594h106.5v171.414062h-106.5zm0 0" fill="#f9e075"/><path d="m343.984375 333.058594h-107.394531l-16.964844-73.3125-7.636719-229.917969h156.597657l-7.636719 228.601563zm0 0" fill="#f9cd45"/><path d="m318.453125 333.058594h25.085937v171.414062h-25.085937zm0 0" fill="#f9cd45"/><path d="m343.503906 29.828125-7.636718 228.601563-16.964844 74.628906h25.082031l16.964844-74.628906 7.636719-228.601563zm0 0" fill="#f8b53c"/><path d="m264.054688 7.523438h52.464843v201.765624h-52.464843zm0 0" fill="#fff4f1"/><path d="m291.4375 7.523438h25.082031v201.765624h-25.082031zm0 0" fill="#ecedef"/><g fill="#18191b"><path d="m164.125 22.300781h-44.542969v-14.777343c0-4.15625-3.367187-7.523438-7.523437-7.523438h-52.46875c-4.15625 0-7.523438 3.367188-7.523438 7.523438v14.777343h-44.542968c-2.039063 0-3.988282.828125-5.40625 2.292969-1.417969 1.464844-2.179688 3.445312-2.11328175 5.484375l7.63671875 229.917969c.015625.488281.078125.972656.1875 1.449218l16.96875 73.308594c.0625.269532.164063.523438.253906.78125v86.238282c0 4.15625 3.367188 7.527343 7.523438 7.527343s7.523437-3.371093 7.523437-7.527343v-81.191407h91.449219v156.367188h-91.449219v-41.195313c0-4.15625-3.367187-7.523437-7.523437-7.523437s-7.523438 3.367187-7.523438 7.523437v48.722656c0 4.15625 3.367188 7.523438 7.523438 7.523438h106.5c4.15625 0 7.523437-3.367188 7.523437-7.523438v-168.882812c.101563-.28125.191406-.570312.261719-.867188l16.964844-74.628906c.105469-.464844.167969-.941406.183593-1.417968l7.636719-228.601563c.066407-2.039063-.695312-4.015625-2.113281-5.480469-1.414062-1.46875-3.367188-2.296875-5.40625-2.296875zm-78.300781 152.878907c-4.15625 0-7.523438 3.371093-7.523438 7.527343v19.058594h-11.183593v-132.792969h37.417968v132.792969h-11.183594v-19.058594c-.003906-4.15625-3.371093-7.527343-7.527343-7.527343zm-26.234375 41.636718h18.707031v20.765625c0 4.152344 3.371094 7.523438 7.527344 7.523438s7.523437-3.371094 7.523437-7.523438v-20.765625h18.710938c4.15625 0 7.523437-3.371094 7.523437-7.527344v-140.316406h35.703125l-6.097656 182.574219h-126.769531l-6.066407-182.574219h35.714844v140.316406c0 4.15625 3.367188 7.527344 7.523438 7.527344zm-35.121094 49.78125h122.445312l-4.347656 19.128906h-113.667968zm131.875-229.246094-.554688 16.570313h-36.207031v-16.570313zm-89.226562-22.300781h37.417968v38.871094h-37.417968zm-15.050782 22.300781v16.570313h-36.210937l-.554688-16.570313zm-13.957031 288.179688-5.730469-24.757812h106.765625l-5.628906 24.757812zm0 0"/><path d="m373.996094 24.59375c-1.417969-1.464844-3.371094-2.292969-5.410156-2.292969h-44.542969v-14.777343c0-4.15625-3.367188-7.523438-7.523438-7.523438h-52.46875c-4.15625 0-7.523437 3.367188-7.523437 7.523438v14.777343h-44.542969c-2.039063 0-3.988281.828125-5.40625 2.292969s-2.179687 3.445312-2.113281 5.484375l4.148437 124.878906c.132813 4.066407 3.476563 7.273438 7.515625 7.273438.082032 0 .167969 0 .253906-.003907 4.152344-.136718 7.410157-3.617187 7.269532-7.769531l-2.835938-85.484375h35.710938v140.316406c0 4.15625 3.367187 7.527344 7.523437 7.527344h18.710938v20.765625c0 4.152344 3.367187 7.523438 7.523437 7.523438s7.523438-3.371094 7.523438-7.523438v-20.765625h18.710937c4.15625 0 7.523438-3.371094 7.523438-7.527344v-140.316406h35.703125l-6.097656 182.574219h-126.769532l-2.191406-65.972656c-.136719-4.152344-3.582031-7.394531-7.769531-7.269531-4.152344.136718-7.410157 3.617187-7.269531 7.769531l2.453124 73.921875c.015626.488281.078126.972656.1875 1.449218l16.96875 73.308594c.0625.269532.164063.523438.253907.78125v168.941406c0 4.15625 3.367187 7.523438 7.523437 7.523438h106.5c4.15625 0 7.527344-3.367188 7.527344-7.523438v-168.886718c.097656-.28125.1875-.566406.257812-.863282l16.96875-74.628906c.105469-.464844.164063-.941406.183594-1.417968l7.632813-228.601563c.070312-2.039063-.691407-4.015625-2.109375-5.484375zm-102.417969-9.542969h37.417969v38.871094h-37.417969zm-51.261719 38.871094-.550781-16.570313h36.761719v16.570313zm88.679688 147.84375h-11.183594v-19.058594c0-4.15625-3.367188-7.527343-7.523438-7.527343-4.160156 0-7.527343 3.371093-7.527343 7.527343v19.058594h-11.183594v-132.792969h37.417969zm15.046875-147.84375v-16.570313h36.761719l-.550782 16.570313zm13.933593 271.609375h-95.40625l-5.726562-24.757812h106.761719zm-104.617187-39.804688-4.429687-19.128906h122.449218l-4.351562 19.128906zm102.652344 211.222657h-91.449219v-156.367188h91.449219zm0 0"/></g></svg>