<svg height="512pt" viewBox="-17 0 512 512" width="512pt" xmlns="http://www.w3.org/2000/svg"><path d="m344.757812 7.511719h126.597657v126.59375h-126.597657zm0 0" fill="#f9e075"/><path d="m344.757812 182.253906h126.597657v126.59375h-126.597657zm0 0" fill="#f9e075"/><path d="m447.320312 7.511719h24.035157v126.59375h-24.035157zm0 0" fill="#f9cd45"/><path d="m447.320312 182.253906h24.035157v126.59375h-24.035157zm0 0" fill="#f9cd45"/><path d="m174.3125 453.742188h-153.785156c-7.160156 0-13.015625-5.859376-13.015625-13.015626v-369.007812c0-7.160156 5.855469-13.015625 13.015625-13.015625h153.785156c7.160156 0 13.019531 5.855469 13.019531 13.015625v369.007812c0 7.15625-5.859375 13.015626-13.019531 13.015626zm0 0" fill="#646464"/><path d="m174.3125 58.703125h-25.03125c7.160156 0 13.015625 5.855469 13.015625 13.015625v369.007812c0 7.15625-5.855469 13.015626-13.015625 13.015626h25.03125c7.160156 0 13.019531-5.859376 13.019531-13.015626v-369.007812c0-7.160156-5.859375-13.015625-13.019531-13.015625zm0 0" fill="#4b4b4b"/><path d="m7.511719 143.726562h179.820312v49.773438h-179.820312zm0 0" fill="#d0cfd1"/><path d="m162.296875 143.726562h25.035156v49.773438h-25.035156zm0 0" fill="#9c9b9d"/><path d="m187.332031 323.503906-89.910156 50.066406-89.910156-50.066406v-49.773437l89.910156 50.066406 89.910156-50.066406zm0 0" fill="#d0cfd1"/><path d="m162.296875 337.441406 25.035156-13.9375v-49.773437l-25.035156 13.9375zm0 0" fill="#9c9b9d"/><path d="m383.71875 7.511719h48.675781v78.863281h-48.675781zm0 0" fill="#f8b53c"/><path d="m383.71875 182.253906h48.675781v78.863282h-48.675781zm0 0" fill="#f8b53c"/><path d="m344.757812 377.894531h126.597657v126.59375h-126.597657zm0 0" fill="#f9e075"/><path d="m447.320312 377.894531h24.035157v126.59375h-24.035157zm0 0" fill="#f9cd45"/><path d="m383.71875 377.894531h48.675781v78.867188h-48.675781zm0 0" fill="#f8b53c"/><g fill="#18191b"><path d="m58.351562 90.15625h-15.464843c-4.148438 0-7.511719 3.363281-7.511719 7.507812 0 4.148438 3.363281 7.511719 7.511719 7.511719h15.464843c4.148438 0 7.511719-3.363281 7.511719-7.511719 0-4.144531-3.363281-7.507812-7.511719-7.507812zm0 0"/><path d="m105.152344 105.175781c4.148437 0 7.511718-3.363281 7.511718-7.511719 0-4.144531-3.363281-7.507812-7.511718-7.507812h-15.464844c-4.148438 0-7.511719 3.363281-7.511719 7.507812 0 4.148438 3.363281 7.511719 7.511719 7.511719zm0 0"/><path d="m151.953125 105.175781c4.148437 0 7.511719-3.363281 7.511719-7.511719 0-4.144531-3.363282-7.507812-7.511719-7.507812h-15.464844c-4.148437 0-7.507812 3.363281-7.507812 7.507812 0 4.148438 3.359375 7.511719 7.507812 7.511719zm0 0"/><path d="m58.351562 228.078125h-15.464843c-4.148438 0-7.511719 3.363281-7.511719 7.511719 0 4.144531 3.363281 7.507812 7.511719 7.507812h15.464843c4.148438 0 7.511719-3.363281 7.511719-7.507812 0-4.148438-3.363281-7.511719-7.511719-7.511719zm0 0"/><path d="m112.664062 235.589844c0-4.148438-3.363281-7.511719-7.511718-7.511719h-15.464844c-4.148438 0-7.511719 3.363281-7.511719 7.511719 0 4.144531 3.363281 7.507812 7.511719 7.507812h15.464844c4.148437 0 7.511718-3.363281 7.511718-7.507812zm0 0"/><path d="m136.488281 243.097656h15.46875c4.144531 0 7.507813-3.363281 7.507813-7.507812 0-4.148438-3.363282-7.511719-7.507813-7.511719h-15.46875c-4.144531 0-7.507812 3.363281-7.507812 7.511719 0 4.144531 3.359375 7.507812 7.507812 7.507812zm0 0"/><path d="m58.351562 410.339844h-15.464843c-4.148438 0-7.511719 3.363281-7.511719 7.507812 0 4.148438 3.363281 7.511719 7.511719 7.511719h15.464843c4.148438 0 7.511719-3.363281 7.511719-7.511719 0-4.144531-3.363281-7.507812-7.511719-7.507812zm0 0"/><path d="m82.175781 417.847656c0 4.148438 3.363281 7.511719 7.511719 7.511719h15.464844c4.148437 0 7.511718-3.363281 7.511718-7.511719 0-4.144531-3.363281-7.507812-7.511718-7.507812h-15.464844c-4.148438 0-7.511719 3.363281-7.511719 7.507812zm0 0"/><path d="m136.488281 425.359375h15.46875c4.144531 0 7.507813-3.363281 7.507813-7.511719 0-4.144531-3.363282-7.507812-7.507813-7.507812h-15.46875c-4.144531 0-7.507812 3.363281-7.507812 7.507812 0 4.148438 3.359375 7.511719 7.507812 7.511719zm0 0"/><path d="m344.757812 141.613281h126.597657c4.144531 0 7.507812-3.359375 7.507812-7.507812v-126.59375c0-4.148438-3.363281-7.511719-7.507812-7.511719h-126.597657c-4.144531 0-7.507812 3.363281-7.507812 7.511719v43.679687h-76.0625c-4.148438 0-7.511719 3.363282-7.511719 7.511719v190.007813h-58.835937v-176.992188c0-11.320312-9.207032-20.527344-20.527344-20.527344h-87.964844c-4.144531 0-7.507812 3.363282-7.507812 7.511719 0 4.144531 3.363281 7.507813 7.507812 7.507813h87.964844c3.039062 0 5.507812 2.46875 5.507812 5.507812v64.496094h-164.800781v-64.496094c0-3.039062 2.472657-5.507812 5.507813-5.507812h35.671875c4.148437 0 7.511719-3.363282 7.511719-7.507813 0-4.148437-3.363282-7.511719-7.511719-7.511719h-35.671875c-11.320313 0-20.527344 9.207032-20.527344 20.527344v369.007812c0 11.316407 9.207031 20.527344 20.527344 20.527344h153.785156c11.320312 0 20.527344-9.210937 20.527344-20.527344v-176.996093h58.835937v190.011719c0 4.148437 3.363281 7.511718 7.511719 7.511718h76.0625v43.234375c0 4.148438 3.363281 7.511719 7.507812 7.511719h126.597657c4.144531 0 7.507812-3.363281 7.507812-7.511719v-126.59375c0-4.148437-3.363281-7.507812-7.507812-7.507812h-126.597657c-4.144531 0-7.507812 3.359375-7.507812 7.507812v68.335938h-68.550781v-182.5h68.550781v45.117187c0 4.148438 3.363281 7.507813 7.507812 7.507813h38.222657c4.148437 0 7.507812-3.359375 7.507812-7.507813 0-4.148437-3.359375-7.511718-7.507812-7.511718h-30.710938v-111.574219h23.9375v71.355469c0 4.148437 3.363281 7.511718 7.511719 7.511718h48.675781c4.148438 0 7.511719-3.363281 7.511719-7.511718v-71.355469h23.9375v111.574219h-49.054688c-4.148437 0-7.511718 3.363281-7.511718 7.511718 0 4.148438 3.363281 7.507813 7.511718 7.507813h56.566407c4.148437 0 7.507812-3.359375 7.507812-7.507813v-126.59375c0-4.148437-3.359375-7.511718-7.507812-7.511718h-126.597657c-4.144531 0-7.507812 3.363281-7.507812 7.511718v66.457032h-68.550781v-182.5h68.550781v67.894531c0 4.148437 3.363281 7.507812 7.507812 7.507812zm-164.9375 9.621094v34.753906h-164.800781v-34.753906zm-164.800781 49.773437h164.800781v68.308594l-82.398437 45.882813-82.402344-45.882813zm164.800781 85.5v32.582032l-82.398437 45.882812-82.402344-45.882812v-32.582032l82.402344 45.882813zm0 154.21875c0 3.035157-2.46875 5.503907-5.507812 5.503907h-153.785156c-3.035156 0-5.507813-2.46875-5.507813-5.503907v-104.445312l82.402344 45.882812 82.398437-45.882812zm211.410157-55.320312h33.65625v63.84375h-33.65625zm-38.960938 0h23.9375v71.355469c0 4.148437 3.363281 7.507812 7.511719 7.507812h48.675781c4.148438 0 7.511719-3.359375 7.511719-7.507812v-71.355469h23.9375v111.574219h-111.574219zm72.617188-131.796875h-33.65625v-63.847656h33.65625zm-33.65625-238.589844h33.65625v63.847657h-33.65625zm-38.960938 0h23.9375v71.355469c0 4.148438 3.363281 7.511719 7.511719 7.511719h48.675781c4.148438 0 7.511719-3.363281 7.511719-7.511719v-71.355469h23.9375v111.574219h-111.574219zm0 0"/></g></svg>