<svg height="512pt" viewBox="0 0 512 512.00101" width="512pt" xmlns="http://www.w3.org/2000/svg"><path d="m7.554688 220.894531h199.921874v283.550781h-199.921874zm0 0" fill="#d0cfd1"/><path d="m182.296875 220.894531h25.179687v283.550781h-25.179687zm0 0" fill="#9c9b9d"/><path d="m45.007812 257.316406h57.546876v57.546875h-57.546876zm0 0" fill="#646464"/><path d="m114.898438 409.542969h57.550781v28.773437h-57.550781zm0 0" fill="#646464"/><path d="m304.1875 220.894531h199.921875v283.550781h-199.921875zm0 0" fill="#f9cd45"/><path d="m478.929688 220.894531h25.179687v283.550781h-25.179687zm0 0" fill="#f8b53c"/><path d="m341.640625 257.316406h57.546875v57.546875h-57.546875zm0 0" fill="#f45a3c"/><path d="m411.53125 409.542969h57.546875v28.773437h-57.546875zm0 0" fill="#f45a3c"/><path d="m327.984375 61.328125c.132813-1.492187.207031-3.003906.207031-4.53125 0-27.195313-22.046875-49.242187-49.242187-49.242187-23.363281 0-42.925781 16.269531-47.976563 38.09375-2.53125-1.453126-5.46875-2.289063-8.601562-2.289063-8.226563 0-15.109375 5.742187-16.867188 13.4375h-4.117187c-26.019531 0-47.308594 21.289063-47.308594 47.308594s21.289063 47.308593 47.308594 47.308593h106.460937c26.019532 0 47.308594-21.289062 47.308594-47.308593 0-18.828125-11.152344-35.179688-27.171875-42.777344zm0 0" fill="#4890e3"/><path d="m327.984375 61.328125c.132813-1.492187.207031-3.003906.207031-4.53125 0-27.195313-22.046875-49.242187-49.242187-49.242187-4.355469 0-8.578125.566406-12.601563 1.628906 21.101563 5.558594 36.664063 24.765625 36.664063 47.613281 0 1.527344-.074219 3.039063-.210938 4.53125 16.023438 7.597656 27.171875 23.949219 27.171875 42.777344 0 26.019531-21.285156 47.308593-47.308594 47.308593h25.183594c26.019532 0 47.308594-21.289062 47.308594-47.308593 0-18.828125-11.152344-35.179688-27.171875-42.777344zm0 0" fill="#2970d6"/><g fill="#18191b"><path d="m207.476562 213.339844h-102.726562v-85.3125h47.273438c8.902343 18.296875 27.683593 30.941406 49.363281 30.941406h106.460937c21.679688 0 40.460938-12.644531 49.363282-30.941406h47.273437v33.695312c0 4.171875 3.382813 7.554688 7.554687 7.554688 4.171876 0 7.554688-3.382813 7.554688-7.554688v-41.25c0-4.171875-3.382812-7.554687-7.554688-7.554687h-50.046874c.464843-2.871094.71875-5.8125.71875-8.8125 0-19.347657-10.433594-37.355469-26.964844-47.191407 0-.039062 0-.078124 0-.117187 0-31.320313-25.476563-56.796875-56.796875-56.796875-23.804688 0-44.53125 14.480469-52.914063 36.074219-1.210937-.179688-2.433594-.269531-3.664062-.269531-9.539063 0-17.9375 5.304687-22.105469 13.449218-29.734375.601563-53.742187 24.976563-53.742187 54.851563 0 3 .253906 5.941406.71875 8.8125h-50.046876c-4.171874 0-7.554687 3.382812-7.554687 7.554687v92.867188h-82.085937c-4.171876 0-7.554688 3.382812-7.554688 7.554687v283.550781c0 4.171876 3.382812 7.554688 7.554688 7.554688h199.921874c4.171876 0 7.554688-3.382812 7.554688-7.554688v-48.496093c0-4.171875-3.382812-7.554688-7.554688-7.554688-4.171874 0-7.554687 3.382813-7.554687 7.554688v40.941406h-184.8125v-268.445313h184.8125v196.785157c0 4.171875 3.382813 7.554687 7.554687 7.554687 4.171876 0 7.554688-3.382812 7.554688-7.554687v-204.335938c0-4.171875-3.382812-7.554687-7.554688-7.554687zm-6.089843-148.988282h4.117187c3.523438 0 6.578125-2.4375 7.363282-5.871093 1.003906-4.386719 5-7.570313 9.503906-7.570313 1.722656 0 3.351562.433594 4.84375 1.289063 2.070312 1.191406 4.585937 1.328125 6.777344.375 2.191406-.957031 3.804687-2.894531 4.34375-5.222657 4.390624-18.984374 21.09375-32.242187 40.613281-32.242187 22.988281 0 41.6875 18.699219 41.6875 41.6875 0 1.253906-.058594 2.546875-.179688 3.84375-.285156 3.15625 1.425781 6.152344 4.289063 7.511719 13.882812 6.585937 22.851562 20.695312 22.851562 35.953125 0 4.695312-.824218 9.199219-2.324218 13.386719-.089844.214843-.171876.4375-.246094.660156-5.6875 15.007812-20.203125 25.707031-37.179688 25.707031h-106.460937c-16.976563 0-31.496094-10.699219-37.183594-25.707031-.070313-.222656-.152344-.445313-.242187-.660156-1.503907-4.1875-2.328126-8.691407-2.328126-13.386719 0-21.921875 17.832032-39.753907 39.753907-39.753907zm0 0"/><path d="m45.007812 322.417969h57.546876c4.171874 0 7.554687-3.382813 7.554687-7.554688v-57.546875c0-4.171875-3.382813-7.554687-7.554687-7.554687h-57.546876c-4.171874 0-7.554687 3.382812-7.554687 7.554687v57.546875c0 4.171875 3.382813 7.554688 7.554687 7.554688zm7.554688-57.546875h42.4375v42.4375h-42.4375zm0 0"/><path d="m180.003906 409.542969c0-4.171875-3.382812-7.554688-7.554687-7.554688h-57.550781c-4.171876 0-7.554688 3.382813-7.554688 7.554688v28.773437c0 4.171875 3.382812 7.554688 7.554688 7.554688h57.550781c4.171875 0 7.554687-3.382813 7.554687-7.554688zm-15.109375 21.21875h-42.441406v-13.664063h42.441406zm0 0"/><path d="m172.449219 337.070312h-134.433594c-4.171875 0-7.554687 3.382813-7.554687 7.554688s3.382812 7.554688 7.554687 7.554688h134.433594c4.171875 0 7.554687-3.382813 7.554687-7.554688s-3.382812-7.554688-7.554687-7.554688zm0 0"/><path d="m172.449219 372.765625h-134.433594c-4.171875 0-7.554687 3.378906-7.554687 7.550781 0 4.175782 3.382812 7.554688 7.554687 7.554688h134.433594c4.171875 0 7.554687-3.378906 7.554687-7.554688 0-4.171875-3.382812-7.550781-7.554687-7.550781zm0 0"/><path d="m38.015625 475.542969h134.433594c4.171875 0 7.554687-3.382813 7.554687-7.554688s-3.382812-7.554687-7.554687-7.554687h-134.433594c-4.171875 0-7.554687 3.382812-7.554687 7.554687s3.382812 7.554688 7.554687 7.554688zm0 0"/><path d="m38.015625 417.097656h50.914063c4.171874 0 7.554687-3.382812 7.554687-7.554687s-3.382813-7.554688-7.554687-7.554688h-50.914063c-4.171875 0-7.554687 3.382813-7.554687 7.554688s3.382812 7.554687 7.554687 7.554687zm0 0"/><path d="m128.757812 264.871094h40.375c4.171876 0 7.554688-3.382813 7.554688-7.554688s-3.382812-7.554687-7.554688-7.554687h-40.375c-4.171874 0-7.554687 3.382812-7.554687 7.554687s3.382813 7.554688 7.554687 7.554688zm0 0"/><path d="m128.757812 293.644531h40.375c4.171876 0 7.554688-3.382812 7.554688-7.554687s-3.382812-7.554688-7.554688-7.554688h-40.375c-4.171874 0-7.554687 3.382813-7.554687 7.554688s3.382813 7.554687 7.554687 7.554687zm0 0"/><path d="m128.757812 322.417969h40.375c4.171876 0 7.554688-3.382813 7.554688-7.554688s-3.382812-7.554687-7.554688-7.554687h-40.375c-4.171874 0-7.554687 3.382812-7.554687 7.554687s3.382813 7.554688 7.554687 7.554688zm0 0"/><path d="m38.015625 446.320312h50.914063c4.171874 0 7.554687-3.382812 7.554687-7.554687s-3.382813-7.554687-7.554687-7.554687h-50.914063c-4.171875 0-7.554687 3.382812-7.554687 7.554687s3.382812 7.554687 7.554687 7.554687zm0 0"/><path d="m504.109375 213.339844h-84.515625v-16.363282c0-4.171874-3.382812-7.554687-7.554688-7.554687-4.171874 0-7.554687 3.382813-7.554687 7.554687v16.363282h-100.296875c-4.171875 0-7.554688 3.382812-7.554688 7.554687v283.550781c0 4.171876 3.382813 7.554688 7.554688 7.554688h199.921875c4.171875 0 7.554687-3.382812 7.554687-7.554688v-283.550781c0-4.171875-3.382812-7.554687-7.554687-7.554687zm-7.554687 283.550781h-184.8125v-268.445313h184.8125zm0 0"/><path d="m341.640625 322.417969h57.546875c4.171875 0 7.554688-3.382813 7.554688-7.554688v-57.546875c0-4.171875-3.382813-7.554687-7.554688-7.554687h-57.546875c-4.171875 0-7.554687 3.382812-7.554687 7.554687v57.546875c0 4.171875 3.382812 7.554688 7.554687 7.554688zm7.554687-57.546875h42.4375v42.4375h-42.4375zm0 0"/><path d="m469.078125 401.988281h-57.546875c-4.171875 0-7.554688 3.382813-7.554688 7.554688v28.773437c0 4.171875 3.382813 7.554688 7.554688 7.554688h57.546875c4.171875 0 7.554687-3.382813 7.554687-7.554688v-28.773437c0-4.171875-3.382812-7.554688-7.554687-7.554688zm-7.554687 28.773438h-42.4375v-13.664063h42.4375zm0 0"/><path d="m334.644531 337.070312c-4.171875 0-7.554687 3.382813-7.554687 7.554688s3.382812 7.554688 7.554687 7.554688h134.433594c4.171875 0 7.554687-3.382813 7.554687-7.554688s-3.382812-7.554688-7.554687-7.554688zm0 0"/><path d="m469.078125 372.765625h-134.433594c-4.171875 0-7.554687 3.378906-7.554687 7.550781 0 4.175782 3.382812 7.554688 7.554687 7.554688h134.433594c4.171875 0 7.554687-3.378906 7.554687-7.554688 0-4.171875-3.382812-7.550781-7.554687-7.550781zm0 0"/><path d="m469.078125 460.433594h-134.433594c-4.171875 0-7.554687 3.382812-7.554687 7.554687s3.382812 7.554688 7.554687 7.554688h134.433594c4.171875 0 7.554687-3.382813 7.554687-7.554688s-3.382812-7.554687-7.554687-7.554687zm0 0"/><path d="m334.644531 417.097656h50.917969c4.171875 0 7.554688-3.382812 7.554688-7.554687s-3.382813-7.554688-7.554688-7.554688h-50.917969c-4.171875 0-7.554687 3.382813-7.554687 7.554688s3.382812 7.554687 7.554687 7.554687zm0 0"/><path d="m425.390625 264.871094h40.375c4.171875 0 7.550781-3.382813 7.550781-7.554688s-3.378906-7.554687-7.550781-7.554687h-40.375c-4.171875 0-7.554687 3.382812-7.554687 7.554687s3.382812 7.554688 7.554687 7.554688zm0 0"/><path d="m425.390625 293.644531h40.375c4.171875 0 7.550781-3.382812 7.550781-7.554687s-3.378906-7.554688-7.550781-7.554688h-40.375c-4.171875 0-7.554687 3.382813-7.554687 7.554688s3.382812 7.554687 7.554687 7.554687zm0 0"/><path d="m425.390625 322.417969h40.375c4.171875 0 7.550781-3.382813 7.550781-7.554688s-3.378906-7.554687-7.550781-7.554687h-40.375c-4.171875 0-7.554687 3.382812-7.554687 7.554687s3.382812 7.554688 7.554687 7.554688zm0 0"/><path d="m334.644531 446.320312h50.917969c4.171875 0 7.554688-3.382812 7.554688-7.554687s-3.382813-7.554687-7.554688-7.554687h-50.917969c-4.171875 0-7.554687 3.382812-7.554687 7.554687s3.382812 7.554687 7.554687 7.554687zm0 0"/></g></svg>