<svg height="511pt" viewBox="-23 0 511 511.99698" width="511pt" xmlns="http://www.w3.org/2000/svg"><path d="m87.273438 29.109375h371.195312v66.921875h-371.195312zm0 0" fill="#4890e3"/><path d="m433.296875 29.109375h25.171875v66.921875h-25.171875zm0 0" fill="#2970d6"/><path d="m87.273438 96.03125h371.195312v265.351562h-371.195312zm0 0" fill="#fff4f1"/><path d="m433.296875 96.03125h25.171875v265.351562h-25.171875zm0 0" fill="#ecedef"/><path d="m148.46875 137.808594h248.804688v46.492187h-248.804688zm0 0" fill="#f45a3c"/><g fill="#fff4f1"><path d="m183.957031 137.808594h35.488281v46.492187h-35.488281zm0 0"/><path d="m254.933594 137.808594h35.492187v46.492187h-35.492187zm0 0"/><path d="m325.914062 137.808594h35.488282v46.492187h-35.488282zm0 0"/><path d="m148.46875 184.300781h248.804688v130.316407h-248.804688zm0 0"/></g><path d="m372.101562 184.300781h25.171876v130.316407h-25.171876zm0 0" fill="#ecedef"/><path d="m246.765625 219.480469h61.75v95.136719h-61.75zm0 0" fill="#4890e3"/><path d="m284.351562 219.480469h22.15625v95.136719h-22.15625zm0 0" fill="#2970d6"/><path d="m140.691406 73.871094c0 36.628906-29.691406 66.324218-66.320312 66.324218s-66.320313-29.695312-66.320313-66.324218 29.691407-66.320313 66.320313-66.320313 66.320312 29.691407 66.320312 66.320313zm0 0" fill="#00bf9e"/><path d="m74.371094 7.550781c-4.304688 0-8.507813.425781-12.585938 1.207031 30.609375 5.882813 53.738282 32.792969 53.738282 65.117188s-23.128907 59.230469-53.738282 65.113281c4.078125.78125 8.28125 1.207031 12.585938 1.207031 36.628906 0 66.320312-29.691406 66.320312-66.320312s-29.691406-66.324219-66.320312-66.324219zm0 0" fill="#00a983"/><path d="m458.46875 21.558594h-331.996094c-13.367187-13.316406-31.789062-21.558594-52.101562-21.558594-40.734375 0-73.871094 33.140625-73.871094 73.871094 0 40.734375 33.136719 73.875 73.871094 73.875 1.800781 0 3.582031-.085938 5.351562-.214844v86.847656c0 4.171875 3.378906 7.550782 7.550782 7.550782 4.167968 0 7.550781-3.378907 7.550781-7.550782v-89.535156c21.132812-6.101562 38.398437-21.394531 47.160156-41.261719h308.933594v250.25h-356.09375v-86.78125c0-4.171875-3.382813-7.550781-7.550781-7.550781-4.171876 0-7.550782 3.378906-7.550782 7.550781v94.332031c0 4.171876 3.378906 7.550782 7.550782 7.550782h109.277343v47.667968c0 4.171876 3.378907 7.550782 7.550781 7.550782 4.167969 0 7.550782-3.378906 7.550782-7.550782v-47.667968h127.964844v123.5625l-10.5-4.988282c-2.183594-1.039062-4.726563-.96875-6.851563.1875l-15.410156 8.378907-20.574219-8.703125c-1.769531-.746094-3.757812-.792969-5.558594-.128906l-24.601562 9.09375-21.464844-8.976563c-1.753906-.734375-3.722656-.777344-5.507812-.125l-17.496094 6.40625v-46.726563c0-4.171874-3.378906-7.550781-7.550782-7.550781-4.167968 0-7.550781 3.378907-7.550781 7.550781v57.53125c0 2.46875 1.203125 4.777344 3.226563 6.191407 1.285156.898437 2.796875 1.359375 4.324218 1.359375.875 0 1.753907-.152344 2.597657-.460938l24.863281-9.101562 21.472656 8.976562c1.761719.738282 3.738282.78125 5.53125.117188l24.585938-9.082032 21.171875 8.953126c2.121093.898437 4.527343.78125 6.550781-.320313l15.230469-8.285156 17.820312 8.472656c2.335938 1.113281 5.082031.945313 7.273438-.4375 2.191406-1.382813 3.519531-3.792969 3.519531-6.382813v-135.511718h103.75c4.171875 0 7.550781-3.378906 7.550781-7.550782v-332.273437c0-4.171875-3.382812-7.550781-7.550781-7.550781zm-384.097656 111.085937c-32.40625 0-58.769532-26.367187-58.769532-58.769531 0-32.40625 26.363282-58.773438 58.769532-58.773438s58.769531 26.363282 58.769531 58.769532-26.363281 58.773437-58.769531 58.773437zm72.417968-44.164062c.949219-4.722657 1.457032-9.605469 1.457032-14.609375 0-13.5625-3.695313-26.273438-10.097656-37.210938h312.769531v51.820313zm0 0"/><path d="m246.765625 322.167969h150.507813c4.167968 0 7.550781-3.378907 7.550781-7.550781v-176.808594c0-4.167969-3.382813-7.550782-7.550781-7.550782h-248.804688c-4.167969 0-7.550781 3.382813-7.550781 7.550782v176.808594c0 4.171874 3.382812 7.550781 7.550781 7.550781zm7.550781-15.101563v-80.035156h46.648438v80.035156zm135.40625 0h-73.65625v-87.585937c0-4.167969-3.378906-7.550781-7.550781-7.550781h-61.75c-4.171875 0-7.550781 3.382812-7.550781 7.550781v87.585937h-83.195313v-115.214844h233.703125zm-56.257812-130.316406v-31.390625h20.386718v31.390625zm-15.101563 0h-20.386719v-31.390625h20.386719zm-35.488281 0h-20.390625v-31.390625h20.390625zm-35.492188 0h-20.386718v-31.390625h20.386718zm-35.488281 0h-20.386719v-31.390625h20.386719zm177.828125 0h-20.769531v-31.390625h20.769531zm-233.703125-31.390625h20.386719v31.390625h-20.386719zm0 0"/><path d="m234.007812 400.070312h87.296876c4.171874 0 7.550781-3.382812 7.550781-7.550781 0-4.171875-3.378907-7.550781-7.550781-7.550781h-87.296876c-4.171874 0-7.550781 3.378906-7.550781 7.550781 0 4.167969 3.378907 7.550781 7.550781 7.550781zm0 0"/><path d="m234.007812 431.203125h87.296876c4.171874 0 7.550781-3.378906 7.550781-7.550781s-3.378907-7.550782-7.550781-7.550782h-87.296876c-4.171874 0-7.550781 3.378907-7.550781 7.550782s3.378907 7.550781 7.550781 7.550781zm0 0"/><path d="m232.367188 460.238281h90.984374c4.167969 0 7.550782-3.378906 7.550782-7.550781 0-4.167969-3.382813-7.550781-7.550782-7.550781h-90.984374c-4.171876 0-7.550782 3.382812-7.550782 7.550781 0 4.171875 3.378906 7.550781 7.550782 7.550781zm0 0"/><path d="m90.707031 53.4375-22.332031 24.183594-10-12.457032c-2.613281-3.25-7.363281-3.773437-10.617188-1.160156-3.25 2.609375-3.769531 7.363282-1.160156 10.617188l15.492188 19.292968c1.375 1.710938 3.429687 2.742188 5.625 2.816407.089844.003906.175781.003906.261718.003906 2.105469 0 4.117188-.875 5.546876-2.425781l28.28125-30.625c2.828124-3.0625 2.636718-7.839844-.425782-10.667969s-7.839844-2.640625-10.671875.421875zm0 0"/></svg>