<svg height="512pt" viewBox="0 -9 512.001 512" width="512pt" xmlns="http://www.w3.org/2000/svg"><path d="m290.320312 251.371094c0 19.484375-15.792968 35.28125-35.277343 35.28125s-35.28125-15.796875-35.28125-35.28125 15.796875-35.28125 35.28125-35.28125 35.277343 15.796875 35.277343 35.28125zm0 0" fill="#d0cfd1"/><path d="m470.046875 486.03125h-428.09375c-18.949219 0-34.453125-15.503906-34.453125-34.453125v-157.84375c0-18.949219 15.503906-34.453125 34.453125-34.453125h428.09375c18.949219 0 34.453125 15.503906 34.453125 34.453125v157.84375c0 18.949219-15.503906 34.453125-34.453125 34.453125zm0 0" fill="#f45a3c"/><path d="m470.046875 259.28125h-25.332031c18.949218 0 34.453125 15.503906 34.453125 34.453125v157.84375c0 18.949219-15.503907 34.453125-34.453125 34.453125h25.332031c18.949219 0 34.453125-15.503906 34.453125-34.453125v-157.84375c0-18.949219-15.503906-34.453125-34.453125-34.453125zm0 0" fill="#e24a2a"/><path d="m46.824219 285.738281h41.773437v41.769531h-41.773437zm0 0" fill="#fff4f1"/><path d="m120.296875 285.738281h41.769531v41.769531h-41.769531zm0 0" fill="#fff4f1"/><path d="m193.765625 285.738281h41.769531v41.769531h-41.769531zm0 0" fill="#fff4f1"/><path d="m267.234375 285.738281h41.773437v41.769531h-41.773437zm0 0" fill="#fff4f1"/><path d="m340.703125 285.738281h41.773437v41.769531h-41.773437zm0 0" fill="#fff4f1"/><path d="m414.175781 285.738281h41.769531v41.769531h-41.769531zm0 0" fill="#fff4f1"/><path d="m46.824219 351.320312h41.773437v41.769532h-41.773437zm0 0" fill="#fff4f1"/><path d="m120.296875 351.320312h41.769531v41.769532h-41.769531zm0 0" fill="#fff4f1"/><path d="m193.765625 351.320312h41.769531v41.769532h-41.769531zm0 0" fill="#fff4f1"/><path d="m267.234375 351.320312h41.773437v41.769532h-41.773437zm0 0" fill="#fff4f1"/><path d="m340.703125 351.320312h41.773437v41.769532h-41.773437zm0 0" fill="#fff4f1"/><path d="m414.175781 351.320312h41.769531v41.769532h-41.769531zm0 0" fill="#fff4f1"/><path d="m46.824219 416.898438h41.773437v41.773437h-41.773437zm0 0" fill="#fff4f1"/><path d="m120.296875 416.898438h41.769531v41.773437h-41.769531zm0 0" fill="#fff4f1"/><path d="m193.765625 416.898438h115.242187v41.773437h-115.242187zm0 0" fill="#fff4f1"/><path d="m340.703125 416.898438h41.773437v41.773437h-41.773437zm0 0" fill="#fff4f1"/><path d="m414.175781 416.898438h41.769531v41.773437h-41.769531zm0 0" fill="#fff4f1"/><g fill="#18191b"><path d="m333.800781 133.761719c0 4.140625 3.355469 7.5 7.5 7.5 4.140625 0 7.5-3.359375 7.5-7.5 0-51.699219-42.0625-93.757813-93.757812-93.757813-51.699219 0-93.757813 42.058594-93.757813 93.757813 0 4.140625 3.355469 7.5 7.5 7.5 4.140625 0 7.5-3.359375 7.5-7.5 0-43.425781 35.328125-78.757813 78.757813-78.757813 43.425781 0 78.757812 35.332032 78.757812 78.757813zm0 0"/><path d="m128.78125 141.261719c4.140625 0 7.5-3.359375 7.5-7.5 0-65.484375 53.273438-118.761719 118.761719-118.761719 65.484375 0 118.761719 53.277344 118.761719 118.761719 0 4.140625 3.355468 7.5 7.5 7.5 4.140624 0 7.5-3.359375 7.5-7.5 0-73.757813-60.003907-133.761719-133.761719-133.761719-73.757813 0-133.761719 60.003906-133.761719 133.761719 0 4.140625 3.355469 7.5 7.5 7.5zm0 0"/><path d="m205.203125 133.761719c0 4.140625 3.355469 7.5 7.5 7.5 4.140625 0 7.5-3.359375 7.5-7.5 0-19.210938 15.628906-34.839844 34.839844-34.839844 19.210937 0 34.839843 15.628906 34.839843 34.839844 0 4.140625 3.355469 7.5 7.5 7.5 4.140626 0 7.5-3.359375 7.5-7.5 0-27.480469-22.359374-49.839844-49.839843-49.839844-27.484375 0-49.839844 22.359375-49.839844 49.839844zm0 0"/><path d="m345.875 478.53125h-303.921875c-14.863281 0-26.953125-12.089844-26.953125-26.953125v-157.84375c0-14.863281 12.089844-26.953125 26.953125-26.953125h50.714844c4.140625 0 7.5-3.359375 7.5-7.5 0-4.144531-3.359375-7.5-7.5-7.5h-50.714844c-23.132813 0-41.953125 18.820312-41.953125 41.953125v157.84375c0 23.132813 18.820312 41.953125 41.953125 41.953125h303.921875c4.140625 0 7.5-3.359375 7.5-7.5s-3.359375-7.5-7.5-7.5zm0 0"/><path d="m470.046875 251.78125h-172.246094c.007813-.136719.023438-.273438.023438-.410156 0-23.589844-19.191407-42.78125-42.78125-42.78125-23.589844 0-42.78125 19.191406-42.78125 42.78125 0 .136718.015625.273437.023437.410156h-89.109375c-4.144531 0-7.5 3.355469-7.5 7.5 0 4.140625 3.355469 7.5 7.5 7.5h346.875c14.859375 0 26.949219 12.089844 26.949219 26.953125v157.84375c0 14.863281-12.089844 26.953125-26.949219 26.953125h-93.640625c-4.144531 0-7.5 3.359375-7.5 7.5s3.355469 7.5 7.5 7.5h93.640625c23.132813 0 41.949219-18.820312 41.949219-41.953125v-157.84375c0-23.132813-18.820312-41.953125-41.953125-41.953125zm-242.785156-.410156c0-15.316406 12.460937-27.78125 27.78125-27.78125 15.316406 0 27.777343 12.464844 27.777343 27.78125 0 .136718.015626.273437.023438.410156h-55.601562c.007812-.136719.019531-.273438.019531-.410156zm0 0"/><path d="m96.097656 285.738281c0-4.144531-3.355468-7.5-7.5-7.5h-41.773437c-4.140625 0-7.5 3.355469-7.5 7.5v41.769531c0 4.144532 3.359375 7.5 7.5 7.5h41.773437c4.140625 0 7.5-3.355468 7.5-7.5zm-15 34.269531h-26.773437v-26.769531h26.773437zm0 0"/><path d="m120.296875 335.007812h41.769531c4.144532 0 7.5-3.355468 7.5-7.5v-41.769531c0-4.144531-3.355468-7.5-7.5-7.5h-41.769531c-4.144531 0-7.5 3.355469-7.5 7.5v41.769531c0 4.144532 3.355469 7.5 7.5 7.5zm7.5-41.769531h26.769531v26.769531h-26.769531zm0 0"/><path d="m193.765625 335.007812h41.769531c4.144532 0 7.5-3.355468 7.5-7.5v-41.769531c0-4.144531-3.355468-7.5-7.5-7.5h-41.769531c-4.144531 0-7.5 3.355469-7.5 7.5v41.769531c0 4.144532 3.355469 7.5 7.5 7.5zm7.5-41.769531h26.769531v26.769531h-26.769531zm0 0"/><path d="m267.234375 335.007812h41.773437c4.140626 0 7.5-3.355468 7.5-7.5v-41.769531c0-4.144531-3.359374-7.5-7.5-7.5h-41.773437c-4.144531 0-7.5 3.355469-7.5 7.5v41.769531c0 4.144532 3.359375 7.5 7.5 7.5zm7.5-41.769531h26.773437v26.769531h-26.773437zm0 0"/><path d="m340.703125 335.007812h41.773437c4.140626 0 7.5-3.355468 7.5-7.5v-41.769531c0-4.144531-3.359374-7.5-7.5-7.5h-41.773437c-4.140625 0-7.5 3.355469-7.5 7.5v41.769531c0 4.144532 3.359375 7.5 7.5 7.5zm7.5-41.769531h26.773437v26.769531h-26.773437zm0 0"/><path d="m414.175781 335.007812h41.769531c4.144532 0 7.5-3.355468 7.5-7.5v-41.769531c0-4.144531-3.355468-7.5-7.5-7.5h-41.769531c-4.144531 0-7.5 3.355469-7.5 7.5v41.769531c0 4.144532 3.355469 7.5 7.5 7.5zm7.5-41.769531h26.769531v26.769531h-26.769531zm0 0"/><path d="m96.097656 351.320312c0-4.144531-3.355468-7.5-7.5-7.5h-41.773437c-4.140625 0-7.5 3.355469-7.5 7.5v41.769532c0 4.140625 3.359375 7.5 7.5 7.5h41.773437c4.140625 0 7.5-3.359375 7.5-7.5zm-15 34.269532h-26.773437v-26.769532h26.773437zm0 0"/><path d="m120.296875 400.589844h41.769531c4.144532 0 7.5-3.359375 7.5-7.5v-41.769532c0-4.144531-3.355468-7.5-7.5-7.5h-41.769531c-4.144531 0-7.5 3.355469-7.5 7.5v41.769532c0 4.144531 3.355469 7.5 7.5 7.5zm7.5-41.769532h26.769531v26.769532h-26.769531zm0 0"/><path d="m186.265625 393.089844c0 4.140625 3.355469 7.5 7.5 7.5h41.769531c4.144532 0 7.5-3.359375 7.5-7.5v-41.769532c0-4.144531-3.355468-7.5-7.5-7.5h-41.769531c-4.144531 0-7.5 3.355469-7.5 7.5zm15-34.269532h26.769531v26.769532h-26.769531zm0 0"/><path d="m259.734375 393.089844c0 4.140625 3.355469 7.5 7.5 7.5h41.773437c4.140626 0 7.5-3.359375 7.5-7.5v-41.769532c0-4.144531-3.359374-7.5-7.5-7.5h-41.773437c-4.144531 0-7.5 3.355469-7.5 7.5zm15-34.269532h26.773437v26.769532h-26.773437zm0 0"/><path d="m333.203125 393.089844c0 4.140625 3.359375 7.5 7.5 7.5h41.773437c4.140626 0 7.5-3.359375 7.5-7.5v-41.769532c0-4.144531-3.359374-7.5-7.5-7.5h-41.773437c-4.140625 0-7.5 3.355469-7.5 7.5zm15-34.269532h26.773437v26.769532h-26.773437zm0 0"/><path d="m406.675781 393.089844c0 4.140625 3.355469 7.5 7.5 7.5h41.769531c4.144532 0 7.5-3.359375 7.5-7.5v-41.769532c0-4.144531-3.355468-7.5-7.5-7.5h-41.769531c-4.144531 0-7.5 3.355469-7.5 7.5zm15-34.269532h26.769531v26.769532h-26.769531zm0 0"/><path d="m88.597656 409.398438h-41.773437c-4.140625 0-7.5 3.359374-7.5 7.5v41.773437c0 4.140625 3.359375 7.5 7.5 7.5h41.773437c4.140625 0 7.5-3.359375 7.5-7.5v-41.773437c0-4.140626-3.359375-7.5-7.5-7.5zm-7.5 41.773437h-26.773437v-26.773437h26.773437zm0 0"/><path d="m120.296875 466.171875h41.769531c4.144532 0 7.5-3.359375 7.5-7.5v-41.773437c0-4.140626-3.355468-7.5-7.5-7.5h-41.769531c-4.144531 0-7.5 3.359374-7.5 7.5v41.773437c0 4.140625 3.355469 7.5 7.5 7.5zm7.5-41.773437h26.769531v26.773437h-26.769531zm0 0"/><path d="m186.265625 458.671875c0 4.140625 3.355469 7.5 7.5 7.5h115.242187c4.140626 0 7.5-3.359375 7.5-7.5v-41.773437c0-4.140626-3.359374-7.5-7.5-7.5h-115.242187c-4.144531 0-7.5 3.359374-7.5 7.5zm15-34.273437h100.242187v26.773437h-100.242187zm0 0"/><path d="m333.203125 458.671875c0 4.140625 3.359375 7.5 7.5 7.5h41.773437c4.140626 0 7.5-3.359375 7.5-7.5v-41.773437c0-4.140626-3.359374-7.5-7.5-7.5h-41.773437c-4.140625 0-7.5 3.359374-7.5 7.5zm15-34.273437h26.773437v26.773437h-26.773437zm0 0"/><path d="m406.675781 458.671875c0 4.140625 3.355469 7.5 7.5 7.5h41.769531c4.144532 0 7.5-3.359375 7.5-7.5v-41.773437c0-4.140626-3.355468-7.5-7.5-7.5h-41.769531c-4.144531 0-7.5 3.359374-7.5 7.5zm15-34.273437h26.769531v26.773437h-26.769531zm0 0"/></g></svg>