<svg height="512pt" viewBox="0 -3 512 512" width="512pt" xmlns="http://www.w3.org/2000/svg"><path d="m99.398438 174.566406c0-11.058594-8.96875-20.023437-20.027344-20.023437s-20.027344 8.964843-20.027344 20.023437l-6.957031 170.78125h53.96875zm0 0" fill="#4890e3"/><path d="m99.398438 174.566406c0-11.058594-8.96875-20.023437-20.027344-20.023437-4.507813 0-8.652344 1.507812-12 4.019531 4.863281 3.65625 8.027344 9.453125 8.027344 16.003906l6.957031 170.78125h24zm0 0" fill="#2970d6"/><path d="m452.652344 174.566406c0-11.058594-8.964844-20.023437-20.023438-20.023437-11.0625 0-20.027344 8.964843-20.027344 20.023437l-6.957031 170.78125h53.964844zm0 0" fill="#4890e3"/><path d="m452.652344 174.566406c0-11.058594-8.964844-20.023437-20.023438-20.023437-4.507812 0-8.652344 1.507812-12 4.019531 4.863282 3.65625 8.023438 9.453125 8.023438 16.003906l6.957031 170.78125h24zm0 0" fill="#2970d6"/><path d="m7.5 346.132812h497v152.199219h-497zm0 0" fill="#91bcee"/><path d="m481.5 346.132812h23v152.199219h-23zm0 0" fill="#2970d6"/><path d="m300.101562 498.332031h-102.542968l-70-152.199219h102.542968zm0 0" fill="#4890e3"/><path d="m230.101562 346.132812h-23l70 152.199219h23zm0 0" fill="#2970d6"/><path d="m392.441406 498.332031h-42.542968l-70-152.199219h42.542968zm0 0" fill="#4890e3"/><g fill="#2970d6"><path d="m322.441406 346.132812h-20l70 152.199219h20zm0 0"/><path d="m40 437.785156h31v31h-31zm0 0"/><path d="m437.628906 375.503906h31v31h-31zm0 0"/></g><path d="m222.9375 102.558594c0 4.140625 3.355469 7.5 7.5 7.5 4.140625 0 7.5-3.359375 7.5-7.5 0-9.960938 8.101562-18.066406 18.0625-18.066406s18.0625 8.105468 18.0625 18.066406c0 4.140625 3.359375 7.5 7.5 7.5 4.144531 0 7.5-3.359375 7.5-7.5 0-18.234375-14.832031-33.066406-33.0625-33.066406s-33.0625 14.832031-33.0625 33.066406zm0 0"/><path d="m307.371094 102.558594c0 4.140625 3.359375 7.5 7.5 7.5 4.144531 0 7.5-3.359375 7.5-7.5 0-36.597656-29.773438-66.375-66.371094-66.375s-66.371094 29.777344-66.371094 66.375c0 4.140625 3.355469 7.5 7.5 7.5 4.140625 0 7.5-3.359375 7.5-7.5 0-28.328125 23.042969-51.375 51.371094-51.375s51.371094 23.046875 51.371094 51.375zm0 0"/><path d="m160.941406 110.058594c4.144532 0 7.5-3.359375 7.5-7.5 0-48.28125 39.277344-87.558594 87.558594-87.558594s87.558594 39.277344 87.558594 87.558594c0 4.140625 3.355468 7.5 7.5 7.5 4.140625 0 7.5-3.359375 7.5-7.5 0-56.550782-46.007813-102.558594-102.558594-102.558594s-102.558594 46.007812-102.558594 102.558594c0 4.140625 3.359375 7.5 7.5 7.5zm0 0"/><path d="m71 430.285156h-31c-4.144531 0-7.5 3.359375-7.5 7.5v31c0 4.144532 3.355469 7.5 7.5 7.5h31c4.144531 0 7.5-3.355468 7.5-7.5v-31c0-4.140625-3.355469-7.5-7.5-7.5zm-7.5 31h-16v-16h16zm0 0"/><path d="m476.128906 406.503906v-31c0-4.144531-3.355468-7.5-7.5-7.5h-31c-4.144531 0-7.5 3.355469-7.5 7.5v31c0 4.140625 3.355469 7.5 7.5 7.5h31c4.140625 0 7.5-3.359375 7.5-7.5zm-15-7.5h-16v-16h16zm0 0"/><path d="m504.5 338.632812h-37.65625l-6.691406-164.230468c-.085938-15.101563-12.398438-27.359375-27.523438-27.359375-15.121094 0-27.4375 12.257812-27.527344 27.359375l-6.6875 164.230468h-201.285156c-4.144531 0-7.5 3.355469-7.5 7.5 0 4.140626 3.355469 7.5 7.5 7.5h28.167969l63.101563 137.199219h-86.035157l-63.101562-137.199219h27.757812c4.140625 0 7.5-3.359374 7.5-7.5 0-4.144531-3.359375-7.5-7.5-7.5h-53.429687l-6.691406-164.230468c-.089844-15.101563-12.402344-27.359375-27.527344-27.359375-15.121094 0-27.4375 12.257812-27.523438 27.359375l-6.691406 164.230468h-37.65625c-4.144531 0-7.5 3.355469-7.5 7.5v152.199219c0 4.140625 3.355469 7.5 7.5 7.5h414.417969c4.140625 0 7.5-3.359375 7.5-7.5s-3.359375-7.5-7.5-7.5h-24.671875l-63.101563-137.199219h162.855469v137.199219h-44.976562c-4.140626 0-7.5 3.359375-7.5 7.5s3.359374 7.5 7.5 7.5h52.476562c4.144531 0 7.5-3.359375 7.5-7.5v-152.199219c0-4.144531-3.355469-7.5-7.5-7.5zm-84.402344-163.761718c.003906-.101563.003906-.199219.003906-.304688 0-6.90625 5.621094-12.523437 12.527344-12.523437s12.523438 5.617187 12.523438 12.523437c0 .105469.003906.207032.007812.304688l6.671875 163.761718h-38.40625zm-178.289062 178.761718h33.285156l63.097656 137.199219h-33.285156zm-174.96875-178.761718c.003906-.101563.007812-.199219.007812-.304688 0-6.90625 5.617188-12.523437 12.523438-12.523437s12.527344 5.617187 12.527344 12.523437c0 .105469 0 .207032.003906.304688l6.671875 163.761718h-38.40625zm-51.839844 178.761718h107.753906l63.101563 137.199219h-170.855469zm365.738281 137.199219h-26.035156l-63.101563-137.199219h26.035157zm0 0"/></svg>