<svg height="512pt" viewBox="-58 0 512 512" width="512pt" xmlns="http://www.w3.org/2000/svg"><path d="m353.007812 408.871094v-14.21875c0-18.476563-15.117187-33.597656-33.597656-33.597656h-243.570312c-18.480469 0-33.597656 15.121093-33.597656 33.597656v14.21875zm0 0" fill="#646464"/><path d="m319.410156 361.058594h-25.09375c18.480469 0 33.597656 15.117187 33.597656 33.59375v14.21875h25.09375v-14.21875c0-18.476563-15.117187-33.59375-33.597656-33.59375zm0 0" fill="#4b4b4b"/><path d="m67.886719 160.636719c-.199219-.003907-.398438-.007813-.597657-.007813-33.003906 0-59.761718 26.753906-59.761718 59.761719 0 33.003906 26.757812 59.761719 59.761718 59.761719.199219 0 .398438-.007813.597657-.011719zm0 0" fill="#4890e3"/><path d="m67.886719 144.210938h40.039062v151.792968h-40.039062zm0 0" fill="#91bcee"/><path d="m327.363281 160.636719c.199219-.003907.398438-.007813.597657-.007813 33.003906 0 59.761718 26.753906 59.761718 59.761719 0 33.003906-26.757812 59.761719-59.761718 59.761719-.199219 0-.398438-.007813-.597657-.011719zm0 0" fill="#4890e3"/><path d="m327.960938 160.628906c-.199219 0-.398438.003906-.597657.007813v5.246093c20.785157 9.355469 35.265625 30.234376 35.265625 54.503907 0 24.273437-14.480468 45.152343-35.265625 54.507812v5.246094c.199219.003906.398438.007813.597657.007813 33.003906 0 59.761718-26.753907 59.761718-59.761719 0-33.003907-26.757812-59.757813-59.761718-59.757813zm0 0" fill="#2970d6"/><path d="m327.363281 296.003906h-40.039062v-151.792968h40.039062zm0 0" fill="#91bcee"/><path d="m307.289062 144.210938h20.074219v151.792968h-20.074219zm0 0" fill="#4890e3"/><path d="m353.007812 504.472656v-109.820312c0-18.476563-15.117187-33.597656-33.597656-33.597656h-243.570312c-18.480469 0-33.597656 15.121093-33.597656 33.597656v109.820312zm0 0" fill="#d0cfd1"/><path d="m319.410156 361.054688h-26.097656c18.480469 0 33.597656 15.121093 33.597656 33.597656v109.820312h26.097656v-109.820312c0-18.476563-15.117187-33.597656-33.597656-33.597656zm0 0" fill="#9c9b9d"/><g fill="#18191b"><path d="m360.890625 161.742188c-.832031-89.328126-73.746094-161.742188-163.265625-161.742188s-162.433594 72.414062-163.265625 161.742188c-20.488281 11.546874-34.359375 33.503906-34.359375 58.648437 0 34.761719 26.5 63.453125 60.359375 66.933594v8.679687c0 4.15625 3.371094 7.527344 7.527344 7.527344h40.039062c4.160157 0 7.53125-3.371094 7.53125-7.527344v-64.816406c0-4.160156-3.371093-7.53125-7.53125-7.53125-4.15625 0-7.527343 3.371094-7.527343 7.53125v57.289062h-24.984376v-136.738281h24.984376v49.566407c0 4.15625 3.371093 7.527343 7.527343 7.527343 4.160157 0 7.53125-3.371093 7.53125-7.527343v-57.09375c0-4.160157-3.371093-7.53125-7.53125-7.53125h-40.039062c-4.15625 0-7.527344 3.371093-7.527344 7.53125v9.246093c-3.683594.378907-7.273437 1.070313-10.757813 2.019531 4.074219-78.117187 68.910157-140.421874 148.023438-140.421874s143.949219 62.304687 148.023438 140.421874c-3.484376-.949218-7.074219-1.640624-10.757813-2.019531v-9.246093c0-4.160157-3.371094-7.53125-7.527344-7.53125h-40.039062c-4.160157 0-7.53125 3.371093-7.53125 7.53125v151.792968c0 4.15625 3.371093 7.527344 7.53125 7.527344h40.039062c4.15625 0 7.527344-3.371094 7.527344-7.527344v-8.679687c33.859375-3.480469 60.359375-32.171875 60.359375-66.933594 0-25.144531-13.871094-47.101563-34.359375-58.648437zm-300.53125 110.421874c-25.539063-3.398437-45.304687-25.324218-45.304687-51.773437 0-26.453125 19.765624-48.375 45.304687-51.777344zm259.476563 16.3125h-24.984376v-136.738281h24.984376zm15.054687-16.3125v-103.550781c25.539063 3.402344 45.304687 25.324219 45.304687 51.777344s-19.765624 48.375-45.304687 51.773437zm0 0"/><path d="m319.410156 353.527344h-84.851562c-4.160156 0-7.527344 3.371094-7.527344 7.53125 0 4.15625 3.367188 7.527344 7.527344 7.527344h84.851562c14.375 0 26.070313 11.691406 26.070313 26.066406v6.691406h-295.710938v-6.691406c0-14.371094 11.695313-26.066406 26.070313-26.066406h126.9375c4.15625 0 7.527344-3.371094 7.527344-7.527344 0-4.160156-3.371094-7.53125-7.527344-7.53125h-126.9375c-22.675782 0-41.125 18.449218-41.125 41.125v109.820312c0 4.15625 3.367187 7.527344 7.527344 7.527344h310.765624c4.160157 0 7.527344-3.371094 7.527344-7.527344v-109.820312c0-22.675782-18.449218-41.125-41.125-41.125zm-269.640625 143.417968v-80.546874h295.710938v80.546874zm0 0"/><path d="m290.839844 442.925781h-186.429688c-4.160156 0-7.53125 3.371094-7.53125 7.527344 0 4.160156 3.371094 7.53125 7.53125 7.53125h186.429688c4.160156 0 7.53125-3.371094 7.53125-7.53125 0-4.15625-3.371094-7.527344-7.53125-7.527344zm0 0"/><path d="m246.300781 260.640625c4.15625 0 7.527344-3.371094 7.527344-7.527344 0-30.992187-25.210937-56.203125-56.203125-56.203125-30.988281 0-56.203125 25.210938-56.203125 56.203125 0 4.15625 3.371094 7.527344 7.527344 7.527344 4.160156 0 7.53125-3.371094 7.53125-7.527344 0-22.6875 18.457031-41.144531 41.144531-41.144531s41.144531 18.457031 41.144531 41.144531c0 4.15625 3.371094 7.527344 7.53125 7.527344zm0 0"/><path d="m197.625 223.65625c-16.074219 0-29.152344 13.078125-29.152344 29.152344 0 4.15625 3.371094 7.527344 7.53125 7.527344 4.15625 0 7.527344-3.371094 7.527344-7.527344 0-7.773438 6.320312-14.09375 14.09375-14.09375s14.09375 6.320312 14.09375 14.09375c0 4.15625 3.371094 7.527344 7.53125 7.527344 4.15625 0 7.527344-3.371094 7.527344-7.527344 0-16.074219-13.078125-29.152344-29.152344-29.152344zm0 0"/></g></svg>