<svg height="511pt" viewBox="-165 1 511 511.99899" width="511pt" xmlns="http://www.w3.org/2000/svg"><path d="m168.292969 504.414062h-150.339844l35.703125-356.765624h78.933594zm0 0" fill="#fff4f1"/><path d="m119.863281 145.859375c0 14.769531-11.972656 26.742187-26.738281 26.742187-14.769531 0-26.738281-11.972656-26.738281-26.742187 0-14.765625 11.96875-26.738281 26.738281-26.738281 14.765625 0 26.738281 11.972656 26.738281 26.738281zm0 0" fill="#f45a3c"/><path d="m93.125 119.121094c-4.371094 0-8.492188 1.058594-12.136719 2.914062 8.667969 4.425782 14.605469 13.429688 14.605469 23.828125 0 10.394531-5.9375 19.398438-14.605469 23.824219 3.644531 1.859375 7.765625 2.914062 12.136719 2.914062 14.765625 0 26.738281-11.972656 26.738281-26.738281 0-14.769531-11.972656-26.742187-26.738281-26.742187zm0 0" fill="#e24a2a"/><path d="m171.476562 460.03125c.082032-.953125-.011718-1.917969-.285156-2.84375l-30.398437-303.742188h25.484375c4.191406 0 7.585937-3.394531 7.585937-7.585937 0-4.1875-3.394531-7.582031-7.585937-7.582031h-39.683594c-3.460938-15.289063-17.148438-26.742188-33.46875-26.742188s-30.007812 11.453125-33.46875 26.742188h-45.378906c-4.1875 0-7.582032 3.394531-7.582032 7.582031 0 4.191406 3.394532 7.585937 7.582032 7.585937h31.179687l-21.6875 216.707032c-.417969 4.171875 2.621094 7.886718 6.789063 8.304687.257812.023438.511718.035157.765625.035157 3.847656 0 7.144531-2.917969 7.539062-6.828126l2.421875-24.214843 41.113282 41.113281-50.257813 50.253906 3.28125-32.789062c.417969-4.167969-2.621094-7.886719-6.789063-8.300782-4.164062-.421874-7.886718 2.621094-8.304687 6.789063l-5.269531 52.675781c-.273438.921875-.367188 1.886719-.285156 2.835938l-4.367188 43.632812c-.210938 2.132813.488281 4.253906 1.925781 5.84375s3.480469 2.496094 5.625 2.496094h150.339844c2.140625 0 4.183594-.90625 5.621094-2.496094 1.441406-1.589844 2.136719-3.710937 1.925781-5.84375zm-30.71875-154.589844-36.90625-36.910156 30.191407-30.195312zm4.207032 42.007813 9.144531 91.371093-50.257813-50.257812zm-51.839844-220.742188c10.558594 0 19.152344 8.59375 19.152344 19.152344 0 10.5625-8.59375 19.15625-19.152344 19.15625-10.5625 0-19.15625-8.59375-19.15625-19.15625 0-10.558594 8.59375-19.152344 19.15625-19.152344zm0 53.476563c15.296875 0 28.285156-10.0625 32.707031-23.914063l6.261719 62.566407-38.96875 38.96875-38.96875-38.96875 6.261719-62.566407c4.417969 13.851563 17.40625 23.914063 32.707031 23.914063zm-40.921875 58.152344 30.195313 30.195312-36.910157 36.910156zm-8.367187 90.210937 49.289062-49.289063 49.289062 49.289063-49.289062 49.289063zm-17.5 168.285156 3.421874-34.175781 63.367188-63.367188 63.367188 63.367188 3.421874 34.175781zm0 0"/><path d="m62.742188 90.789062c0-15.742187 12.804687-28.546874 28.542968-28.546874 15.742188 0 28.546875 12.804687 28.546875 28.546874 0 4.1875 3.394531 7.582032 7.582031 7.582032 4.191407 0 7.585938-3.394532 7.585938-7.582032 0-24.105468-19.609375-43.714843-43.714844-43.714843-24.101562 0-43.710937 19.609375-43.710937 43.714843 0 4.1875 3.394531 7.582032 7.582031 7.582032 4.191406 0 7.585938-3.394532 7.585938-7.582032zm0 0"/><path d="m91.285156 0c-50.058594 0-90.785156 40.726562-90.785156 90.789062 0 4.1875 3.394531 7.582032 7.585938 7.582032 4.1875 0 7.582031-3.394532 7.582031-7.582032 0-41.695312 33.921875-75.621093 75.617187-75.621093 41.695313 0 75.621094 33.925781 75.621094 75.621093 0 4.1875 3.394531 7.582032 7.582031 7.582032 4.191407 0 7.585938-3.394532 7.585938-7.582032 0-50.0625-40.726563-90.789062-90.789063-90.789062zm0 0"/></svg>