<svg height="512pt" viewBox="0 -4 512 512" width="512pt" xmlns="http://www.w3.org/2000/svg"><path d="m0 443.4375h512v38.53125h-512zm0 0" fill="#4890e3"/><path d="m430.339844 35.855469v-28.355469h-348.679688v201.808594h31.585938v37.011718h-31.585938v35.15625h31.585938v56.027344h-31.585938v38.9375h348.679688v-312.574218h-31.105469v-28.011719zm0 0" fill="#f45a3c"/><path d="m407.339844 7.5h23v28.355469h-23zm0 0" fill="#e24a2a"/><path d="m407.339844 63.867188h23v312.574218h-23zm0 0" fill="#e24a2a"/><path d="m337.605469 97.144531v239.566407h-163.210938v-239.566407zm0 0" fill="#f9e075"/><path d="m314.605469 97.144531h23v239.566407h-23zm0 0" fill="#f9cd45"/><path d="m282.261719 162.703125c0 14.503906-11.757813 26.261719-26.261719 26.261719s-26.261719-11.757813-26.261719-26.261719 11.757813-26.261719 26.261719-26.261719 26.261719 11.757813 26.261719 26.261719zm0 0" fill="#91bcee"/><path d="m282.261719 264.703125c0 14.507813-11.757813 26.265625-26.261719 26.265625s-26.261719-11.757812-26.261719-26.265625c0-14.503906 11.757813-26.261719 26.261719-26.261719s26.261719 11.757813 26.261719 26.261719zm0 0" fill="#91bcee"/><path d="m290.296875 462.703125c0 18.941406-15.355469 34.292969-34.296875 34.292969s-34.296875-15.351563-34.296875-34.292969 15.355469-34.296875 34.296875-34.296875 34.296875 15.355469 34.296875 34.296875zm0 0" fill="#f45a3c"/><path d="m256 428.410156c-4.222656 0-8.265625.765625-12 2.160156 13.019531 4.867188 22.296875 17.414063 22.296875 32.132813s-9.277344 27.265625-22.296875 32.132813c3.734375 1.394531 7.777344 2.160156 12 2.160156 18.941406 0 34.296875-15.351563 34.296875-34.292969s-15.355469-34.292969-34.296875-34.292969zm0 0" fill="#e24a2a"/><path d="m504.5 474.1875h-208.324219c1.046875-3.652344 1.617188-7.5 1.617188-11.484375 0-3.980469-.570313-7.832031-1.617188-11.480469h208.324219c4.140625 0 7.5-3.359375 7.5-7.5 0-4.144531-3.359375-7.5-7.5-7.5h-216.191406c-6.160156-7.503906-14.878906-12.820312-24.808594-14.625v-26.433594c0-4.144531-3.359375-7.5-7.5-7.5s-7.5 3.355469-7.5 7.5v26.433594c-9.929688 1.804688-18.648438 7.121094-24.808594 14.625h-216.191406c-4.140625 0-7.5 3.355469-7.5 7.5 0 4.140625 3.359375 7.5 7.5 7.5h208.324219c-1.046875 3.648438-1.617188 7.5-1.617188 11.480469 0 3.984375.570313 7.832031 1.617188 11.484375h-208.324219c-4.140625 0-7.5 3.359375-7.5 7.5s3.359375 7.5 7.5 7.5h216.191406c7.671875 9.339844 19.304688 15.3125 32.308594 15.3125s24.636719-5.972656 32.308594-15.3125h216.191406c4.140625 0 7.5-3.359375 7.5-7.5s-3.359375-7.5-7.5-7.5zm-248.5 15.308594c-8.394531 0-15.894531-3.882813-20.8125-9.941406-.445312-1.503907-1.347656-2.808594-2.550781-3.753907-2.183594-3.875-3.433594-8.34375-3.433594-13.097656s1.25-9.21875 3.433594-13.09375c1.199219-.949219 2.105469-2.253906 2.550781-3.757813 4.917969-6.0625 12.417969-9.941406 20.8125-9.941406 14.773438 0 26.792969 12.019532 26.792969 26.792969s-12.019531 26.792969-26.792969 26.792969zm0 0"/><path d="m359.210938 127.078125c4.140624 0 7.5-3.359375 7.5-7.5s-3.359376-7.5-7.5-7.5h-14.105469v-14.933594c0-4.140625-3.355469-7.5-7.5-7.5h-163.210938c-4.140625 0-7.5 3.359375-7.5 7.5v14.933594h-14.5625c-4.140625 0-7.5 3.359375-7.5 7.5s3.359375 7.5 7.5 7.5h14.5625v12.8125h-14.5625c-4.140625 0-7.5 3.359375-7.5 7.5 0 4.144531 3.359375 7.5 7.5 7.5h14.5625v12.816406h-14.5625c-4.140625 0-7.5 3.355469-7.5 7.5 0 4.140625 3.359375 7.5 7.5 7.5h14.5625v12.8125h-14.5625c-4.140625 0-7.5 3.359375-7.5 7.5s3.359375 7.5 7.5 7.5h14.5625v12.816407h-14.5625c-4.140625 0-7.5 3.355468-7.5 7.5 0 4.140624 3.359375 7.5 7.5 7.5h14.5625v12.8125h-14.5625c-4.140625 0-7.5 3.359374-7.5 7.5 0 4.140624 3.359375 7.5 7.5 7.5h14.5625v12.8125h-14.5625c-4.140625 0-7.5 3.359374-7.5 7.5 0 4.144531 3.359375 7.5 7.5 7.5h14.5625v12.816406h-14.5625c-4.140625 0-7.5 3.355468-7.5 7.5 0 4.140625 3.359375 7.5 7.5 7.5h14.5625v14.933594c0 4.140624 3.359375 7.5 7.5 7.5h163.210938c4.144531 0 7.5-3.359376 7.5-7.5v-14.933594h14.105469c4.140624 0 7.5-3.359375 7.5-7.5 0-4.144532-3.359376-7.5-7.5-7.5h-14.105469v-12.816406h14.105469c4.140624 0 7.5-3.355469 7.5-7.5 0-4.140626-3.359376-7.5-7.5-7.5h-14.105469v-12.8125h14.105469c4.140624 0 7.5-3.359376 7.5-7.5 0-4.140626-3.359376-7.5-7.5-7.5h-14.105469v-12.8125h14.105469c4.140624 0 7.5-3.359376 7.5-7.5 0-4.144532-3.359376-7.5-7.5-7.5h-14.105469v-12.816407h14.105469c4.140624 0 7.5-3.359375 7.5-7.5s-3.359376-7.5-7.5-7.5h-14.105469v-12.8125h14.105469c4.140624 0 7.5-3.359375 7.5-7.5 0-4.144531-3.359376-7.5-7.5-7.5h-14.105469v-12.816406h14.105469c4.140624 0 7.5-3.355469 7.5-7.5 0-4.140625-3.359376-7.5-7.5-7.5h-14.105469v-12.8125zm-177.316407 202.132813v-224.566407h148.210938v224.566407zm0 0"/><path d="m81.660156 123.1875c4.144532 0 7.5-3.359375 7.5-7.5v-100.6875h333.679688v13.355469h-23.605469c-4.140625 0-7.5 3.355469-7.5 7.5v5.425781h-131.914063c-4.144531 0-7.5 3.359375-7.5 7.5 0 4.144531 3.355469 7.5 7.5 7.5h131.914063v7.585938c0 4.140624 3.359375 7.5 7.5 7.5h23.605469v207.132812c0 4.144531 3.355468 7.5 7.5 7.5 4.140625 0 7.5-3.355469 7.5-7.5v-214.632812c0-4.140626-3.359375-7.5-7.5-7.5h-23.605469v-13.011719h23.605469c4.140625 0 7.5-3.359375 7.5-7.5v-28.355469c0-4.140625-3.359375-7.5-7.5-7.5h-348.679688c-4.140625 0-7.5 3.359375-7.5 7.5v108.1875c0 4.140625 3.359375 7.5 7.5 7.5zm0 0"/><path d="m81.660156 383.941406h348.679688c4.140625 0 7.5-3.355468 7.5-7.5v-62.164062c0-4.144532-3.359375-7.5-7.5-7.5-4.144532 0-7.5 3.355468-7.5 7.5v54.664062h-333.679688v-23.9375h24.085938c4.140625 0 7.5-3.359375 7.5-7.5v-56.027344c0-4.144531-3.359375-7.5-7.5-7.5h-24.085938v-20.15625h24.085938c4.140625 0 7.5-3.359374 7.5-7.5v-37.011718c0-4.140625-3.359375-7.5-7.5-7.5h-24.085938v-56.011719c0-4.144531-3.355468-7.5-7.5-7.5-4.140625 0-7.5 3.355469-7.5 7.5v63.511719c0 4.144531 3.359375 7.5 7.5 7.5h24.085938v22.011718h-24.085938c-4.140625 0-7.5 3.359376-7.5 7.5v35.15625c0 4.140626 3.359375 7.5 7.5 7.5h24.085938v41.027344h-24.085938c-4.140625 0-7.5 3.355469-7.5 7.5v38.9375c0 4.144532 3.359375 7.5 7.5 7.5zm0 0"/><path d="m132.746094 48.78125c0 5.53125-4.484375 10.015625-10.011719 10.015625-5.53125 0-10.015625-4.484375-10.015625-10.015625s4.484375-10.011719 10.015625-10.011719c5.527344 0 10.011719 4.480469 10.011719 10.011719zm0 0"/><path d="m175.285156 48.78125c0 5.53125-4.484375 10.015625-10.011718 10.015625-5.53125 0-10.015626-4.484375-10.015626-10.015625s4.484376-10.011719 10.015626-10.011719c5.527343 0 10.011718 4.480469 10.011718 10.011719zm0 0"/><path d="m217.824219 48.78125c0 5.53125-4.480469 10.015625-10.011719 10.015625s-10.015625-4.484375-10.015625-10.015625 4.484375-10.011719 10.015625-10.011719 10.011719 4.480469 10.011719 10.011719zm0 0"/><path d="m256 128.941406c-18.617188 0-33.761719 15.144532-33.761719 33.761719 0 18.613281 15.144531 33.761719 33.761719 33.761719s33.761719-15.148438 33.761719-33.761719c0-18.617187-15.144531-33.761719-33.761719-33.761719zm-18.761719 33.761719c0-7.679687 4.640625-14.285156 11.261719-17.1875v34.375c-6.621094-2.902344-11.261719-9.507813-11.261719-17.1875zm26.261719 17.1875v-34.375c6.621094 2.902344 11.261719 9.507813 11.261719 17.1875 0 7.675781-4.640625 14.285156-11.261719 17.1875zm0 0"/><path d="m256 230.945312c-18.617188 0-33.761719 15.144532-33.761719 33.757813 0 18.617187 15.144531 33.761719 33.761719 33.761719s33.761719-15.144532 33.761719-33.761719c0-18.613281-15.144531-33.757813-33.761719-33.757813zm-18.761719 33.757813c0-7.675781 4.640625-14.285156 11.261719-17.183594v34.371094c-6.621094-2.898437-11.261719-9.507813-11.261719-17.1875zm26.261719 17.1875v-34.371094c6.621094 2.902344 11.261719 9.507813 11.261719 17.183594 0 7.679687-4.640625 14.289063-11.261719 17.1875zm0 0"/></svg>