<svg height="511pt" viewBox="-29 0 511 511.99799" width="511pt" xmlns="http://www.w3.org/2000/svg"><path d="m386.773438 124.652344c.296874-3.25.457031-6.539063.457031-9.867188 0-59.226562-48.011719-107.242187-107.242188-107.242187-50.878906 0-93.480469 35.429687-104.480469 82.964843-5.519531-3.167968-11.914062-4.988281-18.734374-4.988281-17.917969 0-32.910157 12.507813-36.738282 29.265625h-8.964844c-56.664062 0-103.027343 46.363282-103.027343 103.027344 0 56.667969 46.363281 103.027344 103.027343 103.027344h231.851563c56.667969 0 103.027344-46.359375 103.027344-103.027344 0-41.003906-24.28125-76.609375-59.175781-93.160156zm0 0" fill="#91bcee"/><path d="m145.082031 87.375c2.480469.808594 4.855469 1.855469 7.082031 3.132812.375-1.628906.796876-3.242187 1.246094-4.839843-2.882812.253906-5.667968.839843-8.328125 1.707031zm0 0" fill="#4890e3"/><path d="m386.773438 124.652344c.296874-3.25.457031-6.539063.457031-9.867188 0-59.226562-48.011719-107.242187-107.242188-107.242187-3.917969 0-7.777343.234375-11.589843.644531 53.699218 5.855469 95.488281 51.34375 95.488281 106.597656 0 3.328125-.160157 6.617188-.457031 9.867188 34.894531 16.546875 59.175781 52.15625 59.175781 93.160156 0 56.667969-46.359375 103.027344-103.027344 103.027344h23.34375c56.667969 0 103.03125-46.359375 103.03125-103.027344-.003906-41.003906-24.285156-76.609375-59.179687-93.160156zm0 0" fill="#4890e3"/><path d="m257.019531 184.207031c-4.167969 0-7.542969-3.378906-7.542969-7.542969 0-7.527343-6.125-13.648437-13.648437-13.648437s-13.644531 6.121094-13.644531 13.648437c0 4.164063-3.378906 7.542969-7.546875 7.542969-4.164063 0-7.542969-3.378906-7.542969-7.542969 0-15.84375 12.890625-28.734374 28.734375-28.734374s28.734375 12.886718 28.734375 28.734374c0 4.164063-3.378906 7.542969-7.542969 7.542969zm0 0"/><path d="m284.628906 184.207031c-4.164062 0-7.542968-3.378906-7.542968-7.542969 0-22.75-18.507813-41.257812-41.257813-41.257812s-41.257813 18.507812-41.257813 41.257812c0 4.164063-3.375 7.542969-7.542968 7.542969-4.164063 0-7.542969-3.378906-7.542969-7.542969 0-31.070312 25.277344-56.347656 56.34375-56.347656 31.070313 0 56.34375 25.277344 56.34375 56.347656 0 4.164063-3.375 7.542969-7.542969 7.542969zm0 0"/><path d="m118.242188 214.441406h217.511718v290.015625h-217.511718zm0 0" fill="#fff4f1"/><path d="m312.40625 214.441406h23.347656v290.015625h-23.347656zm0 0" fill="#ecedef"/><g fill="#18191b"><path d="m453.496094 217.8125c0-40.714844-22.933594-78.488281-58.851563-97.640625.085938-1.8125.128907-3.609375.128907-5.386719 0-63.292968-51.492188-114.785156-114.785157-114.785156-26.09375 0-51.636719 8.992188-71.925781 25.324219-17.625 14.1875-30.730469 33.402343-37.523438 54.796875-4.433593-1.414063-9.078124-2.148438-13.765624-2.148438-19.164063 0-35.800782 11.769532-42.335938 29.269532h-3.367188c-7.277343 0-14.5625.71875-21.65625 2.144531-4.085937.816406-6.730468 4.792969-5.910156 8.878906.816406 4.082031 4.789063 6.730469 8.878906 5.910156 6.117188-1.226562 12.40625-1.847656 18.691407-1.847656h8.960937c3.519532 0 6.570313-2.433594 7.355469-5.863281 3.148437-13.78125 15.234375-23.402344 29.386719-23.402344 5.25 0 10.429687 1.378906 14.976562 3.984375 2.070313 1.191406 4.582032 1.328125 6.769532.375 2.191406-.957031 3.796874-2.890625 4.335937-5.214844 4.992187-21.578125 17.304687-41.15625 34.667969-55.132812 17.867187-14.382813 39.46875-21.988281 62.460937-21.988281 54.972657 0 99.699219 44.726562 99.699219 99.699218 0 3.003906-.144531 6.089844-.425781 9.179688-.285157 3.152344 1.421875 6.144531 4.28125 7.503906 33.328125 15.804688 54.863281 49.699219 54.863281 86.34375 0 52.527344-42.632812 95.28125-95.113281 95.480469v-98.855469c0-4.164062-3.375-7.542969-7.542969-7.542969h-217.507812c-4.164063 0-7.542969 3.378907-7.542969 7.542969v98.855469c-52.480469-.203125-95.113281-42.953125-95.113281-95.480469 0-34.457031 18.816406-66.402344 49.105468-83.378906 3.632813-2.035156 4.929688-6.632813 2.894532-10.265625-2.039063-3.636719-6.636719-4.929688-10.269532-2.894531-35.046875 19.640624-56.816406 56.632812-56.816406 96.539062 0 60.847656 49.398438 110.367188 110.199219 110.566406v52.078125c0 4.167969 3.378906 7.546875 7.542969 7.546875 4.167968 0 7.542968-3.378906 7.542968-7.546875v-158.476562h202.421875v274.929687h-202.421875v-83.804687c0-4.167969-3.375-7.546875-7.542968-7.546875-4.164063 0-7.542969 3.378906-7.542969 7.546875v91.347656c0 4.167969 3.378906 7.542969 7.542969 7.542969h217.507812c4.167969 0 7.542969-3.375 7.542969-7.542969v-176.070313c60.800781-.203124 110.203125-49.722656 110.203125-110.570312zm0 0"/><path d="m150.230469 279.558594h157.378906c4.164063 0 7.542969-3.378906 7.542969-7.546875 0-4.164063-3.378906-7.542969-7.542969-7.542969h-157.378906c-4.167969 0-7.542969 3.378906-7.542969 7.542969 0 4.167969 3.375 7.546875 7.542969 7.546875zm0 0"/><path d="m150.230469 328.09375h157.378906c4.164063 0 7.542969-3.378906 7.542969-7.542969 0-4.167969-3.378906-7.542969-7.542969-7.542969h-157.378906c-4.167969 0-7.542969 3.375-7.542969 7.542969 0 4.164063 3.375 7.542969 7.542969 7.542969zm0 0"/><path d="m150.230469 376.628906h157.378906c4.164063 0 7.542969-3.375 7.542969-7.542968 0-4.167969-3.378906-7.542969-7.542969-7.542969h-157.378906c-4.167969 0-7.542969 3.375-7.542969 7.542969 0 4.167968 3.375 7.542968 7.542969 7.542968zm0 0"/><path d="m150.230469 425.164062h157.378906c4.164063 0 7.542969-3.375 7.542969-7.542968 0-4.164063-3.378906-7.542969-7.542969-7.542969h-157.378906c-4.167969 0-7.542969 3.378906-7.542969 7.542969 0 4.167968 3.375 7.542968 7.542969 7.542968zm0 0"/><path d="m150.230469 473.703125h157.378906c4.164063 0 7.542969-3.378906 7.542969-7.542969 0-4.167968-3.378906-7.546875-7.542969-7.546875h-157.378906c-4.167969 0-7.542969 3.378907-7.542969 7.546875 0 4.164063 3.375 7.542969 7.542969 7.542969zm0 0"/></g></svg>