<svg height="512pt" viewBox="0 -4 512 512" width="512pt" xmlns="http://www.w3.org/2000/svg"><path d="m481.800781 52.40625c.113281-1.246094.171875-2.507812.171875-3.78125 0-22.703125-18.402344-41.105469-41.105468-41.105469-19.5 0-35.832032 13.578125-40.046876 31.796875-2.117187-1.214844-4.566406-1.910156-7.179687-1.910156-6.871094 0-12.613281 4.792969-14.082031 11.21875h-3.4375c-21.71875 0-39.492188 17.769531-39.492188 39.492188 0 21.71875 17.773438 39.488281 39.492188 39.488281h88.867187c21.722657 0 39.492188-17.769531 39.492188-39.488281 0-15.71875-9.304688-29.367188-22.679688-35.710938zm0 0" fill="#91bcee"/><path d="m481.800781 52.40625c.113281-1.246094.171875-2.507812.171875-3.78125 0-22.703125-18.402344-41.105469-41.105468-41.105469-4.183594 0-8.222657.628907-12.027344 1.789063 16.832031 5.144531 29.078125 20.796875 29.078125 39.316406 0 1.273438-.0625 2.535156-.175781 3.78125 13.375 6.34375 22.683593 19.992188 22.683593 35.710938 0 21.71875-17.769531 39.488281-39.492187 39.488281h24.058594c21.71875 0 39.492187-17.769531 39.492187-39.488281-.003906-15.71875-9.308594-29.367188-22.683594-35.710938zm0 0" fill="#4890e3"/><path d="m170.449219 165.25h162.84375v331.765625h-162.84375zm0 0" fill="#686869"/><path d="m310.238281 165.25h23.054688v331.765625h-23.054688zm0 0" fill="#4b4b4b"/><path d="m170.449219 264.085938h162.84375v116.25h-162.84375zm0 0" fill="#d0cfd1"/><path d="m310.238281 264.085938h23.054688v116.25h-23.054688zm0 0" fill="#9c9b9d"/><path d="m170.449219 424.140625h162.84375v34.621094h-162.84375zm0 0" fill="#f9cd45"/><path d="m311.171875 424.140625h22.121094v34.621094h-22.121094zm0 0" fill="#f8b53c"/><path d="m263.226562 213.257812c0 7.039063-5.707031 12.746094-12.746093 12.746094-7.039063 0-12.746094-5.707031-12.746094-12.746094 0-7.039062 5.707031-12.746093 12.746094-12.746093 7.039062 0 12.746093 5.707031 12.746093 12.746093zm0 0" fill="#d0cfd1"/><path d="m311.171875 213.257812c0 7.039063-5.707031 12.746094-12.746094 12.746094-7.039062 0-12.746093-5.707031-12.746093-12.746094 0-7.039062 5.707031-12.746093 12.746093-12.746093 7.039063 0 12.746094 5.707031 12.746094 12.746093zm0 0" fill="#d0cfd1"/><path d="m216.050781 213.257812c0 7.039063-5.707031 12.746094-12.746093 12.746094-7.039063 0-12.746094-5.707031-12.746094-12.746094 0-7.039062 5.707031-12.746093 12.746094-12.746093 7.039062 0 12.746093 5.707031 12.746093 12.746093zm0 0" fill="#d0cfd1"/><path d="m7.519531 165.25h162.84375v331.765625h-162.84375zm0 0" fill="#686869"/><path d="m147.308594 165.25h23.054687v331.765625h-23.054687zm0 0" fill="#4b4b4b"/><path d="m7.519531 264.085938h162.84375v116.25h-162.84375zm0 0" fill="#d0cfd1"/><path d="m147.308594 264.085938h23.054687v116.25h-23.054687zm0 0" fill="#9c9b9d"/><path d="m7.519531 424.140625h162.84375v34.621094h-162.84375zm0 0" fill="#f45a3c"/><path d="m148.238281 424.140625h22.125v34.621094h-22.125zm0 0" fill="#e24a2a"/><path d="m100.296875 213.257812c0 7.039063-5.707031 12.746094-12.746094 12.746094-7.039062 0-12.746093-5.707031-12.746093-12.746094 0-7.039062 5.707031-12.746093 12.746093-12.746093 7.039063 0 12.746094 5.707031 12.746094 12.746093zm0 0" fill="#d0cfd1"/><path d="m148.238281 213.257812c0 7.039063-5.707031 12.746094-12.746093 12.746094-7.039063 0-12.746094-5.707031-12.746094-12.746094 0-7.039062 5.707031-12.746093 12.746094-12.746093 7.039062 0 12.746093 5.707031 12.746093 12.746093zm0 0" fill="#d0cfd1"/><path d="m53.121094 213.257812c0 7.039063-5.707032 12.746094-12.746094 12.746094-7.042969 0-12.746094-5.707031-12.746094-12.746094 0-7.039062 5.703125-12.746093 12.746094-12.746093 7.039062 0 12.746094 5.707031 12.746094 12.746093zm0 0" fill="#d0cfd1"/><g fill="#18191b"><path d="m489.488281 48.039062c-.316406-26.542968-22.003906-48.039062-48.621093-48.039062-20.054688 0-37.558594 12.003906-44.949219 30.007812-.753907-.082031-1.515625-.121093-2.277344-.121093-8.175781 0-15.40625 4.414062-19.195313 11.25-25.148437.882812-45.332031 21.617187-45.332031 46.980469 0 25.917968 21.085938 47.007812 47.007813 47.007812h12.171875c4.152343 0 7.515625-3.367188 7.515625-7.519531 0-4.152344-3.363282-7.515625-7.515625-7.515625h-12.171875c-17.628906 0-31.972656-14.34375-31.972656-31.972656 0-17.632813 14.34375-31.976563 31.972656-31.976563h3.4375c3.503906 0 6.546875-2.421875 7.328125-5.839844.710937-3.117187 3.550781-5.378906 6.753906-5.378906 1.222656 0 2.378906.308594 3.4375.914063 2.066406 1.1875 4.566406 1.324218 6.746094.375 2.179687-.953126 3.78125-2.878907 4.320312-5.199219 3.539063-15.292969 16.996094-25.976563 32.722657-25.976563 18.519531 0 33.589843 15.066406 33.589843 33.589844 0 1.011719-.050781 2.054688-.144531 3.097656-.285156 3.140625 1.417969 6.125 4.265625 7.476563 11.167969 5.296875 18.386719 16.648437 18.386719 28.917969 0 17.628906-14.34375 31.972656-31.972656 31.972656h-46.519532c-4.152344 0-7.515625 3.363281-7.515625 7.515625 0 4.152343 3.363281 7.519531 7.515625 7.519531h46.519532c25.921874 0 47.007812-21.089844 47.007812-47.007812 0-16.347657-8.691406-31.578126-22.511719-40.078126zm0 0"/><path d="m333.292969 157.734375h-162.84375c-.015625 0-.027344 0-.042969 0s-.027344 0-.042969 0h-60.957031c-4.152344 0-7.519531 3.367187-7.519531 7.515625 0 4.152344 3.367187 7.519531 7.519531 7.519531h53.441406v83.796875h-147.8125v-83.796875h64.1875c4.15625 0 7.519532-3.367187 7.519532-7.519531 0-4.148438-3.363282-7.515625-7.519532-7.515625h-71.703125c-4.15625 0-7.519531 3.367187-7.519531 7.515625v331.761719c0 4.152343 3.363281 7.519531 7.519531 7.519531h162.84375.042969.042969 162.84375c4.152343 0 7.515625-3.367188 7.515625-7.519531v-331.761719c.003906-4.148438-3.363282-7.515625-7.515625-7.515625zm-7.515625 293.511719h-147.808594v-19.585938h147.808594zm0-78.425782h-147.808594v-23.714843h147.808594zm0-38.75h-147.808594v-23.71875h147.808594zm0-38.753906h-147.808594v-23.714844h147.808594zm-162.933594 38.753906h-147.808594v-23.71875h147.808594zm0 15.035157v23.714843h-147.808594v-23.714843zm0 38.75v28.769531h-147.808594v-28.769531zm-147.808594 43.804687h147.808594v19.585938h-147.808594zm162.933594-15.035156v-28.769531h147.808594v28.769531zm147.808594-243.855469v83.796875h-147.808594v-83.796875zm-162.933594 98.832031v23.714844h-147.808594v-23.714844zm-147.808594 217.894532v-23.214844h147.808594v23.214844zm162.933594 0v-23.214844h147.808594v23.214844zm0 0"/><path d="m250.484375 233.519531c11.171875 0 20.261719-9.089843 20.261719-20.261719 0-11.175781-9.089844-20.265624-20.261719-20.265624-11.175781 0-20.265625 9.089843-20.265625 20.265624 0 11.171876 9.089844 20.261719 20.265625 20.261719zm0-25.488281c2.882813 0 5.226563 2.34375 5.226563 5.226562 0 2.882813-2.34375 5.230469-5.226563 5.230469s-5.230469-2.347656-5.230469-5.230469c0-2.882812 2.347656-5.226562 5.230469-5.226562zm0 0"/><path d="m298.425781 233.519531c11.171875 0 20.261719-9.089843 20.261719-20.261719 0-11.175781-9.085938-20.265624-20.261719-20.265624s-20.265625 9.089843-20.265625 20.265624c0 11.171876 9.089844 20.261719 20.265625 20.261719zm0-25.488281c2.882813 0 5.226563 2.34375 5.226563 5.226562 0 2.882813-2.34375 5.230469-5.226563 5.230469-2.882812 0-5.230469-2.347656-5.230469-5.230469 0-2.882812 2.347657-5.226562 5.230469-5.226562zm0 0"/><path d="m203.304688 233.519531c11.171874 0 20.261718-9.089843 20.261718-20.261719 0-11.175781-9.085937-20.265624-20.261718-20.265624-11.175782 0-20.265626 9.089843-20.265626 20.265624 0 11.171876 9.09375 20.261719 20.265626 20.261719zm0-25.488281c2.882812 0 5.226562 2.34375 5.226562 5.226562 0 2.882813-2.34375 5.230469-5.226562 5.230469-2.882813 0-5.230469-2.347656-5.230469-5.230469 0-2.882812 2.347656-5.226562 5.230469-5.226562zm0 0"/><path d="m67.285156 213.257812c0 11.171876 9.089844 20.261719 20.265625 20.261719s20.265625-9.089843 20.265625-20.261719c0-11.175781-9.089844-20.265624-20.265625-20.265624s-20.265625 9.089843-20.265625 20.265624zm20.265625-5.226562c2.882813 0 5.226563 2.34375 5.226563 5.226562 0 2.882813-2.34375 5.230469-5.226563 5.230469-2.882812 0-5.226562-2.347656-5.226562-5.230469 0-2.882812 2.34375-5.226562 5.226562-5.226562zm0 0"/><path d="m155.757812 213.257812c0-11.175781-9.089843-20.265624-20.265624-20.265624-11.171876 0-20.261719 9.089843-20.261719 20.265624 0 11.171876 9.089843 20.261719 20.261719 20.261719 11.175781 0 20.265624-9.089843 20.265624-20.261719zm-25.492187 0c0-2.882812 2.347656-5.230468 5.226563-5.230468 2.882812 0 5.230468 2.347656 5.230468 5.230468 0 2.882813-2.347656 5.226563-5.230468 5.226563-2.878907 0-5.226563-2.34375-5.226563-5.226563zm0 0"/><path d="m20.109375 213.257812c0 11.171876 9.089844 20.261719 20.265625 20.261719 11.171875 0 20.261719-9.089843 20.261719-20.261719 0-11.175781-9.089844-20.265624-20.261719-20.265624-11.175781 0-20.265625 9.089843-20.265625 20.265624zm25.492187 0c0 2.882813-2.347656 5.226563-5.230468 5.226563-2.882813 0-5.226563-2.34375-5.226563-5.226563 0-2.882812 2.34375-5.230468 5.226563-5.230468 2.882812 0 5.230468 2.347656 5.230468 5.230468zm0 0"/><path d="m444.917969 148.601562c-1.652344-3.007812-5.132813-4.515624-8.457031-3.664062-3.324219.855469-5.648438 3.851562-5.648438 7.285156 0 21.273438-6.730469 41.488282-19.460938 58.457032-12.316406 16.417968-29.839843 28.765624-49.34375 34.765624-3.96875 1.21875-6.199218 5.425782-4.976562 9.394532.992188 3.234375 3.96875 5.3125 7.183594 5.3125.730468 0 1.476562-.109375 2.210937-.335938 22.519531-6.925781 42.746094-21.171875 56.953125-40.109375 9.710938-12.945312 16.394532-27.519531 19.816406-43l4.082032 7.433594c1.996094 3.636719 6.566406 4.96875 10.207031 2.96875 3.640625-1.996094 4.96875-6.566406 2.972656-10.207031zm0 0"/><path d="m222.148438 141.277344c1.132812 2.914062 3.933593 4.789062 7 4.789062.300781 0 .605468-.019531.90625-.054687 3.40625-.414063 6.101562-3.082031 6.550781-6.484375 2.769531-21.097656 12.070312-40.265625 26.902343-55.429688 14.347657-14.675781 33.332032-24.636718 53.453126-28.046875 4.09375-.691406 6.847656-4.574219 6.15625-8.667969-.691407-4.09375-4.574219-6.847656-8.667969-6.15625-23.230469 3.9375-45.136719 15.429688-61.691407 32.355469-11.3125 11.570313-19.835937 25.152344-25.242187 40.054688l-3.078125-7.898438c-1.507812-3.871093-5.863281-5.785156-9.734375-4.277343-3.867187 1.507812-5.785156 5.867187-4.277344 9.734374zm0 0"/></g></svg>